M48
; DRILL file {KiCad (5.1.9)-1} date 03/26/21 15:37:04
; FORMAT={-:-/ absolute / metric / decimal}
; #@! TF.CreationDate,2021-03-26T15:37:04-04:00
; #@! TF.GenerationSoftware,Kicad,Pcbnew,(5.1.9)-1
; #@! TF.FileFunction,Plated,1,2,PTH
FMAT,2
METRIC
T1C0.450
T2C0.500
T3C0.550
T4C0.600
T5C0.850
T6C0.900
T7C1.000
T8C1.300
T9C1.450
T10C1.600
T11C2.950
%
G90
G05
T1
X53.2Y-133.0
X53.8Y-128.5
X53.8Y-130.8
X53.8Y-134.1
X57.7Y-95.1
X58.85Y-102.2
X60.0Y-140.2
X60.2Y-100.95
X61.0Y-141.0
X61.4Y-100.5
X62.0Y-97.0
X62.0Y-140.2
X62.2Y-108.4
X62.2Y-105.8
X62.6Y-99.6
X63.0Y-135.8
X63.0Y-141.0
X63.1Y-105.0
X63.6Y-74.1
X63.6Y-106.2
X63.725Y-98.097
X64.2Y-118.6
X64.2Y-121.0
X64.9Y-95.1
X64.95Y-97.05
X66.0Y-114.8
X69.0Y-102.2
X69.2Y-52.4
X81.4Y-56.0
X86.4Y-56.0
X90.2Y-96.1
X92.0Y-56.0
X92.0Y-61.4
X93.19Y-54.8
X93.2Y-57.2
X93.2Y-64.4
X93.6Y-113.9
X93.6Y-117.4
X94.8Y-100.1
X95.0Y-113.9
X95.0Y-117.5
X96.3Y-113.8
X96.3Y-117.7
X96.5Y-85.3
X97.6Y-113.9
X97.6Y-117.4
X102.9Y-101.9
X102.9Y-111.0
X104.2Y-100.7
X104.2Y-109.7
X105.2Y-124.3
X105.4Y-98.0
X105.4Y-108.5
X106.7Y-96.8
X106.7Y-107.2
X107.9Y-95.7
X107.9Y-106.0
X109.2Y-94.5
X109.2Y-104.8
X110.48Y-94.02
X110.5Y-108.7
X110.5Y-116.9
X111.8Y-93.2
X111.8Y-107.9
X111.8Y-116.1
X113.0Y-107.0
X113.0Y-115.3
X113.02Y-93.98
X113.3Y-132.1
X114.17Y-114.452
X114.2Y-93.2
X114.2Y-106.2
X114.3Y-131.1
X114.7Y-115.5
X114.7Y-123.1
X115.1Y-104.8
X115.1Y-109.5
X115.5Y-132.1
X115.6Y-94.0
X115.6Y-101.5
X115.8Y-122.2
X116.0Y-115.5
X116.8Y-123.1
X116.9Y-93.2
X116.9Y-100.5
X117.0Y-57.4
X117.8Y-54.2
X117.8Y-56.2
X118.1Y-94.0
X118.1Y-99.3
X118.6Y-55.2
X119.4Y-93.2
X119.4Y-98.0
X119.8Y-59.6
X120.6Y-58.4
X120.6Y-96.8
X120.64Y-93.96
X121.4Y-57.2
X121.9Y-93.2
X121.9Y-95.8
X122.0Y-54.2
X122.3Y-125.4
X122.3Y-132.7
X123.3Y-126.2
X123.3Y-133.5
X124.3Y-127.0
X124.3Y-132.7
X125.3Y-133.5
X125.34Y-127.8
X126.3Y-128.6
X126.3Y-132.7
X126.8Y-93.9
X127.3Y-129.4
X127.3Y-133.5
X131.5Y-118.8
X132.8Y-119.0
X134.1Y-119.4
X140.1Y-117.2
X140.1Y-119.4
X141.0Y-118.3
X162.2Y-124.3
X164.0Y-107.0
T2
X52.9Y-129.7
X53.2Y-125.2
X53.2Y-139.6
X57.4Y-103.8
X58.3Y-139.6
X59.0Y-124.7
X67.6Y-98.8
X68.575Y-125.325
X68.9Y-141.1
X80.0Y-134.9
X84.4Y-59.8
X87.4Y-71.8
X87.4Y-73.0
X87.4Y-74.2
X87.4Y-80.2
X88.6Y-70.6
X88.6Y-71.8
X88.6Y-73.0
X88.6Y-74.2
X88.6Y-80.2
X88.6Y-81.4
X89.8Y-70.6
X89.8Y-71.8
X89.8Y-73.0
X89.8Y-74.2
X89.8Y-80.2
X89.8Y-81.4
X91.0Y-70.6
X91.0Y-71.8
X91.0Y-73.0
X91.0Y-74.2
X91.0Y-80.2
X91.0Y-81.4
X92.2Y-70.6
X92.2Y-71.8
X92.2Y-73.0
X92.2Y-74.2
X92.2Y-75.4
X92.2Y-76.6
X92.2Y-77.8
X92.2Y-79.0
X92.2Y-80.2
X92.2Y-81.4
X93.4Y-71.8
X93.4Y-73.0
X93.4Y-74.2
X93.4Y-75.4
X93.4Y-76.6
X93.4Y-77.8
X93.4Y-79.0
X93.4Y-80.2
X95.8Y-54.2
X100.6Y-55.9
X108.7Y-80.1
X109.3Y-146.3
X116.5Y-64.5
X118.4Y-70.6
X118.4Y-78.6
X165.6Y-101.4
X165.6Y-102.2
T4
X57.4Y-108.4
X59.2Y-92.6
X60.1Y-92.6
X63.61Y-85.91
X64.36Y-85.16
X66.0Y-72.6
X66.0Y-74.0
X66.0Y-75.4
X67.2Y-72.6
X67.2Y-74.0
X67.2Y-75.4
X69.4Y-86.6
X72.5Y-89.6
X73.0Y-88.7
X75.4Y-78.4
X78.6Y-63.4
X80.2Y-101.6
X83.95Y-72.75
X88.3Y-64.7
X90.5Y-103.9
X98.3Y-98.0
X99.4Y-118.4
X100.0Y-116.0
X102.1Y-129.9
X104.5Y-134.2
X121.0Y-64.5
X121.2Y-104.0
X121.2Y-113.0
X121.2Y-121.8
X129.2Y-95.4
X129.2Y-115.2
X129.2Y-131.7
X129.7Y-123.5
X130.9Y-102.3
X148.0Y-100.1
X150.2Y-114.0
X150.2Y-116.6
T6
X54.575Y-114.53
X54.575Y-117.07
X54.575Y-119.53
X54.575Y-122.07
X57.115Y-114.53
X57.115Y-117.07
X57.115Y-119.53
X57.115Y-122.07
T7
X53.0Y-75.7
X53.0Y-80.2
X53.0Y-87.7
X53.0Y-92.2
X62.0Y-87.52
X62.0Y-90.06
X62.0Y-92.6
X66.0Y-55.1
X66.0Y-57.64
X70.4Y-90.0
X70.4Y-92.54
X72.3Y-97.0
X72.3Y-99.54
X72.3Y-102.08
X72.3Y-104.62
X72.3Y-107.16
X73.4Y-55.18
X73.4Y-57.72
X73.4Y-60.26
X73.4Y-62.8
X80.0Y-87.62
X80.0Y-90.16
X80.0Y-138.46
X80.0Y-141.0
X82.5Y-147.5
X82.54Y-87.62
X82.54Y-90.16
X82.54Y-138.46
X82.54Y-141.0
X85.04Y-147.5
X85.08Y-87.62
X85.08Y-90.16
X85.08Y-138.46
X85.08Y-141.0
X87.58Y-147.5
X87.62Y-87.62
X87.62Y-90.16
X87.62Y-138.46
X87.62Y-141.0
X90.12Y-147.5
X90.16Y-87.62
X90.16Y-90.16
X90.16Y-138.46
X90.16Y-141.0
X92.66Y-147.5
X92.7Y-87.62
X92.7Y-90.16
X92.7Y-138.46
X92.7Y-141.0
X95.2Y-147.5
X95.24Y-87.62
X95.24Y-90.16
X95.24Y-138.46
X95.24Y-141.0
X97.5Y-73.0
X97.5Y-75.54
X97.74Y-147.5
X97.78Y-87.62
X97.78Y-90.16
X97.78Y-138.46
X97.78Y-141.0
X100.28Y-147.5
X100.32Y-87.62
X100.32Y-90.16
X100.32Y-138.46
X100.32Y-141.0
X102.82Y-147.5
X102.86Y-87.62
X102.86Y-90.16
X102.86Y-138.46
X102.86Y-141.0
X105.36Y-147.5
X105.4Y-87.62
X105.4Y-90.16
X105.4Y-138.46
X105.4Y-141.0
X105.5Y-70.5
X105.5Y-73.04
X105.5Y-75.58
X105.5Y-78.12
X105.5Y-80.66
X107.94Y-87.62
X107.94Y-90.16
X107.94Y-138.46
X107.94Y-141.0
X110.48Y-87.62
X110.48Y-90.16
X110.48Y-138.46
X110.48Y-141.0
X113.02Y-87.62
X113.02Y-90.16
X113.02Y-138.46
X113.02Y-141.0
X115.56Y-87.62
X115.56Y-90.16
X115.56Y-138.46
X115.56Y-141.0
X118.1Y-87.62
X118.1Y-90.16
X118.1Y-138.46
X118.1Y-141.0
X120.64Y-87.62
X120.64Y-90.16
X120.64Y-138.46
X120.64Y-141.0
X121.6Y-147.5
X123.16Y-82.0
X123.18Y-87.62
X123.18Y-90.16
X123.18Y-138.46
X123.18Y-141.0
X124.14Y-147.5
X125.7Y-82.0
X125.72Y-87.62
X125.72Y-90.16
X125.72Y-138.46
X125.72Y-141.0
X128.24Y-82.0
X128.26Y-87.62
X128.26Y-90.16
X128.26Y-138.46
X128.26Y-141.0
X129.16Y-147.5
X130.78Y-82.0
X130.8Y-87.62
X130.8Y-90.16
X130.8Y-138.46
X130.8Y-141.0
X131.7Y-147.5
X133.32Y-82.0
X133.34Y-87.62
X133.34Y-90.16
X133.34Y-138.46
X133.34Y-141.0
X135.86Y-82.0
X135.88Y-87.62
X135.88Y-90.16
X135.88Y-138.46
X135.88Y-141.0
X138.4Y-82.0
X138.42Y-87.62
X138.42Y-90.16
X138.42Y-138.46
X138.42Y-141.0
X140.94Y-82.0
X140.96Y-87.62
X140.96Y-90.16
X140.96Y-138.46
X140.96Y-141.0
X143.48Y-82.0
X146.02Y-82.0
X150.0Y-132.5
X153.0Y-129.4
X153.4Y-102.0
X158.5Y-107.0
X158.5Y-110.0
X158.5Y-113.0
X158.5Y-116.2
X158.5Y-119.4
X158.6Y-129.4
T8
X55.49Y-74.44
X55.49Y-81.45
X55.49Y-86.44
X55.49Y-93.45
T9
X59.2Y-59.36
X74.44Y-130.48
X160.8Y-69.52
X160.8Y-135.56
T10
X55.0Y-66.0
X58.0Y-70.7
X61.0Y-66.0
T11
X64.28Y-33.96
X64.28Y-166.04
X150.64Y-166.04
X160.8Y-33.96
T3
G00X52.175Y-98.125
M15
G01X51.525Y-98.125
M16
G05
G00X52.175Y-105.875
M15
G01X51.525Y-105.875
M16
G05
T5
G00X55.925Y-98.275
M15
G01X55.375Y-98.275
M16
G05
G00X55.925Y-105.725
M15
G01X55.375Y-105.725
M16
G05
T0
M30
