%TF.GenerationSoftware,KiCad,Pcbnew,(5.1.9)-1*%
%TF.CreationDate,2021-03-26T15:36:56-04:00*%
%TF.ProjectId,hd6309sbc_v2c,68643633-3039-4736-9263-5f7632632e6b,1*%
%TF.SameCoordinates,Original*%
%TF.FileFunction,Soldermask,Bot*%
%TF.FilePolarity,Negative*%
%FSLAX46Y46*%
G04 Gerber Fmt 4.6, Leading zero omitted, Abs format (unit mm)*
G04 Created by KiCad (PCBNEW (5.1.9)-1) date 2021-03-26 15:36:56*
%MOMM*%
%LPD*%
G01*
G04 APERTURE LIST*
%ADD10C,2.175000*%
%ADD11C,3.966010*%
%ADD12O,1.700000X1.700000*%
%ADD13R,1.700000X1.700000*%
%ADD14R,2.000000X2.000000*%
%ADD15C,1.408000*%
%ADD16R,1.408000X1.408000*%
%ADD17C,2.600000*%
%ADD18R,2.600000X2.600000*%
%ADD19O,0.800000X0.800000*%
%ADD20O,1.800000X1.150000*%
%ADD21O,2.000000X1.450000*%
%ADD22C,4.300000*%
%ADD23C,1.500000*%
%ADD24C,2.100000*%
%ADD25C,1.750000*%
G04 APERTURE END LIST*
D10*
%TO.C,RS4*%
X74440000Y-130480000D03*
%TD*%
%TO.C,RS1*%
X59200000Y-59360000D03*
%TD*%
%TO.C,RS2*%
X160800000Y-69520000D03*
%TD*%
%TO.C,RS3*%
X160800000Y-135560000D03*
%TD*%
D11*
%TO.C,RL4*%
X64280000Y-166040000D03*
%TD*%
%TO.C,RL3*%
X150640000Y-166040000D03*
%TD*%
%TO.C,RL2*%
X160800000Y-33960000D03*
%TD*%
%TO.C,RL1*%
X64280000Y-33960000D03*
%TD*%
D12*
%TO.C,J15*%
X72300000Y-107160000D03*
X72300000Y-104620000D03*
X72300000Y-102080000D03*
X72300000Y-99540000D03*
D13*
X72300000Y-97000000D03*
%TD*%
D12*
%TO.C,J11*%
X97500000Y-75540000D03*
D13*
X97500000Y-73000000D03*
%TD*%
D12*
%TO.C,J2*%
X146020000Y-82000000D03*
X143480000Y-82000000D03*
X140940000Y-82000000D03*
X138400000Y-82000000D03*
X135860000Y-82000000D03*
X133320000Y-82000000D03*
X130780000Y-82000000D03*
X128240000Y-82000000D03*
X125700000Y-82000000D03*
D13*
X123160000Y-82000000D03*
%TD*%
D12*
%TO.C,J1*%
X105360000Y-147500000D03*
X102820000Y-147500000D03*
X100280000Y-147500000D03*
X97740000Y-147500000D03*
X95200000Y-147500000D03*
X92660000Y-147500000D03*
X90120000Y-147500000D03*
X87580000Y-147500000D03*
X85040000Y-147500000D03*
D13*
X82500000Y-147500000D03*
%TD*%
D12*
%TO.C,J13*%
X131700000Y-147500000D03*
D13*
X129160000Y-147500000D03*
%TD*%
D12*
%TO.C,J12*%
X124140000Y-147500000D03*
D13*
X121600000Y-147500000D03*
%TD*%
D14*
%TO.C,TP8*%
X158600000Y-129400000D03*
%TD*%
D12*
%TO.C,J10*%
X105500000Y-80660000D03*
X105500000Y-78120000D03*
X105500000Y-75580000D03*
X105500000Y-73040000D03*
D13*
X105500000Y-70500000D03*
%TD*%
D12*
%TO.C,QM2*%
X140960000Y-87620000D03*
X140960000Y-90160000D03*
X138420000Y-87620000D03*
X138420000Y-90160000D03*
X135880000Y-87620000D03*
X135880000Y-90160000D03*
X133340000Y-87620000D03*
X133340000Y-90160000D03*
X130800000Y-87620000D03*
X130800000Y-90160000D03*
X128260000Y-87620000D03*
X128260000Y-90160000D03*
X125720000Y-87620000D03*
X125720000Y-90160000D03*
X123180000Y-87620000D03*
X123180000Y-90160000D03*
X120640000Y-87620000D03*
X120640000Y-90160000D03*
X118100000Y-87620000D03*
X118100000Y-90160000D03*
X115560000Y-87620000D03*
X115560000Y-90160000D03*
X113020000Y-87620000D03*
X113020000Y-90160000D03*
X110480000Y-87620000D03*
X110480000Y-90160000D03*
X107940000Y-87620000D03*
X107940000Y-90160000D03*
X105400000Y-87620000D03*
X105400000Y-90160000D03*
X102860000Y-87620000D03*
X102860000Y-90160000D03*
X100320000Y-87620000D03*
X100320000Y-90160000D03*
X97780000Y-87620000D03*
X97780000Y-90160000D03*
X95240000Y-87620000D03*
X95240000Y-90160000D03*
X92700000Y-87620000D03*
X92700000Y-90160000D03*
X90160000Y-87620000D03*
X90160000Y-90160000D03*
X87620000Y-87620000D03*
X87620000Y-90160000D03*
X85080000Y-87620000D03*
X85080000Y-90160000D03*
X82540000Y-87620000D03*
X82540000Y-90160000D03*
X80000000Y-87620000D03*
D13*
X80000000Y-90160000D03*
%TD*%
D15*
%TO.C,D2*%
X57115000Y-114530000D03*
X54575000Y-117070000D03*
X54575000Y-114530000D03*
D16*
X57115000Y-117070000D03*
%TD*%
D12*
%TO.C,QM1*%
X140960000Y-138460000D03*
X140960000Y-141000000D03*
X138420000Y-138460000D03*
X138420000Y-141000000D03*
X135880000Y-138460000D03*
X135880000Y-141000000D03*
X133340000Y-138460000D03*
X133340000Y-141000000D03*
X130800000Y-138460000D03*
X130800000Y-141000000D03*
X128260000Y-138460000D03*
X128260000Y-141000000D03*
X125720000Y-138460000D03*
X125720000Y-141000000D03*
X123180000Y-138460000D03*
X123180000Y-141000000D03*
X120640000Y-138460000D03*
X120640000Y-141000000D03*
X118100000Y-138460000D03*
X118100000Y-141000000D03*
X115560000Y-138460000D03*
X115560000Y-141000000D03*
X113020000Y-138460000D03*
X113020000Y-141000000D03*
X110480000Y-138460000D03*
X110480000Y-141000000D03*
X107940000Y-138460000D03*
X107940000Y-141000000D03*
X105400000Y-138460000D03*
X105400000Y-141000000D03*
X102860000Y-138460000D03*
X102860000Y-141000000D03*
X100320000Y-138460000D03*
X100320000Y-141000000D03*
X97780000Y-138460000D03*
X97780000Y-141000000D03*
X95240000Y-138460000D03*
X95240000Y-141000000D03*
X92700000Y-138460000D03*
X92700000Y-141000000D03*
X90160000Y-138460000D03*
X90160000Y-141000000D03*
X87620000Y-138460000D03*
X87620000Y-141000000D03*
X85080000Y-138460000D03*
X85080000Y-141000000D03*
X82540000Y-138460000D03*
X82540000Y-141000000D03*
X80000000Y-138460000D03*
D13*
X80000000Y-141000000D03*
%TD*%
D14*
%TO.C,TP7*%
X158500000Y-116200000D03*
%TD*%
D12*
%TO.C,J8*%
X70400000Y-92540000D03*
D13*
X70400000Y-90000000D03*
%TD*%
D14*
%TO.C,TP15*%
X153400000Y-102000000D03*
%TD*%
%TO.C,TP14*%
X158500000Y-110000000D03*
%TD*%
%TO.C,TP13*%
X153000000Y-129400000D03*
%TD*%
%TO.C,TP12*%
X150000000Y-132500000D03*
%TD*%
%TO.C,TP11*%
X158500000Y-113000000D03*
%TD*%
%TO.C,TP2*%
X158500000Y-107000000D03*
%TD*%
%TO.C,TP1*%
X158500000Y-119400000D03*
%TD*%
D12*
%TO.C,J9*%
X66000000Y-57640000D03*
D13*
X66000000Y-55100000D03*
%TD*%
D17*
%TO.C,J3*%
X58000000Y-70700000D03*
X55000000Y-66000000D03*
D18*
X61000000Y-66000000D03*
%TD*%
D19*
%TO.C,J4*%
X54600000Y-104500000D03*
X54600000Y-99500000D03*
D20*
X51850000Y-105875000D03*
X51850000Y-98125000D03*
D21*
X55650000Y-105725000D03*
X55650000Y-98275000D03*
%TD*%
%TO.C,C28*%
G36*
G01*
X58743750Y-107087500D02*
X59656250Y-107087500D01*
G75*
G02*
X59900000Y-107331250I0J-243750D01*
G01*
X59900000Y-107818750D01*
G75*
G02*
X59656250Y-108062500I-243750J0D01*
G01*
X58743750Y-108062500D01*
G75*
G02*
X58500000Y-107818750I0J243750D01*
G01*
X58500000Y-107331250D01*
G75*
G02*
X58743750Y-107087500I243750J0D01*
G01*
G37*
G36*
G01*
X58743750Y-105212500D02*
X59656250Y-105212500D01*
G75*
G02*
X59900000Y-105456250I0J-243750D01*
G01*
X59900000Y-105943750D01*
G75*
G02*
X59656250Y-106187500I-243750J0D01*
G01*
X58743750Y-106187500D01*
G75*
G02*
X58500000Y-105943750I0J243750D01*
G01*
X58500000Y-105456250D01*
G75*
G02*
X58743750Y-105212500I243750J0D01*
G01*
G37*
%TD*%
%TO.C,R28*%
G36*
G01*
X58743750Y-111112500D02*
X59656250Y-111112500D01*
G75*
G02*
X59900000Y-111356250I0J-243750D01*
G01*
X59900000Y-111843750D01*
G75*
G02*
X59656250Y-112087500I-243750J0D01*
G01*
X58743750Y-112087500D01*
G75*
G02*
X58500000Y-111843750I0J243750D01*
G01*
X58500000Y-111356250D01*
G75*
G02*
X58743750Y-111112500I243750J0D01*
G01*
G37*
G36*
G01*
X58743750Y-109237500D02*
X59656250Y-109237500D01*
G75*
G02*
X59900000Y-109481250I0J-243750D01*
G01*
X59900000Y-109968750D01*
G75*
G02*
X59656250Y-110212500I-243750J0D01*
G01*
X58743750Y-110212500D01*
G75*
G02*
X58500000Y-109968750I0J243750D01*
G01*
X58500000Y-109481250D01*
G75*
G02*
X58743750Y-109237500I243750J0D01*
G01*
G37*
%TD*%
D15*
%TO.C,D1*%
X57115000Y-119530000D03*
X54575000Y-122070000D03*
X54575000Y-119530000D03*
D16*
X57115000Y-122070000D03*
%TD*%
D22*
%TO.C,H1*%
X55000000Y-55000000D03*
%TD*%
%TO.C,H2*%
X55000000Y-145000000D03*
%TD*%
%TO.C,H3*%
X165000000Y-55000000D03*
%TD*%
%TO.C,H4*%
X165000000Y-145000000D03*
%TD*%
D13*
%TO.C,J7*%
X73400000Y-62800000D03*
D12*
X73400000Y-60260000D03*
X73400000Y-57720000D03*
X73400000Y-55180000D03*
%TD*%
%TO.C,JP3*%
X62000000Y-87520000D03*
X62000000Y-90060000D03*
D13*
X62000000Y-92600000D03*
%TD*%
D23*
%TO.C,TP3*%
X61500000Y-103000000D03*
%TD*%
D24*
%TO.C,SW1*%
X55490000Y-81450000D03*
D25*
X53000000Y-80200000D03*
X53000000Y-75700000D03*
D24*
X55490000Y-74440000D03*
%TD*%
%TO.C,SW2*%
X55490000Y-86440000D03*
D25*
X53000000Y-87700000D03*
X53000000Y-92200000D03*
D24*
X55490000Y-93450000D03*
%TD*%
M02*
