%TF.GenerationSoftware,KiCad,Pcbnew,(5.1.9)-1*%
%TF.CreationDate,2021-03-26T15:36:56-04:00*%
%TF.ProjectId,hd6309sbc_v2c,68643633-3039-4736-9263-5f7632632e6b,1*%
%TF.SameCoordinates,Original*%
%TF.FileFunction,Legend,Bot*%
%TF.FilePolarity,Positive*%
%FSLAX46Y46*%
G04 Gerber Fmt 4.6, Leading zero omitted, Abs format (unit mm)*
G04 Created by KiCad (PCBNEW (5.1.9)-1) date 2021-03-26 15:36:56*
%MOMM*%
%LPD*%
G01*
G04 APERTURE LIST*
%ADD10C,0.250000*%
%ADD11C,0.200000*%
%ADD12C,0.300000*%
%ADD13C,0.120000*%
%ADD14C,0.150000*%
G04 APERTURE END LIST*
D10*
X143714285Y-74089285D02*
X143809523Y-74184523D01*
X144095238Y-74279761D01*
X144285714Y-74279761D01*
X144571428Y-74184523D01*
X144761904Y-73994047D01*
X144857142Y-73803571D01*
X144952380Y-73422619D01*
X144952380Y-73136904D01*
X144857142Y-72755952D01*
X144761904Y-72565476D01*
X144571428Y-72375000D01*
X144285714Y-72279761D01*
X144095238Y-72279761D01*
X143809523Y-72375000D01*
X143714285Y-72470238D01*
X143047619Y-72279761D02*
X141809523Y-72279761D01*
X142476190Y-73041666D01*
X142190476Y-73041666D01*
X142000000Y-73136904D01*
X141904761Y-73232142D01*
X141809523Y-73422619D01*
X141809523Y-73898809D01*
X141904761Y-74089285D01*
X142000000Y-74184523D01*
X142190476Y-74279761D01*
X142761904Y-74279761D01*
X142952380Y-74184523D01*
X143047619Y-74089285D01*
X140857142Y-74184523D02*
X140857142Y-74279761D01*
X140952380Y-74470238D01*
X141047619Y-74565476D01*
X137333333Y-74089285D02*
X137428571Y-74184523D01*
X137714285Y-74279761D01*
X137904761Y-74279761D01*
X138190476Y-74184523D01*
X138380952Y-73994047D01*
X138476190Y-73803571D01*
X138571428Y-73422619D01*
X138571428Y-73136904D01*
X138476190Y-72755952D01*
X138380952Y-72565476D01*
X138190476Y-72375000D01*
X137904761Y-72279761D01*
X137714285Y-72279761D01*
X137428571Y-72375000D01*
X137333333Y-72470238D01*
X136571428Y-72470238D02*
X136476190Y-72375000D01*
X136285714Y-72279761D01*
X135809523Y-72279761D01*
X135619047Y-72375000D01*
X135523809Y-72470238D01*
X135428571Y-72660714D01*
X135428571Y-72851190D01*
X135523809Y-73136904D01*
X136666666Y-74279761D01*
X135428571Y-74279761D01*
X133619047Y-72279761D02*
X134571428Y-72279761D01*
X134666666Y-73232142D01*
X134571428Y-73136904D01*
X134380952Y-73041666D01*
X133904761Y-73041666D01*
X133714285Y-73136904D01*
X133619047Y-73232142D01*
X133523809Y-73422619D01*
X133523809Y-73898809D01*
X133619047Y-74089285D01*
X133714285Y-74184523D01*
X133904761Y-74279761D01*
X134380952Y-74279761D01*
X134571428Y-74184523D01*
X134666666Y-74089285D01*
X132571428Y-74184523D02*
X132571428Y-74279761D01*
X132666666Y-74470238D01*
X132761904Y-74565476D01*
X130380952Y-72279761D02*
X129047619Y-74279761D01*
X129047619Y-72279761D02*
X130380952Y-74279761D01*
X128476190Y-72279761D02*
X127238095Y-72279761D01*
X127904761Y-73041666D01*
X127619047Y-73041666D01*
X127428571Y-73136904D01*
X127333333Y-73232142D01*
X127238095Y-73422619D01*
X127238095Y-73898809D01*
X127333333Y-74089285D01*
X127428571Y-74184523D01*
X127619047Y-74279761D01*
X128190476Y-74279761D01*
X128380952Y-74184523D01*
X128476190Y-74089285D01*
X126285714Y-74184523D02*
X126285714Y-74279761D01*
X126380952Y-74470238D01*
X126476190Y-74565476D01*
X124095238Y-72279761D02*
X122761904Y-74279761D01*
X122761904Y-72279761D02*
X124095238Y-74279761D01*
X122095238Y-72470238D02*
X122000000Y-72375000D01*
X121809523Y-72279761D01*
X121333333Y-72279761D01*
X121142857Y-72375000D01*
X121047619Y-72470238D01*
X120952380Y-72660714D01*
X120952380Y-72851190D01*
X121047619Y-73136904D01*
X122190476Y-74279761D01*
X120952380Y-74279761D01*
X120285714Y-72279761D02*
X119047619Y-72279761D01*
X119714285Y-73041666D01*
X119428571Y-73041666D01*
X119238095Y-73136904D01*
X119142857Y-73232142D01*
X119047619Y-73422619D01*
X119047619Y-73898809D01*
X119142857Y-74089285D01*
X119238095Y-74184523D01*
X119428571Y-74279761D01*
X120000000Y-74279761D01*
X120190476Y-74184523D01*
X120285714Y-74089285D01*
X144619047Y-77529761D02*
X144619047Y-75529761D01*
X144619047Y-76291666D02*
X144428571Y-76196428D01*
X144047619Y-76196428D01*
X143857142Y-76291666D01*
X143761904Y-76386904D01*
X143666666Y-76577380D01*
X143666666Y-77148809D01*
X143761904Y-77339285D01*
X143857142Y-77434523D01*
X144047619Y-77529761D01*
X144428571Y-77529761D01*
X144619047Y-77434523D01*
X142904761Y-75720238D02*
X142809523Y-75625000D01*
X142619047Y-75529761D01*
X142142857Y-75529761D01*
X141952380Y-75625000D01*
X141857142Y-75720238D01*
X141761904Y-75910714D01*
X141761904Y-76101190D01*
X141857142Y-76386904D01*
X143000000Y-77529761D01*
X141761904Y-77529761D01*
X140809523Y-77434523D02*
X140809523Y-77529761D01*
X140904761Y-77720238D01*
X141000000Y-77815476D01*
X137571428Y-77529761D02*
X137571428Y-75529761D01*
X137571428Y-77434523D02*
X137761904Y-77529761D01*
X138142857Y-77529761D01*
X138333333Y-77434523D01*
X138428571Y-77339285D01*
X138523809Y-77148809D01*
X138523809Y-76577380D01*
X138428571Y-76386904D01*
X138333333Y-76291666D01*
X138142857Y-76196428D01*
X137761904Y-76196428D01*
X137571428Y-76291666D01*
X136714285Y-75720238D02*
X136619047Y-75625000D01*
X136428571Y-75529761D01*
X135952380Y-75529761D01*
X135761904Y-75625000D01*
X135666666Y-75720238D01*
X135571428Y-75910714D01*
X135571428Y-76101190D01*
X135666666Y-76386904D01*
X136809523Y-77529761D01*
X135571428Y-77529761D01*
X133761904Y-75529761D02*
X134714285Y-75529761D01*
X134809523Y-76482142D01*
X134714285Y-76386904D01*
X134523809Y-76291666D01*
X134047619Y-76291666D01*
X133857142Y-76386904D01*
X133761904Y-76482142D01*
X133666666Y-76672619D01*
X133666666Y-77148809D01*
X133761904Y-77339285D01*
X133857142Y-77434523D01*
X134047619Y-77529761D01*
X134523809Y-77529761D01*
X134714285Y-77434523D01*
X134809523Y-77339285D01*
X132714285Y-77434523D02*
X132714285Y-77529761D01*
X132809523Y-77720238D01*
X132904761Y-77815476D01*
X130523809Y-76196428D02*
X130142857Y-77529761D01*
X129761904Y-76577380D01*
X129380952Y-77529761D01*
X129000000Y-76196428D01*
X127285714Y-75529761D02*
X128238095Y-75529761D01*
X128333333Y-76482142D01*
X128238095Y-76386904D01*
X128047619Y-76291666D01*
X127571428Y-76291666D01*
X127380952Y-76386904D01*
X127285714Y-76482142D01*
X127190476Y-76672619D01*
X127190476Y-77148809D01*
X127285714Y-77339285D01*
X127380952Y-77434523D01*
X127571428Y-77529761D01*
X128047619Y-77529761D01*
X128238095Y-77434523D01*
X128333333Y-77339285D01*
X126238095Y-77434523D02*
X126238095Y-77529761D01*
X126333333Y-77720238D01*
X126428571Y-77815476D01*
X124047619Y-77529761D02*
X123000000Y-76196428D01*
X124047619Y-76196428D02*
X123000000Y-77529761D01*
X122333333Y-75720238D02*
X122238095Y-75625000D01*
X122047619Y-75529761D01*
X121571428Y-75529761D01*
X121380952Y-75625000D01*
X121285714Y-75720238D01*
X121190476Y-75910714D01*
X121190476Y-76101190D01*
X121285714Y-76386904D01*
X122428571Y-77529761D01*
X121190476Y-77529761D01*
X119380952Y-75529761D02*
X120333333Y-75529761D01*
X120428571Y-76482142D01*
X120333333Y-76386904D01*
X120142857Y-76291666D01*
X119666666Y-76291666D01*
X119476190Y-76386904D01*
X119380952Y-76482142D01*
X119285714Y-76672619D01*
X119285714Y-77148809D01*
X119380952Y-77339285D01*
X119476190Y-77434523D01*
X119666666Y-77529761D01*
X120142857Y-77529761D01*
X120333333Y-77434523D01*
X120428571Y-77339285D01*
D11*
X124957142Y-136585714D02*
X126157142Y-136585714D01*
X126157142Y-136300000D01*
X126100000Y-136128571D01*
X125985714Y-136014285D01*
X125871428Y-135957142D01*
X125642857Y-135900000D01*
X125471428Y-135900000D01*
X125242857Y-135957142D01*
X125128571Y-136014285D01*
X125014285Y-136128571D01*
X124957142Y-136300000D01*
X124957142Y-136585714D01*
X126157142Y-134814285D02*
X126157142Y-135385714D01*
X125585714Y-135442857D01*
X125642857Y-135385714D01*
X125700000Y-135271428D01*
X125700000Y-134985714D01*
X125642857Y-134871428D01*
X125585714Y-134814285D01*
X125471428Y-134757142D01*
X125185714Y-134757142D01*
X125071428Y-134814285D01*
X125014285Y-134871428D01*
X124957142Y-134985714D01*
X124957142Y-135271428D01*
X125014285Y-135385714D01*
X125071428Y-135442857D01*
X127557142Y-136585714D02*
X128757142Y-136585714D01*
X128757142Y-136300000D01*
X128700000Y-136128571D01*
X128585714Y-136014285D01*
X128471428Y-135957142D01*
X128242857Y-135900000D01*
X128071428Y-135900000D01*
X127842857Y-135957142D01*
X127728571Y-136014285D01*
X127614285Y-136128571D01*
X127557142Y-136300000D01*
X127557142Y-136585714D01*
X128757142Y-135500000D02*
X128757142Y-134757142D01*
X128300000Y-135157142D01*
X128300000Y-134985714D01*
X128242857Y-134871428D01*
X128185714Y-134814285D01*
X128071428Y-134757142D01*
X127785714Y-134757142D01*
X127671428Y-134814285D01*
X127614285Y-134871428D01*
X127557142Y-134985714D01*
X127557142Y-135328571D01*
X127614285Y-135442857D01*
X127671428Y-135500000D01*
X122357142Y-136585714D02*
X123557142Y-136585714D01*
X123557142Y-136300000D01*
X123500000Y-136128571D01*
X123385714Y-136014285D01*
X123271428Y-135957142D01*
X123042857Y-135900000D01*
X122871428Y-135900000D01*
X122642857Y-135957142D01*
X122528571Y-136014285D01*
X122414285Y-136128571D01*
X122357142Y-136300000D01*
X122357142Y-136585714D01*
X123557142Y-135500000D02*
X123557142Y-134700000D01*
X122357142Y-135214285D01*
X87042857Y-135182857D02*
X87042857Y-135411428D01*
X87100000Y-135525714D01*
X87214285Y-135640000D01*
X87442857Y-135697142D01*
X87842857Y-135697142D01*
X88071428Y-135640000D01*
X88185714Y-135525714D01*
X88242857Y-135411428D01*
X88242857Y-135182857D01*
X88185714Y-135068571D01*
X88071428Y-134954285D01*
X87842857Y-134897142D01*
X87442857Y-134897142D01*
X87214285Y-134954285D01*
X87100000Y-135068571D01*
X87042857Y-135182857D01*
X87614285Y-136211428D02*
X87614285Y-136611428D01*
X88242857Y-136782857D02*
X88242857Y-136211428D01*
X87042857Y-136211428D01*
X87042857Y-136782857D01*
X100848571Y-135700000D02*
X100905714Y-135642857D01*
X100962857Y-135471428D01*
X100962857Y-135357142D01*
X100905714Y-135185714D01*
X100791428Y-135071428D01*
X100677142Y-135014285D01*
X100448571Y-134957142D01*
X100277142Y-134957142D01*
X100048571Y-135014285D01*
X99934285Y-135071428D01*
X99820000Y-135185714D01*
X99762857Y-135357142D01*
X99762857Y-135471428D01*
X99820000Y-135642857D01*
X99877142Y-135700000D01*
X100905714Y-136157142D02*
X100962857Y-136328571D01*
X100962857Y-136614285D01*
X100905714Y-136728571D01*
X100848571Y-136785714D01*
X100734285Y-136842857D01*
X100620000Y-136842857D01*
X100505714Y-136785714D01*
X100448571Y-136728571D01*
X100391428Y-136614285D01*
X100334285Y-136385714D01*
X100277142Y-136271428D01*
X100220000Y-136214285D01*
X100105714Y-136157142D01*
X99991428Y-136157142D01*
X99877142Y-136214285D01*
X99820000Y-136271428D01*
X99762857Y-136385714D01*
X99762857Y-136671428D01*
X99820000Y-136842857D01*
X138942857Y-132714285D02*
X137742857Y-132714285D01*
X137742857Y-133000000D01*
X137800000Y-133171428D01*
X137914285Y-133285714D01*
X138028571Y-133342857D01*
X138257142Y-133400000D01*
X138428571Y-133400000D01*
X138657142Y-133342857D01*
X138771428Y-133285714D01*
X138885714Y-133171428D01*
X138942857Y-133000000D01*
X138942857Y-132714285D01*
X138314285Y-134314285D02*
X138371428Y-134485714D01*
X138428571Y-134542857D01*
X138542857Y-134600000D01*
X138714285Y-134600000D01*
X138828571Y-134542857D01*
X138885714Y-134485714D01*
X138942857Y-134371428D01*
X138942857Y-133914285D01*
X137742857Y-133914285D01*
X137742857Y-134314285D01*
X137800000Y-134428571D01*
X137857142Y-134485714D01*
X137971428Y-134542857D01*
X138085714Y-134542857D01*
X138200000Y-134485714D01*
X138257142Y-134428571D01*
X138314285Y-134314285D01*
X138314285Y-133914285D01*
X138314285Y-135114285D02*
X138314285Y-135514285D01*
X138942857Y-135685714D02*
X138942857Y-135114285D01*
X137742857Y-135114285D01*
X137742857Y-135685714D01*
X138942857Y-136200000D02*
X137742857Y-136200000D01*
X138942857Y-136885714D01*
X137742857Y-136885714D01*
X133942857Y-132000000D02*
X132742857Y-132000000D01*
X132742857Y-132285714D01*
X132800000Y-132457142D01*
X132914285Y-132571428D01*
X133028571Y-132628571D01*
X133257142Y-132685714D01*
X133428571Y-132685714D01*
X133657142Y-132628571D01*
X133771428Y-132571428D01*
X133885714Y-132457142D01*
X133942857Y-132285714D01*
X133942857Y-132000000D01*
X133314285Y-133600000D02*
X133371428Y-133771428D01*
X133428571Y-133828571D01*
X133542857Y-133885714D01*
X133714285Y-133885714D01*
X133828571Y-133828571D01*
X133885714Y-133771428D01*
X133942857Y-133657142D01*
X133942857Y-133200000D01*
X132742857Y-133200000D01*
X132742857Y-133600000D01*
X132800000Y-133714285D01*
X132857142Y-133771428D01*
X132971428Y-133828571D01*
X133085714Y-133828571D01*
X133200000Y-133771428D01*
X133257142Y-133714285D01*
X133314285Y-133600000D01*
X133314285Y-133200000D01*
X133942857Y-134400000D02*
X132742857Y-134400000D01*
X132742857Y-134685714D01*
X132800000Y-134857142D01*
X132914285Y-134971428D01*
X133028571Y-135028571D01*
X133257142Y-135085714D01*
X133428571Y-135085714D01*
X133657142Y-135028571D01*
X133771428Y-134971428D01*
X133885714Y-134857142D01*
X133942857Y-134685714D01*
X133942857Y-134400000D01*
X133942857Y-135600000D02*
X132742857Y-135600000D01*
X133942857Y-136857142D02*
X133371428Y-136457142D01*
X133942857Y-136171428D02*
X132742857Y-136171428D01*
X132742857Y-136628571D01*
X132800000Y-136742857D01*
X132857142Y-136800000D01*
X132971428Y-136857142D01*
X133142857Y-136857142D01*
X133257142Y-136800000D01*
X133314285Y-136742857D01*
X133371428Y-136628571D01*
X133371428Y-136171428D01*
X104742857Y-134942857D02*
X105942857Y-135228571D01*
X105085714Y-135457142D01*
X105942857Y-135685714D01*
X104742857Y-135971428D01*
X105314285Y-136428571D02*
X105314285Y-136828571D01*
X105942857Y-137000000D02*
X105942857Y-136428571D01*
X104742857Y-136428571D01*
X104742857Y-137000000D01*
X116162857Y-135585714D02*
X115591428Y-135185714D01*
X116162857Y-134900000D02*
X114962857Y-134900000D01*
X114962857Y-135357142D01*
X115020000Y-135471428D01*
X115077142Y-135528571D01*
X115191428Y-135585714D01*
X115362857Y-135585714D01*
X115477142Y-135528571D01*
X115534285Y-135471428D01*
X115591428Y-135357142D01*
X115591428Y-134900000D01*
X114962857Y-135985714D02*
X116162857Y-136271428D01*
X115305714Y-136500000D01*
X116162857Y-136728571D01*
X114962857Y-137014285D01*
X127757142Y-144685714D02*
X128957142Y-144685714D01*
X128957142Y-144400000D01*
X128900000Y-144228571D01*
X128785714Y-144114285D01*
X128671428Y-144057142D01*
X128442857Y-144000000D01*
X128271428Y-144000000D01*
X128042857Y-144057142D01*
X127928571Y-144114285D01*
X127814285Y-144228571D01*
X127757142Y-144400000D01*
X127757142Y-144685714D01*
X128557142Y-142971428D02*
X127757142Y-142971428D01*
X129014285Y-143257142D02*
X128157142Y-143542857D01*
X128157142Y-142800000D01*
X125157142Y-144685714D02*
X126357142Y-144685714D01*
X126357142Y-144400000D01*
X126300000Y-144228571D01*
X126185714Y-144114285D01*
X126071428Y-144057142D01*
X125842857Y-144000000D01*
X125671428Y-144000000D01*
X125442857Y-144057142D01*
X125328571Y-144114285D01*
X125214285Y-144228571D01*
X125157142Y-144400000D01*
X125157142Y-144685714D01*
X126357142Y-142971428D02*
X126357142Y-143200000D01*
X126300000Y-143314285D01*
X126242857Y-143371428D01*
X126071428Y-143485714D01*
X125842857Y-143542857D01*
X125385714Y-143542857D01*
X125271428Y-143485714D01*
X125214285Y-143428571D01*
X125157142Y-143314285D01*
X125157142Y-143085714D01*
X125214285Y-142971428D01*
X125271428Y-142914285D01*
X125385714Y-142857142D01*
X125671428Y-142857142D01*
X125785714Y-142914285D01*
X125842857Y-142971428D01*
X125900000Y-143085714D01*
X125900000Y-143314285D01*
X125842857Y-143428571D01*
X125785714Y-143485714D01*
X125671428Y-143542857D01*
X131342857Y-134914285D02*
X130142857Y-134914285D01*
X130142857Y-135200000D01*
X130200000Y-135371428D01*
X130314285Y-135485714D01*
X130428571Y-135542857D01*
X130657142Y-135600000D01*
X130828571Y-135600000D01*
X131057142Y-135542857D01*
X131171428Y-135485714D01*
X131285714Y-135371428D01*
X131342857Y-135200000D01*
X131342857Y-134914285D01*
X130142857Y-136342857D02*
X130142857Y-136457142D01*
X130200000Y-136571428D01*
X130257142Y-136628571D01*
X130371428Y-136685714D01*
X130600000Y-136742857D01*
X130885714Y-136742857D01*
X131114285Y-136685714D01*
X131228571Y-136628571D01*
X131285714Y-136571428D01*
X131342857Y-136457142D01*
X131342857Y-136342857D01*
X131285714Y-136228571D01*
X131228571Y-136171428D01*
X131114285Y-136114285D01*
X130885714Y-136057142D01*
X130600000Y-136057142D01*
X130371428Y-136114285D01*
X130257142Y-136171428D01*
X130200000Y-136228571D01*
X130142857Y-136342857D01*
X130357142Y-144685714D02*
X131557142Y-144685714D01*
X131557142Y-144400000D01*
X131500000Y-144228571D01*
X131385714Y-144114285D01*
X131271428Y-144057142D01*
X131042857Y-144000000D01*
X130871428Y-144000000D01*
X130642857Y-144057142D01*
X130528571Y-144114285D01*
X130414285Y-144228571D01*
X130357142Y-144400000D01*
X130357142Y-144685714D01*
X131442857Y-143542857D02*
X131500000Y-143485714D01*
X131557142Y-143371428D01*
X131557142Y-143085714D01*
X131500000Y-142971428D01*
X131442857Y-142914285D01*
X131328571Y-142857142D01*
X131214285Y-142857142D01*
X131042857Y-142914285D01*
X130357142Y-143600000D01*
X130357142Y-142857142D01*
D12*
X160494761Y-63694761D02*
X160494761Y-61694761D01*
X159637619Y-63694761D02*
X159637619Y-62647142D01*
X159732857Y-62456666D01*
X159923333Y-62361428D01*
X160209047Y-62361428D01*
X160399523Y-62456666D01*
X160494761Y-62551904D01*
X158970952Y-62361428D02*
X158209047Y-62361428D01*
X158685238Y-61694761D02*
X158685238Y-63409047D01*
X158590000Y-63599523D01*
X158399523Y-63694761D01*
X158209047Y-63694761D01*
X157828095Y-62361428D02*
X157066190Y-62361428D01*
X157542380Y-61694761D02*
X157542380Y-63409047D01*
X157447142Y-63599523D01*
X157256666Y-63694761D01*
X157066190Y-63694761D01*
X156399523Y-62361428D02*
X156399523Y-64361428D01*
X156399523Y-62456666D02*
X156209047Y-62361428D01*
X155828095Y-62361428D01*
X155637619Y-62456666D01*
X155542380Y-62551904D01*
X155447142Y-62742380D01*
X155447142Y-63313809D01*
X155542380Y-63504285D01*
X155637619Y-63599523D01*
X155828095Y-63694761D01*
X156209047Y-63694761D01*
X156399523Y-63599523D01*
X154685238Y-63599523D02*
X154494761Y-63694761D01*
X154113809Y-63694761D01*
X153923333Y-63599523D01*
X153828095Y-63409047D01*
X153828095Y-63313809D01*
X153923333Y-63123333D01*
X154113809Y-63028095D01*
X154399523Y-63028095D01*
X154590000Y-62932857D01*
X154685238Y-62742380D01*
X154685238Y-62647142D01*
X154590000Y-62456666D01*
X154399523Y-62361428D01*
X154113809Y-62361428D01*
X153923333Y-62456666D01*
X152970952Y-63504285D02*
X152875714Y-63599523D01*
X152970952Y-63694761D01*
X153066190Y-63599523D01*
X152970952Y-63504285D01*
X152970952Y-63694761D01*
X152970952Y-62456666D02*
X152875714Y-62551904D01*
X152970952Y-62647142D01*
X153066190Y-62551904D01*
X152970952Y-62456666D01*
X152970952Y-62647142D01*
X150590000Y-61599523D02*
X152304285Y-64170952D01*
X148494761Y-61599523D02*
X150209047Y-64170952D01*
X147828095Y-63694761D02*
X147828095Y-61694761D01*
X146970952Y-63694761D02*
X146970952Y-62647142D01*
X147066190Y-62456666D01*
X147256666Y-62361428D01*
X147542380Y-62361428D01*
X147732857Y-62456666D01*
X147828095Y-62551904D01*
X145161428Y-63694761D02*
X145161428Y-62647142D01*
X145256666Y-62456666D01*
X145447142Y-62361428D01*
X145828095Y-62361428D01*
X146018571Y-62456666D01*
X145161428Y-63599523D02*
X145351904Y-63694761D01*
X145828095Y-63694761D01*
X146018571Y-63599523D01*
X146113809Y-63409047D01*
X146113809Y-63218571D01*
X146018571Y-63028095D01*
X145828095Y-62932857D01*
X145351904Y-62932857D01*
X145161428Y-62837619D01*
X143351904Y-63599523D02*
X143542380Y-63694761D01*
X143923333Y-63694761D01*
X144113809Y-63599523D01*
X144209047Y-63504285D01*
X144304285Y-63313809D01*
X144304285Y-62742380D01*
X144209047Y-62551904D01*
X144113809Y-62456666D01*
X143923333Y-62361428D01*
X143542380Y-62361428D01*
X143351904Y-62456666D01*
X142494761Y-63694761D02*
X142494761Y-61694761D01*
X142304285Y-62932857D02*
X141732857Y-63694761D01*
X141732857Y-62361428D02*
X142494761Y-63123333D01*
X140018571Y-63694761D02*
X140018571Y-62647142D01*
X140113809Y-62456666D01*
X140304285Y-62361428D01*
X140685238Y-62361428D01*
X140875714Y-62456666D01*
X140018571Y-63599523D02*
X140209047Y-63694761D01*
X140685238Y-63694761D01*
X140875714Y-63599523D01*
X140970952Y-63409047D01*
X140970952Y-63218571D01*
X140875714Y-63028095D01*
X140685238Y-62932857D01*
X140209047Y-62932857D01*
X140018571Y-62837619D01*
X138209047Y-63694761D02*
X138209047Y-61694761D01*
X138209047Y-63599523D02*
X138399523Y-63694761D01*
X138780476Y-63694761D01*
X138970952Y-63599523D01*
X139066190Y-63504285D01*
X139161428Y-63313809D01*
X139161428Y-62742380D01*
X139066190Y-62551904D01*
X138970952Y-62456666D01*
X138780476Y-62361428D01*
X138399523Y-62361428D01*
X138209047Y-62456666D01*
X136399523Y-63694761D02*
X136399523Y-62647142D01*
X136494761Y-62456666D01*
X136685238Y-62361428D01*
X137066190Y-62361428D01*
X137256666Y-62456666D01*
X136399523Y-63599523D02*
X136590000Y-63694761D01*
X137066190Y-63694761D01*
X137256666Y-63599523D01*
X137351904Y-63409047D01*
X137351904Y-63218571D01*
X137256666Y-63028095D01*
X137066190Y-62932857D01*
X136590000Y-62932857D01*
X136399523Y-62837619D01*
X135637619Y-62361428D02*
X135161428Y-63694761D01*
X134685238Y-62361428D02*
X135161428Y-63694761D01*
X135351904Y-64170952D01*
X135447142Y-64266190D01*
X135637619Y-64361428D01*
X133923333Y-63504285D02*
X133828095Y-63599523D01*
X133923333Y-63694761D01*
X134018571Y-63599523D01*
X133923333Y-63504285D01*
X133923333Y-63694761D01*
X132970952Y-63694761D02*
X132970952Y-62361428D01*
X132970952Y-61694761D02*
X133066190Y-61790000D01*
X132970952Y-61885238D01*
X132875714Y-61790000D01*
X132970952Y-61694761D01*
X132970952Y-61885238D01*
X131732857Y-63694761D02*
X131923333Y-63599523D01*
X132018571Y-63504285D01*
X132113809Y-63313809D01*
X132113809Y-62742380D01*
X132018571Y-62551904D01*
X131923333Y-62456666D01*
X131732857Y-62361428D01*
X131447142Y-62361428D01*
X131256666Y-62456666D01*
X131161428Y-62551904D01*
X131066190Y-62742380D01*
X131066190Y-63313809D01*
X131161428Y-63504285D01*
X131256666Y-63599523D01*
X131447142Y-63694761D01*
X131732857Y-63694761D01*
X128780476Y-61599523D02*
X130494761Y-64170952D01*
X128113809Y-62361428D02*
X128113809Y-64361428D01*
X128113809Y-62456666D02*
X127923333Y-62361428D01*
X127542380Y-62361428D01*
X127351904Y-62456666D01*
X127256666Y-62551904D01*
X127161428Y-62742380D01*
X127161428Y-63313809D01*
X127256666Y-63504285D01*
X127351904Y-63599523D01*
X127542380Y-63694761D01*
X127923333Y-63694761D01*
X128113809Y-63599523D01*
X126304285Y-63694761D02*
X126304285Y-62361428D01*
X126304285Y-62742380D02*
X126209047Y-62551904D01*
X126113809Y-62456666D01*
X125923333Y-62361428D01*
X125732857Y-62361428D01*
X124780476Y-63694761D02*
X124970952Y-63599523D01*
X125066190Y-63504285D01*
X125161428Y-63313809D01*
X125161428Y-62742380D01*
X125066190Y-62551904D01*
X124970952Y-62456666D01*
X124780476Y-62361428D01*
X124494761Y-62361428D01*
X124304285Y-62456666D01*
X124209047Y-62551904D01*
X124113809Y-62742380D01*
X124113809Y-63313809D01*
X124209047Y-63504285D01*
X124304285Y-63599523D01*
X124494761Y-63694761D01*
X124780476Y-63694761D01*
X123256666Y-62361428D02*
X123256666Y-64075714D01*
X123351904Y-64266190D01*
X123542380Y-64361428D01*
X123637619Y-64361428D01*
X123256666Y-61694761D02*
X123351904Y-61790000D01*
X123256666Y-61885238D01*
X123161428Y-61790000D01*
X123256666Y-61694761D01*
X123256666Y-61885238D01*
X121542380Y-63599523D02*
X121732857Y-63694761D01*
X122113809Y-63694761D01*
X122304285Y-63599523D01*
X122399523Y-63409047D01*
X122399523Y-62647142D01*
X122304285Y-62456666D01*
X122113809Y-62361428D01*
X121732857Y-62361428D01*
X121542380Y-62456666D01*
X121447142Y-62647142D01*
X121447142Y-62837619D01*
X122399523Y-63028095D01*
X119732857Y-63599523D02*
X119923333Y-63694761D01*
X120304285Y-63694761D01*
X120494761Y-63599523D01*
X120590000Y-63504285D01*
X120685238Y-63313809D01*
X120685238Y-62742380D01*
X120590000Y-62551904D01*
X120494761Y-62456666D01*
X120304285Y-62361428D01*
X119923333Y-62361428D01*
X119732857Y-62456666D01*
X119161428Y-62361428D02*
X118399523Y-62361428D01*
X118875714Y-61694761D02*
X118875714Y-63409047D01*
X118780476Y-63599523D01*
X118590000Y-63694761D01*
X118399523Y-63694761D01*
X116304285Y-61599523D02*
X118018571Y-64170952D01*
X114590000Y-63694761D02*
X115732857Y-63694761D01*
X115161428Y-63694761D02*
X115161428Y-61694761D01*
X115351904Y-61980476D01*
X115542380Y-62170952D01*
X115732857Y-62266190D01*
X113923333Y-61694761D02*
X112590000Y-61694761D01*
X113447142Y-63694761D01*
X112018571Y-61694761D02*
X110780476Y-61694761D01*
X111447142Y-62456666D01*
X111161428Y-62456666D01*
X110970952Y-62551904D01*
X110875714Y-62647142D01*
X110780476Y-62837619D01*
X110780476Y-63313809D01*
X110875714Y-63504285D01*
X110970952Y-63599523D01*
X111161428Y-63694761D01*
X111732857Y-63694761D01*
X111923333Y-63599523D01*
X112018571Y-63504285D01*
X109066190Y-62361428D02*
X109066190Y-63694761D01*
X109542380Y-61599523D02*
X110018571Y-63028095D01*
X108780476Y-63028095D01*
X107637619Y-61694761D02*
X107447142Y-61694761D01*
X107256666Y-61790000D01*
X107161428Y-61885238D01*
X107066190Y-62075714D01*
X106970952Y-62456666D01*
X106970952Y-62932857D01*
X107066190Y-63313809D01*
X107161428Y-63504285D01*
X107256666Y-63599523D01*
X107447142Y-63694761D01*
X107637619Y-63694761D01*
X107828095Y-63599523D01*
X107923333Y-63504285D01*
X108018571Y-63313809D01*
X108113809Y-62932857D01*
X108113809Y-62456666D01*
X108018571Y-62075714D01*
X107923333Y-61885238D01*
X107828095Y-61790000D01*
X107637619Y-61694761D01*
X105066190Y-63694761D02*
X106209047Y-63694761D01*
X105637619Y-63694761D02*
X105637619Y-61694761D01*
X105828095Y-61980476D01*
X106018571Y-62170952D01*
X106209047Y-62266190D01*
X104209047Y-62932857D02*
X102685238Y-62932857D01*
X157066190Y-66994761D02*
X157066190Y-64994761D01*
X156209047Y-66994761D02*
X156209047Y-65947142D01*
X156304285Y-65756666D01*
X156494761Y-65661428D01*
X156780476Y-65661428D01*
X156970952Y-65756666D01*
X157066190Y-65851904D01*
X154399523Y-66994761D02*
X154399523Y-64994761D01*
X154399523Y-66899523D02*
X154590000Y-66994761D01*
X154970952Y-66994761D01*
X155161428Y-66899523D01*
X155256666Y-66804285D01*
X155351904Y-66613809D01*
X155351904Y-66042380D01*
X155256666Y-65851904D01*
X155161428Y-65756666D01*
X154970952Y-65661428D01*
X154590000Y-65661428D01*
X154399523Y-65756666D01*
X152590000Y-64994761D02*
X152970952Y-64994761D01*
X153161428Y-65090000D01*
X153256666Y-65185238D01*
X153447142Y-65470952D01*
X153542380Y-65851904D01*
X153542380Y-66613809D01*
X153447142Y-66804285D01*
X153351904Y-66899523D01*
X153161428Y-66994761D01*
X152780476Y-66994761D01*
X152590000Y-66899523D01*
X152494761Y-66804285D01*
X152399523Y-66613809D01*
X152399523Y-66137619D01*
X152494761Y-65947142D01*
X152590000Y-65851904D01*
X152780476Y-65756666D01*
X153161428Y-65756666D01*
X153351904Y-65851904D01*
X153447142Y-65947142D01*
X153542380Y-66137619D01*
X151732857Y-64994761D02*
X150494761Y-64994761D01*
X151161428Y-65756666D01*
X150875714Y-65756666D01*
X150685238Y-65851904D01*
X150590000Y-65947142D01*
X150494761Y-66137619D01*
X150494761Y-66613809D01*
X150590000Y-66804285D01*
X150685238Y-66899523D01*
X150875714Y-66994761D01*
X151447142Y-66994761D01*
X151637619Y-66899523D01*
X151732857Y-66804285D01*
X149256666Y-64994761D02*
X149066190Y-64994761D01*
X148875714Y-65090000D01*
X148780476Y-65185238D01*
X148685238Y-65375714D01*
X148590000Y-65756666D01*
X148590000Y-66232857D01*
X148685238Y-66613809D01*
X148780476Y-66804285D01*
X148875714Y-66899523D01*
X149066190Y-66994761D01*
X149256666Y-66994761D01*
X149447142Y-66899523D01*
X149542380Y-66804285D01*
X149637619Y-66613809D01*
X149732857Y-66232857D01*
X149732857Y-65756666D01*
X149637619Y-65375714D01*
X149542380Y-65185238D01*
X149447142Y-65090000D01*
X149256666Y-64994761D01*
X147637619Y-66994761D02*
X147256666Y-66994761D01*
X147066190Y-66899523D01*
X146970952Y-66804285D01*
X146780476Y-66518571D01*
X146685238Y-66137619D01*
X146685238Y-65375714D01*
X146780476Y-65185238D01*
X146875714Y-65090000D01*
X147066190Y-64994761D01*
X147447142Y-64994761D01*
X147637619Y-65090000D01*
X147732857Y-65185238D01*
X147828095Y-65375714D01*
X147828095Y-65851904D01*
X147732857Y-66042380D01*
X147637619Y-66137619D01*
X147447142Y-66232857D01*
X147066190Y-66232857D01*
X146875714Y-66137619D01*
X146780476Y-66042380D01*
X146685238Y-65851904D01*
X145828095Y-66232857D02*
X144304285Y-66232857D01*
X143447142Y-66899523D02*
X143256666Y-66994761D01*
X142875714Y-66994761D01*
X142685238Y-66899523D01*
X142590000Y-66709047D01*
X142590000Y-66613809D01*
X142685238Y-66423333D01*
X142875714Y-66328095D01*
X143161428Y-66328095D01*
X143351904Y-66232857D01*
X143447142Y-66042380D01*
X143447142Y-65947142D01*
X143351904Y-65756666D01*
X143161428Y-65661428D01*
X142875714Y-65661428D01*
X142685238Y-65756666D01*
X141732857Y-66994761D02*
X141732857Y-65661428D01*
X141732857Y-64994761D02*
X141828095Y-65090000D01*
X141732857Y-65185238D01*
X141637619Y-65090000D01*
X141732857Y-64994761D01*
X141732857Y-65185238D01*
X140780476Y-65661428D02*
X140780476Y-66994761D01*
X140780476Y-65851904D02*
X140685238Y-65756666D01*
X140494761Y-65661428D01*
X140209047Y-65661428D01*
X140018571Y-65756666D01*
X139923333Y-65947142D01*
X139923333Y-66994761D01*
X138113809Y-65661428D02*
X138113809Y-67280476D01*
X138209047Y-67470952D01*
X138304285Y-67566190D01*
X138494761Y-67661428D01*
X138780476Y-67661428D01*
X138970952Y-67566190D01*
X138113809Y-66899523D02*
X138304285Y-66994761D01*
X138685238Y-66994761D01*
X138875714Y-66899523D01*
X138970952Y-66804285D01*
X139066190Y-66613809D01*
X139066190Y-66042380D01*
X138970952Y-65851904D01*
X138875714Y-65756666D01*
X138685238Y-65661428D01*
X138304285Y-65661428D01*
X138113809Y-65756666D01*
X136875714Y-66994761D02*
X137066190Y-66899523D01*
X137161428Y-66709047D01*
X137161428Y-64994761D01*
X135351904Y-66899523D02*
X135542380Y-66994761D01*
X135923333Y-66994761D01*
X136113809Y-66899523D01*
X136209047Y-66709047D01*
X136209047Y-65947142D01*
X136113809Y-65756666D01*
X135923333Y-65661428D01*
X135542380Y-65661428D01*
X135351904Y-65756666D01*
X135256666Y-65947142D01*
X135256666Y-66137619D01*
X136209047Y-66328095D01*
X134399523Y-66994761D02*
X134399523Y-64994761D01*
X134399523Y-65756666D02*
X134209047Y-65661428D01*
X133828095Y-65661428D01*
X133637619Y-65756666D01*
X133542380Y-65851904D01*
X133447142Y-66042380D01*
X133447142Y-66613809D01*
X133542380Y-66804285D01*
X133637619Y-66899523D01*
X133828095Y-66994761D01*
X134209047Y-66994761D01*
X134399523Y-66899523D01*
X132304285Y-66994761D02*
X132494761Y-66899523D01*
X132590000Y-66804285D01*
X132685238Y-66613809D01*
X132685238Y-66042380D01*
X132590000Y-65851904D01*
X132494761Y-65756666D01*
X132304285Y-65661428D01*
X132018571Y-65661428D01*
X131828095Y-65756666D01*
X131732857Y-65851904D01*
X131637619Y-66042380D01*
X131637619Y-66613809D01*
X131732857Y-66804285D01*
X131828095Y-66899523D01*
X132018571Y-66994761D01*
X132304285Y-66994761D01*
X129923333Y-66994761D02*
X129923333Y-65947142D01*
X130018571Y-65756666D01*
X130209047Y-65661428D01*
X130590000Y-65661428D01*
X130780476Y-65756666D01*
X129923333Y-66899523D02*
X130113809Y-66994761D01*
X130590000Y-66994761D01*
X130780476Y-66899523D01*
X130875714Y-66709047D01*
X130875714Y-66518571D01*
X130780476Y-66328095D01*
X130590000Y-66232857D01*
X130113809Y-66232857D01*
X129923333Y-66137619D01*
X128970952Y-66994761D02*
X128970952Y-65661428D01*
X128970952Y-66042380D02*
X128875714Y-65851904D01*
X128780476Y-65756666D01*
X128590000Y-65661428D01*
X128399523Y-65661428D01*
X126875714Y-66994761D02*
X126875714Y-64994761D01*
X126875714Y-66899523D02*
X127066190Y-66994761D01*
X127447142Y-66994761D01*
X127637619Y-66899523D01*
X127732857Y-66804285D01*
X127828095Y-66613809D01*
X127828095Y-66042380D01*
X127732857Y-65851904D01*
X127637619Y-65756666D01*
X127447142Y-65661428D01*
X127066190Y-65661428D01*
X126875714Y-65756666D01*
X125923333Y-66232857D02*
X124399523Y-66232857D01*
X122590000Y-66899523D02*
X122780476Y-66994761D01*
X123161428Y-66994761D01*
X123351904Y-66899523D01*
X123447142Y-66804285D01*
X123542380Y-66613809D01*
X123542380Y-66042380D01*
X123447142Y-65851904D01*
X123351904Y-65756666D01*
X123161428Y-65661428D01*
X122780476Y-65661428D01*
X122590000Y-65756666D01*
X121447142Y-66994761D02*
X121637619Y-66899523D01*
X121732857Y-66804285D01*
X121828095Y-66613809D01*
X121828095Y-66042380D01*
X121732857Y-65851904D01*
X121637619Y-65756666D01*
X121447142Y-65661428D01*
X121161428Y-65661428D01*
X120970952Y-65756666D01*
X120875714Y-65851904D01*
X120780476Y-66042380D01*
X120780476Y-66613809D01*
X120875714Y-66804285D01*
X120970952Y-66899523D01*
X121161428Y-66994761D01*
X121447142Y-66994761D01*
X119923333Y-66994761D02*
X119923333Y-65661428D01*
X119923333Y-65851904D02*
X119828095Y-65756666D01*
X119637619Y-65661428D01*
X119351904Y-65661428D01*
X119161428Y-65756666D01*
X119066190Y-65947142D01*
X119066190Y-66994761D01*
X119066190Y-65947142D02*
X118970952Y-65756666D01*
X118780476Y-65661428D01*
X118494761Y-65661428D01*
X118304285Y-65756666D01*
X118209047Y-65947142D01*
X118209047Y-66994761D01*
X117256666Y-65661428D02*
X117256666Y-67661428D01*
X117256666Y-65756666D02*
X117066190Y-65661428D01*
X116685238Y-65661428D01*
X116494761Y-65756666D01*
X116399523Y-65851904D01*
X116304285Y-66042380D01*
X116304285Y-66613809D01*
X116399523Y-66804285D01*
X116494761Y-66899523D01*
X116685238Y-66994761D01*
X117066190Y-66994761D01*
X117256666Y-66899523D01*
X114590000Y-65661428D02*
X114590000Y-66994761D01*
X115447142Y-65661428D02*
X115447142Y-66709047D01*
X115351904Y-66899523D01*
X115161428Y-66994761D01*
X114875714Y-66994761D01*
X114685238Y-66899523D01*
X114590000Y-66804285D01*
X113923333Y-65661428D02*
X113161428Y-65661428D01*
X113637619Y-64994761D02*
X113637619Y-66709047D01*
X113542380Y-66899523D01*
X113351904Y-66994761D01*
X113161428Y-66994761D01*
X111732857Y-66899523D02*
X111923333Y-66994761D01*
X112304285Y-66994761D01*
X112494761Y-66899523D01*
X112590000Y-66709047D01*
X112590000Y-65947142D01*
X112494761Y-65756666D01*
X112304285Y-65661428D01*
X111923333Y-65661428D01*
X111732857Y-65756666D01*
X111637619Y-65947142D01*
X111637619Y-66137619D01*
X112590000Y-66328095D01*
X110780476Y-66994761D02*
X110780476Y-65661428D01*
X110780476Y-66042380D02*
X110685238Y-65851904D01*
X110590000Y-65756666D01*
X110399523Y-65661428D01*
X110209047Y-65661428D01*
X109542380Y-66232857D02*
X108018571Y-66232857D01*
X107066190Y-66994761D02*
X107066190Y-65661428D01*
X107066190Y-64994761D02*
X107161428Y-65090000D01*
X107066190Y-65185238D01*
X106970952Y-65090000D01*
X107066190Y-64994761D01*
X107066190Y-65185238D01*
X106113809Y-66994761D02*
X106113809Y-65661428D01*
X106113809Y-64994761D02*
X106209047Y-65090000D01*
X106113809Y-65185238D01*
X106018571Y-65090000D01*
X106113809Y-64994761D01*
X106113809Y-65185238D01*
D13*
%TO.C,C28*%
X58490000Y-106378922D02*
X58490000Y-106896078D01*
X59910000Y-106378922D02*
X59910000Y-106896078D01*
%TO.C,R28*%
X58490000Y-110403922D02*
X58490000Y-110921078D01*
X59910000Y-110403922D02*
X59910000Y-110921078D01*
%TO.C,TP3*%
X62450000Y-103000000D02*
G75*
G03*
X62450000Y-103000000I-950000J0D01*
G01*
%TO.C,C28*%
D14*
X61357142Y-105957142D02*
X61404761Y-105909523D01*
X61452380Y-105766666D01*
X61452380Y-105671428D01*
X61404761Y-105528571D01*
X61309523Y-105433333D01*
X61214285Y-105385714D01*
X61023809Y-105338095D01*
X60880952Y-105338095D01*
X60690476Y-105385714D01*
X60595238Y-105433333D01*
X60500000Y-105528571D01*
X60452380Y-105671428D01*
X60452380Y-105766666D01*
X60500000Y-105909523D01*
X60547619Y-105957142D01*
X60547619Y-106338095D02*
X60500000Y-106385714D01*
X60452380Y-106480952D01*
X60452380Y-106719047D01*
X60500000Y-106814285D01*
X60547619Y-106861904D01*
X60642857Y-106909523D01*
X60738095Y-106909523D01*
X60880952Y-106861904D01*
X61452380Y-106290476D01*
X61452380Y-106909523D01*
X60880952Y-107480952D02*
X60833333Y-107385714D01*
X60785714Y-107338095D01*
X60690476Y-107290476D01*
X60642857Y-107290476D01*
X60547619Y-107338095D01*
X60500000Y-107385714D01*
X60452380Y-107480952D01*
X60452380Y-107671428D01*
X60500000Y-107766666D01*
X60547619Y-107814285D01*
X60642857Y-107861904D01*
X60690476Y-107861904D01*
X60785714Y-107814285D01*
X60833333Y-107766666D01*
X60880952Y-107671428D01*
X60880952Y-107480952D01*
X60928571Y-107385714D01*
X60976190Y-107338095D01*
X61071428Y-107290476D01*
X61261904Y-107290476D01*
X61357142Y-107338095D01*
X61404761Y-107385714D01*
X61452380Y-107480952D01*
X61452380Y-107671428D01*
X61404761Y-107766666D01*
X61357142Y-107814285D01*
X61261904Y-107861904D01*
X61071428Y-107861904D01*
X60976190Y-107814285D01*
X60928571Y-107766666D01*
X60880952Y-107671428D01*
%TO.C,R28*%
X61552380Y-109957142D02*
X61076190Y-109623809D01*
X61552380Y-109385714D02*
X60552380Y-109385714D01*
X60552380Y-109766666D01*
X60600000Y-109861904D01*
X60647619Y-109909523D01*
X60742857Y-109957142D01*
X60885714Y-109957142D01*
X60980952Y-109909523D01*
X61028571Y-109861904D01*
X61076190Y-109766666D01*
X61076190Y-109385714D01*
X60647619Y-110338095D02*
X60600000Y-110385714D01*
X60552380Y-110480952D01*
X60552380Y-110719047D01*
X60600000Y-110814285D01*
X60647619Y-110861904D01*
X60742857Y-110909523D01*
X60838095Y-110909523D01*
X60980952Y-110861904D01*
X61552380Y-110290476D01*
X61552380Y-110909523D01*
X60980952Y-111480952D02*
X60933333Y-111385714D01*
X60885714Y-111338095D01*
X60790476Y-111290476D01*
X60742857Y-111290476D01*
X60647619Y-111338095D01*
X60600000Y-111385714D01*
X60552380Y-111480952D01*
X60552380Y-111671428D01*
X60600000Y-111766666D01*
X60647619Y-111814285D01*
X60742857Y-111861904D01*
X60790476Y-111861904D01*
X60885714Y-111814285D01*
X60933333Y-111766666D01*
X60980952Y-111671428D01*
X60980952Y-111480952D01*
X61028571Y-111385714D01*
X61076190Y-111338095D01*
X61171428Y-111290476D01*
X61361904Y-111290476D01*
X61457142Y-111338095D01*
X61504761Y-111385714D01*
X61552380Y-111480952D01*
X61552380Y-111671428D01*
X61504761Y-111766666D01*
X61457142Y-111814285D01*
X61361904Y-111861904D01*
X61171428Y-111861904D01*
X61076190Y-111814285D01*
X61028571Y-111766666D01*
X60980952Y-111671428D01*
%TO.C,TP3*%
X62952380Y-101666666D02*
X63952380Y-102000000D01*
X62952380Y-102333333D01*
X63857142Y-103238095D02*
X63904761Y-103190476D01*
X63952380Y-103047619D01*
X63952380Y-102952380D01*
X63904761Y-102809523D01*
X63809523Y-102714285D01*
X63714285Y-102666666D01*
X63523809Y-102619047D01*
X63380952Y-102619047D01*
X63190476Y-102666666D01*
X63095238Y-102714285D01*
X63000000Y-102809523D01*
X62952380Y-102952380D01*
X62952380Y-103047619D01*
X63000000Y-103190476D01*
X63047619Y-103238095D01*
X63952380Y-103666666D02*
X62952380Y-103666666D01*
X62952380Y-104047619D01*
X63000000Y-104142857D01*
X63047619Y-104190476D01*
X63142857Y-104238095D01*
X63285714Y-104238095D01*
X63380952Y-104190476D01*
X63428571Y-104142857D01*
X63476190Y-104047619D01*
X63476190Y-103666666D01*
%TD*%
M02*
