M48
; DRILL file {KiCad (5.1.6)-1} date 07/06/20 11:54:41
; FORMAT={-:-/ absolute / inch / decimal}
; #@! TF.CreationDate,2020-07-06T11:54:41-04:00
; #@! TF.GenerationSoftware,Kicad,Pcbnew,(5.1.6)-1
; #@! TF.FileFunction,Plated,1,2,PTH
FMAT,2
INCH
T1C0.0157
T2C0.0177
T3C0.0197
T4C0.0217
T5C0.0236
T6C0.0315
T7C0.0335
T8C0.0354
T9C0.0390
T10C0.0394
T11C0.0512
%
G90
G05
T1
X2.0827Y-5.1063
X2.0945Y-5.2362
X2.1181Y-5.0591
X2.1181Y-5.1496
X2.1181Y-5.2795
X2.3268Y-4.0236
X2.3686Y-3.9818
X2.4173Y-3.9764
X2.4291Y-3.6339
X2.4409Y-3.8346
X2.4488Y-4.1654
X2.4921Y-4.1378
X2.5039Y-4.1811
X2.5089Y-3.8621
X2.5354Y-5.252
X2.5472Y-4.7126
X2.5748Y-3.8031
X2.5945Y-4.6811
X2.6378Y-3.6339
X2.748Y-4.9528
X2.748Y-5.0354
X2.748Y-5.1181
X2.748Y-5.2008
X2.7559Y-4.1811
X2.7559Y-4.2756
X2.7835Y-5.1496
X2.8071Y-4.748
X2.8189Y-5.2087
X2.8228Y-3.6331
X2.8228Y-3.8346
X2.8661Y-5.2362
X2.8858Y-4.2717
X2.9055Y-4.4921
X2.9134Y-4.9528
X2.9134Y-5.2087
X2.9331Y-5.1693
X2.9409Y-4.1929
X2.9409Y-4.8819
X2.9488Y-5.0354
X2.9646Y-5.2087
X2.9646Y-5.0945
X2.9764Y-4.1457
X2.9843Y-4.9528
X3.0591Y-4.0709
X3.1181Y-4.0
X3.1496Y-4.7441
X3.2047Y-2.6772
X3.2283Y-5.1102
X3.2795Y-5.1693
X3.2874Y-3.7402
X3.311Y-5.1339
X3.3189Y-3.7756
X3.3504Y-5.2087
X3.3661Y-3.7756
X3.4528Y-2.5906
X3.5512Y-2.5906
X3.5524Y-2.361
X3.622Y-3.8504
X3.6339Y-3.7126
X3.6417Y-3.7598
X3.7126Y-3.6693
X3.8819Y-3.4291
X3.9291Y-2.7323
X3.9291Y-2.8268
X3.9291Y-3.4291
X3.9764Y-2.7323
X3.9764Y-2.8268
X4.0Y-2.5669
X4.0157Y-3.6929
X4.0276Y-3.6299
X4.0945Y-3.9094
X4.1181Y-3.6654
X4.126Y-3.878
X4.2677Y-4.9843
X4.3583Y-4.9843
X4.4016Y-4.1654
X4.4016Y-4.2087
X4.4213Y-3.3583
X4.437Y-4.2402
X4.437Y-4.3189
X4.437Y-4.3583
X4.437Y-4.2795
X4.4449Y-3.3937
X4.4764Y-3.3268
X4.4764Y-3.4252
X4.5591Y-3.5709
X4.5709Y-3.3268
X4.5984Y-4.874
X4.6024Y-3.3622
X4.6339Y-3.3937
X4.6378Y-4.8386
X4.6732Y-3.5709
X4.6732Y-4.8071
X4.685Y-3.8898
X4.689Y-3.8189
X4.7205Y-3.7835
X4.7205Y-3.8543
X4.7244Y-5.0866
X4.7244Y-5.2126
X4.7244Y-5.2756
X4.7244Y-5.3425
X4.7323Y-5.6063
X4.7402Y-4.5197
X4.7402Y-4.5906
X4.752Y-3.7441
X4.7638Y-5.1181
X4.7638Y-5.1811
X4.7638Y-5.2441
X4.7638Y-5.311
X4.7717Y-4.4843
X4.7717Y-4.5551
X4.7717Y-4.626
X4.8031Y-5.1496
X4.815Y-3.9817
X4.815Y-4.0512
X4.8386Y-3.5472
X4.8386Y-3.6063
X4.8386Y-3.7087
X4.8386Y-4.0157
X4.8386Y-4.0866
X4.9213Y-4.4488
X4.956Y-4.31
X4.9646Y-2.5433
X4.9646Y-2.622
X4.9646Y-2.7008
X4.9921Y-2.5827
X4.9921Y-2.6614
X4.9921Y-2.7402
X4.9921Y-4.4134
X5.0Y-3.185
X5.0079Y-3.6654
X5.0152Y-4.122
X5.0394Y-3.7087
X5.0433Y-4.3071
X5.0472Y-4.3819
X5.0472Y-4.626
X5.063Y-3.1496
X5.0748Y-2.4291
X5.0748Y-4.4843
X5.1063Y-4.3425
X5.1299Y-3.1496
X5.1339Y-4.5197
X5.1659Y-4.086
X5.1929Y-3.6181
X5.1929Y-4.5551
X5.1969Y-3.1496
X5.2047Y-3.6575
X5.2164Y-4.0511
X5.2402Y-2.9685
X5.248Y-2.5512
X5.2663Y-3.9817
X5.2663Y-4.5906
X5.2717Y-3.1654
X5.2835Y-2.9409
X5.2992Y-3.5709
X5.315Y-3.2126
X5.3228Y-2.622
X5.3307Y-3.9803
X5.3346Y-4.8386
X5.3661Y-3.5906
X5.3661Y-3.6339
X5.374Y-2.6614
X5.374Y-4.0512
X5.4173Y-3.4252
X5.4213Y-2.9409
X5.4213Y-3.1496
X5.4291Y-2.7008
X5.4331Y-4.4685
X5.4567Y-3.2047
X5.4646Y-2.9685
X5.4646Y-3.1496
X5.4685Y-4.0906
X5.4685Y-4.6378
X5.4724Y-3.9803
X5.4764Y-4.3031
X5.5Y-4.874
X5.5039Y-2.9409
X5.5039Y-3.4921
X5.5157Y-3.4252
X5.5157Y-4.5945
X5.516Y-3.532
X5.5163Y-4.343
X5.5197Y-3.5906
X5.5315Y-3.6339
X5.5315Y-3.7126
X5.5384Y-3.4606
X5.5433Y-2.7835
X5.5433Y-2.9685
X5.5591Y-4.0906
X5.5669Y-3.9803
X5.5669Y-4.378
X5.5669Y-4.5394
X5.5787Y-3.5276
X5.5827Y-2.9409
X5.5945Y-3.5984
X5.5945Y-3.7283
X5.6181Y-3.4606
X5.6181Y-4.0906
X5.6181Y-4.4134
X5.6181Y-4.4685
X5.622Y-2.9685
X5.626Y-3.2047
X5.6378Y-3.7283
X5.6417Y-3.5974
X5.6457Y-3.1575
X5.6614Y-2.9409
X5.6614Y-3.5315
X5.6654Y-4.122
X5.6654Y-4.4488
X5.6732Y-3.2047
X5.6772Y-3.7165
X5.7008Y-4.9094
X5.7047Y-2.9685
X5.7087Y-3.7441
X5.7165Y-3.1575
X5.7244Y-3.8031
X5.748Y-5.3425
X5.751Y-4.3071
X5.7638Y-3.4961
X5.7717Y-4.122
X5.7795Y-4.6614
X5.7874Y-4.3425
X5.7953Y-3.4252
X5.7953Y-3.5965
X5.7992Y-5.0866
X5.815Y-3.0709
X5.8189Y-3.9803
X5.8268Y-3.3858
X5.8268Y-3.563
X5.8386Y-4.5945
X5.8504Y-5.311
X5.8583Y-3.4606
X5.8583Y-4.378
X5.8701Y-2.4291
X5.8701Y-2.5433
X5.8898Y-3.3425
X5.8898Y-3.5315
X5.8937Y-4.0906
X5.8937Y-4.5394
X5.9016Y-5.1181
X5.9172Y-2.5904
X5.9173Y-2.4528
X5.9203Y-3.2923
X5.9291Y-4.4126
X5.9528Y-5.2756
X5.9528Y-3.2441
X5.9567Y-3.9803
X5.9646Y-4.4843
X5.9685Y-4.0906
X5.9843Y-3.1929
X6.0Y-4.4488
X6.0Y-5.1496
X6.0157Y-4.122
X6.0167Y-3.0886
X6.0167Y-3.9094
X6.0394Y-4.2874
X6.0512Y-2.7008
X6.0512Y-3.9488
X6.0512Y-4.0
X6.0512Y-4.0866
X6.0512Y-5.2441
X6.0748Y-4.3386
X6.0768Y-4.1378
X6.0846Y-3.4606
X6.0846Y-3.563
X6.0861Y-3.8034
X6.0866Y-3.2874
X6.0866Y-3.3878
X6.1024Y-5.1811
X6.1102Y-4.3878
X6.1181Y-4.0394
X6.122Y-3.5394
X6.122Y-2.7815
X6.122Y-3.0886
X6.122Y-3.2382
X6.122Y-3.3386
X6.122Y-3.439
X6.122Y-3.8386
X6.1457Y-4.437
X6.1496Y-5.2126
X6.1575Y-3.687
X6.1575Y-3.7402
X6.1575Y-3.7874
X6.1693Y-4.7362
X6.1693Y-4.7913
X6.1693Y-4.8465
X6.1929Y-5.0866
X6.2087Y-5.2913
X6.252Y-5.3189
X6.2717Y-5.4409
X6.2717Y-5.5039
T2
X2.4646Y-3.9213
X2.4764Y-3.6693
X2.6969Y-3.6693
X3.2638Y-2.4016
X3.2638Y-2.8268
X3.311Y-2.4488
X3.3543Y-2.8268
T3
X2.0945Y-4.9291
X2.0945Y-5.4961
X2.2402Y-3.7756
X2.252Y-4.0866
X2.2953Y-5.4961
X2.315Y-3.6693
X2.3228Y-4.9094
X2.3809Y-4.9104
X2.6132Y-4.8947
X2.6614Y-3.8898
X2.6654Y-3.7126
X2.6811Y-4.3701
X2.8268Y-4.622
X2.9449Y-2.4016
X3.0335Y-4.8996
X3.0354Y-2.5709
X3.0709Y-4.2717
X3.122Y-4.2205
X3.1299Y-2.8268
X3.2283Y-2.9252
X3.2402Y-4.1024
X3.2559Y-3.0236
X3.2559Y-3.0709
X3.2559Y-3.1181
X3.2559Y-3.3543
X3.2559Y-5.0197
X3.2756Y-3.8661
X3.2874Y-4.0551
X3.3031Y-2.9764
X3.3031Y-3.0236
X3.3031Y-3.0709
X3.3031Y-3.1181
X3.3031Y-3.3543
X3.3031Y-3.4016
X3.3504Y-2.9764
X3.3504Y-3.0236
X3.3504Y-3.0709
X3.3504Y-3.1181
X3.3504Y-3.3543
X3.3504Y-3.4016
X3.3543Y-4.4724
X3.3976Y-2.9764
X3.3976Y-3.0236
X3.3976Y-3.0709
X3.3976Y-3.1181
X3.3976Y-3.3543
X3.3976Y-3.4016
X3.4449Y-2.9764
X3.4449Y-3.0236
X3.4449Y-3.0709
X3.4449Y-3.1181
X3.4449Y-3.1654
X3.4449Y-3.2126
X3.4449Y-3.2598
X3.4449Y-3.3071
X3.4449Y-3.3543
X3.4449Y-3.4016
X3.4921Y-3.0236
X3.4921Y-3.0709
X3.4921Y-3.1181
X3.4921Y-3.1654
X3.4921Y-3.2126
X3.4921Y-3.2598
X3.4921Y-3.3071
X3.4921Y-3.3543
X3.5433Y-4.7992
X3.563Y-4.2717
X3.6024Y-2.4055
X3.6299Y-4.0354
X3.6732Y-5.1181
X3.685Y-2.4764
X3.6969Y-4.6457
X3.7913Y-4.2047
X3.8268Y-4.4961
X3.8465Y-2.9528
X3.9134Y-4.4134
X3.9291Y-3.8307
X3.9882Y-4.8071
X4.0748Y-4.0197
X4.2047Y-4.2835
X4.2283Y-4.8465
X4.2362Y-3.874
X4.2441Y-4.2047
X4.2677Y-5.1614
X4.3346Y-3.2795
X4.3504Y-4.437
X4.3937Y-4.752
X4.4173Y-3.622
X4.5669Y-3.8858
X4.6181Y-4.5
X4.752Y-4.9902
X4.7638Y-5.3898
X4.7657Y-3.5374
X4.7835Y-4.122
X4.878Y-4.122
X5.0433Y-2.3346
X5.0512Y-2.7402
X5.4488Y-2.5118
X5.5748Y-2.5118
X5.7047Y-3.8858
X5.7126Y-4.7717
X6.1496Y-5.3898
X6.1673Y-2.7402
T5
X2.6496Y-4.4528
X2.6496Y-4.7126
X2.7126Y-2.8307
X2.7126Y-2.9449
X2.8031Y-2.6772
X2.8051Y-3.1102
X2.9449Y-2.7559
X2.9665Y-3.8917
X3.0079Y-3.1142
X3.1181Y-3.7559
X3.1201Y-3.061
X3.3071Y-3.6299
X3.6299Y-2.2283
X3.6575Y-3.4449
X4.2047Y-3.4921
X4.7126Y-3.1378
T6
X4.8504Y-4.9906
X4.8504Y-5.5906
X4.9504Y-4.9906
X4.9504Y-5.5906
X5.0504Y-4.9906
X5.0504Y-5.5906
X5.1504Y-4.9906
X5.1504Y-5.5906
X5.2504Y-4.9906
X5.2504Y-5.5906
X5.3504Y-4.9906
X5.3504Y-5.5906
X5.4504Y-4.9906
X5.4504Y-5.5906
X5.5504Y-4.9906
X5.5504Y-5.5906
X5.6504Y-4.9906
X5.6504Y-5.5906
X5.7504Y-4.9906
X5.7504Y-5.5906
X5.8504Y-4.9906
X5.8504Y-5.5906
X5.9504Y-4.9906
X5.9504Y-5.5906
X6.0504Y-4.9906
X6.0504Y-5.5906
X6.1504Y-4.9906
X6.1504Y-5.5906
T8
X2.1486Y-4.5169
X2.1486Y-4.6169
X2.2486Y-4.5169
X2.2486Y-4.6169
X2.1486Y-4.328
X2.1486Y-4.428
X2.2486Y-4.328
X2.2486Y-4.428
X2.1486Y-4.7059
X2.1486Y-4.8059
X2.2486Y-4.7059
X2.2486Y-4.8059
T9
X2.0866Y-3.4528
X2.0866Y-3.6299
X2.087Y-2.9827
X2.087Y-3.1598
T10
X5.7953Y-2.2677
X3.3795Y-5.3937
X3.3795Y-5.4937
X3.4795Y-5.3937
X3.4795Y-5.4937
X3.5795Y-5.3937
X3.5795Y-5.4937
X3.6795Y-5.3937
X3.6795Y-5.4937
X3.7795Y-5.3937
X3.7795Y-5.4937
X6.373Y-2.988
X6.373Y-3.088
X6.373Y-3.188
X6.373Y-3.288
X6.373Y-3.388
X6.373Y-3.488
X6.373Y-3.588
X6.373Y-3.688
X6.373Y-3.788
X6.373Y-3.888
X6.373Y-3.988
X6.373Y-4.088
X6.373Y-4.188
X6.373Y-4.288
X6.373Y-4.388
X6.373Y-4.488
X6.373Y-4.588
X6.373Y-4.688
X6.373Y-4.788
X6.373Y-4.888
X6.473Y-2.988
X6.473Y-3.088
X6.473Y-3.188
X6.473Y-3.288
X6.473Y-3.388
X6.473Y-3.488
X6.473Y-3.588
X6.473Y-3.688
X6.473Y-3.788
X6.473Y-3.888
X6.473Y-3.988
X6.473Y-4.088
X6.473Y-4.188
X6.473Y-4.288
X6.473Y-4.388
X6.473Y-4.488
X6.473Y-4.588
X6.473Y-4.688
X6.473Y-4.788
X6.473Y-4.888
X6.1063Y-2.4409
X6.1063Y-2.5409
X5.6378Y-2.2677
X5.9528Y-2.2677
X4.1732Y-5.3937
X4.2732Y-5.3937
X5.4803Y-2.2677
X4.874Y-3.1102
X3.0185Y-3.5039
X3.1185Y-3.5039
X3.2185Y-3.5039
X2.5276Y-3.5039
X2.6276Y-3.5039
X2.7276Y-3.5039
X4.1732Y-5.5906
X4.2732Y-5.5906
X2.437Y-3.0709
X2.6693Y-5.3961
X2.6693Y-5.4961
X2.7693Y-5.3961
X2.7693Y-5.4961
X2.8693Y-5.3961
X2.8693Y-5.4961
X2.9693Y-5.3961
X2.9693Y-5.4961
X5.3228Y-2.2677
X3.1102Y-2.2677
X3.2102Y-2.2677
X3.3102Y-2.2677
X3.4102Y-2.2677
X3.7717Y-3.4291
X5.1654Y-2.2677
T11
X2.1846Y-3.4031
X2.1846Y-3.6791
X2.185Y-2.9331
X2.185Y-3.2091
T4
G00X2.0541Y-3.8632
M15
G01X2.0285Y-3.8632
M16
G05
G00X2.0541Y-4.1683
M15
G01X2.0285Y-4.1683
M16
G05
T7
G00X2.2018Y-3.8691
M15
G01X2.1801Y-3.8691
M16
G05
G00X2.2018Y-4.1624
M15
G01X2.1801Y-4.1624
M16
G05
T10
G00X2.2441Y-2.6102
M15
G01X2.2441Y-2.5866
M16
G05
G00X2.374Y-2.7835
M15
G01X2.3504Y-2.7835
M16
G05
G00X2.4803Y-2.6102
M15
G01X2.4803Y-2.5866
M16
G05
T0
M30
