%TF.GenerationSoftware,KiCad,Pcbnew,(5.1.6)-1*%
%TF.CreationDate,2020-07-06T11:54:37-04:00*%
%TF.ProjectId,hd6309sbc_v2,68643633-3039-4736-9263-5f76322e6b69,rev?*%
%TF.SameCoordinates,Original*%
%TF.FileFunction,Legend,Top*%
%TF.FilePolarity,Positive*%
%FSLAX46Y46*%
G04 Gerber Fmt 4.6, Leading zero omitted, Abs format (unit mm)*
G04 Created by KiCad (PCBNEW (5.1.6)-1) date 2020-07-06 11:54:37*
%MOMM*%
%LPD*%
G01*
G04 APERTURE LIST*
%ADD10C,0.400000*%
%ADD11C,0.300000*%
%ADD12C,0.100000*%
%ADD13C,0.150000*%
%ADD14C,0.200000*%
%ADD15C,0.127000*%
%ADD16C,0.120000*%
%ADD17C,0.350000*%
%ADD18C,0.250000*%
G04 APERTURE END LIST*
D10*
X101151662Y-59798633D02*
G75*
G03*
X101151662Y-59798633I-223607J0D01*
G01*
D11*
X64535714Y-93178571D02*
X64035714Y-92464285D01*
X63678571Y-93178571D02*
X63678571Y-91678571D01*
X64250000Y-91678571D01*
X64392857Y-91750000D01*
X64464285Y-91821428D01*
X64535714Y-91964285D01*
X64535714Y-92178571D01*
X64464285Y-92321428D01*
X64392857Y-92392857D01*
X64250000Y-92464285D01*
X63678571Y-92464285D01*
X65035714Y-91678571D02*
X66035714Y-93178571D01*
X66035714Y-91678571D02*
X65035714Y-93178571D01*
X67392857Y-93178571D02*
X66535714Y-93178571D01*
X66964285Y-93178571D02*
X66964285Y-91678571D01*
X66821428Y-91892857D01*
X66678571Y-92035714D01*
X66535714Y-92107142D01*
X154471428Y-114414285D02*
X154471428Y-113652380D01*
X153804761Y-114128571D02*
X155519047Y-114128571D01*
X155709523Y-114033333D01*
X155804761Y-113842857D01*
X155804761Y-113652380D01*
X155804761Y-112700000D02*
X155709523Y-112890476D01*
X155614285Y-112985714D01*
X155423809Y-113080952D01*
X154852380Y-113080952D01*
X154661904Y-112985714D01*
X154566666Y-112890476D01*
X154471428Y-112700000D01*
X154471428Y-112414285D01*
X154566666Y-112223809D01*
X154661904Y-112128571D01*
X154852380Y-112033333D01*
X155423809Y-112033333D01*
X155614285Y-112128571D01*
X155709523Y-112223809D01*
X155804761Y-112414285D01*
X155804761Y-112700000D01*
X155804761Y-111176190D02*
X154471428Y-111176190D01*
X154661904Y-111176190D02*
X154566666Y-111080952D01*
X154471428Y-110890476D01*
X154471428Y-110604761D01*
X154566666Y-110414285D01*
X154757142Y-110319047D01*
X155804761Y-110319047D01*
X154757142Y-110319047D02*
X154566666Y-110223809D01*
X154471428Y-110033333D01*
X154471428Y-109747619D01*
X154566666Y-109557142D01*
X154757142Y-109461904D01*
X155804761Y-109461904D01*
X155709523Y-107652380D02*
X155804761Y-107842857D01*
X155804761Y-108223809D01*
X155709523Y-108414285D01*
X155614285Y-108509523D01*
X155423809Y-108604761D01*
X154852380Y-108604761D01*
X154661904Y-108509523D01*
X154566666Y-108414285D01*
X154471428Y-108223809D01*
X154471428Y-107842857D01*
X154566666Y-107652380D01*
X155804761Y-106795238D02*
X154471428Y-106795238D01*
X153804761Y-106795238D02*
X153900000Y-106890476D01*
X153995238Y-106795238D01*
X153900000Y-106700000D01*
X153804761Y-106795238D01*
X153995238Y-106795238D01*
X155804761Y-105842857D02*
X154471428Y-105842857D01*
X154852380Y-105842857D02*
X154661904Y-105747619D01*
X154566666Y-105652380D01*
X154471428Y-105461904D01*
X154471428Y-105271428D01*
X155709523Y-103747619D02*
X155804761Y-103938095D01*
X155804761Y-104319047D01*
X155709523Y-104509523D01*
X155614285Y-104604761D01*
X155423809Y-104700000D01*
X154852380Y-104700000D01*
X154661904Y-104604761D01*
X154566666Y-104509523D01*
X154471428Y-104319047D01*
X154471428Y-103938095D01*
X154566666Y-103747619D01*
X154471428Y-102033333D02*
X155804761Y-102033333D01*
X154471428Y-102890476D02*
X155519047Y-102890476D01*
X155709523Y-102795238D01*
X155804761Y-102604761D01*
X155804761Y-102319047D01*
X155709523Y-102128571D01*
X155614285Y-102033333D01*
X155804761Y-101080952D02*
X154471428Y-101080952D01*
X153804761Y-101080952D02*
X153900000Y-101176190D01*
X153995238Y-101080952D01*
X153900000Y-100985714D01*
X153804761Y-101080952D01*
X153995238Y-101080952D01*
X154471428Y-100414285D02*
X154471428Y-99652380D01*
X153804761Y-100128571D02*
X155519047Y-100128571D01*
X155709523Y-100033333D01*
X155804761Y-99842857D01*
X155804761Y-99652380D01*
X153804761Y-95080952D02*
X153804761Y-95461904D01*
X153900000Y-95652380D01*
X153995238Y-95747619D01*
X154280952Y-95938095D01*
X154661904Y-96033333D01*
X155423809Y-96033333D01*
X155614285Y-95938095D01*
X155709523Y-95842857D01*
X155804761Y-95652380D01*
X155804761Y-95271428D01*
X155709523Y-95080952D01*
X155614285Y-94985714D01*
X155423809Y-94890476D01*
X154947619Y-94890476D01*
X154757142Y-94985714D01*
X154661904Y-95080952D01*
X154566666Y-95271428D01*
X154566666Y-95652380D01*
X154661904Y-95842857D01*
X154757142Y-95938095D01*
X154947619Y-96033333D01*
X153709523Y-92604761D02*
X156280952Y-94319047D01*
X153995238Y-92033333D02*
X153900000Y-91938095D01*
X153804761Y-91747619D01*
X153804761Y-91271428D01*
X153900000Y-91080952D01*
X153995238Y-90985714D01*
X154185714Y-90890476D01*
X154376190Y-90890476D01*
X154661904Y-90985714D01*
X155804761Y-92128571D01*
X155804761Y-90890476D01*
X153804761Y-89652380D02*
X153804761Y-89461904D01*
X153900000Y-89271428D01*
X153995238Y-89176190D01*
X154185714Y-89080952D01*
X154566666Y-88985714D01*
X155042857Y-88985714D01*
X155423809Y-89080952D01*
X155614285Y-89176190D01*
X155709523Y-89271428D01*
X155804761Y-89461904D01*
X155804761Y-89652380D01*
X155709523Y-89842857D01*
X155614285Y-89938095D01*
X155423809Y-90033333D01*
X155042857Y-90128571D01*
X154566666Y-90128571D01*
X154185714Y-90033333D01*
X153995238Y-89938095D01*
X153900000Y-89842857D01*
X153804761Y-89652380D01*
X153995238Y-88223809D02*
X153900000Y-88128571D01*
X153804761Y-87938095D01*
X153804761Y-87461904D01*
X153900000Y-87271428D01*
X153995238Y-87176190D01*
X154185714Y-87080952D01*
X154376190Y-87080952D01*
X154661904Y-87176190D01*
X155804761Y-88319047D01*
X155804761Y-87080952D01*
X153804761Y-85842857D02*
X153804761Y-85652380D01*
X153900000Y-85461904D01*
X153995238Y-85366666D01*
X154185714Y-85271428D01*
X154566666Y-85176190D01*
X155042857Y-85176190D01*
X155423809Y-85271428D01*
X155614285Y-85366666D01*
X155709523Y-85461904D01*
X155804761Y-85652380D01*
X155804761Y-85842857D01*
X155709523Y-86033333D01*
X155614285Y-86128571D01*
X155423809Y-86223809D01*
X155042857Y-86319047D01*
X154566666Y-86319047D01*
X154185714Y-86223809D01*
X153995238Y-86128571D01*
X153900000Y-86033333D01*
X153804761Y-85842857D01*
D10*
X152130952Y-113111904D02*
X149630952Y-113111904D01*
X150821428Y-113111904D02*
X150821428Y-111683333D01*
X152130952Y-111683333D02*
X149630952Y-111683333D01*
X152130952Y-110492857D02*
X149630952Y-110492857D01*
X149630952Y-109897619D01*
X149750000Y-109540476D01*
X149988095Y-109302380D01*
X150226190Y-109183333D01*
X150702380Y-109064285D01*
X151059523Y-109064285D01*
X151535714Y-109183333D01*
X151773809Y-109302380D01*
X152011904Y-109540476D01*
X152130952Y-109897619D01*
X152130952Y-110492857D01*
X149630952Y-106921428D02*
X149630952Y-107397619D01*
X149750000Y-107635714D01*
X149869047Y-107754761D01*
X150226190Y-107992857D01*
X150702380Y-108111904D01*
X151654761Y-108111904D01*
X151892857Y-107992857D01*
X152011904Y-107873809D01*
X152130952Y-107635714D01*
X152130952Y-107159523D01*
X152011904Y-106921428D01*
X151892857Y-106802380D01*
X151654761Y-106683333D01*
X151059523Y-106683333D01*
X150821428Y-106802380D01*
X150702380Y-106921428D01*
X150583333Y-107159523D01*
X150583333Y-107635714D01*
X150702380Y-107873809D01*
X150821428Y-107992857D01*
X151059523Y-108111904D01*
X149630952Y-105850000D02*
X149630952Y-104302380D01*
X150583333Y-105135714D01*
X150583333Y-104778571D01*
X150702380Y-104540476D01*
X150821428Y-104421428D01*
X151059523Y-104302380D01*
X151654761Y-104302380D01*
X151892857Y-104421428D01*
X152011904Y-104540476D01*
X152130952Y-104778571D01*
X152130952Y-105492857D01*
X152011904Y-105730952D01*
X151892857Y-105850000D01*
X149630952Y-102754761D02*
X149630952Y-102516666D01*
X149750000Y-102278571D01*
X149869047Y-102159523D01*
X150107142Y-102040476D01*
X150583333Y-101921428D01*
X151178571Y-101921428D01*
X151654761Y-102040476D01*
X151892857Y-102159523D01*
X152011904Y-102278571D01*
X152130952Y-102516666D01*
X152130952Y-102754761D01*
X152011904Y-102992857D01*
X151892857Y-103111904D01*
X151654761Y-103230952D01*
X151178571Y-103350000D01*
X150583333Y-103350000D01*
X150107142Y-103230952D01*
X149869047Y-103111904D01*
X149750000Y-102992857D01*
X149630952Y-102754761D01*
X152130952Y-100730952D02*
X152130952Y-100254761D01*
X152011904Y-100016666D01*
X151892857Y-99897619D01*
X151535714Y-99659523D01*
X151059523Y-99540476D01*
X150107142Y-99540476D01*
X149869047Y-99659523D01*
X149750000Y-99778571D01*
X149630952Y-100016666D01*
X149630952Y-100492857D01*
X149750000Y-100730952D01*
X149869047Y-100850000D01*
X150107142Y-100969047D01*
X150702380Y-100969047D01*
X150940476Y-100850000D01*
X151059523Y-100730952D01*
X151178571Y-100492857D01*
X151178571Y-100016666D01*
X151059523Y-99778571D01*
X150940476Y-99659523D01*
X150702380Y-99540476D01*
X152011904Y-96683333D02*
X152130952Y-96326190D01*
X152130952Y-95730952D01*
X152011904Y-95492857D01*
X151892857Y-95373809D01*
X151654761Y-95254761D01*
X151416666Y-95254761D01*
X151178571Y-95373809D01*
X151059523Y-95492857D01*
X150940476Y-95730952D01*
X150821428Y-96207142D01*
X150702380Y-96445238D01*
X150583333Y-96564285D01*
X150345238Y-96683333D01*
X150107142Y-96683333D01*
X149869047Y-96564285D01*
X149750000Y-96445238D01*
X149630952Y-96207142D01*
X149630952Y-95611904D01*
X149750000Y-95254761D01*
X150821428Y-93350000D02*
X150940476Y-92992857D01*
X151059523Y-92873809D01*
X151297619Y-92754761D01*
X151654761Y-92754761D01*
X151892857Y-92873809D01*
X152011904Y-92992857D01*
X152130952Y-93230952D01*
X152130952Y-94183333D01*
X149630952Y-94183333D01*
X149630952Y-93350000D01*
X149750000Y-93111904D01*
X149869047Y-92992857D01*
X150107142Y-92873809D01*
X150345238Y-92873809D01*
X150583333Y-92992857D01*
X150702380Y-93111904D01*
X150821428Y-93350000D01*
X150821428Y-94183333D01*
X151892857Y-90254761D02*
X152011904Y-90373809D01*
X152130952Y-90730952D01*
X152130952Y-90969047D01*
X152011904Y-91326190D01*
X151773809Y-91564285D01*
X151535714Y-91683333D01*
X151059523Y-91802380D01*
X150702380Y-91802380D01*
X150226190Y-91683333D01*
X149988095Y-91564285D01*
X149750000Y-91326190D01*
X149630952Y-90969047D01*
X149630952Y-90730952D01*
X149750000Y-90373809D01*
X149869047Y-90254761D01*
X152130952Y-87278571D02*
X149630952Y-87278571D01*
X152130952Y-86088095D02*
X149630952Y-86088095D01*
X73285147Y-113364087D02*
G75*
G03*
X73285147Y-113364087I-223607J0D01*
G01*
X124991840Y-98739761D02*
G75*
G03*
X124991840Y-98739761I-223607J0D01*
G01*
X124991840Y-121839761D02*
G75*
G03*
X124991840Y-121839761I-223607J0D01*
G01*
X105191840Y-125239761D02*
G75*
G03*
X105191840Y-125239761I-223607J0D01*
G01*
X108291840Y-114839761D02*
G75*
G03*
X108291840Y-114839761I-223607J0D01*
G01*
X108191840Y-100339761D02*
G75*
G03*
X108191840Y-100339761I-223607J0D01*
G01*
X106691840Y-90639761D02*
G75*
G03*
X106691840Y-90639761I-223607J0D01*
G01*
X91903529Y-83404567D02*
G75*
G03*
X91903529Y-83404567I-223607J0D01*
G01*
X70091840Y-78739761D02*
G75*
G03*
X70091840Y-78739761I-223607J0D01*
G01*
X73691840Y-69939761D02*
G75*
G03*
X73691840Y-69939761I-223607J0D01*
G01*
X87972101Y-69998633D02*
G75*
G03*
X87972101Y-69998633I-223607J0D01*
G01*
X139191840Y-59939761D02*
G75*
G03*
X139191840Y-59939761I-223607J0D01*
G01*
D11*
X62291840Y-100406544D02*
G75*
G03*
X62291840Y-100406544I-223607J0D01*
G01*
D12*
G36*
X124200000Y-146511889D02*
G01*
X122200000Y-146511889D01*
X123200000Y-144311889D01*
X124200000Y-146511889D01*
G37*
X124200000Y-146511889D02*
X122200000Y-146511889D01*
X123200000Y-144311889D01*
X124200000Y-146511889D01*
G36*
X159385215Y-124159841D02*
G01*
X157185215Y-125159841D01*
X157185215Y-123159841D01*
X159385215Y-124159841D01*
G37*
X159385215Y-124159841D02*
X157185215Y-125159841D01*
X157185215Y-123159841D01*
X159385215Y-124159841D01*
G36*
X96000000Y-133400000D02*
G01*
X95000000Y-131200000D01*
X97000000Y-131200000D01*
X96000000Y-133400000D01*
G37*
X96000000Y-133400000D02*
X95000000Y-131200000D01*
X97000000Y-131200000D01*
X96000000Y-133400000D01*
D13*
X62200000Y-105800000D02*
X62800000Y-106400000D01*
X62200000Y-104400000D02*
X62200000Y-105800000D01*
X61800000Y-104000000D02*
X62200000Y-104400000D01*
X61200000Y-108000000D02*
X60200000Y-107000000D01*
X62800000Y-108000000D02*
X61200000Y-108000000D01*
D11*
X74857142Y-143914285D02*
X74800000Y-143857142D01*
X74742857Y-143742857D01*
X74742857Y-143457142D01*
X74800000Y-143342857D01*
X74857142Y-143285714D01*
X74971428Y-143228571D01*
X75085714Y-143228571D01*
X75257142Y-143285714D01*
X75942857Y-143971428D01*
X75942857Y-143228571D01*
X74742857Y-142828571D02*
X74742857Y-142028571D01*
X75942857Y-142542857D01*
X72357142Y-143914285D02*
X72300000Y-143857142D01*
X72242857Y-143742857D01*
X72242857Y-143457142D01*
X72300000Y-143342857D01*
X72357142Y-143285714D01*
X72471428Y-143228571D01*
X72585714Y-143228571D01*
X72757142Y-143285714D01*
X73442857Y-143971428D01*
X73442857Y-143228571D01*
X72242857Y-142200000D02*
X72242857Y-142428571D01*
X72300000Y-142542857D01*
X72357142Y-142600000D01*
X72528571Y-142714285D01*
X72757142Y-142771428D01*
X73214285Y-142771428D01*
X73328571Y-142714285D01*
X73385714Y-142657142D01*
X73442857Y-142542857D01*
X73442857Y-142314285D01*
X73385714Y-142200000D01*
X73328571Y-142142857D01*
X73214285Y-142085714D01*
X72928571Y-142085714D01*
X72814285Y-142142857D01*
X72757142Y-142200000D01*
X72700000Y-142314285D01*
X72700000Y-142542857D01*
X72757142Y-142657142D01*
X72814285Y-142714285D01*
X72928571Y-142771428D01*
X69857142Y-143914285D02*
X69800000Y-143857142D01*
X69742857Y-143742857D01*
X69742857Y-143457142D01*
X69800000Y-143342857D01*
X69857142Y-143285714D01*
X69971428Y-143228571D01*
X70085714Y-143228571D01*
X70257142Y-143285714D01*
X70942857Y-143971428D01*
X70942857Y-143228571D01*
X69742857Y-142142857D02*
X69742857Y-142714285D01*
X70314285Y-142771428D01*
X70257142Y-142714285D01*
X70200000Y-142600000D01*
X70200000Y-142314285D01*
X70257142Y-142200000D01*
X70314285Y-142142857D01*
X70428571Y-142085714D01*
X70714285Y-142085714D01*
X70828571Y-142142857D01*
X70885714Y-142200000D01*
X70942857Y-142314285D01*
X70942857Y-142600000D01*
X70885714Y-142714285D01*
X70828571Y-142771428D01*
X67257142Y-143914285D02*
X67200000Y-143857142D01*
X67142857Y-143742857D01*
X67142857Y-143457142D01*
X67200000Y-143342857D01*
X67257142Y-143285714D01*
X67371428Y-143228571D01*
X67485714Y-143228571D01*
X67657142Y-143285714D01*
X68342857Y-143971428D01*
X68342857Y-143228571D01*
X67542857Y-142200000D02*
X68342857Y-142200000D01*
X67085714Y-142485714D02*
X67942857Y-142771428D01*
X67942857Y-142028571D01*
D10*
X78200000Y-90800000D02*
X83000000Y-90800000D01*
D11*
X78607142Y-91678571D02*
X78607142Y-92892857D01*
X78678571Y-93035714D01*
X78750000Y-93107142D01*
X78892857Y-93178571D01*
X79178571Y-93178571D01*
X79321428Y-93107142D01*
X79392857Y-93035714D01*
X79464285Y-92892857D01*
X79464285Y-91678571D01*
X80107142Y-93107142D02*
X80321428Y-93178571D01*
X80678571Y-93178571D01*
X80821428Y-93107142D01*
X80892857Y-93035714D01*
X80964285Y-92892857D01*
X80964285Y-92750000D01*
X80892857Y-92607142D01*
X80821428Y-92535714D01*
X80678571Y-92464285D01*
X80392857Y-92392857D01*
X80250000Y-92321428D01*
X80178571Y-92250000D01*
X80107142Y-92107142D01*
X80107142Y-91964285D01*
X80178571Y-91821428D01*
X80250000Y-91750000D01*
X80392857Y-91678571D01*
X80750000Y-91678571D01*
X80964285Y-91750000D01*
X82107142Y-92392857D02*
X82321428Y-92464285D01*
X82392857Y-92535714D01*
X82464285Y-92678571D01*
X82464285Y-92892857D01*
X82392857Y-93035714D01*
X82321428Y-93107142D01*
X82178571Y-93178571D01*
X81607142Y-93178571D01*
X81607142Y-91678571D01*
X82107142Y-91678571D01*
X82250000Y-91750000D01*
X82321428Y-91821428D01*
X82392857Y-91964285D01*
X82392857Y-92107142D01*
X82321428Y-92250000D01*
X82250000Y-92321428D01*
X82107142Y-92392857D01*
X81607142Y-92392857D01*
D14*
X86000000Y-54514285D02*
X85942857Y-54628571D01*
X85942857Y-54800000D01*
X86000000Y-54971428D01*
X86114285Y-55085714D01*
X86228571Y-55142857D01*
X86457142Y-55200000D01*
X86628571Y-55200000D01*
X86857142Y-55142857D01*
X86971428Y-55085714D01*
X87085714Y-54971428D01*
X87142857Y-54800000D01*
X87142857Y-54685714D01*
X87085714Y-54514285D01*
X87028571Y-54457142D01*
X86628571Y-54457142D01*
X86628571Y-54685714D01*
X87142857Y-53942857D02*
X85942857Y-53942857D01*
X87142857Y-53257142D01*
X85942857Y-53257142D01*
X87142857Y-52685714D02*
X85942857Y-52685714D01*
X85942857Y-52400000D01*
X86000000Y-52228571D01*
X86114285Y-52114285D01*
X86228571Y-52057142D01*
X86457142Y-52000000D01*
X86628571Y-52000000D01*
X86857142Y-52057142D01*
X86971428Y-52114285D01*
X87085714Y-52228571D01*
X87142857Y-52400000D01*
X87142857Y-52685714D01*
X78342857Y-55114285D02*
X78342857Y-54371428D01*
X78800000Y-54771428D01*
X78800000Y-54600000D01*
X78857142Y-54485714D01*
X78914285Y-54428571D01*
X79028571Y-54371428D01*
X79314285Y-54371428D01*
X79428571Y-54428571D01*
X79485714Y-54485714D01*
X79542857Y-54600000D01*
X79542857Y-54942857D01*
X79485714Y-55057142D01*
X79428571Y-55114285D01*
X78342857Y-54028571D02*
X79542857Y-53628571D01*
X78342857Y-53228571D01*
X84485714Y-55028571D02*
X84542857Y-54857142D01*
X84542857Y-54571428D01*
X84485714Y-54457142D01*
X84428571Y-54400000D01*
X84314285Y-54342857D01*
X84200000Y-54342857D01*
X84085714Y-54400000D01*
X84028571Y-54457142D01*
X83971428Y-54571428D01*
X83914285Y-54800000D01*
X83857142Y-54914285D01*
X83800000Y-54971428D01*
X83685714Y-55028571D01*
X83571428Y-55028571D01*
X83457142Y-54971428D01*
X83400000Y-54914285D01*
X83342857Y-54800000D01*
X83342857Y-54514285D01*
X83400000Y-54342857D01*
X84428571Y-53142857D02*
X84485714Y-53200000D01*
X84542857Y-53371428D01*
X84542857Y-53485714D01*
X84485714Y-53657142D01*
X84371428Y-53771428D01*
X84257142Y-53828571D01*
X84028571Y-53885714D01*
X83857142Y-53885714D01*
X83628571Y-53828571D01*
X83514285Y-53771428D01*
X83400000Y-53657142D01*
X83342857Y-53485714D01*
X83342857Y-53371428D01*
X83400000Y-53200000D01*
X83457142Y-53142857D01*
X84542857Y-52057142D02*
X84542857Y-52628571D01*
X83342857Y-52628571D01*
X82085714Y-55057142D02*
X82142857Y-54885714D01*
X82142857Y-54600000D01*
X82085714Y-54485714D01*
X82028571Y-54428571D01*
X81914285Y-54371428D01*
X81800000Y-54371428D01*
X81685714Y-54428571D01*
X81628571Y-54485714D01*
X81571428Y-54600000D01*
X81514285Y-54828571D01*
X81457142Y-54942857D01*
X81400000Y-55000000D01*
X81285714Y-55057142D01*
X81171428Y-55057142D01*
X81057142Y-55000000D01*
X81000000Y-54942857D01*
X80942857Y-54828571D01*
X80942857Y-54542857D01*
X81000000Y-54371428D01*
X82142857Y-53857142D02*
X80942857Y-53857142D01*
X80942857Y-53571428D01*
X81000000Y-53400000D01*
X81114285Y-53285714D01*
X81228571Y-53228571D01*
X81457142Y-53171428D01*
X81628571Y-53171428D01*
X81857142Y-53228571D01*
X81971428Y-53285714D01*
X82085714Y-53400000D01*
X82142857Y-53571428D01*
X82142857Y-53857142D01*
X81800000Y-52714285D02*
X81800000Y-52142857D01*
X82142857Y-52828571D02*
X80942857Y-52428571D01*
X82142857Y-52028571D01*
D10*
X62800000Y-90800000D02*
X67600000Y-90800000D01*
D15*
%TO.C,J3*%
X49300000Y-70500000D02*
X49300000Y-61500000D01*
X49300000Y-61500000D02*
X63700000Y-61500000D01*
X63700000Y-70500000D02*
X61850000Y-70500000D01*
X63700000Y-61500000D02*
X63700000Y-64450000D01*
X58250000Y-70500000D02*
X49300000Y-70500000D01*
X63700000Y-67450000D02*
X63700000Y-70500000D01*
D16*
%TO.C,C29*%
X95221078Y-73290000D02*
X94703922Y-73290000D01*
X95221078Y-74710000D02*
X94703922Y-74710000D01*
%TO.C,TP15*%
X122600000Y-80200000D02*
X122600000Y-77800000D01*
X122600000Y-77800000D02*
X125000000Y-77800000D01*
X125000000Y-77800000D02*
X125000000Y-80200000D01*
X125000000Y-80200000D02*
X122600000Y-80200000D01*
%TO.C,BT1*%
X102990802Y-77504388D02*
X101390802Y-80275670D01*
X101390802Y-80275670D02*
X102733142Y-81050670D01*
X99093688Y-75254388D02*
X102990802Y-77504388D01*
X99093688Y-75254388D02*
X109543688Y-57154457D01*
X112002534Y-56495612D02*
X114340802Y-57845612D01*
X109543688Y-57154457D02*
X112002534Y-56495612D01*
X114340802Y-57845612D02*
X115940802Y-55074330D01*
X115940802Y-55074330D02*
X117283142Y-55849330D01*
X121009198Y-61695612D02*
X122609198Y-58924330D01*
X122609198Y-58924330D02*
X121266858Y-58149330D01*
X109659198Y-81354388D02*
X108059198Y-84125670D01*
X108059198Y-84125670D02*
X106716858Y-83350670D01*
X124906312Y-63945612D02*
X113556312Y-83604388D01*
X124906312Y-63945612D02*
X121009198Y-61695612D01*
X113556312Y-83604388D02*
X109659198Y-81354388D01*
X114169873Y-55841670D02*
X112437822Y-54841670D01*
X112803848Y-56207695D02*
X113803848Y-54475644D01*
%TO.C,R29*%
X95221078Y-76610000D02*
X94703922Y-76610000D01*
X95221078Y-75190000D02*
X94703922Y-75190000D01*
%TO.C,U5*%
X101625948Y-111671751D02*
X102297699Y-111000000D01*
X102297699Y-111000000D02*
X101625948Y-110328249D01*
X88671751Y-124625948D02*
X88000000Y-125297699D01*
X88000000Y-125297699D02*
X87328249Y-124625948D01*
X87328249Y-97374052D02*
X88000000Y-96702301D01*
X88000000Y-96702301D02*
X88671751Y-97374052D01*
X74374052Y-110328249D02*
X73702301Y-111000000D01*
X73702301Y-111000000D02*
X74374052Y-111671751D01*
X74374052Y-111671751D02*
X73461885Y-112583919D01*
%TO.C,U8*%
X66635000Y-99890000D02*
X67110000Y-99890000D01*
X67110000Y-99890000D02*
X67110000Y-100365000D01*
X63365000Y-104110000D02*
X62890000Y-104110000D01*
X62890000Y-104110000D02*
X62890000Y-103635000D01*
X66635000Y-104110000D02*
X67110000Y-104110000D01*
X67110000Y-104110000D02*
X67110000Y-103635000D01*
X63365000Y-99890000D02*
X62890000Y-99890000D01*
D13*
%TO.C,J4*%
X54450000Y-97850000D02*
X53050000Y-97850000D01*
X50650000Y-97850000D02*
X50500000Y-97850000D01*
X50500000Y-97850000D02*
X50500000Y-98150000D01*
X50500000Y-98150000D02*
X50050000Y-98150000D01*
X50050000Y-105850000D02*
X50500000Y-105850000D01*
X50500000Y-105850000D02*
X50500000Y-106150000D01*
X50500000Y-106150000D02*
X50650000Y-106150000D01*
X53050000Y-106150000D02*
X54450000Y-106150000D01*
X56625000Y-100925000D02*
X56625000Y-100200000D01*
X56625000Y-100200000D02*
X56200000Y-100200000D01*
X56200000Y-100200000D02*
X56200000Y-99200000D01*
X56200000Y-103800000D02*
X56200000Y-104800000D01*
D16*
%TO.C,J2*%
X165744200Y-125485200D02*
X163144200Y-125485200D01*
X165744200Y-125485200D02*
X165744200Y-74565200D01*
X165744200Y-74565200D02*
X160544200Y-74565200D01*
X160544200Y-122885200D02*
X160544200Y-74565200D01*
X163144200Y-122885200D02*
X160544200Y-122885200D01*
X163144200Y-125485200D02*
X163144200Y-122885200D01*
X160544200Y-125485200D02*
X160544200Y-124155200D01*
X161874200Y-125485200D02*
X160544200Y-125485200D01*
%TO.C,Q1*%
X122280000Y-86240000D02*
X121350000Y-86240000D01*
X119120000Y-86240000D02*
X120050000Y-86240000D01*
X119120000Y-86240000D02*
X119120000Y-88400000D01*
X122280000Y-86240000D02*
X122280000Y-87700000D01*
%TO.C,C1*%
X121410000Y-124016422D02*
X121410000Y-124533578D01*
X119990000Y-124016422D02*
X119990000Y-124533578D01*
%TO.C,C2*%
X121858578Y-107310000D02*
X121341422Y-107310000D01*
X121858578Y-105890000D02*
X121341422Y-105890000D01*
%TO.C,C3*%
X110058578Y-123810000D02*
X109541422Y-123810000D01*
X110058578Y-122390000D02*
X109541422Y-122390000D01*
%TO.C,C4*%
X125690000Y-60558578D02*
X125690000Y-60041422D01*
X127110000Y-60558578D02*
X127110000Y-60041422D01*
%TO.C,C5*%
X110333578Y-89410000D02*
X109816422Y-89410000D01*
X110333578Y-87990000D02*
X109816422Y-87990000D01*
%TO.C,C6*%
X68033578Y-80910000D02*
X67516422Y-80910000D01*
X68033578Y-79490000D02*
X67516422Y-79490000D01*
%TO.C,C7*%
X80496078Y-76810000D02*
X79978922Y-76810000D01*
X80496078Y-75390000D02*
X79978922Y-75390000D01*
%TO.C,C8*%
X67403922Y-72690000D02*
X67921078Y-72690000D01*
X67403922Y-74110000D02*
X67921078Y-74110000D01*
%TO.C,C9*%
X70490000Y-81883578D02*
X70490000Y-81366422D01*
X71910000Y-81883578D02*
X71910000Y-81366422D01*
%TO.C,C10*%
X75690000Y-81858578D02*
X75690000Y-81341422D01*
X77110000Y-81858578D02*
X77110000Y-81341422D01*
%TO.C,C11*%
X59541422Y-98890000D02*
X60058578Y-98890000D01*
X59541422Y-100310000D02*
X60058578Y-100310000D01*
%TO.C,C12*%
X60058578Y-104510000D02*
X59541422Y-104510000D01*
X60058578Y-103090000D02*
X59541422Y-103090000D01*
%TO.C,C13*%
X68490000Y-100058578D02*
X68490000Y-99541422D01*
X69910000Y-100058578D02*
X69910000Y-99541422D01*
%TO.C,C14*%
X113058578Y-113410000D02*
X112541422Y-113410000D01*
X113058578Y-111990000D02*
X112541422Y-111990000D01*
%TO.C,C15*%
X110258578Y-99110000D02*
X109741422Y-99110000D01*
X110258578Y-97690000D02*
X109741422Y-97690000D01*
%TO.C,C16*%
X92019204Y-127715112D02*
X92384888Y-128080796D01*
X91015112Y-128719204D02*
X91380796Y-129084888D01*
%TO.C,C17*%
X84990000Y-93358578D02*
X84990000Y-92841422D01*
X86410000Y-93358578D02*
X86410000Y-92841422D01*
%TO.C,C18*%
X70658578Y-111710000D02*
X70141422Y-111710000D01*
X70658578Y-110290000D02*
X70141422Y-110290000D01*
%TO.C,C19*%
X104378025Y-110217883D02*
X104743709Y-109852199D01*
X105382117Y-111221975D02*
X105747801Y-110856291D01*
%TO.C,C20*%
X97315112Y-98780796D02*
X97680796Y-98415112D01*
X98319204Y-99784888D02*
X98684888Y-99419204D01*
%TO.C,C21*%
X76680796Y-101284888D02*
X76315112Y-100919204D01*
X77684888Y-100280796D02*
X77319204Y-99915112D01*
%TO.C,C22*%
X79260104Y-123143988D02*
X78894420Y-123509672D01*
X78256012Y-122139896D02*
X77890328Y-122505580D01*
%TO.C,C23*%
X98678509Y-121427087D02*
X99195665Y-121427087D01*
X98678509Y-122847087D02*
X99195665Y-122847087D01*
%TO.C,C30*%
X92890000Y-65658578D02*
X92890000Y-65141422D01*
X94310000Y-65658578D02*
X94310000Y-65141422D01*
%TO.C,C34*%
X71910000Y-65166422D02*
X71910000Y-65683578D01*
X70490000Y-65166422D02*
X70490000Y-65683578D01*
%TO.C,C35*%
X79910000Y-66803922D02*
X79910000Y-67321078D01*
X78490000Y-66803922D02*
X78490000Y-67321078D01*
%TO.C,C31*%
X120858578Y-82310000D02*
X120341422Y-82310000D01*
X120858578Y-80890000D02*
X120341422Y-80890000D01*
%TO.C,C24*%
X101139896Y-103456012D02*
X101505580Y-103090328D01*
X102143988Y-104460104D02*
X102509672Y-104094420D01*
%TO.C,C25*%
X74260104Y-118143988D02*
X73894420Y-118509672D01*
X73256012Y-117139896D02*
X72890328Y-117505580D01*
%TO.C,C26*%
X85060104Y-128243988D02*
X84694420Y-128609672D01*
X84056012Y-127239896D02*
X83690328Y-127605580D01*
%TO.C,C27*%
X80556012Y-97760104D02*
X80190328Y-97394420D01*
X81560104Y-96756012D02*
X81194420Y-96390328D01*
%TO.C,C32*%
X63690000Y-127158578D02*
X63690000Y-126641422D01*
X65110000Y-127158578D02*
X65110000Y-126641422D01*
D14*
%TO.C,D3*%
X58980000Y-112580000D02*
G75*
G03*
X58980000Y-112580000I-125000J0D01*
G01*
D15*
X50095000Y-109750000D02*
X48785000Y-109750000D01*
X48785000Y-112650000D02*
X50095000Y-112650000D01*
X58265000Y-109050000D02*
X50135000Y-109050000D01*
X50135000Y-109050000D02*
X50135000Y-113350000D01*
X50135000Y-113350000D02*
X58265000Y-113350000D01*
X58265000Y-113350000D02*
X58265000Y-109050000D01*
X48785000Y-109750000D02*
G75*
G03*
X48785000Y-112650000I0J-1450000D01*
G01*
D16*
%TO.C,R1*%
X84110000Y-66803922D02*
X84110000Y-67321078D01*
X82690000Y-66803922D02*
X82690000Y-67321078D01*
%TO.C,R2*%
X86310000Y-65141422D02*
X86310000Y-65658578D01*
X84890000Y-65141422D02*
X84890000Y-65658578D01*
%TO.C,R3*%
X120896078Y-84310000D02*
X120378922Y-84310000D01*
X120896078Y-82890000D02*
X120378922Y-82890000D01*
%TO.C,R4*%
X113816422Y-87990000D02*
X114333578Y-87990000D01*
X113816422Y-89410000D02*
X114333578Y-89410000D01*
%TO.C,R6*%
X71910000Y-76141422D02*
X71910000Y-76658578D01*
X70490000Y-76141422D02*
X70490000Y-76658578D01*
%TO.C,R7*%
X74110000Y-76141422D02*
X74110000Y-76658578D01*
X72690000Y-76141422D02*
X72690000Y-76658578D01*
%TO.C,R8*%
X72690000Y-81858578D02*
X72690000Y-81341422D01*
X74110000Y-81858578D02*
X74110000Y-81341422D01*
%TO.C,R9*%
X61341422Y-111690000D02*
X61858578Y-111690000D01*
X61341422Y-113110000D02*
X61858578Y-113110000D01*
%TO.C,R10*%
X60058578Y-106510000D02*
X59541422Y-106510000D01*
X60058578Y-105090000D02*
X59541422Y-105090000D01*
%TO.C,R12*%
X59541422Y-96690000D02*
X60058578Y-96690000D01*
X59541422Y-98110000D02*
X60058578Y-98110000D01*
%TO.C,R13*%
X60033578Y-95910000D02*
X59516422Y-95910000D01*
X60033578Y-94490000D02*
X59516422Y-94490000D01*
%TO.C,R14*%
X67166422Y-127190000D02*
X67683578Y-127190000D01*
X67166422Y-128610000D02*
X67683578Y-128610000D01*
%TO.C,R15*%
X67141422Y-131390000D02*
X67658578Y-131390000D01*
X67141422Y-132810000D02*
X67658578Y-132810000D01*
%TO.C,R16*%
X67658578Y-126510000D02*
X67141422Y-126510000D01*
X67658578Y-125090000D02*
X67141422Y-125090000D01*
%TO.C,R17*%
X78490000Y-63421078D02*
X78490000Y-62903922D01*
X79910000Y-63421078D02*
X79910000Y-62903922D01*
%TO.C,R18*%
X80690000Y-63458578D02*
X80690000Y-62941422D01*
X82110000Y-63458578D02*
X82110000Y-62941422D01*
%TO.C,R19*%
X61341422Y-121390000D02*
X61858578Y-121390000D01*
X61341422Y-122810000D02*
X61858578Y-122810000D01*
%TO.C,R20*%
X61341422Y-118990000D02*
X61858578Y-118990000D01*
X61341422Y-120410000D02*
X61858578Y-120410000D01*
%TO.C,R21*%
X61266422Y-113990000D02*
X61783578Y-113990000D01*
X61266422Y-115410000D02*
X61783578Y-115410000D01*
%TO.C,R22*%
X61316422Y-116490000D02*
X61833578Y-116490000D01*
X61316422Y-117910000D02*
X61833578Y-117910000D01*
%TO.C,R23*%
X78080796Y-99884888D02*
X77715112Y-99519204D01*
X79084888Y-98880796D02*
X78719204Y-98515112D01*
%TO.C,R24*%
X74119204Y-103115112D02*
X74484888Y-103480796D01*
X73115112Y-104119204D02*
X73480796Y-104484888D01*
%TO.C,R25*%
X75919204Y-101315112D02*
X76284888Y-101680796D01*
X74915112Y-102319204D02*
X75280796Y-102684888D01*
%TO.C,R5*%
X72719204Y-104515112D02*
X73084888Y-104880796D01*
X71715112Y-105519204D02*
X72080796Y-105884888D01*
%TO.C,R26*%
X67141422Y-129290000D02*
X67658578Y-129290000D01*
X67141422Y-130710000D02*
X67658578Y-130710000D01*
%TO.C,R27*%
X91110000Y-92816422D02*
X91110000Y-93333578D01*
X89690000Y-92816422D02*
X89690000Y-93333578D01*
%TO.C,R11*%
X61341422Y-109290000D02*
X61858578Y-109290000D01*
X61341422Y-110710000D02*
X61858578Y-110710000D01*
%TO.C,U3*%
X121870000Y-135380000D02*
X121870000Y-140840000D01*
X121870000Y-140840000D02*
X157550000Y-140840000D01*
X157550000Y-140840000D02*
X157550000Y-127920000D01*
X157550000Y-127920000D02*
X121870000Y-127920000D01*
X121870000Y-127920000D02*
X121870000Y-133380000D01*
X121870000Y-133380000D02*
G75*
G02*
X121870000Y-135380000I0J-1000000D01*
G01*
%TO.C,U13*%
X124315000Y-95962500D02*
X124315000Y-97775000D01*
X124042500Y-95962500D02*
X124315000Y-95962500D01*
X124042500Y-90200000D02*
X124042500Y-95962500D01*
X124042500Y-84437500D02*
X124315000Y-84437500D01*
X124042500Y-90200000D02*
X124042500Y-84437500D01*
X144757500Y-95962500D02*
X144485000Y-95962500D01*
X144757500Y-90200000D02*
X144757500Y-95962500D01*
X144757500Y-84437500D02*
X144485000Y-84437500D01*
X144757500Y-90200000D02*
X144757500Y-84437500D01*
D15*
%TO.C,D1*%
X58265000Y-122950000D02*
X58265000Y-118650000D01*
X50135000Y-122950000D02*
X58265000Y-122950000D01*
X50135000Y-118650000D02*
X50135000Y-122950000D01*
X58265000Y-118650000D02*
X50135000Y-118650000D01*
X48785000Y-122250000D02*
X50095000Y-122250000D01*
X50095000Y-119350000D02*
X48785000Y-119350000D01*
D14*
X58980000Y-122180000D02*
G75*
G03*
X58980000Y-122180000I-125000J0D01*
G01*
D15*
X48785000Y-119350000D02*
G75*
G03*
X48785000Y-122250000I0J-1450000D01*
G01*
D14*
%TO.C,D2*%
X58980000Y-117380000D02*
G75*
G03*
X58980000Y-117380000I-125000J0D01*
G01*
D15*
X50095000Y-114550000D02*
X48785000Y-114550000D01*
X48785000Y-117450000D02*
X50095000Y-117450000D01*
X58265000Y-113850000D02*
X50135000Y-113850000D01*
X50135000Y-113850000D02*
X50135000Y-118150000D01*
X50135000Y-118150000D02*
X58265000Y-118150000D01*
X58265000Y-118150000D02*
X58265000Y-113850000D01*
X48785000Y-114550000D02*
G75*
G03*
X48785000Y-117450000I0J-1450000D01*
G01*
D16*
%TO.C,J5*%
X101210000Y-133710000D02*
X101210000Y-142830000D01*
X101210000Y-142830000D02*
X80630000Y-142830000D01*
X80630000Y-142830000D02*
X80630000Y-133710000D01*
X80630000Y-133710000D02*
X101210000Y-133710000D01*
X92970000Y-133710000D02*
X92970000Y-135020000D01*
X92970000Y-135020000D02*
X99910000Y-135020000D01*
X99910000Y-135020000D02*
X99910000Y-141520000D01*
X99910000Y-141520000D02*
X81930000Y-141520000D01*
X81930000Y-141520000D02*
X81930000Y-135020000D01*
X81930000Y-135020000D02*
X88870000Y-135020000D01*
X88870000Y-135020000D02*
X88870000Y-135020000D01*
X88870000Y-135020000D02*
X88870000Y-133710000D01*
X96000000Y-133320000D02*
X96500000Y-132320000D01*
X96500000Y-132320000D02*
X95500000Y-132320000D01*
X95500000Y-132320000D02*
X96000000Y-133320000D01*
%TO.C,J6*%
X58675000Y-138435000D02*
X52375000Y-138435000D01*
X57975000Y-125565000D02*
X52375000Y-125565000D01*
X62385000Y-138435000D02*
X60575000Y-138435000D01*
X62385000Y-125565000D02*
X62385000Y-136825000D01*
X61225000Y-125565000D02*
X62385000Y-125565000D01*
X62385000Y-138325000D02*
X62385000Y-138435000D01*
%TO.C,J7*%
X87950000Y-58930000D02*
X87950000Y-56270000D01*
X80270000Y-58930000D02*
X87950000Y-58930000D01*
X80270000Y-56270000D02*
X87950000Y-56270000D01*
X80270000Y-58930000D02*
X80270000Y-56270000D01*
X79000000Y-58930000D02*
X77670000Y-58930000D01*
X77670000Y-58930000D02*
X77670000Y-57600000D01*
%TO.C,JP1*%
X83080000Y-87670000D02*
X83080000Y-89000000D01*
X81750000Y-87670000D02*
X83080000Y-87670000D01*
X80480000Y-87670000D02*
X80480000Y-90330000D01*
X80480000Y-90330000D02*
X75340000Y-90330000D01*
X80480000Y-87670000D02*
X75340000Y-87670000D01*
X75340000Y-87670000D02*
X75340000Y-90330000D01*
%TO.C,JP2*%
X109870000Y-143330000D02*
X109870000Y-140670000D01*
X107270000Y-143330000D02*
X109870000Y-143330000D01*
X107270000Y-140670000D02*
X109870000Y-140670000D01*
X107270000Y-143330000D02*
X107270000Y-140670000D01*
X106000000Y-143330000D02*
X104670000Y-143330000D01*
X104670000Y-143330000D02*
X104670000Y-142000000D01*
%TO.C,JP3*%
X104670000Y-138330000D02*
X104670000Y-137000000D01*
X106000000Y-138330000D02*
X104670000Y-138330000D01*
X107270000Y-138330000D02*
X107270000Y-135670000D01*
X107270000Y-135670000D02*
X109870000Y-135670000D01*
X107270000Y-138330000D02*
X109870000Y-138330000D01*
X109870000Y-138330000D02*
X109870000Y-135670000D01*
%TO.C,JP4*%
X70610000Y-90330000D02*
X70610000Y-87670000D01*
X65470000Y-90330000D02*
X70610000Y-90330000D01*
X65470000Y-87670000D02*
X70610000Y-87670000D01*
X65470000Y-90330000D02*
X65470000Y-87670000D01*
X64200000Y-90330000D02*
X62870000Y-90330000D01*
X62870000Y-90330000D02*
X62870000Y-89000000D01*
%TO.C,L1*%
X67725000Y-82000000D02*
X68125000Y-82000000D01*
X67725000Y-85200000D02*
X68125000Y-85200000D01*
%TO.C,TP2*%
X130000000Y-56400000D02*
X132400000Y-56400000D01*
X132400000Y-56400000D02*
X132400000Y-58800000D01*
X132400000Y-58800000D02*
X130000000Y-58800000D01*
X130000000Y-58800000D02*
X130000000Y-56400000D01*
%TO.C,TP7*%
X97000000Y-88300000D02*
X94600000Y-88300000D01*
X97000000Y-85900000D02*
X97000000Y-88300000D01*
X94600000Y-85900000D02*
X97000000Y-85900000D01*
X94600000Y-88300000D02*
X94600000Y-85900000D01*
%TO.C,TP1*%
X142000000Y-58800000D02*
X142000000Y-56400000D01*
X144400000Y-58800000D02*
X142000000Y-58800000D01*
X144400000Y-56400000D02*
X144400000Y-58800000D01*
X142000000Y-56400000D02*
X144400000Y-56400000D01*
D12*
%TO.C,U1*%
X131675000Y-60625000D02*
X131175000Y-60625000D01*
X131175000Y-60625000D02*
X130025000Y-61775000D01*
X130025000Y-61775000D02*
X130025000Y-62275000D01*
X146325000Y-60625000D02*
X147975000Y-60625000D01*
X147975000Y-60625000D02*
X147975000Y-62275000D01*
X131675000Y-78575000D02*
X130025000Y-78575000D01*
X130025000Y-78575000D02*
X130025000Y-76925000D01*
X146325000Y-78575000D02*
X147975000Y-78575000D01*
X147975000Y-78575000D02*
X147975000Y-76925000D01*
D16*
%TO.C,U2*%
X144757500Y-113200000D02*
X144757500Y-107437500D01*
X144757500Y-107437500D02*
X144485000Y-107437500D01*
X144757500Y-113200000D02*
X144757500Y-118962500D01*
X144757500Y-118962500D02*
X144485000Y-118962500D01*
X124042500Y-113200000D02*
X124042500Y-107437500D01*
X124042500Y-107437500D02*
X124315000Y-107437500D01*
X124042500Y-113200000D02*
X124042500Y-118962500D01*
X124042500Y-118962500D02*
X124315000Y-118962500D01*
X124315000Y-118962500D02*
X124315000Y-120775000D01*
%TO.C,U4*%
X112600000Y-114415000D02*
X109000000Y-114415000D01*
X112600000Y-114415000D02*
X114800000Y-114415000D01*
X112600000Y-121185000D02*
X110400000Y-121185000D01*
X112600000Y-121185000D02*
X114800000Y-121185000D01*
%TO.C,U6*%
X68700000Y-75390000D02*
X66900000Y-75390000D01*
X66900000Y-78610000D02*
X69350000Y-78610000D01*
%TO.C,U7*%
X84310000Y-85610000D02*
X84310000Y-84350000D01*
X84310000Y-78790000D02*
X84310000Y-80050000D01*
X80550000Y-85610000D02*
X84310000Y-85610000D01*
X78300000Y-78790000D02*
X84310000Y-78790000D01*
%TO.C,U9*%
X111100000Y-90215000D02*
X107500000Y-90215000D01*
X111100000Y-90215000D02*
X113300000Y-90215000D01*
X111100000Y-96985000D02*
X108900000Y-96985000D01*
X111100000Y-96985000D02*
X113300000Y-96985000D01*
%TO.C,U10*%
X109600000Y-131585000D02*
X111800000Y-131585000D01*
X109600000Y-131585000D02*
X107400000Y-131585000D01*
X109600000Y-124815000D02*
X111800000Y-124815000D01*
X109600000Y-124815000D02*
X106000000Y-124815000D01*
%TO.C,U11*%
X112600000Y-106585000D02*
X114800000Y-106585000D01*
X112600000Y-106585000D02*
X110400000Y-106585000D01*
X112600000Y-99815000D02*
X114800000Y-99815000D01*
X112600000Y-99815000D02*
X109000000Y-99815000D01*
%TO.C,U12*%
X92155000Y-65400000D02*
X92155000Y-63450000D01*
X92155000Y-65400000D02*
X92155000Y-67350000D01*
X87035000Y-65400000D02*
X87035000Y-63450000D01*
X87035000Y-65400000D02*
X87035000Y-68850000D01*
%TO.C,U14*%
X77960000Y-65400000D02*
X77960000Y-63450000D01*
X77960000Y-65400000D02*
X77960000Y-67350000D01*
X72840000Y-65400000D02*
X72840000Y-63450000D01*
X72840000Y-65400000D02*
X72840000Y-68850000D01*
%TO.C,X1*%
X98300000Y-84580000D02*
X98300000Y-84640000D01*
X98300000Y-84640000D02*
X92900000Y-84640000D01*
X92900000Y-84640000D02*
X92900000Y-84580000D01*
X98300000Y-79500000D02*
X98300000Y-82380000D01*
X92300000Y-77300000D02*
X92900000Y-77300000D01*
X92900000Y-77300000D02*
X92900000Y-77240000D01*
X92900000Y-77240000D02*
X98300000Y-77240000D01*
X98300000Y-77240000D02*
X98300000Y-77300000D01*
X92900000Y-82380000D02*
X92900000Y-79500000D01*
X92900000Y-79500000D02*
X92300000Y-79500000D01*
%TO.C,TP6*%
X60700000Y-79200000D02*
X60700000Y-76800000D01*
X63100000Y-79200000D02*
X60700000Y-79200000D01*
X63100000Y-76800000D02*
X63100000Y-79200000D01*
X60700000Y-76800000D02*
X63100000Y-76800000D01*
%TO.C,TP11*%
X138000000Y-56400000D02*
X140400000Y-56400000D01*
X140400000Y-56400000D02*
X140400000Y-58800000D01*
X140400000Y-58800000D02*
X138000000Y-58800000D01*
X138000000Y-58800000D02*
X138000000Y-56400000D01*
%TO.C,TP12*%
X146000000Y-56400000D02*
X148400000Y-56400000D01*
X148400000Y-56400000D02*
X148400000Y-58800000D01*
X148400000Y-58800000D02*
X146000000Y-58800000D01*
X146000000Y-58800000D02*
X146000000Y-56400000D01*
%TO.C,TP13*%
X150000000Y-58800000D02*
X150000000Y-56400000D01*
X152400000Y-58800000D02*
X150000000Y-58800000D01*
X152400000Y-56400000D02*
X152400000Y-58800000D01*
X150000000Y-56400000D02*
X152400000Y-56400000D01*
%TO.C,TP14*%
X134000000Y-58800000D02*
X134000000Y-56400000D01*
X136400000Y-58800000D02*
X134000000Y-58800000D01*
X136400000Y-56400000D02*
X136400000Y-58800000D01*
X134000000Y-56400000D02*
X136400000Y-56400000D01*
%TO.C,J9*%
X153770000Y-60670000D02*
X155100000Y-60670000D01*
X153770000Y-62000000D02*
X153770000Y-60670000D01*
X153770000Y-63270000D02*
X156430000Y-63270000D01*
X156430000Y-63270000D02*
X156430000Y-65870000D01*
X153770000Y-63270000D02*
X153770000Y-65870000D01*
X153770000Y-65870000D02*
X156430000Y-65870000D01*
%TO.C,D4*%
X97240000Y-62420000D02*
X98700000Y-62420000D01*
X97240000Y-65580000D02*
X99400000Y-65580000D01*
X97240000Y-65580000D02*
X97240000Y-64650000D01*
X97240000Y-62420000D02*
X97240000Y-63350000D01*
%TO.C,D5*%
X92950000Y-55450000D02*
X92950000Y-56600000D01*
X100250000Y-55450000D02*
X92950000Y-55450000D01*
X100250000Y-60950000D02*
X92950000Y-60950000D01*
%TO.C,J1*%
X66470000Y-140930000D02*
X66470000Y-139600000D01*
X67800000Y-140930000D02*
X66470000Y-140930000D01*
X66470000Y-138330000D02*
X66470000Y-135730000D01*
X69070000Y-138330000D02*
X66470000Y-138330000D01*
X69070000Y-140930000D02*
X69070000Y-138330000D01*
X66470000Y-135730000D02*
X76750000Y-135730000D01*
X69070000Y-140930000D02*
X76750000Y-140930000D01*
X76750000Y-140930000D02*
X76750000Y-135730000D01*
%TO.C,SW1*%
X53980000Y-79710000D02*
X53980000Y-76310000D01*
X53980000Y-81350000D02*
X53980000Y-80810000D01*
X56810000Y-74150000D02*
X57320000Y-74150000D01*
X57320000Y-74670000D02*
X57320000Y-74150000D01*
X56810000Y-74670000D02*
X57320000Y-74670000D01*
X53980000Y-75210000D02*
X53980000Y-74670000D01*
X56810000Y-81870000D02*
X57320000Y-81870000D01*
X56810000Y-81350000D02*
X57320000Y-81350000D01*
X53980000Y-74670000D02*
X54210000Y-74670000D01*
X50310000Y-81870000D02*
X54210000Y-81870000D01*
X57320000Y-81870000D02*
X57320000Y-81350000D01*
X50310000Y-74150000D02*
X54210000Y-74150000D01*
X50310000Y-81870000D02*
X50310000Y-74150000D01*
X53980000Y-81350000D02*
X54210000Y-81350000D01*
%TO.C,SW2*%
X53970000Y-93290000D02*
X54200000Y-93290000D01*
X50300000Y-93810000D02*
X50300000Y-86090000D01*
X50300000Y-86090000D02*
X54200000Y-86090000D01*
X57310000Y-93810000D02*
X57310000Y-93290000D01*
X50300000Y-93810000D02*
X54200000Y-93810000D01*
X53970000Y-86610000D02*
X54200000Y-86610000D01*
X56800000Y-93290000D02*
X57310000Y-93290000D01*
X56800000Y-93810000D02*
X57310000Y-93810000D01*
X53970000Y-87150000D02*
X53970000Y-86610000D01*
X56800000Y-86610000D02*
X57310000Y-86610000D01*
X57310000Y-86610000D02*
X57310000Y-86090000D01*
X56800000Y-86090000D02*
X57310000Y-86090000D01*
X53970000Y-93290000D02*
X53970000Y-92750000D01*
X53970000Y-91650000D02*
X53970000Y-88250000D01*
%TO.C,J3*%
D13*
X64252380Y-63333333D02*
X64966666Y-63333333D01*
X65109523Y-63380952D01*
X65204761Y-63476190D01*
X65252380Y-63619047D01*
X65252380Y-63714285D01*
X64252380Y-62952380D02*
X64252380Y-62333333D01*
X64633333Y-62666666D01*
X64633333Y-62523809D01*
X64680952Y-62428571D01*
X64728571Y-62380952D01*
X64823809Y-62333333D01*
X65061904Y-62333333D01*
X65157142Y-62380952D01*
X65204761Y-62428571D01*
X65252380Y-62523809D01*
X65252380Y-62809523D01*
X65204761Y-62904761D01*
X65157142Y-62952380D01*
D11*
X50971428Y-60878571D02*
X50971428Y-59378571D01*
X51328571Y-59378571D01*
X51542857Y-59450000D01*
X51685714Y-59592857D01*
X51757142Y-59735714D01*
X51828571Y-60021428D01*
X51828571Y-60235714D01*
X51757142Y-60521428D01*
X51685714Y-60664285D01*
X51542857Y-60807142D01*
X51328571Y-60878571D01*
X50971428Y-60878571D01*
X53328571Y-60735714D02*
X53257142Y-60807142D01*
X53042857Y-60878571D01*
X52900000Y-60878571D01*
X52685714Y-60807142D01*
X52542857Y-60664285D01*
X52471428Y-60521428D01*
X52400000Y-60235714D01*
X52400000Y-60021428D01*
X52471428Y-59735714D01*
X52542857Y-59592857D01*
X52685714Y-59450000D01*
X52900000Y-59378571D01*
X53042857Y-59378571D01*
X53257142Y-59450000D01*
X53328571Y-59521428D01*
X55757142Y-59378571D02*
X55471428Y-59378571D01*
X55328571Y-59450000D01*
X55257142Y-59521428D01*
X55114285Y-59735714D01*
X55042857Y-60021428D01*
X55042857Y-60592857D01*
X55114285Y-60735714D01*
X55185714Y-60807142D01*
X55328571Y-60878571D01*
X55614285Y-60878571D01*
X55757142Y-60807142D01*
X55828571Y-60735714D01*
X55900000Y-60592857D01*
X55900000Y-60235714D01*
X55828571Y-60092857D01*
X55757142Y-60021428D01*
X55614285Y-59950000D01*
X55328571Y-59950000D01*
X55185714Y-60021428D01*
X55114285Y-60092857D01*
X55042857Y-60235714D01*
X56542857Y-60307142D02*
X57685714Y-60307142D01*
X59185714Y-60878571D02*
X58328571Y-60878571D01*
X58757142Y-60878571D02*
X58757142Y-59378571D01*
X58614285Y-59592857D01*
X58471428Y-59735714D01*
X58328571Y-59807142D01*
X60471428Y-59378571D02*
X60185714Y-59378571D01*
X60042857Y-59450000D01*
X59971428Y-59521428D01*
X59828571Y-59735714D01*
X59757142Y-60021428D01*
X59757142Y-60592857D01*
X59828571Y-60735714D01*
X59900000Y-60807142D01*
X60042857Y-60878571D01*
X60328571Y-60878571D01*
X60471428Y-60807142D01*
X60542857Y-60735714D01*
X60614285Y-60592857D01*
X60614285Y-60235714D01*
X60542857Y-60092857D01*
X60471428Y-60021428D01*
X60328571Y-59950000D01*
X60042857Y-59950000D01*
X59900000Y-60021428D01*
X59828571Y-60092857D01*
X59757142Y-60235714D01*
X61042857Y-59378571D02*
X61542857Y-60878571D01*
X62042857Y-59378571D01*
%TO.C,C29*%
D13*
X91019642Y-74357142D02*
X90972023Y-74404761D01*
X90829166Y-74452380D01*
X90733928Y-74452380D01*
X90591071Y-74404761D01*
X90495833Y-74309523D01*
X90448214Y-74214285D01*
X90400595Y-74023809D01*
X90400595Y-73880952D01*
X90448214Y-73690476D01*
X90495833Y-73595238D01*
X90591071Y-73500000D01*
X90733928Y-73452380D01*
X90829166Y-73452380D01*
X90972023Y-73500000D01*
X91019642Y-73547619D01*
X91400595Y-73547619D02*
X91448214Y-73500000D01*
X91543452Y-73452380D01*
X91781547Y-73452380D01*
X91876785Y-73500000D01*
X91924404Y-73547619D01*
X91972023Y-73642857D01*
X91972023Y-73738095D01*
X91924404Y-73880952D01*
X91352976Y-74452380D01*
X91972023Y-74452380D01*
X92448214Y-74452380D02*
X92638690Y-74452380D01*
X92733928Y-74404761D01*
X92781547Y-74357142D01*
X92876785Y-74214285D01*
X92924404Y-74023809D01*
X92924404Y-73642857D01*
X92876785Y-73547619D01*
X92829166Y-73500000D01*
X92733928Y-73452380D01*
X92543452Y-73452380D01*
X92448214Y-73500000D01*
X92400595Y-73547619D01*
X92352976Y-73642857D01*
X92352976Y-73880952D01*
X92400595Y-73976190D01*
X92448214Y-74023809D01*
X92543452Y-74071428D01*
X92733928Y-74071428D01*
X92829166Y-74023809D01*
X92876785Y-73976190D01*
X92924404Y-73880952D01*
%TO.C,TP15*%
D14*
X122242857Y-77385714D02*
X122242857Y-76700000D01*
X123442857Y-77042857D02*
X122242857Y-77042857D01*
X123442857Y-76300000D02*
X122242857Y-76300000D01*
X122242857Y-75842857D01*
X122300000Y-75728571D01*
X122357142Y-75671428D01*
X122471428Y-75614285D01*
X122642857Y-75614285D01*
X122757142Y-75671428D01*
X122814285Y-75728571D01*
X122871428Y-75842857D01*
X122871428Y-76300000D01*
X123442857Y-74471428D02*
X123442857Y-75157142D01*
X123442857Y-74814285D02*
X122242857Y-74814285D01*
X122414285Y-74928571D01*
X122528571Y-75042857D01*
X122585714Y-75157142D01*
X122242857Y-73385714D02*
X122242857Y-73957142D01*
X122814285Y-74014285D01*
X122757142Y-73957142D01*
X122700000Y-73842857D01*
X122700000Y-73557142D01*
X122757142Y-73442857D01*
X122814285Y-73385714D01*
X122928571Y-73328571D01*
X123214285Y-73328571D01*
X123328571Y-73385714D01*
X123385714Y-73442857D01*
X123442857Y-73557142D01*
X123442857Y-73842857D01*
X123385714Y-73957142D01*
X123328571Y-74014285D01*
X124142857Y-76628571D02*
X124142857Y-77200000D01*
X124714285Y-77257142D01*
X124657142Y-77200000D01*
X124600000Y-77085714D01*
X124600000Y-76800000D01*
X124657142Y-76685714D01*
X124714285Y-76628571D01*
X124828571Y-76571428D01*
X125114285Y-76571428D01*
X125228571Y-76628571D01*
X125285714Y-76685714D01*
X125342857Y-76800000D01*
X125342857Y-77085714D01*
X125285714Y-77200000D01*
X125228571Y-77257142D01*
X124142857Y-76228571D02*
X125342857Y-75828571D01*
X124142857Y-75428571D01*
%TO.C,BT1*%
D13*
X123197718Y-60662125D02*
X123310386Y-60562216D01*
X123375435Y-60544787D01*
X123481723Y-60551166D01*
X123605441Y-60622595D01*
X123664110Y-60711453D01*
X123681540Y-60776502D01*
X123675160Y-60882790D01*
X123484684Y-61212705D01*
X122618659Y-60712705D01*
X122785325Y-60424030D01*
X122874184Y-60365360D01*
X122939233Y-60347931D01*
X123045521Y-60354310D01*
X123127999Y-60401929D01*
X123186668Y-60490788D01*
X123204098Y-60555837D01*
X123197718Y-60662125D01*
X123031052Y-60950800D01*
X123047230Y-59970397D02*
X123332944Y-59475525D01*
X124056113Y-60222961D02*
X123190087Y-59722961D01*
X124627541Y-59233218D02*
X124341827Y-59728090D01*
X124484684Y-59480654D02*
X123618659Y-58980654D01*
X123694758Y-59134561D01*
X123729617Y-59264659D01*
X123723237Y-59370947D01*
%TO.C,R29*%
X91044642Y-76352380D02*
X90711309Y-75876190D01*
X90473214Y-76352380D02*
X90473214Y-75352380D01*
X90854166Y-75352380D01*
X90949404Y-75400000D01*
X90997023Y-75447619D01*
X91044642Y-75542857D01*
X91044642Y-75685714D01*
X90997023Y-75780952D01*
X90949404Y-75828571D01*
X90854166Y-75876190D01*
X90473214Y-75876190D01*
X91425595Y-75447619D02*
X91473214Y-75400000D01*
X91568452Y-75352380D01*
X91806547Y-75352380D01*
X91901785Y-75400000D01*
X91949404Y-75447619D01*
X91997023Y-75542857D01*
X91997023Y-75638095D01*
X91949404Y-75780952D01*
X91377976Y-76352380D01*
X91997023Y-76352380D01*
X92473214Y-76352380D02*
X92663690Y-76352380D01*
X92758928Y-76304761D01*
X92806547Y-76257142D01*
X92901785Y-76114285D01*
X92949404Y-75923809D01*
X92949404Y-75542857D01*
X92901785Y-75447619D01*
X92854166Y-75400000D01*
X92758928Y-75352380D01*
X92568452Y-75352380D01*
X92473214Y-75400000D01*
X92425595Y-75447619D01*
X92377976Y-75542857D01*
X92377976Y-75780952D01*
X92425595Y-75876190D01*
X92473214Y-75923809D01*
X92568452Y-75971428D01*
X92758928Y-75971428D01*
X92854166Y-75923809D01*
X92901785Y-75876190D01*
X92949404Y-75780952D01*
%TO.C,U5*%
X71538095Y-114152381D02*
X71538095Y-114961905D01*
X71585714Y-115057143D01*
X71633333Y-115104762D01*
X71728571Y-115152381D01*
X71919047Y-115152381D01*
X72014285Y-115104762D01*
X72061904Y-115057143D01*
X72109523Y-114961905D01*
X72109523Y-114152381D01*
X73061904Y-114152381D02*
X72585714Y-114152381D01*
X72538095Y-114628572D01*
X72585714Y-114580953D01*
X72680952Y-114533334D01*
X72919047Y-114533334D01*
X73014285Y-114580953D01*
X73061904Y-114628572D01*
X73109523Y-114723810D01*
X73109523Y-114961905D01*
X73061904Y-115057143D01*
X73014285Y-115104762D01*
X72919047Y-115152381D01*
X72680952Y-115152381D01*
X72585714Y-115104762D01*
X72538095Y-115057143D01*
D14*
X92652283Y-125115432D02*
X92167409Y-125600306D01*
X92409846Y-125357869D02*
X91561318Y-124509341D01*
X91601724Y-124711371D01*
X91601724Y-124872996D01*
X91561318Y-124994214D01*
X92329034Y-123741625D02*
X92409846Y-123660813D01*
X92531064Y-123620407D01*
X92611876Y-123620407D01*
X92733095Y-123660813D01*
X92935125Y-123782031D01*
X93137156Y-123984062D01*
X93258374Y-124186092D01*
X93298780Y-124307310D01*
X93298780Y-124388123D01*
X93258374Y-124509341D01*
X93177562Y-124590153D01*
X93056344Y-124630559D01*
X92975531Y-124630559D01*
X92854313Y-124590153D01*
X92652283Y-124468935D01*
X92450252Y-124266904D01*
X92329034Y-124064874D01*
X92288628Y-123943655D01*
X92288628Y-123862843D01*
X92329034Y-123741625D01*
X93824059Y-123943655D02*
X92975531Y-123095127D01*
X93864466Y-123418376D01*
X93541217Y-122529442D01*
X94389745Y-123377970D01*
X94106902Y-121963756D02*
X94187714Y-121882944D01*
X94308933Y-121842538D01*
X94389745Y-121842538D01*
X94510963Y-121882944D01*
X94712994Y-122004163D01*
X94915024Y-122206193D01*
X95036243Y-122408224D01*
X95076649Y-122529442D01*
X95076649Y-122610254D01*
X95036243Y-122731472D01*
X94955430Y-122812285D01*
X94834212Y-122852691D01*
X94753400Y-122852691D01*
X94632182Y-122812285D01*
X94430151Y-122691066D01*
X94228121Y-122489036D01*
X94106902Y-122287005D01*
X94066496Y-122165787D01*
X94066496Y-122084975D01*
X94106902Y-121963756D01*
X95399897Y-121236447D02*
X95965583Y-121802132D01*
X94874618Y-121115228D02*
X95278679Y-121923350D01*
X95803958Y-121398071D01*
X96329238Y-121357665D02*
X96490862Y-121276853D01*
X96692893Y-121074822D01*
X96733299Y-120953604D01*
X96733299Y-120872792D01*
X96692893Y-120751573D01*
X96612081Y-120670761D01*
X96490862Y-120630355D01*
X96410050Y-120630355D01*
X96288832Y-120670761D01*
X96086801Y-120791980D01*
X95965583Y-120832386D01*
X95884771Y-120832386D01*
X95763552Y-120791980D01*
X95682740Y-120711167D01*
X95642334Y-120589949D01*
X95642334Y-120509137D01*
X95682740Y-120387918D01*
X95884771Y-120185888D01*
X96046395Y-120105076D01*
X97622233Y-119983857D02*
X97622233Y-120064670D01*
X97541421Y-120226294D01*
X97460609Y-120307106D01*
X97298984Y-120387918D01*
X97137360Y-120387918D01*
X97016142Y-120347512D01*
X96814111Y-120226294D01*
X96692893Y-120105076D01*
X96571674Y-119903045D01*
X96531268Y-119781827D01*
X96531268Y-119620203D01*
X96612081Y-119458578D01*
X96692893Y-119377766D01*
X96854517Y-119296954D01*
X96935329Y-119296954D01*
X97622233Y-119256548D02*
X97905076Y-118973705D01*
X98470761Y-119296954D02*
X98066700Y-119701015D01*
X97218172Y-118852487D01*
X97622233Y-118448426D01*
X99278883Y-118488832D02*
X98794010Y-118973705D01*
X99036447Y-118731268D02*
X98187918Y-117882740D01*
X98228325Y-118084771D01*
X98228325Y-118246395D01*
X98187918Y-118367613D01*
X99440508Y-117195836D02*
X100006193Y-117761522D01*
X98915228Y-117074618D02*
X99319289Y-117882740D01*
X99844569Y-117357461D01*
X100248630Y-116387714D02*
X100814315Y-116953400D01*
X99723350Y-116266496D02*
X100127411Y-117074618D01*
X100652691Y-116549339D01*
X101662843Y-115943247D02*
X101662843Y-116024059D01*
X101582031Y-116185684D01*
X101501219Y-116266496D01*
X101339594Y-116347308D01*
X101177970Y-116347308D01*
X101056752Y-116306902D01*
X100854721Y-116185684D01*
X100733503Y-116064466D01*
X100612285Y-115862435D01*
X100571878Y-115741217D01*
X100571878Y-115579592D01*
X100652691Y-115417968D01*
X100733503Y-115337156D01*
X100895127Y-115256344D01*
X100975940Y-115256344D01*
X101743655Y-115054313D02*
X101622437Y-115094719D01*
X101541625Y-115094719D01*
X101420407Y-115054313D01*
X101380001Y-115013907D01*
X101339594Y-114892689D01*
X101339594Y-114811876D01*
X101380001Y-114690658D01*
X101541625Y-114529034D01*
X101662843Y-114488628D01*
X101743655Y-114488628D01*
X101864874Y-114529034D01*
X101905280Y-114569440D01*
X101945686Y-114690658D01*
X101945686Y-114771470D01*
X101905280Y-114892689D01*
X101743655Y-115054313D01*
X101703249Y-115175531D01*
X101703249Y-115256344D01*
X101743655Y-115377562D01*
X101905280Y-115539186D01*
X102026498Y-115579592D01*
X102107310Y-115579592D01*
X102228529Y-115539186D01*
X102390153Y-115377562D01*
X102430559Y-115256344D01*
X102430559Y-115175531D01*
X102390153Y-115054313D01*
X102228529Y-114892689D01*
X102107310Y-114852283D01*
X102026498Y-114852283D01*
X101905280Y-114892689D01*
X102551777Y-113599693D02*
X102430559Y-113640099D01*
X102309341Y-113761318D01*
X102228529Y-113922942D01*
X102228529Y-114084567D01*
X102268935Y-114205785D01*
X102390153Y-114407815D01*
X102511371Y-114529034D01*
X102713402Y-114650252D01*
X102834620Y-114690658D01*
X102996245Y-114690658D01*
X103157869Y-114609846D01*
X103238681Y-114529034D01*
X103319493Y-114367409D01*
X103319493Y-114286597D01*
X103036651Y-114003754D01*
X102875026Y-114165379D01*
%TO.C,U8*%
D13*
X64238095Y-98252380D02*
X64238095Y-99061904D01*
X64285714Y-99157142D01*
X64333333Y-99204761D01*
X64428571Y-99252380D01*
X64619047Y-99252380D01*
X64714285Y-99204761D01*
X64761904Y-99157142D01*
X64809523Y-99061904D01*
X64809523Y-98252380D01*
X65428571Y-98680952D02*
X65333333Y-98633333D01*
X65285714Y-98585714D01*
X65238095Y-98490476D01*
X65238095Y-98442857D01*
X65285714Y-98347619D01*
X65333333Y-98300000D01*
X65428571Y-98252380D01*
X65619047Y-98252380D01*
X65714285Y-98300000D01*
X65761904Y-98347619D01*
X65809523Y-98442857D01*
X65809523Y-98490476D01*
X65761904Y-98585714D01*
X65714285Y-98633333D01*
X65619047Y-98680952D01*
X65428571Y-98680952D01*
X65333333Y-98728571D01*
X65285714Y-98776190D01*
X65238095Y-98871428D01*
X65238095Y-99061904D01*
X65285714Y-99157142D01*
X65333333Y-99204761D01*
X65428571Y-99252380D01*
X65619047Y-99252380D01*
X65714285Y-99204761D01*
X65761904Y-99157142D01*
X65809523Y-99061904D01*
X65809523Y-98871428D01*
X65761904Y-98776190D01*
X65714285Y-98728571D01*
X65619047Y-98680952D01*
%TO.C,J4*%
X56752380Y-102333333D02*
X57466666Y-102333333D01*
X57609523Y-102380952D01*
X57704761Y-102476190D01*
X57752380Y-102619047D01*
X57752380Y-102714285D01*
X57085714Y-101428571D02*
X57752380Y-101428571D01*
X56704761Y-101666666D02*
X57419047Y-101904761D01*
X57419047Y-101285714D01*
%TO.C,J2*%
D11*
X162474200Y-71333771D02*
X162474200Y-72405200D01*
X162402771Y-72619485D01*
X162259914Y-72762342D01*
X162045628Y-72833771D01*
X161902771Y-72833771D01*
X163117057Y-71476628D02*
X163188485Y-71405200D01*
X163331342Y-71333771D01*
X163688485Y-71333771D01*
X163831342Y-71405200D01*
X163902771Y-71476628D01*
X163974200Y-71619485D01*
X163974200Y-71762342D01*
X163902771Y-71976628D01*
X163045628Y-72833771D01*
X163974200Y-72833771D01*
D17*
X167952771Y-107293295D02*
X167952771Y-106726628D01*
X168843247Y-106483771D02*
X168843247Y-107293295D01*
X167143247Y-107293295D01*
X167143247Y-106483771D01*
X167143247Y-105917104D02*
X168843247Y-104783771D01*
X167143247Y-104783771D02*
X168843247Y-105917104D01*
X168843247Y-104136152D02*
X167143247Y-104136152D01*
X167143247Y-103488533D01*
X167224200Y-103326628D01*
X167305152Y-103245676D01*
X167467057Y-103164723D01*
X167709914Y-103164723D01*
X167871819Y-103245676D01*
X167952771Y-103326628D01*
X168033723Y-103488533D01*
X168033723Y-104136152D01*
X168357533Y-102517104D02*
X168357533Y-101707580D01*
X168843247Y-102679009D02*
X167143247Y-102112342D01*
X168843247Y-101545676D01*
X168843247Y-100979009D02*
X167143247Y-100979009D01*
X168843247Y-100007580D01*
X167143247Y-100007580D01*
X168762295Y-99279009D02*
X168843247Y-99036152D01*
X168843247Y-98631390D01*
X168762295Y-98469485D01*
X168681342Y-98388533D01*
X168519438Y-98307580D01*
X168357533Y-98307580D01*
X168195628Y-98388533D01*
X168114676Y-98469485D01*
X168033723Y-98631390D01*
X167952771Y-98955200D01*
X167871819Y-99117104D01*
X167790866Y-99198057D01*
X167628961Y-99279009D01*
X167467057Y-99279009D01*
X167305152Y-99198057D01*
X167224200Y-99117104D01*
X167143247Y-98955200D01*
X167143247Y-98550438D01*
X167224200Y-98307580D01*
X168843247Y-97579009D02*
X167143247Y-97579009D01*
X167143247Y-96445676D02*
X167143247Y-96121866D01*
X167224200Y-95959961D01*
X167386104Y-95798057D01*
X167709914Y-95717104D01*
X168276580Y-95717104D01*
X168600390Y-95798057D01*
X168762295Y-95959961D01*
X168843247Y-96121866D01*
X168843247Y-96445676D01*
X168762295Y-96607580D01*
X168600390Y-96769485D01*
X168276580Y-96850438D01*
X167709914Y-96850438D01*
X167386104Y-96769485D01*
X167224200Y-96607580D01*
X167143247Y-96445676D01*
X168843247Y-94988533D02*
X167143247Y-94988533D01*
X168843247Y-94017104D01*
X167143247Y-94017104D01*
%TO.C,Q1*%
D13*
X118747619Y-87495238D02*
X118700000Y-87590476D01*
X118604761Y-87685714D01*
X118461904Y-87828571D01*
X118414285Y-87923809D01*
X118414285Y-88019047D01*
X118652380Y-87971428D02*
X118604761Y-88066666D01*
X118509523Y-88161904D01*
X118319047Y-88209523D01*
X117985714Y-88209523D01*
X117795238Y-88161904D01*
X117700000Y-88066666D01*
X117652380Y-87971428D01*
X117652380Y-87780952D01*
X117700000Y-87685714D01*
X117795238Y-87590476D01*
X117985714Y-87542857D01*
X118319047Y-87542857D01*
X118509523Y-87590476D01*
X118604761Y-87685714D01*
X118652380Y-87780952D01*
X118652380Y-87971428D01*
X118652380Y-86590476D02*
X118652380Y-87161904D01*
X118652380Y-86876190D02*
X117652380Y-86876190D01*
X117795238Y-86971428D01*
X117890476Y-87066666D01*
X117938095Y-87161904D01*
%TO.C,C1*%
X119157142Y-124466666D02*
X119204761Y-124514285D01*
X119252380Y-124657142D01*
X119252380Y-124752380D01*
X119204761Y-124895238D01*
X119109523Y-124990476D01*
X119014285Y-125038095D01*
X118823809Y-125085714D01*
X118680952Y-125085714D01*
X118490476Y-125038095D01*
X118395238Y-124990476D01*
X118300000Y-124895238D01*
X118252380Y-124752380D01*
X118252380Y-124657142D01*
X118300000Y-124514285D01*
X118347619Y-124466666D01*
X119252380Y-123514285D02*
X119252380Y-124085714D01*
X119252380Y-123800000D02*
X118252380Y-123800000D01*
X118395238Y-123895238D01*
X118490476Y-123990476D01*
X118538095Y-124085714D01*
%TO.C,C2*%
X121433333Y-108607142D02*
X121385714Y-108654761D01*
X121242857Y-108702380D01*
X121147619Y-108702380D01*
X121004761Y-108654761D01*
X120909523Y-108559523D01*
X120861904Y-108464285D01*
X120814285Y-108273809D01*
X120814285Y-108130952D01*
X120861904Y-107940476D01*
X120909523Y-107845238D01*
X121004761Y-107750000D01*
X121147619Y-107702380D01*
X121242857Y-107702380D01*
X121385714Y-107750000D01*
X121433333Y-107797619D01*
X121814285Y-107797619D02*
X121861904Y-107750000D01*
X121957142Y-107702380D01*
X122195238Y-107702380D01*
X122290476Y-107750000D01*
X122338095Y-107797619D01*
X122385714Y-107892857D01*
X122385714Y-107988095D01*
X122338095Y-108130952D01*
X121766666Y-108702380D01*
X122385714Y-108702380D01*
%TO.C,C3*%
X112633333Y-123457142D02*
X112585714Y-123504761D01*
X112442857Y-123552380D01*
X112347619Y-123552380D01*
X112204761Y-123504761D01*
X112109523Y-123409523D01*
X112061904Y-123314285D01*
X112014285Y-123123809D01*
X112014285Y-122980952D01*
X112061904Y-122790476D01*
X112109523Y-122695238D01*
X112204761Y-122600000D01*
X112347619Y-122552380D01*
X112442857Y-122552380D01*
X112585714Y-122600000D01*
X112633333Y-122647619D01*
X112966666Y-122552380D02*
X113585714Y-122552380D01*
X113252380Y-122933333D01*
X113395238Y-122933333D01*
X113490476Y-122980952D01*
X113538095Y-123028571D01*
X113585714Y-123123809D01*
X113585714Y-123361904D01*
X113538095Y-123457142D01*
X113490476Y-123504761D01*
X113395238Y-123552380D01*
X113109523Y-123552380D01*
X113014285Y-123504761D01*
X112966666Y-123457142D01*
%TO.C,C4*%
X126757142Y-57666666D02*
X126804761Y-57714285D01*
X126852380Y-57857142D01*
X126852380Y-57952380D01*
X126804761Y-58095238D01*
X126709523Y-58190476D01*
X126614285Y-58238095D01*
X126423809Y-58285714D01*
X126280952Y-58285714D01*
X126090476Y-58238095D01*
X125995238Y-58190476D01*
X125900000Y-58095238D01*
X125852380Y-57952380D01*
X125852380Y-57857142D01*
X125900000Y-57714285D01*
X125947619Y-57666666D01*
X126185714Y-56809523D02*
X126852380Y-56809523D01*
X125804761Y-57047619D02*
X126519047Y-57285714D01*
X126519047Y-56666666D01*
%TO.C,C5*%
X109933333Y-87357142D02*
X109885714Y-87404761D01*
X109742857Y-87452380D01*
X109647619Y-87452380D01*
X109504761Y-87404761D01*
X109409523Y-87309523D01*
X109361904Y-87214285D01*
X109314285Y-87023809D01*
X109314285Y-86880952D01*
X109361904Y-86690476D01*
X109409523Y-86595238D01*
X109504761Y-86500000D01*
X109647619Y-86452380D01*
X109742857Y-86452380D01*
X109885714Y-86500000D01*
X109933333Y-86547619D01*
X110838095Y-86452380D02*
X110361904Y-86452380D01*
X110314285Y-86928571D01*
X110361904Y-86880952D01*
X110457142Y-86833333D01*
X110695238Y-86833333D01*
X110790476Y-86880952D01*
X110838095Y-86928571D01*
X110885714Y-87023809D01*
X110885714Y-87261904D01*
X110838095Y-87357142D01*
X110790476Y-87404761D01*
X110695238Y-87452380D01*
X110457142Y-87452380D01*
X110361904Y-87404761D01*
X110314285Y-87357142D01*
%TO.C,C6*%
X65257142Y-80366666D02*
X65304761Y-80414285D01*
X65352380Y-80557142D01*
X65352380Y-80652380D01*
X65304761Y-80795238D01*
X65209523Y-80890476D01*
X65114285Y-80938095D01*
X64923809Y-80985714D01*
X64780952Y-80985714D01*
X64590476Y-80938095D01*
X64495238Y-80890476D01*
X64400000Y-80795238D01*
X64352380Y-80652380D01*
X64352380Y-80557142D01*
X64400000Y-80414285D01*
X64447619Y-80366666D01*
X64352380Y-79509523D02*
X64352380Y-79700000D01*
X64400000Y-79795238D01*
X64447619Y-79842857D01*
X64590476Y-79938095D01*
X64780952Y-79985714D01*
X65161904Y-79985714D01*
X65257142Y-79938095D01*
X65304761Y-79890476D01*
X65352380Y-79795238D01*
X65352380Y-79604761D01*
X65304761Y-79509523D01*
X65257142Y-79461904D01*
X65161904Y-79414285D01*
X64923809Y-79414285D01*
X64828571Y-79461904D01*
X64780952Y-79509523D01*
X64733333Y-79604761D01*
X64733333Y-79795238D01*
X64780952Y-79890476D01*
X64828571Y-79938095D01*
X64923809Y-79985714D01*
%TO.C,C7*%
X78157142Y-76166666D02*
X78204761Y-76214285D01*
X78252380Y-76357142D01*
X78252380Y-76452380D01*
X78204761Y-76595238D01*
X78109523Y-76690476D01*
X78014285Y-76738095D01*
X77823809Y-76785714D01*
X77680952Y-76785714D01*
X77490476Y-76738095D01*
X77395238Y-76690476D01*
X77300000Y-76595238D01*
X77252380Y-76452380D01*
X77252380Y-76357142D01*
X77300000Y-76214285D01*
X77347619Y-76166666D01*
X77252380Y-75833333D02*
X77252380Y-75166666D01*
X78252380Y-75595238D01*
%TO.C,C8*%
X65257142Y-73566666D02*
X65304761Y-73614285D01*
X65352380Y-73757142D01*
X65352380Y-73852380D01*
X65304761Y-73995238D01*
X65209523Y-74090476D01*
X65114285Y-74138095D01*
X64923809Y-74185714D01*
X64780952Y-74185714D01*
X64590476Y-74138095D01*
X64495238Y-74090476D01*
X64400000Y-73995238D01*
X64352380Y-73852380D01*
X64352380Y-73757142D01*
X64400000Y-73614285D01*
X64447619Y-73566666D01*
X64780952Y-72995238D02*
X64733333Y-73090476D01*
X64685714Y-73138095D01*
X64590476Y-73185714D01*
X64542857Y-73185714D01*
X64447619Y-73138095D01*
X64400000Y-73090476D01*
X64352380Y-72995238D01*
X64352380Y-72804761D01*
X64400000Y-72709523D01*
X64447619Y-72661904D01*
X64542857Y-72614285D01*
X64590476Y-72614285D01*
X64685714Y-72661904D01*
X64733333Y-72709523D01*
X64780952Y-72804761D01*
X64780952Y-72995238D01*
X64828571Y-73090476D01*
X64876190Y-73138095D01*
X64971428Y-73185714D01*
X65161904Y-73185714D01*
X65257142Y-73138095D01*
X65304761Y-73090476D01*
X65352380Y-72995238D01*
X65352380Y-72804761D01*
X65304761Y-72709523D01*
X65257142Y-72661904D01*
X65161904Y-72614285D01*
X64971428Y-72614285D01*
X64876190Y-72661904D01*
X64828571Y-72709523D01*
X64780952Y-72804761D01*
%TO.C,C9*%
X71557142Y-84791666D02*
X71604761Y-84839285D01*
X71652380Y-84982142D01*
X71652380Y-85077380D01*
X71604761Y-85220238D01*
X71509523Y-85315476D01*
X71414285Y-85363095D01*
X71223809Y-85410714D01*
X71080952Y-85410714D01*
X70890476Y-85363095D01*
X70795238Y-85315476D01*
X70700000Y-85220238D01*
X70652380Y-85077380D01*
X70652380Y-84982142D01*
X70700000Y-84839285D01*
X70747619Y-84791666D01*
X71652380Y-84315476D02*
X71652380Y-84125000D01*
X71604761Y-84029761D01*
X71557142Y-83982142D01*
X71414285Y-83886904D01*
X71223809Y-83839285D01*
X70842857Y-83839285D01*
X70747619Y-83886904D01*
X70700000Y-83934523D01*
X70652380Y-84029761D01*
X70652380Y-84220238D01*
X70700000Y-84315476D01*
X70747619Y-84363095D01*
X70842857Y-84410714D01*
X71080952Y-84410714D01*
X71176190Y-84363095D01*
X71223809Y-84315476D01*
X71271428Y-84220238D01*
X71271428Y-84029761D01*
X71223809Y-83934523D01*
X71176190Y-83886904D01*
X71080952Y-83839285D01*
%TO.C,C10*%
X76757142Y-85542857D02*
X76804761Y-85590476D01*
X76852380Y-85733333D01*
X76852380Y-85828571D01*
X76804761Y-85971428D01*
X76709523Y-86066666D01*
X76614285Y-86114285D01*
X76423809Y-86161904D01*
X76280952Y-86161904D01*
X76090476Y-86114285D01*
X75995238Y-86066666D01*
X75900000Y-85971428D01*
X75852380Y-85828571D01*
X75852380Y-85733333D01*
X75900000Y-85590476D01*
X75947619Y-85542857D01*
X76852380Y-84590476D02*
X76852380Y-85161904D01*
X76852380Y-84876190D02*
X75852380Y-84876190D01*
X75995238Y-84971428D01*
X76090476Y-85066666D01*
X76138095Y-85161904D01*
X75852380Y-83971428D02*
X75852380Y-83876190D01*
X75900000Y-83780952D01*
X75947619Y-83733333D01*
X76042857Y-83685714D01*
X76233333Y-83638095D01*
X76471428Y-83638095D01*
X76661904Y-83685714D01*
X76757142Y-83733333D01*
X76804761Y-83780952D01*
X76852380Y-83876190D01*
X76852380Y-83971428D01*
X76804761Y-84066666D01*
X76757142Y-84114285D01*
X76661904Y-84161904D01*
X76471428Y-84209523D01*
X76233333Y-84209523D01*
X76042857Y-84161904D01*
X75947619Y-84114285D01*
X75900000Y-84066666D01*
X75852380Y-83971428D01*
%TO.C,C11*%
X59157142Y-101657142D02*
X59109523Y-101704761D01*
X58966666Y-101752380D01*
X58871428Y-101752380D01*
X58728571Y-101704761D01*
X58633333Y-101609523D01*
X58585714Y-101514285D01*
X58538095Y-101323809D01*
X58538095Y-101180952D01*
X58585714Y-100990476D01*
X58633333Y-100895238D01*
X58728571Y-100800000D01*
X58871428Y-100752380D01*
X58966666Y-100752380D01*
X59109523Y-100800000D01*
X59157142Y-100847619D01*
X60109523Y-101752380D02*
X59538095Y-101752380D01*
X59823809Y-101752380D02*
X59823809Y-100752380D01*
X59728571Y-100895238D01*
X59633333Y-100990476D01*
X59538095Y-101038095D01*
X61061904Y-101752380D02*
X60490476Y-101752380D01*
X60776190Y-101752380D02*
X60776190Y-100752380D01*
X60680952Y-100895238D01*
X60585714Y-100990476D01*
X60490476Y-101038095D01*
%TO.C,C12*%
X63907142Y-106957142D02*
X63859523Y-107004761D01*
X63716666Y-107052380D01*
X63621428Y-107052380D01*
X63478571Y-107004761D01*
X63383333Y-106909523D01*
X63335714Y-106814285D01*
X63288095Y-106623809D01*
X63288095Y-106480952D01*
X63335714Y-106290476D01*
X63383333Y-106195238D01*
X63478571Y-106100000D01*
X63621428Y-106052380D01*
X63716666Y-106052380D01*
X63859523Y-106100000D01*
X63907142Y-106147619D01*
X64859523Y-107052380D02*
X64288095Y-107052380D01*
X64573809Y-107052380D02*
X64573809Y-106052380D01*
X64478571Y-106195238D01*
X64383333Y-106290476D01*
X64288095Y-106338095D01*
X65240476Y-106147619D02*
X65288095Y-106100000D01*
X65383333Y-106052380D01*
X65621428Y-106052380D01*
X65716666Y-106100000D01*
X65764285Y-106147619D01*
X65811904Y-106242857D01*
X65811904Y-106338095D01*
X65764285Y-106480952D01*
X65192857Y-107052380D01*
X65811904Y-107052380D01*
%TO.C,C13*%
X69557142Y-97042857D02*
X69604761Y-97090476D01*
X69652380Y-97233333D01*
X69652380Y-97328571D01*
X69604761Y-97471428D01*
X69509523Y-97566666D01*
X69414285Y-97614285D01*
X69223809Y-97661904D01*
X69080952Y-97661904D01*
X68890476Y-97614285D01*
X68795238Y-97566666D01*
X68700000Y-97471428D01*
X68652380Y-97328571D01*
X68652380Y-97233333D01*
X68700000Y-97090476D01*
X68747619Y-97042857D01*
X69652380Y-96090476D02*
X69652380Y-96661904D01*
X69652380Y-96376190D02*
X68652380Y-96376190D01*
X68795238Y-96471428D01*
X68890476Y-96566666D01*
X68938095Y-96661904D01*
X68652380Y-95757142D02*
X68652380Y-95138095D01*
X69033333Y-95471428D01*
X69033333Y-95328571D01*
X69080952Y-95233333D01*
X69128571Y-95185714D01*
X69223809Y-95138095D01*
X69461904Y-95138095D01*
X69557142Y-95185714D01*
X69604761Y-95233333D01*
X69652380Y-95328571D01*
X69652380Y-95614285D01*
X69604761Y-95709523D01*
X69557142Y-95757142D01*
%TO.C,C14*%
X115657142Y-113157142D02*
X115609523Y-113204761D01*
X115466666Y-113252380D01*
X115371428Y-113252380D01*
X115228571Y-113204761D01*
X115133333Y-113109523D01*
X115085714Y-113014285D01*
X115038095Y-112823809D01*
X115038095Y-112680952D01*
X115085714Y-112490476D01*
X115133333Y-112395238D01*
X115228571Y-112300000D01*
X115371428Y-112252380D01*
X115466666Y-112252380D01*
X115609523Y-112300000D01*
X115657142Y-112347619D01*
X116609523Y-113252380D02*
X116038095Y-113252380D01*
X116323809Y-113252380D02*
X116323809Y-112252380D01*
X116228571Y-112395238D01*
X116133333Y-112490476D01*
X116038095Y-112538095D01*
X117466666Y-112585714D02*
X117466666Y-113252380D01*
X117228571Y-112204761D02*
X116990476Y-112919047D01*
X117609523Y-112919047D01*
%TO.C,C15*%
X112757142Y-98757142D02*
X112709523Y-98804761D01*
X112566666Y-98852380D01*
X112471428Y-98852380D01*
X112328571Y-98804761D01*
X112233333Y-98709523D01*
X112185714Y-98614285D01*
X112138095Y-98423809D01*
X112138095Y-98280952D01*
X112185714Y-98090476D01*
X112233333Y-97995238D01*
X112328571Y-97900000D01*
X112471428Y-97852380D01*
X112566666Y-97852380D01*
X112709523Y-97900000D01*
X112757142Y-97947619D01*
X113709523Y-98852380D02*
X113138095Y-98852380D01*
X113423809Y-98852380D02*
X113423809Y-97852380D01*
X113328571Y-97995238D01*
X113233333Y-98090476D01*
X113138095Y-98138095D01*
X114614285Y-97852380D02*
X114138095Y-97852380D01*
X114090476Y-98328571D01*
X114138095Y-98280952D01*
X114233333Y-98233333D01*
X114471428Y-98233333D01*
X114566666Y-98280952D01*
X114614285Y-98328571D01*
X114661904Y-98423809D01*
X114661904Y-98661904D01*
X114614285Y-98757142D01*
X114566666Y-98804761D01*
X114471428Y-98852380D01*
X114233333Y-98852380D01*
X114138095Y-98804761D01*
X114090476Y-98757142D01*
%TO.C,C16*%
X89592893Y-129497969D02*
X89525549Y-129497969D01*
X89390862Y-129430625D01*
X89323519Y-129363282D01*
X89256175Y-129228595D01*
X89256175Y-129093908D01*
X89289847Y-128992893D01*
X89390862Y-128824534D01*
X89491877Y-128723519D01*
X89660236Y-128622503D01*
X89761251Y-128588832D01*
X89895938Y-128588832D01*
X90030625Y-128656175D01*
X90097969Y-128723519D01*
X90165312Y-128858206D01*
X90165312Y-128925549D01*
X90198984Y-130238748D02*
X89794923Y-129834687D01*
X89996954Y-130036717D02*
X90704061Y-129329610D01*
X90535702Y-129363282D01*
X90401015Y-129363282D01*
X90300000Y-129329610D01*
X91512183Y-130137732D02*
X91377496Y-130003045D01*
X91276480Y-129969374D01*
X91209137Y-129969374D01*
X91040778Y-130003045D01*
X90872419Y-130104061D01*
X90603045Y-130373435D01*
X90569374Y-130474450D01*
X90569374Y-130541793D01*
X90603045Y-130642809D01*
X90737732Y-130777496D01*
X90838748Y-130811167D01*
X90906091Y-130811167D01*
X91007106Y-130777496D01*
X91175465Y-130609137D01*
X91209137Y-130508122D01*
X91209137Y-130440778D01*
X91175465Y-130339763D01*
X91040778Y-130205076D01*
X90939763Y-130171404D01*
X90872419Y-130171404D01*
X90771404Y-130205076D01*
%TO.C,C17*%
X84257142Y-93617857D02*
X84304761Y-93665476D01*
X84352380Y-93808333D01*
X84352380Y-93903571D01*
X84304761Y-94046428D01*
X84209523Y-94141666D01*
X84114285Y-94189285D01*
X83923809Y-94236904D01*
X83780952Y-94236904D01*
X83590476Y-94189285D01*
X83495238Y-94141666D01*
X83400000Y-94046428D01*
X83352380Y-93903571D01*
X83352380Y-93808333D01*
X83400000Y-93665476D01*
X83447619Y-93617857D01*
X84352380Y-92665476D02*
X84352380Y-93236904D01*
X84352380Y-92951190D02*
X83352380Y-92951190D01*
X83495238Y-93046428D01*
X83590476Y-93141666D01*
X83638095Y-93236904D01*
X83352380Y-92332142D02*
X83352380Y-91665476D01*
X84352380Y-92094047D01*
%TO.C,C18*%
X69757142Y-113157142D02*
X69709523Y-113204761D01*
X69566666Y-113252380D01*
X69471428Y-113252380D01*
X69328571Y-113204761D01*
X69233333Y-113109523D01*
X69185714Y-113014285D01*
X69138095Y-112823809D01*
X69138095Y-112680952D01*
X69185714Y-112490476D01*
X69233333Y-112395238D01*
X69328571Y-112300000D01*
X69471428Y-112252380D01*
X69566666Y-112252380D01*
X69709523Y-112300000D01*
X69757142Y-112347619D01*
X70709523Y-113252380D02*
X70138095Y-113252380D01*
X70423809Y-113252380D02*
X70423809Y-112252380D01*
X70328571Y-112395238D01*
X70233333Y-112490476D01*
X70138095Y-112538095D01*
X71280952Y-112680952D02*
X71185714Y-112633333D01*
X71138095Y-112585714D01*
X71090476Y-112490476D01*
X71090476Y-112442857D01*
X71138095Y-112347619D01*
X71185714Y-112300000D01*
X71280952Y-112252380D01*
X71471428Y-112252380D01*
X71566666Y-112300000D01*
X71614285Y-112347619D01*
X71661904Y-112442857D01*
X71661904Y-112490476D01*
X71614285Y-112585714D01*
X71566666Y-112633333D01*
X71471428Y-112680952D01*
X71280952Y-112680952D01*
X71185714Y-112728571D01*
X71138095Y-112776190D01*
X71090476Y-112871428D01*
X71090476Y-113061904D01*
X71138095Y-113157142D01*
X71185714Y-113204761D01*
X71280952Y-113252380D01*
X71471428Y-113252380D01*
X71566666Y-113204761D01*
X71614285Y-113157142D01*
X71661904Y-113061904D01*
X71661904Y-112871428D01*
X71614285Y-112776190D01*
X71566666Y-112728571D01*
X71471428Y-112680952D01*
%TO.C,C19*%
X106133674Y-112516985D02*
X106133674Y-112584329D01*
X106066330Y-112719016D01*
X105998987Y-112786359D01*
X105864300Y-112853703D01*
X105729613Y-112853703D01*
X105628598Y-112820031D01*
X105460239Y-112719016D01*
X105359224Y-112618001D01*
X105258208Y-112449642D01*
X105224537Y-112348627D01*
X105224537Y-112213940D01*
X105291880Y-112079253D01*
X105359224Y-112011909D01*
X105493911Y-111944566D01*
X105561254Y-111944566D01*
X106874453Y-111910894D02*
X106470392Y-112314955D01*
X106672422Y-112112924D02*
X105965315Y-111405817D01*
X105998987Y-111574176D01*
X105998987Y-111708863D01*
X105965315Y-111809879D01*
X107211170Y-111574176D02*
X107345857Y-111439489D01*
X107379529Y-111338474D01*
X107379529Y-111271130D01*
X107345857Y-111102772D01*
X107244842Y-110934413D01*
X106975468Y-110665039D01*
X106874453Y-110631367D01*
X106807109Y-110631367D01*
X106706094Y-110665039D01*
X106571407Y-110799726D01*
X106537735Y-110900741D01*
X106537735Y-110968085D01*
X106571407Y-111069100D01*
X106739766Y-111237459D01*
X106840781Y-111271130D01*
X106908124Y-111271130D01*
X107009140Y-111237459D01*
X107143827Y-111102772D01*
X107177498Y-111001756D01*
X107177498Y-110934413D01*
X107143827Y-110833398D01*
%TO.C,C20*%
X96722753Y-98482322D02*
X96722753Y-98549666D01*
X96655409Y-98684353D01*
X96588066Y-98751696D01*
X96453379Y-98819040D01*
X96318692Y-98819040D01*
X96217677Y-98785368D01*
X96049318Y-98684353D01*
X95948303Y-98583338D01*
X95847287Y-98414979D01*
X95813616Y-98313964D01*
X95813616Y-98179277D01*
X95880959Y-98044590D01*
X95948303Y-97977246D01*
X96082990Y-97909903D01*
X96150333Y-97909903D01*
X96419707Y-97640528D02*
X96419707Y-97573185D01*
X96453379Y-97472170D01*
X96621738Y-97303811D01*
X96722753Y-97270139D01*
X96790096Y-97270139D01*
X96891112Y-97303811D01*
X96958455Y-97371154D01*
X97025799Y-97505841D01*
X97025799Y-98313964D01*
X97463532Y-97876231D01*
X97194158Y-96731391D02*
X97261501Y-96664048D01*
X97362516Y-96630376D01*
X97429860Y-96630376D01*
X97530875Y-96664048D01*
X97699234Y-96765063D01*
X97867593Y-96933422D01*
X97968608Y-97101780D01*
X98002280Y-97202796D01*
X98002280Y-97270139D01*
X97968608Y-97371154D01*
X97901264Y-97438498D01*
X97800249Y-97472170D01*
X97732906Y-97472170D01*
X97631890Y-97438498D01*
X97463532Y-97337483D01*
X97295173Y-97169124D01*
X97194158Y-97000765D01*
X97160486Y-96899750D01*
X97160486Y-96832406D01*
X97194158Y-96731391D01*
%TO.C,C21*%
X73817677Y-98122753D02*
X73750333Y-98122753D01*
X73615646Y-98055409D01*
X73548303Y-97988066D01*
X73480959Y-97853379D01*
X73480959Y-97718692D01*
X73514631Y-97617677D01*
X73615646Y-97449318D01*
X73716661Y-97348303D01*
X73885020Y-97247287D01*
X73986035Y-97213616D01*
X74120722Y-97213616D01*
X74255409Y-97280959D01*
X74322753Y-97348303D01*
X74390096Y-97482990D01*
X74390096Y-97550333D01*
X74659471Y-97819707D02*
X74726814Y-97819707D01*
X74827829Y-97853379D01*
X74996188Y-98021738D01*
X75029860Y-98122753D01*
X75029860Y-98190096D01*
X74996188Y-98291112D01*
X74928845Y-98358455D01*
X74794158Y-98425799D01*
X73986035Y-98425799D01*
X74423768Y-98863532D01*
X75097203Y-99536967D02*
X74693142Y-99132906D01*
X74895173Y-99334936D02*
X75602280Y-98627829D01*
X75433921Y-98661501D01*
X75299234Y-98661501D01*
X75198219Y-98627829D01*
%TO.C,C22*%
X79197968Y-125107106D02*
X79197968Y-125174450D01*
X79130624Y-125309137D01*
X79063281Y-125376480D01*
X78928594Y-125443824D01*
X78793907Y-125443824D01*
X78692892Y-125410152D01*
X78524533Y-125309137D01*
X78423518Y-125208122D01*
X78322502Y-125039763D01*
X78288831Y-124938748D01*
X78288831Y-124804061D01*
X78356174Y-124669374D01*
X78423518Y-124602030D01*
X78558205Y-124534687D01*
X78625548Y-124534687D01*
X78894922Y-124265312D02*
X78894922Y-124197969D01*
X78928594Y-124096954D01*
X79096953Y-123928595D01*
X79197968Y-123894923D01*
X79265311Y-123894923D01*
X79366327Y-123928595D01*
X79433670Y-123995938D01*
X79501014Y-124130625D01*
X79501014Y-124938748D01*
X79938747Y-124501015D01*
X79568357Y-123591877D02*
X79568357Y-123524534D01*
X79602029Y-123423519D01*
X79770388Y-123255160D01*
X79871403Y-123221488D01*
X79938747Y-123221488D01*
X80039762Y-123255160D01*
X80107105Y-123322503D01*
X80174449Y-123457190D01*
X80174449Y-124265312D01*
X80612182Y-123827580D01*
%TO.C,C23*%
X98294229Y-124257142D02*
X98246610Y-124304761D01*
X98103753Y-124352380D01*
X98008515Y-124352380D01*
X97865658Y-124304761D01*
X97770420Y-124209523D01*
X97722801Y-124114285D01*
X97675182Y-123923809D01*
X97675182Y-123780952D01*
X97722801Y-123590476D01*
X97770420Y-123495238D01*
X97865658Y-123400000D01*
X98008515Y-123352380D01*
X98103753Y-123352380D01*
X98246610Y-123400000D01*
X98294229Y-123447619D01*
X98675182Y-123447619D02*
X98722801Y-123400000D01*
X98818039Y-123352380D01*
X99056134Y-123352380D01*
X99151372Y-123400000D01*
X99198991Y-123447619D01*
X99246610Y-123542857D01*
X99246610Y-123638095D01*
X99198991Y-123780952D01*
X98627563Y-124352380D01*
X99246610Y-124352380D01*
X99579944Y-123352380D02*
X100198991Y-123352380D01*
X99865658Y-123733333D01*
X100008515Y-123733333D01*
X100103753Y-123780952D01*
X100151372Y-123828571D01*
X100198991Y-123923809D01*
X100198991Y-124161904D01*
X100151372Y-124257142D01*
X100103753Y-124304761D01*
X100008515Y-124352380D01*
X99722801Y-124352380D01*
X99627563Y-124304761D01*
X99579944Y-124257142D01*
%TO.C,C30*%
X93957142Y-69142857D02*
X94004761Y-69190476D01*
X94052380Y-69333333D01*
X94052380Y-69428571D01*
X94004761Y-69571428D01*
X93909523Y-69666666D01*
X93814285Y-69714285D01*
X93623809Y-69761904D01*
X93480952Y-69761904D01*
X93290476Y-69714285D01*
X93195238Y-69666666D01*
X93100000Y-69571428D01*
X93052380Y-69428571D01*
X93052380Y-69333333D01*
X93100000Y-69190476D01*
X93147619Y-69142857D01*
X93052380Y-68809523D02*
X93052380Y-68190476D01*
X93433333Y-68523809D01*
X93433333Y-68380952D01*
X93480952Y-68285714D01*
X93528571Y-68238095D01*
X93623809Y-68190476D01*
X93861904Y-68190476D01*
X93957142Y-68238095D01*
X94004761Y-68285714D01*
X94052380Y-68380952D01*
X94052380Y-68666666D01*
X94004761Y-68761904D01*
X93957142Y-68809523D01*
X93052380Y-67571428D02*
X93052380Y-67476190D01*
X93100000Y-67380952D01*
X93147619Y-67333333D01*
X93242857Y-67285714D01*
X93433333Y-67238095D01*
X93671428Y-67238095D01*
X93861904Y-67285714D01*
X93957142Y-67333333D01*
X94004761Y-67380952D01*
X94052380Y-67476190D01*
X94052380Y-67571428D01*
X94004761Y-67666666D01*
X93957142Y-67714285D01*
X93861904Y-67761904D01*
X93671428Y-67809523D01*
X93433333Y-67809523D01*
X93242857Y-67761904D01*
X93147619Y-67714285D01*
X93100000Y-67666666D01*
X93052380Y-67571428D01*
%TO.C,C34*%
X71557142Y-62642857D02*
X71604761Y-62690476D01*
X71652380Y-62833333D01*
X71652380Y-62928571D01*
X71604761Y-63071428D01*
X71509523Y-63166666D01*
X71414285Y-63214285D01*
X71223809Y-63261904D01*
X71080952Y-63261904D01*
X70890476Y-63214285D01*
X70795238Y-63166666D01*
X70700000Y-63071428D01*
X70652380Y-62928571D01*
X70652380Y-62833333D01*
X70700000Y-62690476D01*
X70747619Y-62642857D01*
X70652380Y-62309523D02*
X70652380Y-61690476D01*
X71033333Y-62023809D01*
X71033333Y-61880952D01*
X71080952Y-61785714D01*
X71128571Y-61738095D01*
X71223809Y-61690476D01*
X71461904Y-61690476D01*
X71557142Y-61738095D01*
X71604761Y-61785714D01*
X71652380Y-61880952D01*
X71652380Y-62166666D01*
X71604761Y-62261904D01*
X71557142Y-62309523D01*
X70985714Y-60833333D02*
X71652380Y-60833333D01*
X70604761Y-61071428D02*
X71319047Y-61309523D01*
X71319047Y-60690476D01*
%TO.C,C35*%
X81257142Y-67642857D02*
X81304761Y-67690476D01*
X81352380Y-67833333D01*
X81352380Y-67928571D01*
X81304761Y-68071428D01*
X81209523Y-68166666D01*
X81114285Y-68214285D01*
X80923809Y-68261904D01*
X80780952Y-68261904D01*
X80590476Y-68214285D01*
X80495238Y-68166666D01*
X80400000Y-68071428D01*
X80352380Y-67928571D01*
X80352380Y-67833333D01*
X80400000Y-67690476D01*
X80447619Y-67642857D01*
X80352380Y-67309523D02*
X80352380Y-66690476D01*
X80733333Y-67023809D01*
X80733333Y-66880952D01*
X80780952Y-66785714D01*
X80828571Y-66738095D01*
X80923809Y-66690476D01*
X81161904Y-66690476D01*
X81257142Y-66738095D01*
X81304761Y-66785714D01*
X81352380Y-66880952D01*
X81352380Y-67166666D01*
X81304761Y-67261904D01*
X81257142Y-67309523D01*
X80352380Y-65785714D02*
X80352380Y-66261904D01*
X80828571Y-66309523D01*
X80780952Y-66261904D01*
X80733333Y-66166666D01*
X80733333Y-65928571D01*
X80780952Y-65833333D01*
X80828571Y-65785714D01*
X80923809Y-65738095D01*
X81161904Y-65738095D01*
X81257142Y-65785714D01*
X81304761Y-65833333D01*
X81352380Y-65928571D01*
X81352380Y-66166666D01*
X81304761Y-66261904D01*
X81257142Y-66309523D01*
%TO.C,C31*%
X116557142Y-82057142D02*
X116509523Y-82104761D01*
X116366666Y-82152380D01*
X116271428Y-82152380D01*
X116128571Y-82104761D01*
X116033333Y-82009523D01*
X115985714Y-81914285D01*
X115938095Y-81723809D01*
X115938095Y-81580952D01*
X115985714Y-81390476D01*
X116033333Y-81295238D01*
X116128571Y-81200000D01*
X116271428Y-81152380D01*
X116366666Y-81152380D01*
X116509523Y-81200000D01*
X116557142Y-81247619D01*
X116890476Y-81152380D02*
X117509523Y-81152380D01*
X117176190Y-81533333D01*
X117319047Y-81533333D01*
X117414285Y-81580952D01*
X117461904Y-81628571D01*
X117509523Y-81723809D01*
X117509523Y-81961904D01*
X117461904Y-82057142D01*
X117414285Y-82104761D01*
X117319047Y-82152380D01*
X117033333Y-82152380D01*
X116938095Y-82104761D01*
X116890476Y-82057142D01*
X118461904Y-82152380D02*
X117890476Y-82152380D01*
X118176190Y-82152380D02*
X118176190Y-81152380D01*
X118080952Y-81295238D01*
X117985714Y-81390476D01*
X117890476Y-81438095D01*
%TO.C,C24*%
X100456027Y-103315596D02*
X100456027Y-103382940D01*
X100388683Y-103517627D01*
X100321340Y-103584970D01*
X100186653Y-103652314D01*
X100051966Y-103652314D01*
X99950951Y-103618642D01*
X99782592Y-103517627D01*
X99681577Y-103416612D01*
X99580561Y-103248253D01*
X99546890Y-103147238D01*
X99546890Y-103012551D01*
X99614233Y-102877864D01*
X99681577Y-102810520D01*
X99816264Y-102743177D01*
X99883607Y-102743177D01*
X100152981Y-102473802D02*
X100152981Y-102406459D01*
X100186653Y-102305444D01*
X100355012Y-102137085D01*
X100456027Y-102103413D01*
X100523370Y-102103413D01*
X100624386Y-102137085D01*
X100691729Y-102204428D01*
X100759073Y-102339115D01*
X100759073Y-103147238D01*
X101196806Y-102709505D01*
X101331493Y-101632009D02*
X101802897Y-102103413D01*
X100893760Y-101530993D02*
X101230477Y-102204428D01*
X101668210Y-101766696D01*
%TO.C,C25*%
X74297969Y-120007106D02*
X74297969Y-120074450D01*
X74230625Y-120209137D01*
X74163282Y-120276480D01*
X74028595Y-120343824D01*
X73893908Y-120343824D01*
X73792893Y-120310152D01*
X73624534Y-120209137D01*
X73523519Y-120108122D01*
X73422503Y-119939763D01*
X73388832Y-119838748D01*
X73388832Y-119704061D01*
X73456175Y-119569374D01*
X73523519Y-119502030D01*
X73658206Y-119434687D01*
X73725549Y-119434687D01*
X73994923Y-119165312D02*
X73994923Y-119097969D01*
X74028595Y-118996954D01*
X74196954Y-118828595D01*
X74297969Y-118794923D01*
X74365312Y-118794923D01*
X74466328Y-118828595D01*
X74533671Y-118895938D01*
X74601015Y-119030625D01*
X74601015Y-119838748D01*
X75038748Y-119401015D01*
X74971404Y-118054145D02*
X74634687Y-118390862D01*
X74937732Y-118761251D01*
X74937732Y-118693908D01*
X74971404Y-118592893D01*
X75139763Y-118424534D01*
X75240778Y-118390862D01*
X75308122Y-118390862D01*
X75409137Y-118424534D01*
X75577496Y-118592893D01*
X75611167Y-118693908D01*
X75611167Y-118761251D01*
X75577496Y-118862267D01*
X75409137Y-119030625D01*
X75308122Y-119064297D01*
X75240778Y-119064297D01*
%TO.C,C26*%
X85297969Y-129807106D02*
X85297969Y-129874450D01*
X85230625Y-130009137D01*
X85163282Y-130076480D01*
X85028595Y-130143824D01*
X84893908Y-130143824D01*
X84792893Y-130110152D01*
X84624534Y-130009137D01*
X84523519Y-129908122D01*
X84422503Y-129739763D01*
X84388832Y-129638748D01*
X84388832Y-129504061D01*
X84456175Y-129369374D01*
X84523519Y-129302030D01*
X84658206Y-129234687D01*
X84725549Y-129234687D01*
X84994923Y-128965312D02*
X84994923Y-128897969D01*
X85028595Y-128796954D01*
X85196954Y-128628595D01*
X85297969Y-128594923D01*
X85365312Y-128594923D01*
X85466328Y-128628595D01*
X85533671Y-128695938D01*
X85601015Y-128830625D01*
X85601015Y-129638748D01*
X86038748Y-129201015D01*
X85937732Y-127887816D02*
X85803045Y-128022503D01*
X85769374Y-128123519D01*
X85769374Y-128190862D01*
X85803045Y-128359221D01*
X85904061Y-128527580D01*
X86173435Y-128796954D01*
X86274450Y-128830625D01*
X86341793Y-128830625D01*
X86442809Y-128796954D01*
X86577496Y-128662267D01*
X86611167Y-128561251D01*
X86611167Y-128493908D01*
X86577496Y-128392893D01*
X86409137Y-128224534D01*
X86308122Y-128190862D01*
X86240778Y-128190862D01*
X86139763Y-128224534D01*
X86005076Y-128359221D01*
X85971404Y-128460236D01*
X85971404Y-128527580D01*
X86005076Y-128628595D01*
%TO.C,C27*%
X81492893Y-95697969D02*
X81425549Y-95697969D01*
X81290862Y-95630625D01*
X81223519Y-95563282D01*
X81156175Y-95428595D01*
X81156175Y-95293908D01*
X81189847Y-95192893D01*
X81290862Y-95024534D01*
X81391877Y-94923519D01*
X81560236Y-94822503D01*
X81661251Y-94788832D01*
X81795938Y-94788832D01*
X81930625Y-94856175D01*
X81997969Y-94923519D01*
X82065312Y-95058206D01*
X82065312Y-95125549D01*
X82334687Y-95394923D02*
X82402030Y-95394923D01*
X82503045Y-95428595D01*
X82671404Y-95596954D01*
X82705076Y-95697969D01*
X82705076Y-95765312D01*
X82671404Y-95866328D01*
X82604061Y-95933671D01*
X82469374Y-96001015D01*
X81661251Y-96001015D01*
X82098984Y-96438748D01*
X83041793Y-95967343D02*
X83513198Y-96438748D01*
X82503045Y-96842809D01*
%TO.C,C32*%
X64757142Y-131142857D02*
X64804761Y-131190476D01*
X64852380Y-131333333D01*
X64852380Y-131428571D01*
X64804761Y-131571428D01*
X64709523Y-131666666D01*
X64614285Y-131714285D01*
X64423809Y-131761904D01*
X64280952Y-131761904D01*
X64090476Y-131714285D01*
X63995238Y-131666666D01*
X63900000Y-131571428D01*
X63852380Y-131428571D01*
X63852380Y-131333333D01*
X63900000Y-131190476D01*
X63947619Y-131142857D01*
X63852380Y-130809523D02*
X63852380Y-130190476D01*
X64233333Y-130523809D01*
X64233333Y-130380952D01*
X64280952Y-130285714D01*
X64328571Y-130238095D01*
X64423809Y-130190476D01*
X64661904Y-130190476D01*
X64757142Y-130238095D01*
X64804761Y-130285714D01*
X64852380Y-130380952D01*
X64852380Y-130666666D01*
X64804761Y-130761904D01*
X64757142Y-130809523D01*
X63947619Y-129809523D02*
X63900000Y-129761904D01*
X63852380Y-129666666D01*
X63852380Y-129428571D01*
X63900000Y-129333333D01*
X63947619Y-129285714D01*
X64042857Y-129238095D01*
X64138095Y-129238095D01*
X64280952Y-129285714D01*
X64852380Y-129857142D01*
X64852380Y-129238095D01*
%TO.C,D3*%
X51661904Y-111652380D02*
X51661904Y-110652380D01*
X51900000Y-110652380D01*
X52042857Y-110700000D01*
X52138095Y-110795238D01*
X52185714Y-110890476D01*
X52233333Y-111080952D01*
X52233333Y-111223809D01*
X52185714Y-111414285D01*
X52138095Y-111509523D01*
X52042857Y-111604761D01*
X51900000Y-111652380D01*
X51661904Y-111652380D01*
X52566666Y-110652380D02*
X53185714Y-110652380D01*
X52852380Y-111033333D01*
X52995238Y-111033333D01*
X53090476Y-111080952D01*
X53138095Y-111128571D01*
X53185714Y-111223809D01*
X53185714Y-111461904D01*
X53138095Y-111557142D01*
X53090476Y-111604761D01*
X52995238Y-111652380D01*
X52709523Y-111652380D01*
X52614285Y-111604761D01*
X52566666Y-111557142D01*
%TO.C,R1*%
X83852380Y-70129166D02*
X83376190Y-70462500D01*
X83852380Y-70700595D02*
X82852380Y-70700595D01*
X82852380Y-70319642D01*
X82900000Y-70224404D01*
X82947619Y-70176785D01*
X83042857Y-70129166D01*
X83185714Y-70129166D01*
X83280952Y-70176785D01*
X83328571Y-70224404D01*
X83376190Y-70319642D01*
X83376190Y-70700595D01*
X83852380Y-69176785D02*
X83852380Y-69748214D01*
X83852380Y-69462500D02*
X82852380Y-69462500D01*
X82995238Y-69557738D01*
X83090476Y-69652976D01*
X83138095Y-69748214D01*
%TO.C,R2*%
X86052380Y-68566666D02*
X85576190Y-68900000D01*
X86052380Y-69138095D02*
X85052380Y-69138095D01*
X85052380Y-68757142D01*
X85100000Y-68661904D01*
X85147619Y-68614285D01*
X85242857Y-68566666D01*
X85385714Y-68566666D01*
X85480952Y-68614285D01*
X85528571Y-68661904D01*
X85576190Y-68757142D01*
X85576190Y-69138095D01*
X85147619Y-68185714D02*
X85100000Y-68138095D01*
X85052380Y-68042857D01*
X85052380Y-67804761D01*
X85100000Y-67709523D01*
X85147619Y-67661904D01*
X85242857Y-67614285D01*
X85338095Y-67614285D01*
X85480952Y-67661904D01*
X86052380Y-68233333D01*
X86052380Y-67614285D01*
%TO.C,R3*%
X117370833Y-84152380D02*
X117037500Y-83676190D01*
X116799404Y-84152380D02*
X116799404Y-83152380D01*
X117180357Y-83152380D01*
X117275595Y-83200000D01*
X117323214Y-83247619D01*
X117370833Y-83342857D01*
X117370833Y-83485714D01*
X117323214Y-83580952D01*
X117275595Y-83628571D01*
X117180357Y-83676190D01*
X116799404Y-83676190D01*
X117704166Y-83152380D02*
X118323214Y-83152380D01*
X117989880Y-83533333D01*
X118132738Y-83533333D01*
X118227976Y-83580952D01*
X118275595Y-83628571D01*
X118323214Y-83723809D01*
X118323214Y-83961904D01*
X118275595Y-84057142D01*
X118227976Y-84104761D01*
X118132738Y-84152380D01*
X117847023Y-84152380D01*
X117751785Y-84104761D01*
X117704166Y-84057142D01*
%TO.C,R4*%
X114033333Y-87552380D02*
X113700000Y-87076190D01*
X113461904Y-87552380D02*
X113461904Y-86552380D01*
X113842857Y-86552380D01*
X113938095Y-86600000D01*
X113985714Y-86647619D01*
X114033333Y-86742857D01*
X114033333Y-86885714D01*
X113985714Y-86980952D01*
X113938095Y-87028571D01*
X113842857Y-87076190D01*
X113461904Y-87076190D01*
X114890476Y-86885714D02*
X114890476Y-87552380D01*
X114652380Y-86504761D02*
X114414285Y-87219047D01*
X115033333Y-87219047D01*
%TO.C,R6*%
X71652380Y-73566666D02*
X71176190Y-73900000D01*
X71652380Y-74138095D02*
X70652380Y-74138095D01*
X70652380Y-73757142D01*
X70700000Y-73661904D01*
X70747619Y-73614285D01*
X70842857Y-73566666D01*
X70985714Y-73566666D01*
X71080952Y-73614285D01*
X71128571Y-73661904D01*
X71176190Y-73757142D01*
X71176190Y-74138095D01*
X70652380Y-72709523D02*
X70652380Y-72900000D01*
X70700000Y-72995238D01*
X70747619Y-73042857D01*
X70890476Y-73138095D01*
X71080952Y-73185714D01*
X71461904Y-73185714D01*
X71557142Y-73138095D01*
X71604761Y-73090476D01*
X71652380Y-72995238D01*
X71652380Y-72804761D01*
X71604761Y-72709523D01*
X71557142Y-72661904D01*
X71461904Y-72614285D01*
X71223809Y-72614285D01*
X71128571Y-72661904D01*
X71080952Y-72709523D01*
X71033333Y-72804761D01*
X71033333Y-72995238D01*
X71080952Y-73090476D01*
X71128571Y-73138095D01*
X71223809Y-73185714D01*
%TO.C,R7*%
X73852380Y-73566666D02*
X73376190Y-73900000D01*
X73852380Y-74138095D02*
X72852380Y-74138095D01*
X72852380Y-73757142D01*
X72900000Y-73661904D01*
X72947619Y-73614285D01*
X73042857Y-73566666D01*
X73185714Y-73566666D01*
X73280952Y-73614285D01*
X73328571Y-73661904D01*
X73376190Y-73757142D01*
X73376190Y-74138095D01*
X72852380Y-73233333D02*
X72852380Y-72566666D01*
X73852380Y-72995238D01*
%TO.C,R8*%
X73852380Y-84766666D02*
X73376190Y-85100000D01*
X73852380Y-85338095D02*
X72852380Y-85338095D01*
X72852380Y-84957142D01*
X72900000Y-84861904D01*
X72947619Y-84814285D01*
X73042857Y-84766666D01*
X73185714Y-84766666D01*
X73280952Y-84814285D01*
X73328571Y-84861904D01*
X73376190Y-84957142D01*
X73376190Y-85338095D01*
X73280952Y-84195238D02*
X73233333Y-84290476D01*
X73185714Y-84338095D01*
X73090476Y-84385714D01*
X73042857Y-84385714D01*
X72947619Y-84338095D01*
X72900000Y-84290476D01*
X72852380Y-84195238D01*
X72852380Y-84004761D01*
X72900000Y-83909523D01*
X72947619Y-83861904D01*
X73042857Y-83814285D01*
X73090476Y-83814285D01*
X73185714Y-83861904D01*
X73233333Y-83909523D01*
X73280952Y-84004761D01*
X73280952Y-84195238D01*
X73328571Y-84290476D01*
X73376190Y-84338095D01*
X73471428Y-84385714D01*
X73661904Y-84385714D01*
X73757142Y-84338095D01*
X73804761Y-84290476D01*
X73852380Y-84195238D01*
X73852380Y-84004761D01*
X73804761Y-83909523D01*
X73757142Y-83861904D01*
X73661904Y-83814285D01*
X73471428Y-83814285D01*
X73376190Y-83861904D01*
X73328571Y-83909523D01*
X73280952Y-84004761D01*
%TO.C,R9*%
X64633333Y-113052380D02*
X64300000Y-112576190D01*
X64061904Y-113052380D02*
X64061904Y-112052380D01*
X64442857Y-112052380D01*
X64538095Y-112100000D01*
X64585714Y-112147619D01*
X64633333Y-112242857D01*
X64633333Y-112385714D01*
X64585714Y-112480952D01*
X64538095Y-112528571D01*
X64442857Y-112576190D01*
X64061904Y-112576190D01*
X65109523Y-113052380D02*
X65300000Y-113052380D01*
X65395238Y-113004761D01*
X65442857Y-112957142D01*
X65538095Y-112814285D01*
X65585714Y-112623809D01*
X65585714Y-112242857D01*
X65538095Y-112147619D01*
X65490476Y-112100000D01*
X65395238Y-112052380D01*
X65204761Y-112052380D01*
X65109523Y-112100000D01*
X65061904Y-112147619D01*
X65014285Y-112242857D01*
X65014285Y-112480952D01*
X65061904Y-112576190D01*
X65109523Y-112623809D01*
X65204761Y-112671428D01*
X65395238Y-112671428D01*
X65490476Y-112623809D01*
X65538095Y-112576190D01*
X65585714Y-112480952D01*
%TO.C,R10*%
X63907142Y-108602380D02*
X63573809Y-108126190D01*
X63335714Y-108602380D02*
X63335714Y-107602380D01*
X63716666Y-107602380D01*
X63811904Y-107650000D01*
X63859523Y-107697619D01*
X63907142Y-107792857D01*
X63907142Y-107935714D01*
X63859523Y-108030952D01*
X63811904Y-108078571D01*
X63716666Y-108126190D01*
X63335714Y-108126190D01*
X64859523Y-108602380D02*
X64288095Y-108602380D01*
X64573809Y-108602380D02*
X64573809Y-107602380D01*
X64478571Y-107745238D01*
X64383333Y-107840476D01*
X64288095Y-107888095D01*
X65478571Y-107602380D02*
X65573809Y-107602380D01*
X65669047Y-107650000D01*
X65716666Y-107697619D01*
X65764285Y-107792857D01*
X65811904Y-107983333D01*
X65811904Y-108221428D01*
X65764285Y-108411904D01*
X65716666Y-108507142D01*
X65669047Y-108554761D01*
X65573809Y-108602380D01*
X65478571Y-108602380D01*
X65383333Y-108554761D01*
X65335714Y-108507142D01*
X65288095Y-108411904D01*
X65240476Y-108221428D01*
X65240476Y-107983333D01*
X65288095Y-107792857D01*
X65335714Y-107697619D01*
X65383333Y-107650000D01*
X65478571Y-107602380D01*
%TO.C,R12*%
X62257142Y-97852380D02*
X61923809Y-97376190D01*
X61685714Y-97852380D02*
X61685714Y-96852380D01*
X62066666Y-96852380D01*
X62161904Y-96900000D01*
X62209523Y-96947619D01*
X62257142Y-97042857D01*
X62257142Y-97185714D01*
X62209523Y-97280952D01*
X62161904Y-97328571D01*
X62066666Y-97376190D01*
X61685714Y-97376190D01*
X63209523Y-97852380D02*
X62638095Y-97852380D01*
X62923809Y-97852380D02*
X62923809Y-96852380D01*
X62828571Y-96995238D01*
X62733333Y-97090476D01*
X62638095Y-97138095D01*
X63590476Y-96947619D02*
X63638095Y-96900000D01*
X63733333Y-96852380D01*
X63971428Y-96852380D01*
X64066666Y-96900000D01*
X64114285Y-96947619D01*
X64161904Y-97042857D01*
X64161904Y-97138095D01*
X64114285Y-97280952D01*
X63542857Y-97852380D01*
X64161904Y-97852380D01*
%TO.C,R13*%
X62257142Y-95652380D02*
X61923809Y-95176190D01*
X61685714Y-95652380D02*
X61685714Y-94652380D01*
X62066666Y-94652380D01*
X62161904Y-94700000D01*
X62209523Y-94747619D01*
X62257142Y-94842857D01*
X62257142Y-94985714D01*
X62209523Y-95080952D01*
X62161904Y-95128571D01*
X62066666Y-95176190D01*
X61685714Y-95176190D01*
X63209523Y-95652380D02*
X62638095Y-95652380D01*
X62923809Y-95652380D02*
X62923809Y-94652380D01*
X62828571Y-94795238D01*
X62733333Y-94890476D01*
X62638095Y-94938095D01*
X63542857Y-94652380D02*
X64161904Y-94652380D01*
X63828571Y-95033333D01*
X63971428Y-95033333D01*
X64066666Y-95080952D01*
X64114285Y-95128571D01*
X64161904Y-95223809D01*
X64161904Y-95461904D01*
X64114285Y-95557142D01*
X64066666Y-95604761D01*
X63971428Y-95652380D01*
X63685714Y-95652380D01*
X63590476Y-95604761D01*
X63542857Y-95557142D01*
%TO.C,R14*%
X70257142Y-128552380D02*
X69923809Y-128076190D01*
X69685714Y-128552380D02*
X69685714Y-127552380D01*
X70066666Y-127552380D01*
X70161904Y-127600000D01*
X70209523Y-127647619D01*
X70257142Y-127742857D01*
X70257142Y-127885714D01*
X70209523Y-127980952D01*
X70161904Y-128028571D01*
X70066666Y-128076190D01*
X69685714Y-128076190D01*
X71209523Y-128552380D02*
X70638095Y-128552380D01*
X70923809Y-128552380D02*
X70923809Y-127552380D01*
X70828571Y-127695238D01*
X70733333Y-127790476D01*
X70638095Y-127838095D01*
X72066666Y-127885714D02*
X72066666Y-128552380D01*
X71828571Y-127504761D02*
X71590476Y-128219047D01*
X72209523Y-128219047D01*
%TO.C,R15*%
X70257142Y-132652380D02*
X69923809Y-132176190D01*
X69685714Y-132652380D02*
X69685714Y-131652380D01*
X70066666Y-131652380D01*
X70161904Y-131700000D01*
X70209523Y-131747619D01*
X70257142Y-131842857D01*
X70257142Y-131985714D01*
X70209523Y-132080952D01*
X70161904Y-132128571D01*
X70066666Y-132176190D01*
X69685714Y-132176190D01*
X71209523Y-132652380D02*
X70638095Y-132652380D01*
X70923809Y-132652380D02*
X70923809Y-131652380D01*
X70828571Y-131795238D01*
X70733333Y-131890476D01*
X70638095Y-131938095D01*
X72114285Y-131652380D02*
X71638095Y-131652380D01*
X71590476Y-132128571D01*
X71638095Y-132080952D01*
X71733333Y-132033333D01*
X71971428Y-132033333D01*
X72066666Y-132080952D01*
X72114285Y-132128571D01*
X72161904Y-132223809D01*
X72161904Y-132461904D01*
X72114285Y-132557142D01*
X72066666Y-132604761D01*
X71971428Y-132652380D01*
X71733333Y-132652380D01*
X71638095Y-132604761D01*
X71590476Y-132557142D01*
%TO.C,R16*%
X70357142Y-126252380D02*
X70023809Y-125776190D01*
X69785714Y-126252380D02*
X69785714Y-125252380D01*
X70166666Y-125252380D01*
X70261904Y-125300000D01*
X70309523Y-125347619D01*
X70357142Y-125442857D01*
X70357142Y-125585714D01*
X70309523Y-125680952D01*
X70261904Y-125728571D01*
X70166666Y-125776190D01*
X69785714Y-125776190D01*
X71309523Y-126252380D02*
X70738095Y-126252380D01*
X71023809Y-126252380D02*
X71023809Y-125252380D01*
X70928571Y-125395238D01*
X70833333Y-125490476D01*
X70738095Y-125538095D01*
X72166666Y-125252380D02*
X71976190Y-125252380D01*
X71880952Y-125300000D01*
X71833333Y-125347619D01*
X71738095Y-125490476D01*
X71690476Y-125680952D01*
X71690476Y-126061904D01*
X71738095Y-126157142D01*
X71785714Y-126204761D01*
X71880952Y-126252380D01*
X72071428Y-126252380D01*
X72166666Y-126204761D01*
X72214285Y-126157142D01*
X72261904Y-126061904D01*
X72261904Y-125823809D01*
X72214285Y-125728571D01*
X72166666Y-125680952D01*
X72071428Y-125633333D01*
X71880952Y-125633333D01*
X71785714Y-125680952D01*
X71738095Y-125728571D01*
X71690476Y-125823809D01*
%TO.C,R17*%
X78657142Y-61252380D02*
X78323809Y-60776190D01*
X78085714Y-61252380D02*
X78085714Y-60252380D01*
X78466666Y-60252380D01*
X78561904Y-60300000D01*
X78609523Y-60347619D01*
X78657142Y-60442857D01*
X78657142Y-60585714D01*
X78609523Y-60680952D01*
X78561904Y-60728571D01*
X78466666Y-60776190D01*
X78085714Y-60776190D01*
X79609523Y-61252380D02*
X79038095Y-61252380D01*
X79323809Y-61252380D02*
X79323809Y-60252380D01*
X79228571Y-60395238D01*
X79133333Y-60490476D01*
X79038095Y-60538095D01*
X79942857Y-60252380D02*
X80609523Y-60252380D01*
X80180952Y-61252380D01*
%TO.C,R18*%
X83552380Y-63842857D02*
X83076190Y-64176190D01*
X83552380Y-64414285D02*
X82552380Y-64414285D01*
X82552380Y-64033333D01*
X82600000Y-63938095D01*
X82647619Y-63890476D01*
X82742857Y-63842857D01*
X82885714Y-63842857D01*
X82980952Y-63890476D01*
X83028571Y-63938095D01*
X83076190Y-64033333D01*
X83076190Y-64414285D01*
X83552380Y-62890476D02*
X83552380Y-63461904D01*
X83552380Y-63176190D02*
X82552380Y-63176190D01*
X82695238Y-63271428D01*
X82790476Y-63366666D01*
X82838095Y-63461904D01*
X82980952Y-62319047D02*
X82933333Y-62414285D01*
X82885714Y-62461904D01*
X82790476Y-62509523D01*
X82742857Y-62509523D01*
X82647619Y-62461904D01*
X82600000Y-62414285D01*
X82552380Y-62319047D01*
X82552380Y-62128571D01*
X82600000Y-62033333D01*
X82647619Y-61985714D01*
X82742857Y-61938095D01*
X82790476Y-61938095D01*
X82885714Y-61985714D01*
X82933333Y-62033333D01*
X82980952Y-62128571D01*
X82980952Y-62319047D01*
X83028571Y-62414285D01*
X83076190Y-62461904D01*
X83171428Y-62509523D01*
X83361904Y-62509523D01*
X83457142Y-62461904D01*
X83504761Y-62414285D01*
X83552380Y-62319047D01*
X83552380Y-62128571D01*
X83504761Y-62033333D01*
X83457142Y-61985714D01*
X83361904Y-61938095D01*
X83171428Y-61938095D01*
X83076190Y-61985714D01*
X83028571Y-62033333D01*
X82980952Y-62128571D01*
%TO.C,R19*%
X64557142Y-122552380D02*
X64223809Y-122076190D01*
X63985714Y-122552380D02*
X63985714Y-121552380D01*
X64366666Y-121552380D01*
X64461904Y-121600000D01*
X64509523Y-121647619D01*
X64557142Y-121742857D01*
X64557142Y-121885714D01*
X64509523Y-121980952D01*
X64461904Y-122028571D01*
X64366666Y-122076190D01*
X63985714Y-122076190D01*
X65509523Y-122552380D02*
X64938095Y-122552380D01*
X65223809Y-122552380D02*
X65223809Y-121552380D01*
X65128571Y-121695238D01*
X65033333Y-121790476D01*
X64938095Y-121838095D01*
X65985714Y-122552380D02*
X66176190Y-122552380D01*
X66271428Y-122504761D01*
X66319047Y-122457142D01*
X66414285Y-122314285D01*
X66461904Y-122123809D01*
X66461904Y-121742857D01*
X66414285Y-121647619D01*
X66366666Y-121600000D01*
X66271428Y-121552380D01*
X66080952Y-121552380D01*
X65985714Y-121600000D01*
X65938095Y-121647619D01*
X65890476Y-121742857D01*
X65890476Y-121980952D01*
X65938095Y-122076190D01*
X65985714Y-122123809D01*
X66080952Y-122171428D01*
X66271428Y-122171428D01*
X66366666Y-122123809D01*
X66414285Y-122076190D01*
X66461904Y-121980952D01*
%TO.C,R20*%
X64557142Y-120152380D02*
X64223809Y-119676190D01*
X63985714Y-120152380D02*
X63985714Y-119152380D01*
X64366666Y-119152380D01*
X64461904Y-119200000D01*
X64509523Y-119247619D01*
X64557142Y-119342857D01*
X64557142Y-119485714D01*
X64509523Y-119580952D01*
X64461904Y-119628571D01*
X64366666Y-119676190D01*
X63985714Y-119676190D01*
X64938095Y-119247619D02*
X64985714Y-119200000D01*
X65080952Y-119152380D01*
X65319047Y-119152380D01*
X65414285Y-119200000D01*
X65461904Y-119247619D01*
X65509523Y-119342857D01*
X65509523Y-119438095D01*
X65461904Y-119580952D01*
X64890476Y-120152380D01*
X65509523Y-120152380D01*
X66128571Y-119152380D02*
X66223809Y-119152380D01*
X66319047Y-119200000D01*
X66366666Y-119247619D01*
X66414285Y-119342857D01*
X66461904Y-119533333D01*
X66461904Y-119771428D01*
X66414285Y-119961904D01*
X66366666Y-120057142D01*
X66319047Y-120104761D01*
X66223809Y-120152380D01*
X66128571Y-120152380D01*
X66033333Y-120104761D01*
X65985714Y-120057142D01*
X65938095Y-119961904D01*
X65890476Y-119771428D01*
X65890476Y-119533333D01*
X65938095Y-119342857D01*
X65985714Y-119247619D01*
X66033333Y-119200000D01*
X66128571Y-119152380D01*
%TO.C,R21*%
X64507142Y-115152380D02*
X64173809Y-114676190D01*
X63935714Y-115152380D02*
X63935714Y-114152380D01*
X64316666Y-114152380D01*
X64411904Y-114200000D01*
X64459523Y-114247619D01*
X64507142Y-114342857D01*
X64507142Y-114485714D01*
X64459523Y-114580952D01*
X64411904Y-114628571D01*
X64316666Y-114676190D01*
X63935714Y-114676190D01*
X64888095Y-114247619D02*
X64935714Y-114200000D01*
X65030952Y-114152380D01*
X65269047Y-114152380D01*
X65364285Y-114200000D01*
X65411904Y-114247619D01*
X65459523Y-114342857D01*
X65459523Y-114438095D01*
X65411904Y-114580952D01*
X64840476Y-115152380D01*
X65459523Y-115152380D01*
X66411904Y-115152380D02*
X65840476Y-115152380D01*
X66126190Y-115152380D02*
X66126190Y-114152380D01*
X66030952Y-114295238D01*
X65935714Y-114390476D01*
X65840476Y-114438095D01*
%TO.C,R22*%
X64532142Y-117652380D02*
X64198809Y-117176190D01*
X63960714Y-117652380D02*
X63960714Y-116652380D01*
X64341666Y-116652380D01*
X64436904Y-116700000D01*
X64484523Y-116747619D01*
X64532142Y-116842857D01*
X64532142Y-116985714D01*
X64484523Y-117080952D01*
X64436904Y-117128571D01*
X64341666Y-117176190D01*
X63960714Y-117176190D01*
X64913095Y-116747619D02*
X64960714Y-116700000D01*
X65055952Y-116652380D01*
X65294047Y-116652380D01*
X65389285Y-116700000D01*
X65436904Y-116747619D01*
X65484523Y-116842857D01*
X65484523Y-116938095D01*
X65436904Y-117080952D01*
X64865476Y-117652380D01*
X65484523Y-117652380D01*
X65865476Y-116747619D02*
X65913095Y-116700000D01*
X66008333Y-116652380D01*
X66246428Y-116652380D01*
X66341666Y-116700000D01*
X66389285Y-116747619D01*
X66436904Y-116842857D01*
X66436904Y-116938095D01*
X66389285Y-117080952D01*
X65817857Y-117652380D01*
X66436904Y-117652380D01*
%TO.C,R23*%
X75125549Y-96765311D02*
X75226564Y-96192892D01*
X74721488Y-96361250D02*
X75428595Y-95654144D01*
X75697969Y-95923518D01*
X75731641Y-96024533D01*
X75731641Y-96091876D01*
X75697969Y-96192892D01*
X75596954Y-96293907D01*
X75495938Y-96327579D01*
X75428595Y-96327579D01*
X75327580Y-96293907D01*
X75058206Y-96024533D01*
X76034687Y-96394922D02*
X76102030Y-96394922D01*
X76203045Y-96428594D01*
X76371404Y-96596953D01*
X76405076Y-96697968D01*
X76405076Y-96765311D01*
X76371404Y-96866327D01*
X76304061Y-96933670D01*
X76169374Y-97001014D01*
X75361251Y-97001014D01*
X75798984Y-97438747D01*
X76741793Y-96967342D02*
X77179526Y-97405075D01*
X76674450Y-97438747D01*
X76775465Y-97539762D01*
X76809137Y-97640777D01*
X76809137Y-97708121D01*
X76775465Y-97809136D01*
X76607106Y-97977495D01*
X76506091Y-98011166D01*
X76438748Y-98011166D01*
X76337732Y-97977495D01*
X76135702Y-97775464D01*
X76102030Y-97674449D01*
X76102030Y-97607105D01*
%TO.C,R24*%
X70425549Y-101265312D02*
X70526564Y-100692893D01*
X70021488Y-100861251D02*
X70728595Y-100154145D01*
X70997969Y-100423519D01*
X71031641Y-100524534D01*
X71031641Y-100591877D01*
X70997969Y-100692893D01*
X70896954Y-100793908D01*
X70795938Y-100827580D01*
X70728595Y-100827580D01*
X70627580Y-100793908D01*
X70358206Y-100524534D01*
X71334687Y-100894923D02*
X71402030Y-100894923D01*
X71503045Y-100928595D01*
X71671404Y-101096954D01*
X71705076Y-101197969D01*
X71705076Y-101265312D01*
X71671404Y-101366328D01*
X71604061Y-101433671D01*
X71469374Y-101501015D01*
X70661251Y-101501015D01*
X71098984Y-101938748D01*
X72176480Y-102073435D02*
X71705076Y-102544839D01*
X72277496Y-101635702D02*
X71604061Y-101972419D01*
X72041793Y-102410152D01*
%TO.C,R25*%
X72350333Y-99390096D02*
X72451348Y-98817677D01*
X71946272Y-98986035D02*
X72653379Y-98278929D01*
X72922753Y-98548303D01*
X72956425Y-98649318D01*
X72956425Y-98716661D01*
X72922753Y-98817677D01*
X72821738Y-98918692D01*
X72720722Y-98952364D01*
X72653379Y-98952364D01*
X72552364Y-98918692D01*
X72282990Y-98649318D01*
X73259471Y-99019707D02*
X73326814Y-99019707D01*
X73427829Y-99053379D01*
X73596188Y-99221738D01*
X73629860Y-99322753D01*
X73629860Y-99390096D01*
X73596188Y-99491112D01*
X73528845Y-99558455D01*
X73394158Y-99625799D01*
X72586035Y-99625799D01*
X73023768Y-100063532D01*
X74370638Y-99996188D02*
X74033921Y-99659471D01*
X73663532Y-99962516D01*
X73730875Y-99962516D01*
X73831890Y-99996188D01*
X74000249Y-100164547D01*
X74033921Y-100265562D01*
X74033921Y-100332906D01*
X74000249Y-100433921D01*
X73831890Y-100602280D01*
X73730875Y-100635951D01*
X73663532Y-100635951D01*
X73562516Y-100602280D01*
X73394158Y-100433921D01*
X73360486Y-100332906D01*
X73360486Y-100265562D01*
%TO.C,R5*%
X69762268Y-103402030D02*
X69863283Y-102829610D01*
X69358207Y-102997969D02*
X70065313Y-102290862D01*
X70334688Y-102560236D01*
X70368359Y-102661251D01*
X70368359Y-102728595D01*
X70334688Y-102829610D01*
X70233672Y-102930625D01*
X70132657Y-102964297D01*
X70065313Y-102964297D01*
X69964298Y-102930625D01*
X69694924Y-102661251D01*
X71109138Y-103334687D02*
X70772420Y-102997969D01*
X70402031Y-103301015D01*
X70469375Y-103301015D01*
X70570390Y-103334687D01*
X70738749Y-103503045D01*
X70772420Y-103604061D01*
X70772420Y-103671404D01*
X70738749Y-103772419D01*
X70570390Y-103940778D01*
X70469375Y-103974450D01*
X70402031Y-103974450D01*
X70301016Y-103940778D01*
X70132657Y-103772419D01*
X70098985Y-103671404D01*
X70098985Y-103604061D01*
%TO.C,R26*%
X70257142Y-130452380D02*
X69923809Y-129976190D01*
X69685714Y-130452380D02*
X69685714Y-129452380D01*
X70066666Y-129452380D01*
X70161904Y-129500000D01*
X70209523Y-129547619D01*
X70257142Y-129642857D01*
X70257142Y-129785714D01*
X70209523Y-129880952D01*
X70161904Y-129928571D01*
X70066666Y-129976190D01*
X69685714Y-129976190D01*
X70638095Y-129547619D02*
X70685714Y-129500000D01*
X70780952Y-129452380D01*
X71019047Y-129452380D01*
X71114285Y-129500000D01*
X71161904Y-129547619D01*
X71209523Y-129642857D01*
X71209523Y-129738095D01*
X71161904Y-129880952D01*
X70590476Y-130452380D01*
X71209523Y-130452380D01*
X72066666Y-129452380D02*
X71876190Y-129452380D01*
X71780952Y-129500000D01*
X71733333Y-129547619D01*
X71638095Y-129690476D01*
X71590476Y-129880952D01*
X71590476Y-130261904D01*
X71638095Y-130357142D01*
X71685714Y-130404761D01*
X71780952Y-130452380D01*
X71971428Y-130452380D01*
X72066666Y-130404761D01*
X72114285Y-130357142D01*
X72161904Y-130261904D01*
X72161904Y-130023809D01*
X72114285Y-129928571D01*
X72066666Y-129880952D01*
X71971428Y-129833333D01*
X71780952Y-129833333D01*
X71685714Y-129880952D01*
X71638095Y-129928571D01*
X71590476Y-130023809D01*
%TO.C,R27*%
X92752380Y-93717857D02*
X92276190Y-94051190D01*
X92752380Y-94289285D02*
X91752380Y-94289285D01*
X91752380Y-93908333D01*
X91800000Y-93813095D01*
X91847619Y-93765476D01*
X91942857Y-93717857D01*
X92085714Y-93717857D01*
X92180952Y-93765476D01*
X92228571Y-93813095D01*
X92276190Y-93908333D01*
X92276190Y-94289285D01*
X91847619Y-93336904D02*
X91800000Y-93289285D01*
X91752380Y-93194047D01*
X91752380Y-92955952D01*
X91800000Y-92860714D01*
X91847619Y-92813095D01*
X91942857Y-92765476D01*
X92038095Y-92765476D01*
X92180952Y-92813095D01*
X92752380Y-93384523D01*
X92752380Y-92765476D01*
X91752380Y-92432142D02*
X91752380Y-91765476D01*
X92752380Y-92194047D01*
%TO.C,R11*%
X64557142Y-110652380D02*
X64223809Y-110176190D01*
X63985714Y-110652380D02*
X63985714Y-109652380D01*
X64366666Y-109652380D01*
X64461904Y-109700000D01*
X64509523Y-109747619D01*
X64557142Y-109842857D01*
X64557142Y-109985714D01*
X64509523Y-110080952D01*
X64461904Y-110128571D01*
X64366666Y-110176190D01*
X63985714Y-110176190D01*
X65509523Y-110652380D02*
X64938095Y-110652380D01*
X65223809Y-110652380D02*
X65223809Y-109652380D01*
X65128571Y-109795238D01*
X65033333Y-109890476D01*
X64938095Y-109938095D01*
X66461904Y-110652380D02*
X65890476Y-110652380D01*
X66176190Y-110652380D02*
X66176190Y-109652380D01*
X66080952Y-109795238D01*
X65985714Y-109890476D01*
X65890476Y-109938095D01*
%TO.C,U3*%
D11*
X119378571Y-135542857D02*
X120592857Y-135542857D01*
X120735714Y-135471428D01*
X120807142Y-135400000D01*
X120878571Y-135257142D01*
X120878571Y-134971428D01*
X120807142Y-134828571D01*
X120735714Y-134757142D01*
X120592857Y-134685714D01*
X119378571Y-134685714D01*
X119378571Y-134114285D02*
X119378571Y-133185714D01*
X119950000Y-133685714D01*
X119950000Y-133471428D01*
X120021428Y-133328571D01*
X120092857Y-133257142D01*
X120235714Y-133185714D01*
X120592857Y-133185714D01*
X120735714Y-133257142D01*
X120807142Y-133328571D01*
X120878571Y-133471428D01*
X120878571Y-133900000D01*
X120807142Y-134042857D01*
X120735714Y-134114285D01*
X158578571Y-140094285D02*
X160078571Y-139737142D01*
X159007142Y-139451428D01*
X160078571Y-139165714D01*
X158578571Y-138808571D01*
X158721428Y-138308571D02*
X158650000Y-138237142D01*
X158578571Y-138094285D01*
X158578571Y-137737142D01*
X158650000Y-137594285D01*
X158721428Y-137522857D01*
X158864285Y-137451428D01*
X159007142Y-137451428D01*
X159221428Y-137522857D01*
X160078571Y-138380000D01*
X160078571Y-137451428D01*
X158578571Y-136951428D02*
X158578571Y-135951428D01*
X160078571Y-136594285D01*
X159935714Y-134522857D02*
X160007142Y-134594285D01*
X160078571Y-134808571D01*
X160078571Y-134951428D01*
X160007142Y-135165714D01*
X159864285Y-135308571D01*
X159721428Y-135380000D01*
X159435714Y-135451428D01*
X159221428Y-135451428D01*
X158935714Y-135380000D01*
X158792857Y-135308571D01*
X158650000Y-135165714D01*
X158578571Y-134951428D01*
X158578571Y-134808571D01*
X158650000Y-134594285D01*
X158721428Y-134522857D01*
X158578571Y-133165714D02*
X158578571Y-133880000D01*
X159292857Y-133951428D01*
X159221428Y-133880000D01*
X159150000Y-133737142D01*
X159150000Y-133380000D01*
X159221428Y-133237142D01*
X159292857Y-133165714D01*
X159435714Y-133094285D01*
X159792857Y-133094285D01*
X159935714Y-133165714D01*
X160007142Y-133237142D01*
X160078571Y-133380000D01*
X160078571Y-133737142D01*
X160007142Y-133880000D01*
X159935714Y-133951428D01*
X160078571Y-131665714D02*
X160078571Y-132522857D01*
X160078571Y-132094285D02*
X158578571Y-132094285D01*
X158792857Y-132237142D01*
X158935714Y-132380000D01*
X159007142Y-132522857D01*
X158721428Y-131094285D02*
X158650000Y-131022857D01*
X158578571Y-130880000D01*
X158578571Y-130522857D01*
X158650000Y-130380000D01*
X158721428Y-130308571D01*
X158864285Y-130237142D01*
X159007142Y-130237142D01*
X159221428Y-130308571D01*
X160078571Y-131165714D01*
X160078571Y-130237142D01*
X160078571Y-129594285D02*
X158578571Y-129594285D01*
X158578571Y-129022857D01*
X158650000Y-128880000D01*
X158721428Y-128808571D01*
X158864285Y-128737142D01*
X159078571Y-128737142D01*
X159221428Y-128808571D01*
X159292857Y-128880000D01*
X159364285Y-129022857D01*
X159364285Y-129594285D01*
%TO.C,U13*%
D14*
X122342857Y-93685714D02*
X123314285Y-93685714D01*
X123428571Y-93628571D01*
X123485714Y-93571428D01*
X123542857Y-93457142D01*
X123542857Y-93228571D01*
X123485714Y-93114285D01*
X123428571Y-93057142D01*
X123314285Y-93000000D01*
X122342857Y-93000000D01*
X123542857Y-91800000D02*
X123542857Y-92485714D01*
X123542857Y-92142857D02*
X122342857Y-92142857D01*
X122514285Y-92257142D01*
X122628571Y-92371428D01*
X122685714Y-92485714D01*
X122342857Y-91400000D02*
X122342857Y-90657142D01*
X122800000Y-91057142D01*
X122800000Y-90885714D01*
X122857142Y-90771428D01*
X122914285Y-90714285D01*
X123028571Y-90657142D01*
X123314285Y-90657142D01*
X123428571Y-90714285D01*
X123485714Y-90771428D01*
X123542857Y-90885714D01*
X123542857Y-91228571D01*
X123485714Y-91342857D01*
X123428571Y-91400000D01*
X146542857Y-95600000D02*
X145342857Y-95600000D01*
X146542857Y-94914285D02*
X145857142Y-95428571D01*
X145342857Y-94914285D02*
X146028571Y-95600000D01*
X145342857Y-93885714D02*
X145342857Y-94114285D01*
X145400000Y-94228571D01*
X145457142Y-94285714D01*
X145628571Y-94400000D01*
X145857142Y-94457142D01*
X146314285Y-94457142D01*
X146428571Y-94400000D01*
X146485714Y-94342857D01*
X146542857Y-94228571D01*
X146542857Y-94000000D01*
X146485714Y-93885714D01*
X146428571Y-93828571D01*
X146314285Y-93771428D01*
X146028571Y-93771428D01*
X145914285Y-93828571D01*
X145857142Y-93885714D01*
X145800000Y-94000000D01*
X145800000Y-94228571D01*
X145857142Y-94342857D01*
X145914285Y-94400000D01*
X146028571Y-94457142D01*
X145342857Y-93428571D02*
X145342857Y-92742857D01*
X146542857Y-93085714D02*
X145342857Y-93085714D01*
X146542857Y-91714285D02*
X146542857Y-92400000D01*
X146542857Y-92057142D02*
X145342857Y-92057142D01*
X145514285Y-92171428D01*
X145628571Y-92285714D01*
X145685714Y-92400000D01*
X145342857Y-90971428D02*
X145342857Y-90857142D01*
X145400000Y-90742857D01*
X145457142Y-90685714D01*
X145571428Y-90628571D01*
X145800000Y-90571428D01*
X146085714Y-90571428D01*
X146314285Y-90628571D01*
X146428571Y-90685714D01*
X146485714Y-90742857D01*
X146542857Y-90857142D01*
X146542857Y-90971428D01*
X146485714Y-91085714D01*
X146428571Y-91142857D01*
X146314285Y-91200000D01*
X146085714Y-91257142D01*
X145800000Y-91257142D01*
X145571428Y-91200000D01*
X145457142Y-91142857D01*
X145400000Y-91085714D01*
X145342857Y-90971428D01*
X145342857Y-89828571D02*
X145342857Y-89714285D01*
X145400000Y-89600000D01*
X145457142Y-89542857D01*
X145571428Y-89485714D01*
X145800000Y-89428571D01*
X146085714Y-89428571D01*
X146314285Y-89485714D01*
X146428571Y-89542857D01*
X146485714Y-89600000D01*
X146542857Y-89714285D01*
X146542857Y-89828571D01*
X146485714Y-89942857D01*
X146428571Y-90000000D01*
X146314285Y-90057142D01*
X146085714Y-90114285D01*
X145800000Y-90114285D01*
X145571428Y-90057142D01*
X145457142Y-90000000D01*
X145400000Y-89942857D01*
X145342857Y-89828571D01*
X145857142Y-88742857D02*
X145800000Y-88857142D01*
X145742857Y-88914285D01*
X145628571Y-88971428D01*
X145571428Y-88971428D01*
X145457142Y-88914285D01*
X145400000Y-88857142D01*
X145342857Y-88742857D01*
X145342857Y-88514285D01*
X145400000Y-88400000D01*
X145457142Y-88342857D01*
X145571428Y-88285714D01*
X145628571Y-88285714D01*
X145742857Y-88342857D01*
X145800000Y-88400000D01*
X145857142Y-88514285D01*
X145857142Y-88742857D01*
X145914285Y-88857142D01*
X145971428Y-88914285D01*
X146085714Y-88971428D01*
X146314285Y-88971428D01*
X146428571Y-88914285D01*
X146485714Y-88857142D01*
X146542857Y-88742857D01*
X146542857Y-88514285D01*
X146485714Y-88400000D01*
X146428571Y-88342857D01*
X146314285Y-88285714D01*
X146085714Y-88285714D01*
X145971428Y-88342857D01*
X145914285Y-88400000D01*
X145857142Y-88514285D01*
X146428571Y-87085714D02*
X146485714Y-87142857D01*
X146542857Y-87314285D01*
X146542857Y-87428571D01*
X146485714Y-87600000D01*
X146371428Y-87714285D01*
X146257142Y-87771428D01*
X146028571Y-87828571D01*
X145857142Y-87828571D01*
X145628571Y-87771428D01*
X145514285Y-87714285D01*
X145400000Y-87600000D01*
X145342857Y-87428571D01*
X145342857Y-87314285D01*
X145400000Y-87142857D01*
X145457142Y-87085714D01*
X145457142Y-86628571D02*
X145400000Y-86571428D01*
X145342857Y-86457142D01*
X145342857Y-86171428D01*
X145400000Y-86057142D01*
X145457142Y-86000000D01*
X145571428Y-85942857D01*
X145685714Y-85942857D01*
X145857142Y-86000000D01*
X146542857Y-86685714D01*
X146542857Y-85942857D01*
X146428571Y-84742857D02*
X146485714Y-84800000D01*
X146542857Y-84971428D01*
X146542857Y-85085714D01*
X146485714Y-85257142D01*
X146371428Y-85371428D01*
X146257142Y-85428571D01*
X146028571Y-85485714D01*
X145857142Y-85485714D01*
X145628571Y-85428571D01*
X145514285Y-85371428D01*
X145400000Y-85257142D01*
X145342857Y-85085714D01*
X145342857Y-84971428D01*
X145400000Y-84800000D01*
X145457142Y-84742857D01*
%TO.C,D1*%
D13*
X51661904Y-121252380D02*
X51661904Y-120252380D01*
X51900000Y-120252380D01*
X52042857Y-120300000D01*
X52138095Y-120395238D01*
X52185714Y-120490476D01*
X52233333Y-120680952D01*
X52233333Y-120823809D01*
X52185714Y-121014285D01*
X52138095Y-121109523D01*
X52042857Y-121204761D01*
X51900000Y-121252380D01*
X51661904Y-121252380D01*
X53185714Y-121252380D02*
X52614285Y-121252380D01*
X52900000Y-121252380D02*
X52900000Y-120252380D01*
X52804761Y-120395238D01*
X52709523Y-120490476D01*
X52614285Y-120538095D01*
%TO.C,D2*%
X51661904Y-116452380D02*
X51661904Y-115452380D01*
X51900000Y-115452380D01*
X52042857Y-115500000D01*
X52138095Y-115595238D01*
X52185714Y-115690476D01*
X52233333Y-115880952D01*
X52233333Y-116023809D01*
X52185714Y-116214285D01*
X52138095Y-116309523D01*
X52042857Y-116404761D01*
X51900000Y-116452380D01*
X51661904Y-116452380D01*
X52614285Y-115547619D02*
X52661904Y-115500000D01*
X52757142Y-115452380D01*
X52995238Y-115452380D01*
X53090476Y-115500000D01*
X53138095Y-115547619D01*
X53185714Y-115642857D01*
X53185714Y-115738095D01*
X53138095Y-115880952D01*
X52566666Y-116452380D01*
X53185714Y-116452380D01*
%TO.C,J5*%
X99866666Y-131652380D02*
X99866666Y-132366666D01*
X99819047Y-132509523D01*
X99723809Y-132604761D01*
X99580952Y-132652380D01*
X99485714Y-132652380D01*
X100819047Y-131652380D02*
X100342857Y-131652380D01*
X100295238Y-132128571D01*
X100342857Y-132080952D01*
X100438095Y-132033333D01*
X100676190Y-132033333D01*
X100771428Y-132080952D01*
X100819047Y-132128571D01*
X100866666Y-132223809D01*
X100866666Y-132461904D01*
X100819047Y-132557142D01*
X100771428Y-132604761D01*
X100676190Y-132652380D01*
X100438095Y-132652380D01*
X100342857Y-132604761D01*
X100295238Y-132557142D01*
D11*
X89050000Y-143678571D02*
X89050000Y-144750000D01*
X88978571Y-144964285D01*
X88835714Y-145107142D01*
X88621428Y-145178571D01*
X88478571Y-145178571D01*
X89550000Y-143678571D02*
X90407142Y-143678571D01*
X89978571Y-145178571D02*
X89978571Y-143678571D01*
X90835714Y-144750000D02*
X91550000Y-144750000D01*
X90692857Y-145178571D02*
X91192857Y-143678571D01*
X91692857Y-145178571D01*
X92978571Y-143750000D02*
X92835714Y-143678571D01*
X92621428Y-143678571D01*
X92407142Y-143750000D01*
X92264285Y-143892857D01*
X92192857Y-144035714D01*
X92121428Y-144321428D01*
X92121428Y-144535714D01*
X92192857Y-144821428D01*
X92264285Y-144964285D01*
X92407142Y-145107142D01*
X92621428Y-145178571D01*
X92764285Y-145178571D01*
X92978571Y-145107142D01*
X93050000Y-145035714D01*
X93050000Y-144535714D01*
X92764285Y-144535714D01*
%TO.C,J6*%
D13*
X61066666Y-138952380D02*
X61066666Y-139666666D01*
X61019047Y-139809523D01*
X60923809Y-139904761D01*
X60780952Y-139952380D01*
X60685714Y-139952380D01*
X61971428Y-138952380D02*
X61780952Y-138952380D01*
X61685714Y-139000000D01*
X61638095Y-139047619D01*
X61542857Y-139190476D01*
X61495238Y-139380952D01*
X61495238Y-139761904D01*
X61542857Y-139857142D01*
X61590476Y-139904761D01*
X61685714Y-139952380D01*
X61876190Y-139952380D01*
X61971428Y-139904761D01*
X62019047Y-139857142D01*
X62066666Y-139761904D01*
X62066666Y-139523809D01*
X62019047Y-139428571D01*
X61971428Y-139380952D01*
X61876190Y-139333333D01*
X61685714Y-139333333D01*
X61590476Y-139380952D01*
X61542857Y-139428571D01*
X61495238Y-139523809D01*
%TO.C,J7*%
X88652380Y-57933333D02*
X89366666Y-57933333D01*
X89509523Y-57980952D01*
X89604761Y-58076190D01*
X89652380Y-58219047D01*
X89652380Y-58314285D01*
X88652380Y-57552380D02*
X88652380Y-56885714D01*
X89652380Y-57314285D01*
D11*
X76678571Y-58964285D02*
X75178571Y-58964285D01*
X75321428Y-58321428D02*
X75250000Y-58250000D01*
X75178571Y-58107142D01*
X75178571Y-57750000D01*
X75250000Y-57607142D01*
X75321428Y-57535714D01*
X75464285Y-57464285D01*
X75607142Y-57464285D01*
X75821428Y-57535714D01*
X76678571Y-58392857D01*
X76678571Y-57464285D01*
X76535714Y-55964285D02*
X76607142Y-56035714D01*
X76678571Y-56250000D01*
X76678571Y-56392857D01*
X76607142Y-56607142D01*
X76464285Y-56750000D01*
X76321428Y-56821428D01*
X76035714Y-56892857D01*
X75821428Y-56892857D01*
X75535714Y-56821428D01*
X75392857Y-56750000D01*
X75250000Y-56607142D01*
X75178571Y-56392857D01*
X75178571Y-56250000D01*
X75250000Y-56035714D01*
X75321428Y-55964285D01*
%TO.C,JP1*%
D13*
X73752380Y-89833333D02*
X74466666Y-89833333D01*
X74609523Y-89880952D01*
X74704761Y-89976190D01*
X74752380Y-90119047D01*
X74752380Y-90214285D01*
X74752380Y-89357142D02*
X73752380Y-89357142D01*
X73752380Y-88976190D01*
X73800000Y-88880952D01*
X73847619Y-88833333D01*
X73942857Y-88785714D01*
X74085714Y-88785714D01*
X74180952Y-88833333D01*
X74228571Y-88880952D01*
X74276190Y-88976190D01*
X74276190Y-89357142D01*
X74752380Y-87833333D02*
X74752380Y-88404761D01*
X74752380Y-88119047D02*
X73752380Y-88119047D01*
X73895238Y-88214285D01*
X73990476Y-88309523D01*
X74038095Y-88404761D01*
%TO.C,JP2*%
D11*
X111935714Y-142535714D02*
X111864285Y-142607142D01*
X111650000Y-142678571D01*
X111507142Y-142678571D01*
X111292857Y-142607142D01*
X111150000Y-142464285D01*
X111078571Y-142321428D01*
X111007142Y-142035714D01*
X111007142Y-141821428D01*
X111078571Y-141535714D01*
X111150000Y-141392857D01*
X111292857Y-141250000D01*
X111507142Y-141178571D01*
X111650000Y-141178571D01*
X111864285Y-141250000D01*
X111935714Y-141321428D01*
X112864285Y-141178571D02*
X113150000Y-141178571D01*
X113292857Y-141250000D01*
X113435714Y-141392857D01*
X113507142Y-141678571D01*
X113507142Y-142178571D01*
X113435714Y-142464285D01*
X113292857Y-142607142D01*
X113150000Y-142678571D01*
X112864285Y-142678571D01*
X112721428Y-142607142D01*
X112578571Y-142464285D01*
X112507142Y-142178571D01*
X112507142Y-141678571D01*
X112578571Y-141392857D01*
X112721428Y-141250000D01*
X112864285Y-141178571D01*
X114150000Y-142678571D02*
X114150000Y-141178571D01*
X115007142Y-142678571D01*
X115007142Y-141178571D01*
X116221428Y-141892857D02*
X115721428Y-141892857D01*
X115721428Y-142678571D02*
X115721428Y-141178571D01*
X116435714Y-141178571D01*
X117792857Y-142678571D02*
X116935714Y-142678571D01*
X117364285Y-142678571D02*
X117364285Y-141178571D01*
X117221428Y-141392857D01*
X117078571Y-141535714D01*
X116935714Y-141607142D01*
%TO.C,JP3*%
X111935714Y-137735714D02*
X111864285Y-137807142D01*
X111650000Y-137878571D01*
X111507142Y-137878571D01*
X111292857Y-137807142D01*
X111150000Y-137664285D01*
X111078571Y-137521428D01*
X111007142Y-137235714D01*
X111007142Y-137021428D01*
X111078571Y-136735714D01*
X111150000Y-136592857D01*
X111292857Y-136450000D01*
X111507142Y-136378571D01*
X111650000Y-136378571D01*
X111864285Y-136450000D01*
X111935714Y-136521428D01*
X112864285Y-136378571D02*
X113150000Y-136378571D01*
X113292857Y-136450000D01*
X113435714Y-136592857D01*
X113507142Y-136878571D01*
X113507142Y-137378571D01*
X113435714Y-137664285D01*
X113292857Y-137807142D01*
X113150000Y-137878571D01*
X112864285Y-137878571D01*
X112721428Y-137807142D01*
X112578571Y-137664285D01*
X112507142Y-137378571D01*
X112507142Y-136878571D01*
X112578571Y-136592857D01*
X112721428Y-136450000D01*
X112864285Y-136378571D01*
X114150000Y-137878571D02*
X114150000Y-136378571D01*
X115007142Y-137878571D01*
X115007142Y-136378571D01*
X116221428Y-137092857D02*
X115721428Y-137092857D01*
X115721428Y-137878571D02*
X115721428Y-136378571D01*
X116435714Y-136378571D01*
X116935714Y-136521428D02*
X117007142Y-136450000D01*
X117150000Y-136378571D01*
X117507142Y-136378571D01*
X117650000Y-136450000D01*
X117721428Y-136521428D01*
X117792857Y-136664285D01*
X117792857Y-136807142D01*
X117721428Y-137021428D01*
X116864285Y-137878571D01*
X117792857Y-137878571D01*
%TO.C,JP4*%
D13*
X71452380Y-89833333D02*
X72166666Y-89833333D01*
X72309523Y-89880952D01*
X72404761Y-89976190D01*
X72452380Y-90119047D01*
X72452380Y-90214285D01*
X72452380Y-89357142D02*
X71452380Y-89357142D01*
X71452380Y-88976190D01*
X71500000Y-88880952D01*
X71547619Y-88833333D01*
X71642857Y-88785714D01*
X71785714Y-88785714D01*
X71880952Y-88833333D01*
X71928571Y-88880952D01*
X71976190Y-88976190D01*
X71976190Y-89357142D01*
X71785714Y-87928571D02*
X72452380Y-87928571D01*
X71404761Y-88166666D02*
X72119047Y-88404761D01*
X72119047Y-87785714D01*
%TO.C,L1*%
X65352380Y-83766666D02*
X65352380Y-84242857D01*
X64352380Y-84242857D01*
X65352380Y-82909523D02*
X65352380Y-83480952D01*
X65352380Y-83195238D02*
X64352380Y-83195238D01*
X64495238Y-83290476D01*
X64590476Y-83385714D01*
X64638095Y-83480952D01*
%TO.C,TP2*%
D14*
X131114285Y-55042857D02*
X131114285Y-55442857D01*
X131742857Y-55442857D02*
X130542857Y-55442857D01*
X130542857Y-54871428D01*
X131742857Y-54414285D02*
X130542857Y-54414285D01*
X131742857Y-53157142D02*
X131171428Y-53557142D01*
X131742857Y-53842857D02*
X130542857Y-53842857D01*
X130542857Y-53385714D01*
X130600000Y-53271428D01*
X130657142Y-53214285D01*
X130771428Y-53157142D01*
X130942857Y-53157142D01*
X131057142Y-53214285D01*
X131114285Y-53271428D01*
X131171428Y-53385714D01*
X131171428Y-53842857D01*
X131857142Y-51842857D02*
X131800000Y-51957142D01*
X131685714Y-52071428D01*
X131514285Y-52242857D01*
X131457142Y-52357142D01*
X131457142Y-52471428D01*
X131742857Y-52414285D02*
X131685714Y-52528571D01*
X131571428Y-52642857D01*
X131342857Y-52700000D01*
X130942857Y-52700000D01*
X130714285Y-52642857D01*
X130600000Y-52528571D01*
X130542857Y-52414285D01*
X130542857Y-52185714D01*
X130600000Y-52071428D01*
X130714285Y-51957142D01*
X130942857Y-51900000D01*
X131342857Y-51900000D01*
X131571428Y-51957142D01*
X131685714Y-52071428D01*
X131742857Y-52185714D01*
X131742857Y-52414285D01*
%TO.C,TP7*%
X96142857Y-91814285D02*
X96142857Y-91128571D01*
X97342857Y-91471428D02*
X96142857Y-91471428D01*
X97342857Y-90728571D02*
X96142857Y-90728571D01*
X96142857Y-90271428D01*
X96200000Y-90157142D01*
X96257142Y-90100000D01*
X96371428Y-90042857D01*
X96542857Y-90042857D01*
X96657142Y-90100000D01*
X96714285Y-90157142D01*
X96771428Y-90271428D01*
X96771428Y-90728571D01*
X96142857Y-89642857D02*
X96142857Y-88842857D01*
X97342857Y-89357142D01*
X94342857Y-91885714D02*
X94342857Y-91142857D01*
X94800000Y-91542857D01*
X94800000Y-91371428D01*
X94857142Y-91257142D01*
X94914285Y-91200000D01*
X95028571Y-91142857D01*
X95314285Y-91142857D01*
X95428571Y-91200000D01*
X95485714Y-91257142D01*
X95542857Y-91371428D01*
X95542857Y-91714285D01*
X95485714Y-91828571D01*
X95428571Y-91885714D01*
X94342857Y-90800000D02*
X95542857Y-90400000D01*
X94342857Y-90000000D01*
X94342857Y-89714285D02*
X94342857Y-88971428D01*
X94800000Y-89371428D01*
X94800000Y-89200000D01*
X94857142Y-89085714D01*
X94914285Y-89028571D01*
X95028571Y-88971428D01*
X95314285Y-88971428D01*
X95428571Y-89028571D01*
X95485714Y-89085714D01*
X95542857Y-89200000D01*
X95542857Y-89542857D01*
X95485714Y-89657142D01*
X95428571Y-89714285D01*
%TO.C,TP1*%
X143742857Y-55042857D02*
X143171428Y-55442857D01*
X143742857Y-55728571D02*
X142542857Y-55728571D01*
X142542857Y-55271428D01*
X142600000Y-55157142D01*
X142657142Y-55100000D01*
X142771428Y-55042857D01*
X142942857Y-55042857D01*
X143057142Y-55100000D01*
X143114285Y-55157142D01*
X143171428Y-55271428D01*
X143171428Y-55728571D01*
X143114285Y-54528571D02*
X143114285Y-54128571D01*
X143742857Y-53957142D02*
X143742857Y-54528571D01*
X142542857Y-54528571D01*
X142542857Y-53957142D01*
X143685714Y-53500000D02*
X143742857Y-53328571D01*
X143742857Y-53042857D01*
X143685714Y-52928571D01*
X143628571Y-52871428D01*
X143514285Y-52814285D01*
X143400000Y-52814285D01*
X143285714Y-52871428D01*
X143228571Y-52928571D01*
X143171428Y-53042857D01*
X143114285Y-53271428D01*
X143057142Y-53385714D01*
X143000000Y-53442857D01*
X142885714Y-53500000D01*
X142771428Y-53500000D01*
X142657142Y-53442857D01*
X142600000Y-53385714D01*
X142542857Y-53271428D01*
X142542857Y-52985714D01*
X142600000Y-52814285D01*
X143114285Y-52300000D02*
X143114285Y-51900000D01*
X143742857Y-51728571D02*
X143742857Y-52300000D01*
X142542857Y-52300000D01*
X142542857Y-51728571D01*
X142542857Y-51385714D02*
X142542857Y-50700000D01*
X143742857Y-51042857D02*
X142542857Y-51042857D01*
%TO.C,U1*%
D11*
X127678571Y-68342857D02*
X128892857Y-68342857D01*
X129035714Y-68271428D01*
X129107142Y-68200000D01*
X129178571Y-68057142D01*
X129178571Y-67771428D01*
X129107142Y-67628571D01*
X129035714Y-67557142D01*
X128892857Y-67485714D01*
X127678571Y-67485714D01*
X129178571Y-65985714D02*
X129178571Y-66842857D01*
X129178571Y-66414285D02*
X127678571Y-66414285D01*
X127892857Y-66557142D01*
X128035714Y-66700000D01*
X128107142Y-66842857D01*
X150878571Y-76364285D02*
X149378571Y-76364285D01*
X150092857Y-76364285D02*
X150092857Y-75507142D01*
X150878571Y-75507142D02*
X149378571Y-75507142D01*
X150878571Y-74792857D02*
X149378571Y-74792857D01*
X149378571Y-74435714D01*
X149450000Y-74221428D01*
X149592857Y-74078571D01*
X149735714Y-74007142D01*
X150021428Y-73935714D01*
X150235714Y-73935714D01*
X150521428Y-74007142D01*
X150664285Y-74078571D01*
X150807142Y-74221428D01*
X150878571Y-74435714D01*
X150878571Y-74792857D01*
X149378571Y-72650000D02*
X149378571Y-72935714D01*
X149450000Y-73078571D01*
X149521428Y-73150000D01*
X149735714Y-73292857D01*
X150021428Y-73364285D01*
X150592857Y-73364285D01*
X150735714Y-73292857D01*
X150807142Y-73221428D01*
X150878571Y-73078571D01*
X150878571Y-72792857D01*
X150807142Y-72650000D01*
X150735714Y-72578571D01*
X150592857Y-72507142D01*
X150235714Y-72507142D01*
X150092857Y-72578571D01*
X150021428Y-72650000D01*
X149950000Y-72792857D01*
X149950000Y-73078571D01*
X150021428Y-73221428D01*
X150092857Y-73292857D01*
X150235714Y-73364285D01*
X149378571Y-72007142D02*
X149378571Y-71078571D01*
X149950000Y-71578571D01*
X149950000Y-71364285D01*
X150021428Y-71221428D01*
X150092857Y-71150000D01*
X150235714Y-71078571D01*
X150592857Y-71078571D01*
X150735714Y-71150000D01*
X150807142Y-71221428D01*
X150878571Y-71364285D01*
X150878571Y-71792857D01*
X150807142Y-71935714D01*
X150735714Y-72007142D01*
X150735714Y-69578571D02*
X150807142Y-69650000D01*
X150878571Y-69864285D01*
X150878571Y-70007142D01*
X150807142Y-70221428D01*
X150664285Y-70364285D01*
X150521428Y-70435714D01*
X150235714Y-70507142D01*
X150021428Y-70507142D01*
X149735714Y-70435714D01*
X149592857Y-70364285D01*
X149450000Y-70221428D01*
X149378571Y-70007142D01*
X149378571Y-69864285D01*
X149450000Y-69650000D01*
X149521428Y-69578571D01*
X149378571Y-68650000D02*
X149378571Y-68507142D01*
X149450000Y-68364285D01*
X149521428Y-68292857D01*
X149664285Y-68221428D01*
X149950000Y-68150000D01*
X150307142Y-68150000D01*
X150592857Y-68221428D01*
X150735714Y-68292857D01*
X150807142Y-68364285D01*
X150878571Y-68507142D01*
X150878571Y-68650000D01*
X150807142Y-68792857D01*
X150735714Y-68864285D01*
X150592857Y-68935714D01*
X150307142Y-69007142D01*
X149950000Y-69007142D01*
X149664285Y-68935714D01*
X149521428Y-68864285D01*
X149450000Y-68792857D01*
X149378571Y-68650000D01*
X150878571Y-67435714D02*
X150878571Y-67150000D01*
X150807142Y-67007142D01*
X150735714Y-66935714D01*
X150521428Y-66792857D01*
X150235714Y-66721428D01*
X149664285Y-66721428D01*
X149521428Y-66792857D01*
X149450000Y-66864285D01*
X149378571Y-67007142D01*
X149378571Y-67292857D01*
X149450000Y-67435714D01*
X149521428Y-67507142D01*
X149664285Y-67578571D01*
X150021428Y-67578571D01*
X150164285Y-67507142D01*
X150235714Y-67435714D01*
X150307142Y-67292857D01*
X150307142Y-67007142D01*
X150235714Y-66864285D01*
X150164285Y-66792857D01*
X150021428Y-66721428D01*
X150092857Y-66078571D02*
X150092857Y-65578571D01*
X150878571Y-65364285D02*
X150878571Y-66078571D01*
X149378571Y-66078571D01*
X149378571Y-65364285D01*
X150735714Y-63864285D02*
X150807142Y-63935714D01*
X150878571Y-64150000D01*
X150878571Y-64292857D01*
X150807142Y-64507142D01*
X150664285Y-64650000D01*
X150521428Y-64721428D01*
X150235714Y-64792857D01*
X150021428Y-64792857D01*
X149735714Y-64721428D01*
X149592857Y-64650000D01*
X149450000Y-64507142D01*
X149378571Y-64292857D01*
X149378571Y-64150000D01*
X149450000Y-63935714D01*
X149521428Y-63864285D01*
X150878571Y-63221428D02*
X149378571Y-63221428D01*
X149378571Y-62650000D01*
X149450000Y-62507142D01*
X149521428Y-62435714D01*
X149664285Y-62364285D01*
X149878571Y-62364285D01*
X150021428Y-62435714D01*
X150092857Y-62507142D01*
X150164285Y-62650000D01*
X150164285Y-63221428D01*
%TO.C,U2*%
D14*
X122142857Y-114114285D02*
X123114285Y-114114285D01*
X123228571Y-114057142D01*
X123285714Y-114000000D01*
X123342857Y-113885714D01*
X123342857Y-113657142D01*
X123285714Y-113542857D01*
X123228571Y-113485714D01*
X123114285Y-113428571D01*
X122142857Y-113428571D01*
X122257142Y-112914285D02*
X122200000Y-112857142D01*
X122142857Y-112742857D01*
X122142857Y-112457142D01*
X122200000Y-112342857D01*
X122257142Y-112285714D01*
X122371428Y-112228571D01*
X122485714Y-112228571D01*
X122657142Y-112285714D01*
X123342857Y-112971428D01*
X123342857Y-112228571D01*
X146542857Y-118500000D02*
X145342857Y-118500000D01*
X146542857Y-117814285D02*
X145857142Y-118328571D01*
X145342857Y-117814285D02*
X146028571Y-118500000D01*
X145342857Y-116785714D02*
X145342857Y-117014285D01*
X145400000Y-117128571D01*
X145457142Y-117185714D01*
X145628571Y-117300000D01*
X145857142Y-117357142D01*
X146314285Y-117357142D01*
X146428571Y-117300000D01*
X146485714Y-117242857D01*
X146542857Y-117128571D01*
X146542857Y-116900000D01*
X146485714Y-116785714D01*
X146428571Y-116728571D01*
X146314285Y-116671428D01*
X146028571Y-116671428D01*
X145914285Y-116728571D01*
X145857142Y-116785714D01*
X145800000Y-116900000D01*
X145800000Y-117128571D01*
X145857142Y-117242857D01*
X145914285Y-117300000D01*
X146028571Y-117357142D01*
X145342857Y-116328571D02*
X145342857Y-115642857D01*
X146542857Y-115985714D02*
X145342857Y-115985714D01*
X146542857Y-114614285D02*
X146542857Y-115300000D01*
X146542857Y-114957142D02*
X145342857Y-114957142D01*
X145514285Y-115071428D01*
X145628571Y-115185714D01*
X145685714Y-115300000D01*
X145342857Y-113871428D02*
X145342857Y-113757142D01*
X145400000Y-113642857D01*
X145457142Y-113585714D01*
X145571428Y-113528571D01*
X145800000Y-113471428D01*
X146085714Y-113471428D01*
X146314285Y-113528571D01*
X146428571Y-113585714D01*
X146485714Y-113642857D01*
X146542857Y-113757142D01*
X146542857Y-113871428D01*
X146485714Y-113985714D01*
X146428571Y-114042857D01*
X146314285Y-114100000D01*
X146085714Y-114157142D01*
X145800000Y-114157142D01*
X145571428Y-114100000D01*
X145457142Y-114042857D01*
X145400000Y-113985714D01*
X145342857Y-113871428D01*
X145342857Y-112728571D02*
X145342857Y-112614285D01*
X145400000Y-112500000D01*
X145457142Y-112442857D01*
X145571428Y-112385714D01*
X145800000Y-112328571D01*
X146085714Y-112328571D01*
X146314285Y-112385714D01*
X146428571Y-112442857D01*
X146485714Y-112500000D01*
X146542857Y-112614285D01*
X146542857Y-112728571D01*
X146485714Y-112842857D01*
X146428571Y-112900000D01*
X146314285Y-112957142D01*
X146085714Y-113014285D01*
X145800000Y-113014285D01*
X145571428Y-112957142D01*
X145457142Y-112900000D01*
X145400000Y-112842857D01*
X145342857Y-112728571D01*
X145857142Y-111642857D02*
X145800000Y-111757142D01*
X145742857Y-111814285D01*
X145628571Y-111871428D01*
X145571428Y-111871428D01*
X145457142Y-111814285D01*
X145400000Y-111757142D01*
X145342857Y-111642857D01*
X145342857Y-111414285D01*
X145400000Y-111300000D01*
X145457142Y-111242857D01*
X145571428Y-111185714D01*
X145628571Y-111185714D01*
X145742857Y-111242857D01*
X145800000Y-111300000D01*
X145857142Y-111414285D01*
X145857142Y-111642857D01*
X145914285Y-111757142D01*
X145971428Y-111814285D01*
X146085714Y-111871428D01*
X146314285Y-111871428D01*
X146428571Y-111814285D01*
X146485714Y-111757142D01*
X146542857Y-111642857D01*
X146542857Y-111414285D01*
X146485714Y-111300000D01*
X146428571Y-111242857D01*
X146314285Y-111185714D01*
X146085714Y-111185714D01*
X145971428Y-111242857D01*
X145914285Y-111300000D01*
X145857142Y-111414285D01*
X146428571Y-109985714D02*
X146485714Y-110042857D01*
X146542857Y-110214285D01*
X146542857Y-110328571D01*
X146485714Y-110500000D01*
X146371428Y-110614285D01*
X146257142Y-110671428D01*
X146028571Y-110728571D01*
X145857142Y-110728571D01*
X145628571Y-110671428D01*
X145514285Y-110614285D01*
X145400000Y-110500000D01*
X145342857Y-110328571D01*
X145342857Y-110214285D01*
X145400000Y-110042857D01*
X145457142Y-109985714D01*
X145457142Y-109528571D02*
X145400000Y-109471428D01*
X145342857Y-109357142D01*
X145342857Y-109071428D01*
X145400000Y-108957142D01*
X145457142Y-108900000D01*
X145571428Y-108842857D01*
X145685714Y-108842857D01*
X145857142Y-108900000D01*
X146542857Y-109585714D01*
X146542857Y-108842857D01*
X146428571Y-107642857D02*
X146485714Y-107700000D01*
X146542857Y-107871428D01*
X146542857Y-107985714D01*
X146485714Y-108157142D01*
X146371428Y-108271428D01*
X146257142Y-108328571D01*
X146028571Y-108385714D01*
X145857142Y-108385714D01*
X145628571Y-108328571D01*
X145514285Y-108271428D01*
X145400000Y-108157142D01*
X145342857Y-107985714D01*
X145342857Y-107871428D01*
X145400000Y-107700000D01*
X145457142Y-107642857D01*
%TO.C,U4*%
D13*
X106838095Y-115752380D02*
X106838095Y-116561904D01*
X106885714Y-116657142D01*
X106933333Y-116704761D01*
X107028571Y-116752380D01*
X107219047Y-116752380D01*
X107314285Y-116704761D01*
X107361904Y-116657142D01*
X107409523Y-116561904D01*
X107409523Y-115752380D01*
X108314285Y-116085714D02*
X108314285Y-116752380D01*
X108076190Y-115704761D02*
X107838095Y-116419047D01*
X108457142Y-116419047D01*
%TO.C,U6*%
X64352380Y-77561904D02*
X65161904Y-77561904D01*
X65257142Y-77514285D01*
X65304761Y-77466666D01*
X65352380Y-77371428D01*
X65352380Y-77180952D01*
X65304761Y-77085714D01*
X65257142Y-77038095D01*
X65161904Y-76990476D01*
X64352380Y-76990476D01*
X64352380Y-76085714D02*
X64352380Y-76276190D01*
X64400000Y-76371428D01*
X64447619Y-76419047D01*
X64590476Y-76514285D01*
X64780952Y-76561904D01*
X65161904Y-76561904D01*
X65257142Y-76514285D01*
X65304761Y-76466666D01*
X65352380Y-76371428D01*
X65352380Y-76180952D01*
X65304761Y-76085714D01*
X65257142Y-76038095D01*
X65161904Y-75990476D01*
X64923809Y-75990476D01*
X64828571Y-76038095D01*
X64780952Y-76085714D01*
X64733333Y-76180952D01*
X64733333Y-76371428D01*
X64780952Y-76466666D01*
X64828571Y-76514285D01*
X64923809Y-76561904D01*
%TO.C,U7*%
X87452380Y-82961904D02*
X88261904Y-82961904D01*
X88357142Y-82914285D01*
X88404761Y-82866666D01*
X88452380Y-82771428D01*
X88452380Y-82580952D01*
X88404761Y-82485714D01*
X88357142Y-82438095D01*
X88261904Y-82390476D01*
X87452380Y-82390476D01*
X87452380Y-82009523D02*
X87452380Y-81342857D01*
X88452380Y-81771428D01*
%TO.C,U9*%
X105238095Y-91452380D02*
X105238095Y-92261904D01*
X105285714Y-92357142D01*
X105333333Y-92404761D01*
X105428571Y-92452380D01*
X105619047Y-92452380D01*
X105714285Y-92404761D01*
X105761904Y-92357142D01*
X105809523Y-92261904D01*
X105809523Y-91452380D01*
X106333333Y-92452380D02*
X106523809Y-92452380D01*
X106619047Y-92404761D01*
X106666666Y-92357142D01*
X106761904Y-92214285D01*
X106809523Y-92023809D01*
X106809523Y-91642857D01*
X106761904Y-91547619D01*
X106714285Y-91500000D01*
X106619047Y-91452380D01*
X106428571Y-91452380D01*
X106333333Y-91500000D01*
X106285714Y-91547619D01*
X106238095Y-91642857D01*
X106238095Y-91880952D01*
X106285714Y-91976190D01*
X106333333Y-92023809D01*
X106428571Y-92071428D01*
X106619047Y-92071428D01*
X106714285Y-92023809D01*
X106761904Y-91976190D01*
X106809523Y-91880952D01*
%TO.C,U10*%
X102761904Y-126052380D02*
X102761904Y-126861904D01*
X102809523Y-126957142D01*
X102857142Y-127004761D01*
X102952380Y-127052380D01*
X103142857Y-127052380D01*
X103238095Y-127004761D01*
X103285714Y-126957142D01*
X103333333Y-126861904D01*
X103333333Y-126052380D01*
X104333333Y-127052380D02*
X103761904Y-127052380D01*
X104047619Y-127052380D02*
X104047619Y-126052380D01*
X103952380Y-126195238D01*
X103857142Y-126290476D01*
X103761904Y-126338095D01*
X104952380Y-126052380D02*
X105047619Y-126052380D01*
X105142857Y-126100000D01*
X105190476Y-126147619D01*
X105238095Y-126242857D01*
X105285714Y-126433333D01*
X105285714Y-126671428D01*
X105238095Y-126861904D01*
X105190476Y-126957142D01*
X105142857Y-127004761D01*
X105047619Y-127052380D01*
X104952380Y-127052380D01*
X104857142Y-127004761D01*
X104809523Y-126957142D01*
X104761904Y-126861904D01*
X104714285Y-126671428D01*
X104714285Y-126433333D01*
X104761904Y-126242857D01*
X104809523Y-126147619D01*
X104857142Y-126100000D01*
X104952380Y-126052380D01*
%TO.C,U11*%
X105861904Y-101352380D02*
X105861904Y-102161904D01*
X105909523Y-102257142D01*
X105957142Y-102304761D01*
X106052380Y-102352380D01*
X106242857Y-102352380D01*
X106338095Y-102304761D01*
X106385714Y-102257142D01*
X106433333Y-102161904D01*
X106433333Y-101352380D01*
X107433333Y-102352380D02*
X106861904Y-102352380D01*
X107147619Y-102352380D02*
X107147619Y-101352380D01*
X107052380Y-101495238D01*
X106957142Y-101590476D01*
X106861904Y-101638095D01*
X108385714Y-102352380D02*
X107814285Y-102352380D01*
X108100000Y-102352380D02*
X108100000Y-101352380D01*
X108004761Y-101495238D01*
X107909523Y-101590476D01*
X107814285Y-101638095D01*
%TO.C,U12*%
X89056904Y-69452380D02*
X89056904Y-70261904D01*
X89104523Y-70357142D01*
X89152142Y-70404761D01*
X89247380Y-70452380D01*
X89437857Y-70452380D01*
X89533095Y-70404761D01*
X89580714Y-70357142D01*
X89628333Y-70261904D01*
X89628333Y-69452380D01*
X90628333Y-70452380D02*
X90056904Y-70452380D01*
X90342619Y-70452380D02*
X90342619Y-69452380D01*
X90247380Y-69595238D01*
X90152142Y-69690476D01*
X90056904Y-69738095D01*
X91009285Y-69547619D02*
X91056904Y-69500000D01*
X91152142Y-69452380D01*
X91390238Y-69452380D01*
X91485476Y-69500000D01*
X91533095Y-69547619D01*
X91580714Y-69642857D01*
X91580714Y-69738095D01*
X91533095Y-69880952D01*
X90961666Y-70452380D01*
X91580714Y-70452380D01*
%TO.C,U14*%
X75761904Y-69452380D02*
X75761904Y-70261904D01*
X75809523Y-70357142D01*
X75857142Y-70404761D01*
X75952380Y-70452380D01*
X76142857Y-70452380D01*
X76238095Y-70404761D01*
X76285714Y-70357142D01*
X76333333Y-70261904D01*
X76333333Y-69452380D01*
X77333333Y-70452380D02*
X76761904Y-70452380D01*
X77047619Y-70452380D02*
X77047619Y-69452380D01*
X76952380Y-69595238D01*
X76857142Y-69690476D01*
X76761904Y-69738095D01*
X78190476Y-69785714D02*
X78190476Y-70452380D01*
X77952380Y-69404761D02*
X77714285Y-70119047D01*
X78333333Y-70119047D01*
%TO.C,X1*%
X99052380Y-81609523D02*
X100052380Y-80942857D01*
X99052380Y-80942857D02*
X100052380Y-81609523D01*
X100052380Y-80038095D02*
X100052380Y-80609523D01*
X100052380Y-80323809D02*
X99052380Y-80323809D01*
X99195238Y-80419047D01*
X99290476Y-80514285D01*
X99338095Y-80609523D01*
%TO.C,TP6*%
D14*
X60442857Y-76214285D02*
X60442857Y-75528571D01*
X61642857Y-75871428D02*
X60442857Y-75871428D01*
X61642857Y-75128571D02*
X60442857Y-75128571D01*
X60442857Y-74671428D01*
X60500000Y-74557142D01*
X60557142Y-74500000D01*
X60671428Y-74442857D01*
X60842857Y-74442857D01*
X60957142Y-74500000D01*
X61014285Y-74557142D01*
X61071428Y-74671428D01*
X61071428Y-75128571D01*
X60442857Y-73414285D02*
X60442857Y-73642857D01*
X60500000Y-73757142D01*
X60557142Y-73814285D01*
X60728571Y-73928571D01*
X60957142Y-73985714D01*
X61414285Y-73985714D01*
X61528571Y-73928571D01*
X61585714Y-73871428D01*
X61642857Y-73757142D01*
X61642857Y-73528571D01*
X61585714Y-73414285D01*
X61528571Y-73357142D01*
X61414285Y-73300000D01*
X61128571Y-73300000D01*
X61014285Y-73357142D01*
X60957142Y-73414285D01*
X60900000Y-73528571D01*
X60900000Y-73757142D01*
X60957142Y-73871428D01*
X61014285Y-73928571D01*
X61128571Y-73985714D01*
X63342857Y-75328571D02*
X62771428Y-75728571D01*
X63342857Y-76014285D02*
X62142857Y-76014285D01*
X62142857Y-75557142D01*
X62200000Y-75442857D01*
X62257142Y-75385714D01*
X62371428Y-75328571D01*
X62542857Y-75328571D01*
X62657142Y-75385714D01*
X62714285Y-75442857D01*
X62771428Y-75557142D01*
X62771428Y-76014285D01*
X63342857Y-74242857D02*
X63342857Y-74814285D01*
X62142857Y-74814285D01*
X62142857Y-74014285D02*
X63342857Y-73614285D01*
X62142857Y-73214285D01*
%TO.C,TP11*%
X139742857Y-55314285D02*
X138542857Y-55314285D01*
X139742857Y-54628571D01*
X138542857Y-54628571D01*
X139742857Y-54057142D02*
X138542857Y-54057142D01*
X139400000Y-53657142D01*
X138542857Y-53257142D01*
X139742857Y-53257142D01*
X139742857Y-52685714D02*
X138542857Y-52685714D01*
%TO.C,TP12*%
X147114285Y-55542857D02*
X147114285Y-55142857D01*
X147742857Y-54971428D02*
X147742857Y-55542857D01*
X146542857Y-55542857D01*
X146542857Y-54971428D01*
X147628571Y-53771428D02*
X147685714Y-53828571D01*
X147742857Y-54000000D01*
X147742857Y-54114285D01*
X147685714Y-54285714D01*
X147571428Y-54400000D01*
X147457142Y-54457142D01*
X147228571Y-54514285D01*
X147057142Y-54514285D01*
X146828571Y-54457142D01*
X146714285Y-54400000D01*
X146600000Y-54285714D01*
X146542857Y-54114285D01*
X146542857Y-54000000D01*
X146600000Y-53828571D01*
X146657142Y-53771428D01*
X147742857Y-52685714D02*
X147742857Y-53257142D01*
X146542857Y-53257142D01*
X147742857Y-52285714D02*
X146542857Y-52285714D01*
X147742857Y-51600000D02*
X147057142Y-52114285D01*
X146542857Y-51600000D02*
X147228571Y-52285714D01*
%TO.C,TP13*%
X151114285Y-55128571D02*
X151171428Y-54957142D01*
X151228571Y-54900000D01*
X151342857Y-54842857D01*
X151514285Y-54842857D01*
X151628571Y-54900000D01*
X151685714Y-54957142D01*
X151742857Y-55071428D01*
X151742857Y-55528571D01*
X150542857Y-55528571D01*
X150542857Y-55128571D01*
X150600000Y-55014285D01*
X150657142Y-54957142D01*
X150771428Y-54900000D01*
X150885714Y-54900000D01*
X151000000Y-54957142D01*
X151057142Y-55014285D01*
X151114285Y-55128571D01*
X151114285Y-55528571D01*
X150542857Y-54328571D02*
X151514285Y-54328571D01*
X151628571Y-54271428D01*
X151685714Y-54214285D01*
X151742857Y-54100000D01*
X151742857Y-53871428D01*
X151685714Y-53757142D01*
X151628571Y-53700000D01*
X151514285Y-53642857D01*
X150542857Y-53642857D01*
X151685714Y-53128571D02*
X151742857Y-52957142D01*
X151742857Y-52671428D01*
X151685714Y-52557142D01*
X151628571Y-52500000D01*
X151514285Y-52442857D01*
X151400000Y-52442857D01*
X151285714Y-52500000D01*
X151228571Y-52557142D01*
X151171428Y-52671428D01*
X151114285Y-52900000D01*
X151057142Y-53014285D01*
X151000000Y-53071428D01*
X150885714Y-53128571D01*
X150771428Y-53128571D01*
X150657142Y-53071428D01*
X150600000Y-53014285D01*
X150542857Y-52900000D01*
X150542857Y-52614285D01*
X150600000Y-52442857D01*
X151171428Y-51700000D02*
X151742857Y-51700000D01*
X150542857Y-52100000D02*
X151171428Y-51700000D01*
X150542857Y-51300000D01*
%TO.C,TP14*%
X135742857Y-55228571D02*
X134542857Y-55228571D01*
X135742857Y-53971428D02*
X135171428Y-54371428D01*
X135742857Y-54657142D02*
X134542857Y-54657142D01*
X134542857Y-54200000D01*
X134600000Y-54085714D01*
X134657142Y-54028571D01*
X134771428Y-53971428D01*
X134942857Y-53971428D01*
X135057142Y-54028571D01*
X135114285Y-54085714D01*
X135171428Y-54200000D01*
X135171428Y-54657142D01*
X135857142Y-52657142D02*
X135800000Y-52771428D01*
X135685714Y-52885714D01*
X135514285Y-53057142D01*
X135457142Y-53171428D01*
X135457142Y-53285714D01*
X135742857Y-53228571D02*
X135685714Y-53342857D01*
X135571428Y-53457142D01*
X135342857Y-53514285D01*
X134942857Y-53514285D01*
X134714285Y-53457142D01*
X134600000Y-53342857D01*
X134542857Y-53228571D01*
X134542857Y-53000000D01*
X134600000Y-52885714D01*
X134714285Y-52771428D01*
X134942857Y-52714285D01*
X135342857Y-52714285D01*
X135571428Y-52771428D01*
X135685714Y-52885714D01*
X135742857Y-53000000D01*
X135742857Y-53228571D01*
%TO.C,J9*%
X154500000Y-59214285D02*
X154442857Y-59328571D01*
X154442857Y-59500000D01*
X154500000Y-59671428D01*
X154614285Y-59785714D01*
X154728571Y-59842857D01*
X154957142Y-59900000D01*
X155128571Y-59900000D01*
X155357142Y-59842857D01*
X155471428Y-59785714D01*
X155585714Y-59671428D01*
X155642857Y-59500000D01*
X155642857Y-59385714D01*
X155585714Y-59214285D01*
X155528571Y-59157142D01*
X155128571Y-59157142D01*
X155128571Y-59385714D01*
X155642857Y-58642857D02*
X154442857Y-58642857D01*
X155642857Y-57957142D01*
X154442857Y-57957142D01*
X155642857Y-57385714D02*
X154442857Y-57385714D01*
X154442857Y-57100000D01*
X154500000Y-56928571D01*
X154614285Y-56814285D01*
X154728571Y-56757142D01*
X154957142Y-56700000D01*
X155128571Y-56700000D01*
X155357142Y-56757142D01*
X155471428Y-56814285D01*
X155585714Y-56928571D01*
X155642857Y-57100000D01*
X155642857Y-57385714D01*
%TO.C,D4*%
D13*
X98752380Y-67638095D02*
X97752380Y-67638095D01*
X97752380Y-67400000D01*
X97800000Y-67257142D01*
X97895238Y-67161904D01*
X97990476Y-67114285D01*
X98180952Y-67066666D01*
X98323809Y-67066666D01*
X98514285Y-67114285D01*
X98609523Y-67161904D01*
X98704761Y-67257142D01*
X98752380Y-67400000D01*
X98752380Y-67638095D01*
X98085714Y-66209523D02*
X98752380Y-66209523D01*
X97704761Y-66447619D02*
X98419047Y-66685714D01*
X98419047Y-66066666D01*
%TO.C,D5*%
X92752380Y-58938095D02*
X91752380Y-58938095D01*
X91752380Y-58700000D01*
X91800000Y-58557142D01*
X91895238Y-58461904D01*
X91990476Y-58414285D01*
X92180952Y-58366666D01*
X92323809Y-58366666D01*
X92514285Y-58414285D01*
X92609523Y-58461904D01*
X92704761Y-58557142D01*
X92752380Y-58700000D01*
X92752380Y-58938095D01*
X91752380Y-57461904D02*
X91752380Y-57938095D01*
X92228571Y-57985714D01*
X92180952Y-57938095D01*
X92133333Y-57842857D01*
X92133333Y-57604761D01*
X92180952Y-57509523D01*
X92228571Y-57461904D01*
X92323809Y-57414285D01*
X92561904Y-57414285D01*
X92657142Y-57461904D01*
X92704761Y-57509523D01*
X92752380Y-57604761D01*
X92752380Y-57842857D01*
X92704761Y-57938095D01*
X92657142Y-57985714D01*
%TO.C,J1*%
X64922380Y-138663333D02*
X65636666Y-138663333D01*
X65779523Y-138710952D01*
X65874761Y-138806190D01*
X65922380Y-138949047D01*
X65922380Y-139044285D01*
X65922380Y-137663333D02*
X65922380Y-138234761D01*
X65922380Y-137949047D02*
X64922380Y-137949047D01*
X65065238Y-138044285D01*
X65160476Y-138139523D01*
X65208095Y-138234761D01*
%TO.C,SW1*%
X55604761Y-79343333D02*
X55652380Y-79200476D01*
X55652380Y-78962380D01*
X55604761Y-78867142D01*
X55557142Y-78819523D01*
X55461904Y-78771904D01*
X55366666Y-78771904D01*
X55271428Y-78819523D01*
X55223809Y-78867142D01*
X55176190Y-78962380D01*
X55128571Y-79152857D01*
X55080952Y-79248095D01*
X55033333Y-79295714D01*
X54938095Y-79343333D01*
X54842857Y-79343333D01*
X54747619Y-79295714D01*
X54700000Y-79248095D01*
X54652380Y-79152857D01*
X54652380Y-78914761D01*
X54700000Y-78771904D01*
X54652380Y-78438571D02*
X55652380Y-78200476D01*
X54938095Y-78010000D01*
X55652380Y-77819523D01*
X54652380Y-77581428D01*
X55652380Y-76676666D02*
X55652380Y-77248095D01*
X55652380Y-76962380D02*
X54652380Y-76962380D01*
X54795238Y-77057619D01*
X54890476Y-77152857D01*
X54938095Y-77248095D01*
D18*
X58778571Y-80178571D02*
X58064285Y-80678571D01*
X58778571Y-81035714D02*
X57278571Y-81035714D01*
X57278571Y-80464285D01*
X57350000Y-80321428D01*
X57421428Y-80250000D01*
X57564285Y-80178571D01*
X57778571Y-80178571D01*
X57921428Y-80250000D01*
X57992857Y-80321428D01*
X58064285Y-80464285D01*
X58064285Y-81035714D01*
X57992857Y-79535714D02*
X57992857Y-79035714D01*
X58778571Y-78821428D02*
X58778571Y-79535714D01*
X57278571Y-79535714D01*
X57278571Y-78821428D01*
X58707142Y-78250000D02*
X58778571Y-78035714D01*
X58778571Y-77678571D01*
X58707142Y-77535714D01*
X58635714Y-77464285D01*
X58492857Y-77392857D01*
X58350000Y-77392857D01*
X58207142Y-77464285D01*
X58135714Y-77535714D01*
X58064285Y-77678571D01*
X57992857Y-77964285D01*
X57921428Y-78107142D01*
X57850000Y-78178571D01*
X57707142Y-78250000D01*
X57564285Y-78250000D01*
X57421428Y-78178571D01*
X57350000Y-78107142D01*
X57278571Y-77964285D01*
X57278571Y-77607142D01*
X57350000Y-77392857D01*
X57992857Y-76750000D02*
X57992857Y-76250000D01*
X58778571Y-76035714D02*
X58778571Y-76750000D01*
X57278571Y-76750000D01*
X57278571Y-76035714D01*
X57278571Y-75607142D02*
X57278571Y-74750000D01*
X58778571Y-75178571D02*
X57278571Y-75178571D01*
%TO.C,SW2*%
D13*
X55704761Y-91283333D02*
X55752380Y-91140476D01*
X55752380Y-90902380D01*
X55704761Y-90807142D01*
X55657142Y-90759523D01*
X55561904Y-90711904D01*
X55466666Y-90711904D01*
X55371428Y-90759523D01*
X55323809Y-90807142D01*
X55276190Y-90902380D01*
X55228571Y-91092857D01*
X55180952Y-91188095D01*
X55133333Y-91235714D01*
X55038095Y-91283333D01*
X54942857Y-91283333D01*
X54847619Y-91235714D01*
X54800000Y-91188095D01*
X54752380Y-91092857D01*
X54752380Y-90854761D01*
X54800000Y-90711904D01*
X54752380Y-90378571D02*
X55752380Y-90140476D01*
X55038095Y-89950000D01*
X55752380Y-89759523D01*
X54752380Y-89521428D01*
X54847619Y-89188095D02*
X54800000Y-89140476D01*
X54752380Y-89045238D01*
X54752380Y-88807142D01*
X54800000Y-88711904D01*
X54847619Y-88664285D01*
X54942857Y-88616666D01*
X55038095Y-88616666D01*
X55180952Y-88664285D01*
X55752380Y-89235714D01*
X55752380Y-88616666D01*
D18*
X57278571Y-92671428D02*
X58492857Y-92671428D01*
X58635714Y-92600000D01*
X58707142Y-92528571D01*
X58778571Y-92385714D01*
X58778571Y-92100000D01*
X58707142Y-91957142D01*
X58635714Y-91885714D01*
X58492857Y-91814285D01*
X57278571Y-91814285D01*
X58707142Y-91171428D02*
X58778571Y-90957142D01*
X58778571Y-90600000D01*
X58707142Y-90457142D01*
X58635714Y-90385714D01*
X58492857Y-90314285D01*
X58350000Y-90314285D01*
X58207142Y-90385714D01*
X58135714Y-90457142D01*
X58064285Y-90600000D01*
X57992857Y-90885714D01*
X57921428Y-91028571D01*
X57850000Y-91100000D01*
X57707142Y-91171428D01*
X57564285Y-91171428D01*
X57421428Y-91100000D01*
X57350000Y-91028571D01*
X57278571Y-90885714D01*
X57278571Y-90528571D01*
X57350000Y-90314285D01*
X57992857Y-89671428D02*
X57992857Y-89171428D01*
X58778571Y-88957142D02*
X58778571Y-89671428D01*
X57278571Y-89671428D01*
X57278571Y-88957142D01*
X58778571Y-87457142D02*
X58064285Y-87957142D01*
X58778571Y-88314285D02*
X57278571Y-88314285D01*
X57278571Y-87742857D01*
X57350000Y-87600000D01*
X57421428Y-87528571D01*
X57564285Y-87457142D01*
X57778571Y-87457142D01*
X57921428Y-87528571D01*
X57992857Y-87600000D01*
X58064285Y-87742857D01*
X58064285Y-88314285D01*
%TD*%
M02*
