%TF.GenerationSoftware,KiCad,Pcbnew,(5.1.6)-1*%
%TF.CreationDate,2020-07-06T11:54:37-04:00*%
%TF.ProjectId,hd6309sbc_v2,68643633-3039-4736-9263-5f76322e6b69,rev?*%
%TF.SameCoordinates,Original*%
%TF.FileFunction,Legend,Bot*%
%TF.FilePolarity,Positive*%
%FSLAX46Y46*%
G04 Gerber Fmt 4.6, Leading zero omitted, Abs format (unit mm)*
G04 Created by KiCad (PCBNEW (5.1.6)-1) date 2020-07-06 11:54:37*
%MOMM*%
%LPD*%
G01*
G04 APERTURE LIST*
%ADD10C,0.200000*%
%ADD11C,0.150000*%
%ADD12C,0.250000*%
%ADD13C,0.300000*%
%ADD14C,0.120000*%
%ADD15C,0.500000*%
%ADD16C,0.010000*%
G04 APERTURE END LIST*
D10*
X69178571Y-96785714D02*
X67678571Y-96785714D01*
X68750000Y-97285714D01*
X67678571Y-97785714D01*
X69178571Y-97785714D01*
X68750000Y-98428571D02*
X68750000Y-99142857D01*
X69178571Y-98285714D02*
X67678571Y-98785714D01*
X69178571Y-99285714D01*
X67678571Y-99642857D02*
X69178571Y-100642857D01*
X67678571Y-100642857D02*
X69178571Y-99642857D01*
X69178571Y-102000000D02*
X69178571Y-101142857D01*
X69178571Y-101571428D02*
X67678571Y-101571428D01*
X67892857Y-101428571D01*
X68035714Y-101285714D01*
X68107142Y-101142857D01*
X67678571Y-102928571D02*
X67678571Y-103071428D01*
X67750000Y-103214285D01*
X67821428Y-103285714D01*
X67964285Y-103357142D01*
X68250000Y-103428571D01*
X68607142Y-103428571D01*
X68892857Y-103357142D01*
X69035714Y-103285714D01*
X69107142Y-103214285D01*
X69178571Y-103071428D01*
X69178571Y-102928571D01*
X69107142Y-102785714D01*
X69035714Y-102714285D01*
X68892857Y-102642857D01*
X68607142Y-102571428D01*
X68250000Y-102571428D01*
X67964285Y-102642857D01*
X67821428Y-102714285D01*
X67750000Y-102785714D01*
X67678571Y-102928571D01*
X69035714Y-106071428D02*
X69107142Y-106000000D01*
X69178571Y-105785714D01*
X69178571Y-105642857D01*
X69107142Y-105428571D01*
X68964285Y-105285714D01*
X68821428Y-105214285D01*
X68535714Y-105142857D01*
X68321428Y-105142857D01*
X68035714Y-105214285D01*
X67892857Y-105285714D01*
X67750000Y-105428571D01*
X67678571Y-105642857D01*
X67678571Y-105785714D01*
X67750000Y-106000000D01*
X67821428Y-106071428D01*
X69178571Y-106714285D02*
X67678571Y-106714285D01*
X67678571Y-107285714D01*
X67750000Y-107428571D01*
X67821428Y-107500000D01*
X67964285Y-107571428D01*
X68178571Y-107571428D01*
X68321428Y-107500000D01*
X68392857Y-107428571D01*
X68464285Y-107285714D01*
X68464285Y-106714285D01*
X69178571Y-108928571D02*
X69178571Y-108214285D01*
X67678571Y-108214285D01*
X69178571Y-109428571D02*
X67678571Y-109428571D01*
X67678571Y-109785714D01*
X67750000Y-110000000D01*
X67892857Y-110142857D01*
X68035714Y-110214285D01*
X68321428Y-110285714D01*
X68535714Y-110285714D01*
X68821428Y-110214285D01*
X68964285Y-110142857D01*
X69107142Y-110000000D01*
X69178571Y-109785714D01*
X69178571Y-109428571D01*
D11*
X70000000Y-94500000D02*
X82000000Y-94500000D01*
X70000000Y-113000000D02*
X70000000Y-94500000D01*
X82000000Y-113000000D02*
X70000000Y-113000000D01*
X82000000Y-94500000D02*
X82000000Y-113000000D01*
D12*
X100839285Y-88985714D02*
X99039285Y-88985714D01*
X100839285Y-89757142D02*
X99896428Y-89757142D01*
X99725000Y-89671428D01*
X99639285Y-89500000D01*
X99639285Y-89242857D01*
X99725000Y-89071428D01*
X99810714Y-88985714D01*
X99639285Y-90357142D02*
X99639285Y-91042857D01*
X99039285Y-90614285D02*
X100582142Y-90614285D01*
X100753571Y-90700000D01*
X100839285Y-90871428D01*
X100839285Y-91042857D01*
X99639285Y-91385714D02*
X99639285Y-92071428D01*
X99039285Y-91642857D02*
X100582142Y-91642857D01*
X100753571Y-91728571D01*
X100839285Y-91899999D01*
X100839285Y-92071428D01*
X99639285Y-92671428D02*
X101439285Y-92671428D01*
X99725000Y-92671428D02*
X99639285Y-92842857D01*
X99639285Y-93185714D01*
X99725000Y-93357142D01*
X99810714Y-93442857D01*
X99982142Y-93528571D01*
X100496428Y-93528571D01*
X100667857Y-93442857D01*
X100753571Y-93357142D01*
X100839285Y-93185714D01*
X100839285Y-92842857D01*
X100753571Y-92671428D01*
X100753571Y-94214285D02*
X100839285Y-94385714D01*
X100839285Y-94728571D01*
X100753571Y-94899999D01*
X100582142Y-94985714D01*
X100496428Y-94985714D01*
X100325000Y-94899999D01*
X100239285Y-94728571D01*
X100239285Y-94471428D01*
X100153571Y-94299999D01*
X99982142Y-94214285D01*
X99896428Y-94214285D01*
X99725000Y-94299999D01*
X99639285Y-94471428D01*
X99639285Y-94728571D01*
X99725000Y-94899999D01*
X100667857Y-95757142D02*
X100753571Y-95842857D01*
X100839285Y-95757142D01*
X100753571Y-95671428D01*
X100667857Y-95757142D01*
X100839285Y-95757142D01*
X99725000Y-95757142D02*
X99810714Y-95842857D01*
X99896428Y-95757142D01*
X99810714Y-95671428D01*
X99725000Y-95757142D01*
X99896428Y-95757142D01*
X98953571Y-97899999D02*
X101267857Y-96357142D01*
X98953571Y-99785714D02*
X101267857Y-98242857D01*
X100839285Y-100385714D02*
X99039285Y-100385714D01*
X100839285Y-101157142D02*
X99896428Y-101157142D01*
X99725000Y-101071428D01*
X99639285Y-100899999D01*
X99639285Y-100642857D01*
X99725000Y-100471428D01*
X99810714Y-100385714D01*
X100839285Y-102785714D02*
X99896428Y-102785714D01*
X99725000Y-102699999D01*
X99639285Y-102528571D01*
X99639285Y-102185714D01*
X99725000Y-102014285D01*
X100753571Y-102785714D02*
X100839285Y-102614285D01*
X100839285Y-102185714D01*
X100753571Y-102014285D01*
X100582142Y-101928571D01*
X100410714Y-101928571D01*
X100239285Y-102014285D01*
X100153571Y-102185714D01*
X100153571Y-102614285D01*
X100067857Y-102785714D01*
X100753571Y-104414285D02*
X100839285Y-104242857D01*
X100839285Y-103899999D01*
X100753571Y-103728571D01*
X100667857Y-103642857D01*
X100496428Y-103557142D01*
X99982142Y-103557142D01*
X99810714Y-103642857D01*
X99725000Y-103728571D01*
X99639285Y-103899999D01*
X99639285Y-104242857D01*
X99725000Y-104414285D01*
X100839285Y-105185714D02*
X99039285Y-105185714D01*
X100153571Y-105357142D02*
X100839285Y-105871428D01*
X99639285Y-105871428D02*
X100325000Y-105185714D01*
X100839285Y-107414285D02*
X99896428Y-107414285D01*
X99725000Y-107328571D01*
X99639285Y-107157142D01*
X99639285Y-106814285D01*
X99725000Y-106642857D01*
X100753571Y-107414285D02*
X100839285Y-107242857D01*
X100839285Y-106814285D01*
X100753571Y-106642857D01*
X100582142Y-106557142D01*
X100410714Y-106557142D01*
X100239285Y-106642857D01*
X100153571Y-106814285D01*
X100153571Y-107242857D01*
X100067857Y-107414285D01*
X100839285Y-109042857D02*
X99039285Y-109042857D01*
X100753571Y-109042857D02*
X100839285Y-108871428D01*
X100839285Y-108528571D01*
X100753571Y-108357142D01*
X100667857Y-108271428D01*
X100496428Y-108185714D01*
X99982142Y-108185714D01*
X99810714Y-108271428D01*
X99725000Y-108357142D01*
X99639285Y-108528571D01*
X99639285Y-108871428D01*
X99725000Y-109042857D01*
X100839285Y-110671428D02*
X99896428Y-110671428D01*
X99725000Y-110585714D01*
X99639285Y-110414285D01*
X99639285Y-110071428D01*
X99725000Y-109899999D01*
X100753571Y-110671428D02*
X100839285Y-110499999D01*
X100839285Y-110071428D01*
X100753571Y-109899999D01*
X100582142Y-109814285D01*
X100410714Y-109814285D01*
X100239285Y-109899999D01*
X100153571Y-110071428D01*
X100153571Y-110499999D01*
X100067857Y-110671428D01*
X99639285Y-111357142D02*
X100839285Y-111785714D01*
X99639285Y-112214285D02*
X100839285Y-111785714D01*
X101267857Y-111614285D01*
X101353571Y-111528571D01*
X101439285Y-111357142D01*
X100667857Y-112899999D02*
X100753571Y-112985714D01*
X100839285Y-112899999D01*
X100753571Y-112814285D01*
X100667857Y-112899999D01*
X100839285Y-112899999D01*
X100839285Y-113757142D02*
X99639285Y-113757142D01*
X99039285Y-113757142D02*
X99125000Y-113671428D01*
X99210714Y-113757142D01*
X99125000Y-113842857D01*
X99039285Y-113757142D01*
X99210714Y-113757142D01*
X100839285Y-114871428D02*
X100753571Y-114699999D01*
X100667857Y-114614285D01*
X100496428Y-114528571D01*
X99982142Y-114528571D01*
X99810714Y-114614285D01*
X99725000Y-114699999D01*
X99639285Y-114871428D01*
X99639285Y-115128571D01*
X99725000Y-115299999D01*
X99810714Y-115385714D01*
X99982142Y-115471428D01*
X100496428Y-115471428D01*
X100667857Y-115385714D01*
X100753571Y-115299999D01*
X100839285Y-115128571D01*
X100839285Y-114871428D01*
X98953571Y-117528571D02*
X101267857Y-115985714D01*
X99639285Y-118128571D02*
X101439285Y-118128571D01*
X99725000Y-118128571D02*
X99639285Y-118299999D01*
X99639285Y-118642857D01*
X99725000Y-118814285D01*
X99810714Y-118899999D01*
X99982142Y-118985714D01*
X100496428Y-118985714D01*
X100667857Y-118899999D01*
X100753571Y-118814285D01*
X100839285Y-118642857D01*
X100839285Y-118299999D01*
X100753571Y-118128571D01*
X100839285Y-119757142D02*
X99639285Y-119757142D01*
X99982142Y-119757142D02*
X99810714Y-119842857D01*
X99725000Y-119928571D01*
X99639285Y-120099999D01*
X99639285Y-120271428D01*
X100839285Y-121128571D02*
X100753571Y-120957142D01*
X100667857Y-120871428D01*
X100496428Y-120785714D01*
X99982142Y-120785714D01*
X99810714Y-120871428D01*
X99725000Y-120957142D01*
X99639285Y-121128571D01*
X99639285Y-121385714D01*
X99725000Y-121557142D01*
X99810714Y-121642857D01*
X99982142Y-121728571D01*
X100496428Y-121728571D01*
X100667857Y-121642857D01*
X100753571Y-121557142D01*
X100839285Y-121385714D01*
X100839285Y-121128571D01*
X99639285Y-122499999D02*
X101182142Y-122499999D01*
X101353571Y-122414285D01*
X101439285Y-122242857D01*
X101439285Y-122157142D01*
X99039285Y-122499999D02*
X99125000Y-122414285D01*
X99210714Y-122499999D01*
X99125000Y-122585714D01*
X99039285Y-122499999D01*
X99210714Y-122499999D01*
X100753571Y-124042857D02*
X100839285Y-123871428D01*
X100839285Y-123528571D01*
X100753571Y-123357142D01*
X100582142Y-123271428D01*
X99896428Y-123271428D01*
X99725000Y-123357142D01*
X99639285Y-123528571D01*
X99639285Y-123871428D01*
X99725000Y-124042857D01*
X99896428Y-124128571D01*
X100067857Y-124128571D01*
X100239285Y-123271428D01*
X100753571Y-125671428D02*
X100839285Y-125499999D01*
X100839285Y-125157142D01*
X100753571Y-124985714D01*
X100667857Y-124899999D01*
X100496428Y-124814285D01*
X99982142Y-124814285D01*
X99810714Y-124899999D01*
X99725000Y-124985714D01*
X99639285Y-125157142D01*
X99639285Y-125499999D01*
X99725000Y-125671428D01*
X99639285Y-126185714D02*
X99639285Y-126871428D01*
X99039285Y-126442857D02*
X100582142Y-126442857D01*
X100753571Y-126528571D01*
X100839285Y-126699999D01*
X100839285Y-126871428D01*
X98953571Y-128757142D02*
X101267857Y-127214285D01*
X100839285Y-130299999D02*
X100839285Y-129271428D01*
X100839285Y-129785714D02*
X99039285Y-129785714D01*
X99296428Y-129614285D01*
X99467857Y-129442857D01*
X99553571Y-129271428D01*
X99039285Y-130899999D02*
X99039285Y-132099999D01*
X100839285Y-131328571D01*
X99039285Y-132614285D02*
X99039285Y-133728571D01*
X99725000Y-133128571D01*
X99725000Y-133385714D01*
X99810714Y-133557142D01*
X99896428Y-133642857D01*
X100067857Y-133728571D01*
X100496428Y-133728571D01*
X100667857Y-133642857D01*
X100753571Y-133557142D01*
X100839285Y-133385714D01*
X100839285Y-132871428D01*
X100753571Y-132699999D01*
X100667857Y-132614285D01*
X99639285Y-135271428D02*
X100839285Y-135271428D01*
X98953571Y-134842857D02*
X100239285Y-134414285D01*
X100239285Y-135528571D01*
X99039285Y-136557142D02*
X99039285Y-136728571D01*
X99125000Y-136899999D01*
X99210714Y-136985714D01*
X99382142Y-137071428D01*
X99725000Y-137157142D01*
X100153571Y-137157142D01*
X100496428Y-137071428D01*
X100667857Y-136985714D01*
X100753571Y-136899999D01*
X100839285Y-136728571D01*
X100839285Y-136557142D01*
X100753571Y-136385714D01*
X100667857Y-136299999D01*
X100496428Y-136214285D01*
X100153571Y-136128571D01*
X99725000Y-136128571D01*
X99382142Y-136214285D01*
X99210714Y-136299999D01*
X99125000Y-136385714D01*
X99039285Y-136557142D01*
X100839285Y-138871428D02*
X100839285Y-137842857D01*
X100839285Y-138357142D02*
X99039285Y-138357142D01*
X99296428Y-138185714D01*
X99467857Y-138014285D01*
X99553571Y-137842857D01*
X100153571Y-139642857D02*
X100153571Y-141014285D01*
X103789285Y-92071428D02*
X101989285Y-92071428D01*
X103789285Y-92842857D02*
X102846428Y-92842857D01*
X102675000Y-92757142D01*
X102589285Y-92585714D01*
X102589285Y-92328571D01*
X102675000Y-92157142D01*
X102760714Y-92071428D01*
X103789285Y-94471428D02*
X101989285Y-94471428D01*
X103703571Y-94471428D02*
X103789285Y-94300000D01*
X103789285Y-93957142D01*
X103703571Y-93785714D01*
X103617857Y-93700000D01*
X103446428Y-93614285D01*
X102932142Y-93614285D01*
X102760714Y-93700000D01*
X102675000Y-93785714D01*
X102589285Y-93957142D01*
X102589285Y-94300000D01*
X102675000Y-94471428D01*
X101989285Y-96100000D02*
X101989285Y-95757142D01*
X102075000Y-95585714D01*
X102160714Y-95500000D01*
X102417857Y-95328571D01*
X102760714Y-95242857D01*
X103446428Y-95242857D01*
X103617857Y-95328571D01*
X103703571Y-95414285D01*
X103789285Y-95585714D01*
X103789285Y-95928571D01*
X103703571Y-96100000D01*
X103617857Y-96185714D01*
X103446428Y-96271428D01*
X103017857Y-96271428D01*
X102846428Y-96185714D01*
X102760714Y-96100000D01*
X102675000Y-95928571D01*
X102675000Y-95585714D01*
X102760714Y-95414285D01*
X102846428Y-95328571D01*
X103017857Y-95242857D01*
X101989285Y-96871428D02*
X101989285Y-97985714D01*
X102675000Y-97385714D01*
X102675000Y-97642857D01*
X102760714Y-97814285D01*
X102846428Y-97900000D01*
X103017857Y-97985714D01*
X103446428Y-97985714D01*
X103617857Y-97900000D01*
X103703571Y-97814285D01*
X103789285Y-97642857D01*
X103789285Y-97128571D01*
X103703571Y-96957142D01*
X103617857Y-96871428D01*
X101989285Y-99100000D02*
X101989285Y-99271428D01*
X102075000Y-99442857D01*
X102160714Y-99528571D01*
X102332142Y-99614285D01*
X102675000Y-99700000D01*
X103103571Y-99700000D01*
X103446428Y-99614285D01*
X103617857Y-99528571D01*
X103703571Y-99442857D01*
X103789285Y-99271428D01*
X103789285Y-99100000D01*
X103703571Y-98928571D01*
X103617857Y-98842857D01*
X103446428Y-98757142D01*
X103103571Y-98671428D01*
X102675000Y-98671428D01*
X102332142Y-98757142D01*
X102160714Y-98842857D01*
X102075000Y-98928571D01*
X101989285Y-99100000D01*
X103789285Y-100557142D02*
X103789285Y-100900000D01*
X103703571Y-101071428D01*
X103617857Y-101157142D01*
X103360714Y-101328571D01*
X103017857Y-101414285D01*
X102332142Y-101414285D01*
X102160714Y-101328571D01*
X102075000Y-101242857D01*
X101989285Y-101071428D01*
X101989285Y-100728571D01*
X102075000Y-100557142D01*
X102160714Y-100471428D01*
X102332142Y-100385714D01*
X102760714Y-100385714D01*
X102932142Y-100471428D01*
X103017857Y-100557142D01*
X103103571Y-100728571D01*
X103103571Y-101071428D01*
X103017857Y-101242857D01*
X102932142Y-101328571D01*
X102760714Y-101414285D01*
X103103571Y-102185714D02*
X103103571Y-103557142D01*
X103703571Y-104328571D02*
X103789285Y-104500000D01*
X103789285Y-104842857D01*
X103703571Y-105014285D01*
X103532142Y-105100000D01*
X103446428Y-105100000D01*
X103275000Y-105014285D01*
X103189285Y-104842857D01*
X103189285Y-104585714D01*
X103103571Y-104414285D01*
X102932142Y-104328571D01*
X102846428Y-104328571D01*
X102675000Y-104414285D01*
X102589285Y-104585714D01*
X102589285Y-104842857D01*
X102675000Y-105014285D01*
X103789285Y-105871428D02*
X102589285Y-105871428D01*
X101989285Y-105871428D02*
X102075000Y-105785714D01*
X102160714Y-105871428D01*
X102075000Y-105957142D01*
X101989285Y-105871428D01*
X102160714Y-105871428D01*
X102589285Y-106728571D02*
X103789285Y-106728571D01*
X102760714Y-106728571D02*
X102675000Y-106814285D01*
X102589285Y-106985714D01*
X102589285Y-107242857D01*
X102675000Y-107414285D01*
X102846428Y-107500000D01*
X103789285Y-107500000D01*
X102589285Y-109128571D02*
X104046428Y-109128571D01*
X104217857Y-109042857D01*
X104303571Y-108957142D01*
X104389285Y-108785714D01*
X104389285Y-108528571D01*
X104303571Y-108357142D01*
X103703571Y-109128571D02*
X103789285Y-108957142D01*
X103789285Y-108614285D01*
X103703571Y-108442857D01*
X103617857Y-108357142D01*
X103446428Y-108271428D01*
X102932142Y-108271428D01*
X102760714Y-108357142D01*
X102675000Y-108442857D01*
X102589285Y-108614285D01*
X102589285Y-108957142D01*
X102675000Y-109128571D01*
X103789285Y-110242857D02*
X103703571Y-110071428D01*
X103532142Y-109985714D01*
X101989285Y-109985714D01*
X103703571Y-111614285D02*
X103789285Y-111442857D01*
X103789285Y-111100000D01*
X103703571Y-110928571D01*
X103532142Y-110842857D01*
X102846428Y-110842857D01*
X102675000Y-110928571D01*
X102589285Y-111100000D01*
X102589285Y-111442857D01*
X102675000Y-111614285D01*
X102846428Y-111700000D01*
X103017857Y-111700000D01*
X103189285Y-110842857D01*
X103789285Y-112471428D02*
X101989285Y-112471428D01*
X102675000Y-112471428D02*
X102589285Y-112642857D01*
X102589285Y-112985714D01*
X102675000Y-113157142D01*
X102760714Y-113242857D01*
X102932142Y-113328571D01*
X103446428Y-113328571D01*
X103617857Y-113242857D01*
X103703571Y-113157142D01*
X103789285Y-112985714D01*
X103789285Y-112642857D01*
X103703571Y-112471428D01*
X103789285Y-114357142D02*
X103703571Y-114185714D01*
X103617857Y-114100000D01*
X103446428Y-114014285D01*
X102932142Y-114014285D01*
X102760714Y-114100000D01*
X102675000Y-114185714D01*
X102589285Y-114357142D01*
X102589285Y-114614285D01*
X102675000Y-114785714D01*
X102760714Y-114871428D01*
X102932142Y-114957142D01*
X103446428Y-114957142D01*
X103617857Y-114871428D01*
X103703571Y-114785714D01*
X103789285Y-114614285D01*
X103789285Y-114357142D01*
X103789285Y-116500000D02*
X102846428Y-116500000D01*
X102675000Y-116414285D01*
X102589285Y-116242857D01*
X102589285Y-115900000D01*
X102675000Y-115728571D01*
X103703571Y-116500000D02*
X103789285Y-116328571D01*
X103789285Y-115900000D01*
X103703571Y-115728571D01*
X103532142Y-115642857D01*
X103360714Y-115642857D01*
X103189285Y-115728571D01*
X103103571Y-115900000D01*
X103103571Y-116328571D01*
X103017857Y-116500000D01*
X103789285Y-117357142D02*
X102589285Y-117357142D01*
X102932142Y-117357142D02*
X102760714Y-117442857D01*
X102675000Y-117528571D01*
X102589285Y-117700000D01*
X102589285Y-117871428D01*
X103789285Y-119242857D02*
X101989285Y-119242857D01*
X103703571Y-119242857D02*
X103789285Y-119071428D01*
X103789285Y-118728571D01*
X103703571Y-118557142D01*
X103617857Y-118471428D01*
X103446428Y-118385714D01*
X102932142Y-118385714D01*
X102760714Y-118471428D01*
X102675000Y-118557142D01*
X102589285Y-118728571D01*
X102589285Y-119071428D01*
X102675000Y-119242857D01*
X103103571Y-120100000D02*
X103103571Y-121471428D01*
X103703571Y-123100000D02*
X103789285Y-122928571D01*
X103789285Y-122585714D01*
X103703571Y-122414285D01*
X103617857Y-122328571D01*
X103446428Y-122242857D01*
X102932142Y-122242857D01*
X102760714Y-122328571D01*
X102675000Y-122414285D01*
X102589285Y-122585714D01*
X102589285Y-122928571D01*
X102675000Y-123100000D01*
X103789285Y-124128571D02*
X103703571Y-123957142D01*
X103617857Y-123871428D01*
X103446428Y-123785714D01*
X102932142Y-123785714D01*
X102760714Y-123871428D01*
X102675000Y-123957142D01*
X102589285Y-124128571D01*
X102589285Y-124385714D01*
X102675000Y-124557142D01*
X102760714Y-124642857D01*
X102932142Y-124728571D01*
X103446428Y-124728571D01*
X103617857Y-124642857D01*
X103703571Y-124557142D01*
X103789285Y-124385714D01*
X103789285Y-124128571D01*
X103789285Y-125500000D02*
X102589285Y-125500000D01*
X102760714Y-125500000D02*
X102675000Y-125585714D01*
X102589285Y-125757142D01*
X102589285Y-126014285D01*
X102675000Y-126185714D01*
X102846428Y-126271428D01*
X103789285Y-126271428D01*
X102846428Y-126271428D02*
X102675000Y-126357142D01*
X102589285Y-126528571D01*
X102589285Y-126785714D01*
X102675000Y-126957142D01*
X102846428Y-127042857D01*
X103789285Y-127042857D01*
X102589285Y-127900000D02*
X104389285Y-127900000D01*
X102675000Y-127900000D02*
X102589285Y-128071428D01*
X102589285Y-128414285D01*
X102675000Y-128585714D01*
X102760714Y-128671428D01*
X102932142Y-128757142D01*
X103446428Y-128757142D01*
X103617857Y-128671428D01*
X103703571Y-128585714D01*
X103789285Y-128414285D01*
X103789285Y-128071428D01*
X103703571Y-127900000D01*
X102589285Y-130300000D02*
X103789285Y-130300000D01*
X102589285Y-129528571D02*
X103532142Y-129528571D01*
X103703571Y-129614285D01*
X103789285Y-129785714D01*
X103789285Y-130042857D01*
X103703571Y-130214285D01*
X103617857Y-130300000D01*
X102589285Y-130900000D02*
X102589285Y-131585714D01*
X101989285Y-131157142D02*
X103532142Y-131157142D01*
X103703571Y-131242857D01*
X103789285Y-131414285D01*
X103789285Y-131585714D01*
X103703571Y-132871428D02*
X103789285Y-132700000D01*
X103789285Y-132357142D01*
X103703571Y-132185714D01*
X103532142Y-132100000D01*
X102846428Y-132100000D01*
X102675000Y-132185714D01*
X102589285Y-132357142D01*
X102589285Y-132700000D01*
X102675000Y-132871428D01*
X102846428Y-132957142D01*
X103017857Y-132957142D01*
X103189285Y-132100000D01*
X103789285Y-133728571D02*
X102589285Y-133728571D01*
X102932142Y-133728571D02*
X102760714Y-133814285D01*
X102675000Y-133900000D01*
X102589285Y-134071428D01*
X102589285Y-134242857D01*
X103103571Y-134842857D02*
X103103571Y-136214285D01*
X103789285Y-137071428D02*
X102589285Y-137071428D01*
X101989285Y-137071428D02*
X102075000Y-136985714D01*
X102160714Y-137071428D01*
X102075000Y-137157142D01*
X101989285Y-137071428D01*
X102160714Y-137071428D01*
X103789285Y-137928571D02*
X102589285Y-137928571D01*
X101989285Y-137928571D02*
X102075000Y-137842857D01*
X102160714Y-137928571D01*
X102075000Y-138014285D01*
X101989285Y-137928571D01*
X102160714Y-137928571D01*
D13*
X52007142Y-62428571D02*
X52007142Y-63571428D01*
X52007142Y-68428571D02*
X52007142Y-69571428D01*
X52578571Y-69000000D02*
X51435714Y-69000000D01*
D12*
X93339285Y-102271428D02*
X91539285Y-102271428D01*
X93339285Y-103042857D02*
X92396428Y-103042857D01*
X92225000Y-102957142D01*
X92139285Y-102785714D01*
X92139285Y-102528571D01*
X92225000Y-102357142D01*
X92310714Y-102271428D01*
X93339285Y-104671428D02*
X91539285Y-104671428D01*
X93253571Y-104671428D02*
X93339285Y-104500000D01*
X93339285Y-104157142D01*
X93253571Y-103985714D01*
X93167857Y-103900000D01*
X92996428Y-103814285D01*
X92482142Y-103814285D01*
X92310714Y-103900000D01*
X92225000Y-103985714D01*
X92139285Y-104157142D01*
X92139285Y-104500000D01*
X92225000Y-104671428D01*
X91539285Y-106300000D02*
X91539285Y-105957142D01*
X91625000Y-105785714D01*
X91710714Y-105700000D01*
X91967857Y-105528571D01*
X92310714Y-105442857D01*
X92996428Y-105442857D01*
X93167857Y-105528571D01*
X93253571Y-105614285D01*
X93339285Y-105785714D01*
X93339285Y-106128571D01*
X93253571Y-106300000D01*
X93167857Y-106385714D01*
X92996428Y-106471428D01*
X92567857Y-106471428D01*
X92396428Y-106385714D01*
X92310714Y-106300000D01*
X92225000Y-106128571D01*
X92225000Y-105785714D01*
X92310714Y-105614285D01*
X92396428Y-105528571D01*
X92567857Y-105442857D01*
X91539285Y-107071428D02*
X91539285Y-108185714D01*
X92225000Y-107585714D01*
X92225000Y-107842857D01*
X92310714Y-108014285D01*
X92396428Y-108100000D01*
X92567857Y-108185714D01*
X92996428Y-108185714D01*
X93167857Y-108100000D01*
X93253571Y-108014285D01*
X93339285Y-107842857D01*
X93339285Y-107328571D01*
X93253571Y-107157142D01*
X93167857Y-107071428D01*
X91539285Y-109300000D02*
X91539285Y-109471428D01*
X91625000Y-109642857D01*
X91710714Y-109728571D01*
X91882142Y-109814285D01*
X92225000Y-109900000D01*
X92653571Y-109900000D01*
X92996428Y-109814285D01*
X93167857Y-109728571D01*
X93253571Y-109642857D01*
X93339285Y-109471428D01*
X93339285Y-109300000D01*
X93253571Y-109128571D01*
X93167857Y-109042857D01*
X92996428Y-108957142D01*
X92653571Y-108871428D01*
X92225000Y-108871428D01*
X91882142Y-108957142D01*
X91710714Y-109042857D01*
X91625000Y-109128571D01*
X91539285Y-109300000D01*
X93339285Y-110757142D02*
X93339285Y-111100000D01*
X93253571Y-111271428D01*
X93167857Y-111357142D01*
X92910714Y-111528571D01*
X92567857Y-111614285D01*
X91882142Y-111614285D01*
X91710714Y-111528571D01*
X91625000Y-111442857D01*
X91539285Y-111271428D01*
X91539285Y-110928571D01*
X91625000Y-110757142D01*
X91710714Y-110671428D01*
X91882142Y-110585714D01*
X92310714Y-110585714D01*
X92482142Y-110671428D01*
X92567857Y-110757142D01*
X92653571Y-110928571D01*
X92653571Y-111271428D01*
X92567857Y-111442857D01*
X92482142Y-111528571D01*
X92310714Y-111614285D01*
X93253571Y-112300000D02*
X93339285Y-112471428D01*
X93339285Y-112814285D01*
X93253571Y-112985714D01*
X93082142Y-113071428D01*
X92996428Y-113071428D01*
X92825000Y-112985714D01*
X92739285Y-112814285D01*
X92739285Y-112557142D01*
X92653571Y-112385714D01*
X92482142Y-112300000D01*
X92396428Y-112300000D01*
X92225000Y-112385714D01*
X92139285Y-112557142D01*
X92139285Y-112814285D01*
X92225000Y-112985714D01*
X93339285Y-113842857D02*
X91539285Y-113842857D01*
X92225000Y-113842857D02*
X92139285Y-114014285D01*
X92139285Y-114357142D01*
X92225000Y-114528571D01*
X92310714Y-114614285D01*
X92482142Y-114700000D01*
X92996428Y-114700000D01*
X93167857Y-114614285D01*
X93253571Y-114528571D01*
X93339285Y-114357142D01*
X93339285Y-114014285D01*
X93253571Y-113842857D01*
X93253571Y-116242857D02*
X93339285Y-116071428D01*
X93339285Y-115728571D01*
X93253571Y-115557142D01*
X93167857Y-115471428D01*
X92996428Y-115385714D01*
X92482142Y-115385714D01*
X92310714Y-115471428D01*
X92225000Y-115557142D01*
X92139285Y-115728571D01*
X92139285Y-116071428D01*
X92225000Y-116242857D01*
X93510714Y-116585714D02*
X93510714Y-117957142D01*
X92139285Y-118214285D02*
X93339285Y-118642857D01*
X92139285Y-119071428D01*
X91710714Y-119671428D02*
X91625000Y-119757142D01*
X91539285Y-119928571D01*
X91539285Y-120357142D01*
X91625000Y-120528571D01*
X91710714Y-120614285D01*
X91882142Y-120700000D01*
X92053571Y-120700000D01*
X92310714Y-120614285D01*
X93339285Y-119585714D01*
X93339285Y-120700000D01*
X93339285Y-122842857D02*
X92139285Y-122842857D01*
X92482142Y-122842857D02*
X92310714Y-122928571D01*
X92225000Y-123014285D01*
X92139285Y-123185714D01*
X92139285Y-123357142D01*
X93253571Y-124642857D02*
X93339285Y-124471428D01*
X93339285Y-124128571D01*
X93253571Y-123957142D01*
X93082142Y-123871428D01*
X92396428Y-123871428D01*
X92225000Y-123957142D01*
X92139285Y-124128571D01*
X92139285Y-124471428D01*
X92225000Y-124642857D01*
X92396428Y-124728571D01*
X92567857Y-124728571D01*
X92739285Y-123871428D01*
X92139285Y-125328571D02*
X93339285Y-125757142D01*
X92139285Y-126185714D01*
X92139285Y-127642857D02*
X93339285Y-127642857D01*
X91453571Y-127214285D02*
X92739285Y-126785714D01*
X92739285Y-127900000D01*
X94489285Y-101457142D02*
X94489285Y-102485714D01*
X96289285Y-101971428D02*
X94489285Y-101971428D01*
X96289285Y-103342857D02*
X96203571Y-103171428D01*
X96117857Y-103085714D01*
X95946428Y-103000000D01*
X95432142Y-103000000D01*
X95260714Y-103085714D01*
X95175000Y-103171428D01*
X95089285Y-103342857D01*
X95089285Y-103600000D01*
X95175000Y-103771428D01*
X95260714Y-103857142D01*
X95432142Y-103942857D01*
X95946428Y-103942857D01*
X96117857Y-103857142D01*
X96203571Y-103771428D01*
X96289285Y-103600000D01*
X96289285Y-103342857D01*
X96289285Y-104714285D02*
X95089285Y-104714285D01*
X95260714Y-104714285D02*
X95175000Y-104800000D01*
X95089285Y-104971428D01*
X95089285Y-105228571D01*
X95175000Y-105400000D01*
X95346428Y-105485714D01*
X96289285Y-105485714D01*
X95346428Y-105485714D02*
X95175000Y-105571428D01*
X95089285Y-105742857D01*
X95089285Y-106000000D01*
X95175000Y-106171428D01*
X95346428Y-106257142D01*
X96289285Y-106257142D01*
X96117857Y-108142857D02*
X96203571Y-108057142D01*
X96289285Y-107800000D01*
X96289285Y-107628571D01*
X96203571Y-107371428D01*
X96032142Y-107200000D01*
X95860714Y-107114285D01*
X95517857Y-107028571D01*
X95260714Y-107028571D01*
X94917857Y-107114285D01*
X94746428Y-107200000D01*
X94575000Y-107371428D01*
X94489285Y-107628571D01*
X94489285Y-107800000D01*
X94575000Y-108057142D01*
X94660714Y-108142857D01*
X96289285Y-108914285D02*
X95089285Y-108914285D01*
X94489285Y-108914285D02*
X94575000Y-108828571D01*
X94660714Y-108914285D01*
X94575000Y-109000000D01*
X94489285Y-108914285D01*
X94660714Y-108914285D01*
X96289285Y-109771428D02*
X95089285Y-109771428D01*
X95432142Y-109771428D02*
X95260714Y-109857142D01*
X95175000Y-109942857D01*
X95089285Y-110114285D01*
X95089285Y-110285714D01*
X96203571Y-111657142D02*
X96289285Y-111485714D01*
X96289285Y-111142857D01*
X96203571Y-110971428D01*
X96117857Y-110885714D01*
X95946428Y-110800000D01*
X95432142Y-110800000D01*
X95260714Y-110885714D01*
X95175000Y-110971428D01*
X95089285Y-111142857D01*
X95089285Y-111485714D01*
X95175000Y-111657142D01*
X95089285Y-113200000D02*
X96289285Y-113200000D01*
X95089285Y-112428571D02*
X96032142Y-112428571D01*
X96203571Y-112514285D01*
X96289285Y-112685714D01*
X96289285Y-112942857D01*
X96203571Y-113114285D01*
X96117857Y-113200000D01*
X96289285Y-114057142D02*
X95089285Y-114057142D01*
X94489285Y-114057142D02*
X94575000Y-113971428D01*
X94660714Y-114057142D01*
X94575000Y-114142857D01*
X94489285Y-114057142D01*
X94660714Y-114057142D01*
X95089285Y-114657142D02*
X95089285Y-115342857D01*
X94489285Y-114914285D02*
X96032142Y-114914285D01*
X96203571Y-115000000D01*
X96289285Y-115171428D01*
X96289285Y-115342857D01*
X94489285Y-119457142D02*
X94489285Y-119114285D01*
X94575000Y-118942857D01*
X94660714Y-118857142D01*
X94917857Y-118685714D01*
X95260714Y-118600000D01*
X95946428Y-118600000D01*
X96117857Y-118685714D01*
X96203571Y-118771428D01*
X96289285Y-118942857D01*
X96289285Y-119285714D01*
X96203571Y-119457142D01*
X96117857Y-119542857D01*
X95946428Y-119628571D01*
X95517857Y-119628571D01*
X95346428Y-119542857D01*
X95260714Y-119457142D01*
X95175000Y-119285714D01*
X95175000Y-118942857D01*
X95260714Y-118771428D01*
X95346428Y-118685714D01*
X95517857Y-118600000D01*
X94403571Y-121685714D02*
X96717857Y-120142857D01*
X94660714Y-122200000D02*
X94575000Y-122285714D01*
X94489285Y-122457142D01*
X94489285Y-122885714D01*
X94575000Y-123057142D01*
X94660714Y-123142857D01*
X94832142Y-123228571D01*
X95003571Y-123228571D01*
X95260714Y-123142857D01*
X96289285Y-122114285D01*
X96289285Y-123228571D01*
X94489285Y-124342857D02*
X94489285Y-124514285D01*
X94575000Y-124685714D01*
X94660714Y-124771428D01*
X94832142Y-124857142D01*
X95175000Y-124942857D01*
X95603571Y-124942857D01*
X95946428Y-124857142D01*
X96117857Y-124771428D01*
X96203571Y-124685714D01*
X96289285Y-124514285D01*
X96289285Y-124342857D01*
X96203571Y-124171428D01*
X96117857Y-124085714D01*
X95946428Y-124000000D01*
X95603571Y-123914285D01*
X95175000Y-123914285D01*
X94832142Y-124000000D01*
X94660714Y-124085714D01*
X94575000Y-124171428D01*
X94489285Y-124342857D01*
X94660714Y-125628571D02*
X94575000Y-125714285D01*
X94489285Y-125885714D01*
X94489285Y-126314285D01*
X94575000Y-126485714D01*
X94660714Y-126571428D01*
X94832142Y-126657142D01*
X95003571Y-126657142D01*
X95260714Y-126571428D01*
X96289285Y-125542857D01*
X96289285Y-126657142D01*
X94489285Y-127771428D02*
X94489285Y-127942857D01*
X94575000Y-128114285D01*
X94660714Y-128200000D01*
X94832142Y-128285714D01*
X95175000Y-128371428D01*
X95603571Y-128371428D01*
X95946428Y-128285714D01*
X96117857Y-128200000D01*
X96203571Y-128114285D01*
X96289285Y-127942857D01*
X96289285Y-127771428D01*
X96203571Y-127600000D01*
X96117857Y-127514285D01*
X95946428Y-127428571D01*
X95603571Y-127342857D01*
X95175000Y-127342857D01*
X94832142Y-127428571D01*
X94660714Y-127514285D01*
X94575000Y-127600000D01*
X94489285Y-127771428D01*
D10*
X123342857Y-75771428D02*
X123342857Y-75200000D01*
X123914285Y-75142857D01*
X123857142Y-75200000D01*
X123800000Y-75314285D01*
X123800000Y-75600000D01*
X123857142Y-75714285D01*
X123914285Y-75771428D01*
X124028571Y-75828571D01*
X124314285Y-75828571D01*
X124428571Y-75771428D01*
X124485714Y-75714285D01*
X124542857Y-75600000D01*
X124542857Y-75314285D01*
X124485714Y-75200000D01*
X124428571Y-75142857D01*
X123342857Y-76171428D02*
X124542857Y-76571428D01*
X123342857Y-76971428D01*
X154500000Y-57485714D02*
X154442857Y-57371428D01*
X154442857Y-57200000D01*
X154500000Y-57028571D01*
X154614285Y-56914285D01*
X154728571Y-56857142D01*
X154957142Y-56800000D01*
X155128571Y-56800000D01*
X155357142Y-56857142D01*
X155471428Y-56914285D01*
X155585714Y-57028571D01*
X155642857Y-57200000D01*
X155642857Y-57314285D01*
X155585714Y-57485714D01*
X155528571Y-57542857D01*
X155128571Y-57542857D01*
X155128571Y-57314285D01*
X155642857Y-58057142D02*
X154442857Y-58057142D01*
X155642857Y-58742857D01*
X154442857Y-58742857D01*
X155642857Y-59314285D02*
X154442857Y-59314285D01*
X154442857Y-59600000D01*
X154500000Y-59771428D01*
X154614285Y-59885714D01*
X154728571Y-59942857D01*
X154957142Y-60000000D01*
X155128571Y-60000000D01*
X155357142Y-59942857D01*
X155471428Y-59885714D01*
X155585714Y-59771428D01*
X155642857Y-59600000D01*
X155642857Y-59314285D01*
X151114285Y-59771428D02*
X151171428Y-59942857D01*
X151228571Y-60000000D01*
X151342857Y-60057142D01*
X151514285Y-60057142D01*
X151628571Y-60000000D01*
X151685714Y-59942857D01*
X151742857Y-59828571D01*
X151742857Y-59371428D01*
X150542857Y-59371428D01*
X150542857Y-59771428D01*
X150600000Y-59885714D01*
X150657142Y-59942857D01*
X150771428Y-60000000D01*
X150885714Y-60000000D01*
X151000000Y-59942857D01*
X151057142Y-59885714D01*
X151114285Y-59771428D01*
X151114285Y-59371428D01*
X150542857Y-60571428D02*
X151514285Y-60571428D01*
X151628571Y-60628571D01*
X151685714Y-60685714D01*
X151742857Y-60800000D01*
X151742857Y-61028571D01*
X151685714Y-61142857D01*
X151628571Y-61200000D01*
X151514285Y-61257142D01*
X150542857Y-61257142D01*
X151685714Y-61771428D02*
X151742857Y-61942857D01*
X151742857Y-62228571D01*
X151685714Y-62342857D01*
X151628571Y-62400000D01*
X151514285Y-62457142D01*
X151400000Y-62457142D01*
X151285714Y-62400000D01*
X151228571Y-62342857D01*
X151171428Y-62228571D01*
X151114285Y-62000000D01*
X151057142Y-61885714D01*
X151000000Y-61828571D01*
X150885714Y-61771428D01*
X150771428Y-61771428D01*
X150657142Y-61828571D01*
X150600000Y-61885714D01*
X150542857Y-62000000D01*
X150542857Y-62285714D01*
X150600000Y-62457142D01*
X151171428Y-63200000D02*
X151742857Y-63200000D01*
X150542857Y-62800000D02*
X151171428Y-63200000D01*
X150542857Y-63600000D01*
X147114285Y-59457142D02*
X147114285Y-59857142D01*
X147742857Y-60028571D02*
X147742857Y-59457142D01*
X146542857Y-59457142D01*
X146542857Y-60028571D01*
X147628571Y-61228571D02*
X147685714Y-61171428D01*
X147742857Y-61000000D01*
X147742857Y-60885714D01*
X147685714Y-60714285D01*
X147571428Y-60600000D01*
X147457142Y-60542857D01*
X147228571Y-60485714D01*
X147057142Y-60485714D01*
X146828571Y-60542857D01*
X146714285Y-60600000D01*
X146600000Y-60714285D01*
X146542857Y-60885714D01*
X146542857Y-61000000D01*
X146600000Y-61171428D01*
X146657142Y-61228571D01*
X147742857Y-62314285D02*
X147742857Y-61742857D01*
X146542857Y-61742857D01*
X147742857Y-62714285D02*
X146542857Y-62714285D01*
X147742857Y-63400000D02*
X147057142Y-62885714D01*
X146542857Y-63400000D02*
X147228571Y-62714285D01*
X143742857Y-60257142D02*
X143171428Y-59857142D01*
X143742857Y-59571428D02*
X142542857Y-59571428D01*
X142542857Y-60028571D01*
X142600000Y-60142857D01*
X142657142Y-60200000D01*
X142771428Y-60257142D01*
X142942857Y-60257142D01*
X143057142Y-60200000D01*
X143114285Y-60142857D01*
X143171428Y-60028571D01*
X143171428Y-59571428D01*
X143114285Y-60771428D02*
X143114285Y-61171428D01*
X143742857Y-61342857D02*
X143742857Y-60771428D01*
X142542857Y-60771428D01*
X142542857Y-61342857D01*
X143685714Y-61800000D02*
X143742857Y-61971428D01*
X143742857Y-62257142D01*
X143685714Y-62371428D01*
X143628571Y-62428571D01*
X143514285Y-62485714D01*
X143400000Y-62485714D01*
X143285714Y-62428571D01*
X143228571Y-62371428D01*
X143171428Y-62257142D01*
X143114285Y-62028571D01*
X143057142Y-61914285D01*
X143000000Y-61857142D01*
X142885714Y-61800000D01*
X142771428Y-61800000D01*
X142657142Y-61857142D01*
X142600000Y-61914285D01*
X142542857Y-62028571D01*
X142542857Y-62314285D01*
X142600000Y-62485714D01*
X143114285Y-63000000D02*
X143114285Y-63400000D01*
X143742857Y-63571428D02*
X143742857Y-63000000D01*
X142542857Y-63000000D01*
X142542857Y-63571428D01*
X142542857Y-63914285D02*
X142542857Y-64600000D01*
X143742857Y-64257142D02*
X142542857Y-64257142D01*
X139742857Y-59485714D02*
X138542857Y-59485714D01*
X139742857Y-60171428D01*
X138542857Y-60171428D01*
X139742857Y-60742857D02*
X138542857Y-60742857D01*
X139400000Y-61142857D01*
X138542857Y-61542857D01*
X139742857Y-61542857D01*
X139742857Y-62114285D02*
X138542857Y-62114285D01*
X135642857Y-59571428D02*
X134442857Y-59571428D01*
X135642857Y-60828571D02*
X135071428Y-60428571D01*
X135642857Y-60142857D02*
X134442857Y-60142857D01*
X134442857Y-60600000D01*
X134500000Y-60714285D01*
X134557142Y-60771428D01*
X134671428Y-60828571D01*
X134842857Y-60828571D01*
X134957142Y-60771428D01*
X135014285Y-60714285D01*
X135071428Y-60600000D01*
X135071428Y-60142857D01*
X135757142Y-62142857D02*
X135700000Y-62028571D01*
X135585714Y-61914285D01*
X135414285Y-61742857D01*
X135357142Y-61628571D01*
X135357142Y-61514285D01*
X135642857Y-61571428D02*
X135585714Y-61457142D01*
X135471428Y-61342857D01*
X135242857Y-61285714D01*
X134842857Y-61285714D01*
X134614285Y-61342857D01*
X134500000Y-61457142D01*
X134442857Y-61571428D01*
X134442857Y-61800000D01*
X134500000Y-61914285D01*
X134614285Y-62028571D01*
X134842857Y-62085714D01*
X135242857Y-62085714D01*
X135471428Y-62028571D01*
X135585714Y-61914285D01*
X135642857Y-61800000D01*
X135642857Y-61571428D01*
X131214285Y-59857142D02*
X131214285Y-59457142D01*
X131842857Y-59457142D02*
X130642857Y-59457142D01*
X130642857Y-60028571D01*
X131842857Y-60485714D02*
X130642857Y-60485714D01*
X131842857Y-61742857D02*
X131271428Y-61342857D01*
X131842857Y-61057142D02*
X130642857Y-61057142D01*
X130642857Y-61514285D01*
X130700000Y-61628571D01*
X130757142Y-61685714D01*
X130871428Y-61742857D01*
X131042857Y-61742857D01*
X131157142Y-61685714D01*
X131214285Y-61628571D01*
X131271428Y-61514285D01*
X131271428Y-61057142D01*
X131957142Y-63057142D02*
X131900000Y-62942857D01*
X131785714Y-62828571D01*
X131614285Y-62657142D01*
X131557142Y-62542857D01*
X131557142Y-62428571D01*
X131842857Y-62485714D02*
X131785714Y-62371428D01*
X131671428Y-62257142D01*
X131442857Y-62200000D01*
X131042857Y-62200000D01*
X130814285Y-62257142D01*
X130700000Y-62371428D01*
X130642857Y-62485714D01*
X130642857Y-62714285D01*
X130700000Y-62828571D01*
X130814285Y-62942857D01*
X131042857Y-63000000D01*
X131442857Y-63000000D01*
X131671428Y-62942857D01*
X131785714Y-62828571D01*
X131842857Y-62714285D01*
X131842857Y-62485714D01*
X95142857Y-81628571D02*
X95142857Y-82371428D01*
X95600000Y-81971428D01*
X95600000Y-82142857D01*
X95657142Y-82257142D01*
X95714285Y-82314285D01*
X95828571Y-82371428D01*
X96114285Y-82371428D01*
X96228571Y-82314285D01*
X96285714Y-82257142D01*
X96342857Y-82142857D01*
X96342857Y-81800000D01*
X96285714Y-81685714D01*
X96228571Y-81628571D01*
X96228571Y-82885714D02*
X96285714Y-82942857D01*
X96342857Y-82885714D01*
X96285714Y-82828571D01*
X96228571Y-82885714D01*
X96342857Y-82885714D01*
X95142857Y-83342857D02*
X95142857Y-84085714D01*
X95600000Y-83685714D01*
X95600000Y-83857142D01*
X95657142Y-83971428D01*
X95714285Y-84028571D01*
X95828571Y-84085714D01*
X96114285Y-84085714D01*
X96228571Y-84028571D01*
X96285714Y-83971428D01*
X96342857Y-83857142D01*
X96342857Y-83514285D01*
X96285714Y-83400000D01*
X96228571Y-83342857D01*
X95142857Y-84428571D02*
X96342857Y-84828571D01*
X95142857Y-85228571D01*
D14*
%TO.C,TP4*%
X90350000Y-61800000D02*
G75*
G03*
X90350000Y-61800000I-950000J0D01*
G01*
D11*
%TO.C,REF\u002A\u002A*%
X51225000Y-66675000D02*
G75*
G02*
X52650000Y-66750000I750000J675000D01*
G01*
X51975000Y-66000000D02*
X51975000Y-68000000D01*
X51975000Y-64000000D02*
X51975000Y-64900000D01*
X52900000Y-63000000D02*
G75*
G03*
X52900000Y-63000000I-925000J0D01*
G01*
X52900000Y-69000000D02*
G75*
G03*
X52900000Y-69000000I-925000J0D01*
G01*
D15*
X52150000Y-66000000D02*
G75*
G03*
X52150000Y-66000000I-175000J0D01*
G01*
D16*
G36*
X106473689Y-109044257D02*
G01*
X106473725Y-109308780D01*
X106473730Y-109431912D01*
X106473730Y-111402811D01*
X106589910Y-111402811D01*
X106731291Y-111415211D01*
X106861684Y-111452636D01*
X106981862Y-111515423D01*
X107092602Y-111603906D01*
X107122511Y-111633843D01*
X107207348Y-111741534D01*
X107269221Y-111860275D01*
X107308159Y-111986540D01*
X107324190Y-112116803D01*
X107317342Y-112247535D01*
X107287643Y-112375212D01*
X107235120Y-112496305D01*
X107159803Y-112607288D01*
X107114363Y-112657132D01*
X107002952Y-112750017D01*
X106880435Y-112818127D01*
X106748215Y-112860871D01*
X106607692Y-112877653D01*
X106593867Y-112877876D01*
X106473734Y-112878756D01*
X106473732Y-112931557D01*
X106480089Y-112978396D01*
X106495556Y-113021183D01*
X106497154Y-113024011D01*
X106502168Y-113033675D01*
X106506073Y-113042549D01*
X106510007Y-113050665D01*
X106515106Y-113058057D01*
X106522508Y-113064755D01*
X106533351Y-113070792D01*
X106548772Y-113076199D01*
X106569909Y-113081010D01*
X106597899Y-113085255D01*
X106633879Y-113088968D01*
X106678987Y-113092179D01*
X106734360Y-113094922D01*
X106801137Y-113097228D01*
X106880453Y-113099129D01*
X106973447Y-113100658D01*
X107081257Y-113101846D01*
X107205019Y-113102726D01*
X107345871Y-113103330D01*
X107504950Y-113103689D01*
X107683395Y-113103835D01*
X107882342Y-113103802D01*
X108102929Y-113103620D01*
X108346293Y-113103323D01*
X108613572Y-113102941D01*
X108905903Y-113102508D01*
X109224424Y-113102055D01*
X109263230Y-113102002D01*
X109583782Y-113101596D01*
X109878012Y-113101251D01*
X110147056Y-113100931D01*
X110392052Y-113100600D01*
X110614137Y-113100221D01*
X110814447Y-113099757D01*
X110994119Y-113099172D01*
X111154290Y-113098430D01*
X111296098Y-113097494D01*
X111420679Y-113096327D01*
X111529170Y-113094893D01*
X111622707Y-113093156D01*
X111702429Y-113091078D01*
X111769472Y-113088624D01*
X111824973Y-113085756D01*
X111870068Y-113082439D01*
X111905895Y-113078636D01*
X111933591Y-113074310D01*
X111954293Y-113069425D01*
X111969137Y-113063945D01*
X111979260Y-113057832D01*
X111985800Y-113051050D01*
X111989893Y-113043563D01*
X111992676Y-113035334D01*
X111995287Y-113026327D01*
X111998862Y-113016505D01*
X111999950Y-113014106D01*
X112002396Y-113006565D01*
X112004642Y-112993944D01*
X112006698Y-112975141D01*
X112008572Y-112949053D01*
X112010271Y-112914578D01*
X112011803Y-112870615D01*
X112013177Y-112816061D01*
X112014400Y-112749815D01*
X112015481Y-112670774D01*
X112016427Y-112577837D01*
X112017247Y-112469901D01*
X112017947Y-112345864D01*
X112018538Y-112204624D01*
X112019025Y-112045079D01*
X112019419Y-111866128D01*
X112019725Y-111666668D01*
X112019953Y-111445596D01*
X112020110Y-111201812D01*
X112020205Y-110934213D01*
X112020245Y-110641697D01*
X112020238Y-110323161D01*
X112020228Y-110219979D01*
X112020176Y-109894377D01*
X112020091Y-109595119D01*
X112019963Y-109321091D01*
X112019785Y-109071176D01*
X112019548Y-108844260D01*
X112019242Y-108639227D01*
X112018860Y-108454962D01*
X112018392Y-108290350D01*
X112017830Y-108144275D01*
X112017165Y-108015624D01*
X112016388Y-107903279D01*
X112015491Y-107806126D01*
X112014465Y-107723050D01*
X112013301Y-107652936D01*
X112011991Y-107594668D01*
X112010525Y-107547131D01*
X112008896Y-107509210D01*
X112007093Y-107479790D01*
X112005110Y-107457755D01*
X112002936Y-107441990D01*
X112000563Y-107431380D01*
X111998391Y-107425596D01*
X111994056Y-107415316D01*
X111990859Y-107405878D01*
X111987665Y-107397245D01*
X111983338Y-107389381D01*
X111976744Y-107382252D01*
X111966747Y-107375821D01*
X111952212Y-107370053D01*
X111932003Y-107364911D01*
X111904985Y-107360360D01*
X111870023Y-107356365D01*
X111825981Y-107352889D01*
X111771724Y-107349898D01*
X111706117Y-107347354D01*
X111628024Y-107345223D01*
X111536310Y-107343468D01*
X111429840Y-107342055D01*
X111388973Y-107341685D01*
X111388973Y-107708116D01*
X111388973Y-109003266D01*
X111351217Y-108978345D01*
X111312417Y-108953553D01*
X111275469Y-108932560D01*
X111237788Y-108915065D01*
X111196788Y-108900770D01*
X111149883Y-108889377D01*
X111094487Y-108880587D01*
X111028016Y-108874102D01*
X110947883Y-108869623D01*
X110851502Y-108866850D01*
X110736289Y-108865487D01*
X110599657Y-108865233D01*
X110439020Y-108865791D01*
X110379382Y-108866107D01*
X109740041Y-108869675D01*
X110291449Y-109274702D01*
X110447876Y-109389446D01*
X110584088Y-109488857D01*
X110701890Y-109574010D01*
X110803084Y-109645978D01*
X110889477Y-109705834D01*
X110962874Y-109754652D01*
X111025077Y-109793505D01*
X111077893Y-109823466D01*
X111123125Y-109845609D01*
X111162578Y-109861007D01*
X111198058Y-109870734D01*
X111231368Y-109875863D01*
X111264313Y-109877468D01*
X111298697Y-109876621D01*
X111303019Y-109876405D01*
X111389031Y-109871946D01*
X111388973Y-111291308D01*
X111282522Y-111185735D01*
X111253406Y-111157087D01*
X111225076Y-111129910D01*
X111195968Y-111103011D01*
X111164520Y-111075197D01*
X111129169Y-111045275D01*
X111088354Y-111012054D01*
X111040511Y-110974339D01*
X110984079Y-110930940D01*
X110917494Y-110880662D01*
X110839195Y-110822312D01*
X110747619Y-110754700D01*
X110641204Y-110676631D01*
X110518387Y-110586912D01*
X110377605Y-110484352D01*
X110217297Y-110367758D01*
X110085798Y-110272191D01*
X109920596Y-110152251D01*
X109776152Y-110047620D01*
X109651094Y-109957352D01*
X109544052Y-109880497D01*
X109453654Y-109816109D01*
X109378529Y-109763239D01*
X109317304Y-109720940D01*
X109268610Y-109688264D01*
X109231074Y-109664262D01*
X109203325Y-109647987D01*
X109183992Y-109638492D01*
X109171703Y-109634827D01*
X109165242Y-109635929D01*
X109148048Y-109649276D01*
X109111655Y-109678134D01*
X109058224Y-109720760D01*
X108989919Y-109775415D01*
X108908903Y-109840356D01*
X108817340Y-109913842D01*
X108717392Y-109994132D01*
X108611224Y-110079485D01*
X108500997Y-110168160D01*
X108388876Y-110258414D01*
X108327244Y-110308056D01*
X108327244Y-111540627D01*
X108419919Y-111591854D01*
X108512595Y-111643081D01*
X111203622Y-111643081D01*
X111296298Y-111591854D01*
X111388973Y-111540627D01*
X111388973Y-112146604D01*
X111388931Y-112291266D01*
X111388741Y-112410756D01*
X111388308Y-112507358D01*
X111387536Y-112583358D01*
X111386330Y-112641043D01*
X111384594Y-112682699D01*
X111382232Y-112710611D01*
X111379150Y-112727065D01*
X111375251Y-112734348D01*
X111370440Y-112734745D01*
X111364622Y-112730542D01*
X111364574Y-112730499D01*
X111339532Y-112713187D01*
X111298815Y-112690264D01*
X111258168Y-112670019D01*
X111176162Y-112631621D01*
X108327244Y-112623789D01*
X108327244Y-111540627D01*
X108327244Y-110308056D01*
X108277024Y-110348507D01*
X108167604Y-110436698D01*
X108062778Y-110521246D01*
X107964711Y-110600408D01*
X107875566Y-110672444D01*
X107797505Y-110735613D01*
X107732692Y-110788173D01*
X107683290Y-110828383D01*
X107654487Y-110852000D01*
X107546778Y-110943710D01*
X107449580Y-111031940D01*
X107366076Y-111113597D01*
X107299448Y-111185590D01*
X107258599Y-111236681D01*
X107215135Y-111297093D01*
X107215135Y-109907702D01*
X107296666Y-109908092D01*
X107356606Y-109904209D01*
X107412177Y-109889610D01*
X107464855Y-109867012D01*
X107494615Y-109852322D01*
X107524103Y-109836528D01*
X107555276Y-109818186D01*
X107590093Y-109795855D01*
X107630510Y-109768091D01*
X107678486Y-109733451D01*
X107735978Y-109690493D01*
X107804943Y-109637773D01*
X107887339Y-109573849D01*
X107985124Y-109497279D01*
X108100255Y-109406619D01*
X108234690Y-109300426D01*
X108249859Y-109288432D01*
X108779412Y-108869675D01*
X108192922Y-108865622D01*
X108017251Y-108864805D01*
X107868532Y-108864979D01*
X107746275Y-108866151D01*
X107649989Y-108868331D01*
X107579183Y-108871526D01*
X107533369Y-108875744D01*
X107524679Y-108877162D01*
X107433135Y-108899409D01*
X107350608Y-108928557D01*
X107284253Y-108961818D01*
X107256110Y-108981800D01*
X107215135Y-109016278D01*
X107215135Y-108362086D01*
X107215269Y-108206031D01*
X107215703Y-108075533D01*
X107216489Y-107968690D01*
X107217676Y-107883602D01*
X107219317Y-107818365D01*
X107221461Y-107771079D01*
X107224159Y-107739843D01*
X107227462Y-107722754D01*
X107231421Y-107717912D01*
X107232298Y-107718247D01*
X107253231Y-107732115D01*
X107286412Y-107755268D01*
X107303193Y-107767246D01*
X107319940Y-107779631D01*
X107334915Y-107790763D01*
X107349594Y-107800712D01*
X107365449Y-107809549D01*
X107383955Y-107817343D01*
X107406585Y-107824165D01*
X107434813Y-107830084D01*
X107470113Y-107835171D01*
X107513958Y-107839496D01*
X107567822Y-107843129D01*
X107633180Y-107846140D01*
X107711504Y-107848599D01*
X107804268Y-107850577D01*
X107912947Y-107852142D01*
X108039013Y-107853366D01*
X108183942Y-107854319D01*
X108349206Y-107855070D01*
X108536279Y-107855689D01*
X108746635Y-107856248D01*
X108981748Y-107856815D01*
X109197741Y-107857345D01*
X109438535Y-107857845D01*
X109668274Y-107858105D01*
X109885493Y-107858132D01*
X110088722Y-107857933D01*
X110276496Y-107857514D01*
X110447345Y-107856882D01*
X110599803Y-107856044D01*
X110732403Y-107855008D01*
X110843676Y-107853780D01*
X110932156Y-107852367D01*
X110996375Y-107850775D01*
X111034865Y-107849013D01*
X111038933Y-107848679D01*
X111132248Y-107836534D01*
X111207190Y-107817573D01*
X111272594Y-107788698D01*
X111337293Y-107746810D01*
X111344352Y-107741571D01*
X111388973Y-107708116D01*
X111388973Y-107341685D01*
X111307479Y-107340946D01*
X111168090Y-107340107D01*
X111010539Y-107339502D01*
X110833691Y-107339095D01*
X110636410Y-107338850D01*
X110417560Y-107338733D01*
X110176007Y-107338705D01*
X109910615Y-107338733D01*
X109620249Y-107338780D01*
X109303773Y-107338810D01*
X109240946Y-107338811D01*
X108921137Y-107338828D01*
X108627661Y-107338888D01*
X108359390Y-107338998D01*
X108115198Y-107339167D01*
X107893957Y-107339403D01*
X107694540Y-107339716D01*
X107515820Y-107340115D01*
X107356671Y-107340607D01*
X107215966Y-107341203D01*
X107092576Y-107341910D01*
X106985376Y-107342737D01*
X106893238Y-107343693D01*
X106815035Y-107344787D01*
X106749641Y-107346027D01*
X106695928Y-107347422D01*
X106652769Y-107348982D01*
X106619037Y-107350714D01*
X106593605Y-107352628D01*
X106575347Y-107354732D01*
X106563134Y-107357034D01*
X106555841Y-107359545D01*
X106555659Y-107359637D01*
X106544518Y-107364808D01*
X106534431Y-107369115D01*
X106525346Y-107373879D01*
X106517212Y-107380422D01*
X106509976Y-107390065D01*
X106503586Y-107404129D01*
X106497989Y-107423937D01*
X106493133Y-107450809D01*
X106488966Y-107486067D01*
X106485436Y-107531032D01*
X106482491Y-107587026D01*
X106480077Y-107655371D01*
X106478144Y-107737386D01*
X106476638Y-107834395D01*
X106475508Y-107947718D01*
X106474702Y-108078677D01*
X106474166Y-108228593D01*
X106473849Y-108398787D01*
X106473699Y-108590582D01*
X106473663Y-108805298D01*
X106473689Y-109044257D01*
G37*
X106473689Y-109044257D02*
X106473725Y-109308780D01*
X106473730Y-109431912D01*
X106473730Y-111402811D01*
X106589910Y-111402811D01*
X106731291Y-111415211D01*
X106861684Y-111452636D01*
X106981862Y-111515423D01*
X107092602Y-111603906D01*
X107122511Y-111633843D01*
X107207348Y-111741534D01*
X107269221Y-111860275D01*
X107308159Y-111986540D01*
X107324190Y-112116803D01*
X107317342Y-112247535D01*
X107287643Y-112375212D01*
X107235120Y-112496305D01*
X107159803Y-112607288D01*
X107114363Y-112657132D01*
X107002952Y-112750017D01*
X106880435Y-112818127D01*
X106748215Y-112860871D01*
X106607692Y-112877653D01*
X106593867Y-112877876D01*
X106473734Y-112878756D01*
X106473732Y-112931557D01*
X106480089Y-112978396D01*
X106495556Y-113021183D01*
X106497154Y-113024011D01*
X106502168Y-113033675D01*
X106506073Y-113042549D01*
X106510007Y-113050665D01*
X106515106Y-113058057D01*
X106522508Y-113064755D01*
X106533351Y-113070792D01*
X106548772Y-113076199D01*
X106569909Y-113081010D01*
X106597899Y-113085255D01*
X106633879Y-113088968D01*
X106678987Y-113092179D01*
X106734360Y-113094922D01*
X106801137Y-113097228D01*
X106880453Y-113099129D01*
X106973447Y-113100658D01*
X107081257Y-113101846D01*
X107205019Y-113102726D01*
X107345871Y-113103330D01*
X107504950Y-113103689D01*
X107683395Y-113103835D01*
X107882342Y-113103802D01*
X108102929Y-113103620D01*
X108346293Y-113103323D01*
X108613572Y-113102941D01*
X108905903Y-113102508D01*
X109224424Y-113102055D01*
X109263230Y-113102002D01*
X109583782Y-113101596D01*
X109878012Y-113101251D01*
X110147056Y-113100931D01*
X110392052Y-113100600D01*
X110614137Y-113100221D01*
X110814447Y-113099757D01*
X110994119Y-113099172D01*
X111154290Y-113098430D01*
X111296098Y-113097494D01*
X111420679Y-113096327D01*
X111529170Y-113094893D01*
X111622707Y-113093156D01*
X111702429Y-113091078D01*
X111769472Y-113088624D01*
X111824973Y-113085756D01*
X111870068Y-113082439D01*
X111905895Y-113078636D01*
X111933591Y-113074310D01*
X111954293Y-113069425D01*
X111969137Y-113063945D01*
X111979260Y-113057832D01*
X111985800Y-113051050D01*
X111989893Y-113043563D01*
X111992676Y-113035334D01*
X111995287Y-113026327D01*
X111998862Y-113016505D01*
X111999950Y-113014106D01*
X112002396Y-113006565D01*
X112004642Y-112993944D01*
X112006698Y-112975141D01*
X112008572Y-112949053D01*
X112010271Y-112914578D01*
X112011803Y-112870615D01*
X112013177Y-112816061D01*
X112014400Y-112749815D01*
X112015481Y-112670774D01*
X112016427Y-112577837D01*
X112017247Y-112469901D01*
X112017947Y-112345864D01*
X112018538Y-112204624D01*
X112019025Y-112045079D01*
X112019419Y-111866128D01*
X112019725Y-111666668D01*
X112019953Y-111445596D01*
X112020110Y-111201812D01*
X112020205Y-110934213D01*
X112020245Y-110641697D01*
X112020238Y-110323161D01*
X112020228Y-110219979D01*
X112020176Y-109894377D01*
X112020091Y-109595119D01*
X112019963Y-109321091D01*
X112019785Y-109071176D01*
X112019548Y-108844260D01*
X112019242Y-108639227D01*
X112018860Y-108454962D01*
X112018392Y-108290350D01*
X112017830Y-108144275D01*
X112017165Y-108015624D01*
X112016388Y-107903279D01*
X112015491Y-107806126D01*
X112014465Y-107723050D01*
X112013301Y-107652936D01*
X112011991Y-107594668D01*
X112010525Y-107547131D01*
X112008896Y-107509210D01*
X112007093Y-107479790D01*
X112005110Y-107457755D01*
X112002936Y-107441990D01*
X112000563Y-107431380D01*
X111998391Y-107425596D01*
X111994056Y-107415316D01*
X111990859Y-107405878D01*
X111987665Y-107397245D01*
X111983338Y-107389381D01*
X111976744Y-107382252D01*
X111966747Y-107375821D01*
X111952212Y-107370053D01*
X111932003Y-107364911D01*
X111904985Y-107360360D01*
X111870023Y-107356365D01*
X111825981Y-107352889D01*
X111771724Y-107349898D01*
X111706117Y-107347354D01*
X111628024Y-107345223D01*
X111536310Y-107343468D01*
X111429840Y-107342055D01*
X111388973Y-107341685D01*
X111388973Y-107708116D01*
X111388973Y-109003266D01*
X111351217Y-108978345D01*
X111312417Y-108953553D01*
X111275469Y-108932560D01*
X111237788Y-108915065D01*
X111196788Y-108900770D01*
X111149883Y-108889377D01*
X111094487Y-108880587D01*
X111028016Y-108874102D01*
X110947883Y-108869623D01*
X110851502Y-108866850D01*
X110736289Y-108865487D01*
X110599657Y-108865233D01*
X110439020Y-108865791D01*
X110379382Y-108866107D01*
X109740041Y-108869675D01*
X110291449Y-109274702D01*
X110447876Y-109389446D01*
X110584088Y-109488857D01*
X110701890Y-109574010D01*
X110803084Y-109645978D01*
X110889477Y-109705834D01*
X110962874Y-109754652D01*
X111025077Y-109793505D01*
X111077893Y-109823466D01*
X111123125Y-109845609D01*
X111162578Y-109861007D01*
X111198058Y-109870734D01*
X111231368Y-109875863D01*
X111264313Y-109877468D01*
X111298697Y-109876621D01*
X111303019Y-109876405D01*
X111389031Y-109871946D01*
X111388973Y-111291308D01*
X111282522Y-111185735D01*
X111253406Y-111157087D01*
X111225076Y-111129910D01*
X111195968Y-111103011D01*
X111164520Y-111075197D01*
X111129169Y-111045275D01*
X111088354Y-111012054D01*
X111040511Y-110974339D01*
X110984079Y-110930940D01*
X110917494Y-110880662D01*
X110839195Y-110822312D01*
X110747619Y-110754700D01*
X110641204Y-110676631D01*
X110518387Y-110586912D01*
X110377605Y-110484352D01*
X110217297Y-110367758D01*
X110085798Y-110272191D01*
X109920596Y-110152251D01*
X109776152Y-110047620D01*
X109651094Y-109957352D01*
X109544052Y-109880497D01*
X109453654Y-109816109D01*
X109378529Y-109763239D01*
X109317304Y-109720940D01*
X109268610Y-109688264D01*
X109231074Y-109664262D01*
X109203325Y-109647987D01*
X109183992Y-109638492D01*
X109171703Y-109634827D01*
X109165242Y-109635929D01*
X109148048Y-109649276D01*
X109111655Y-109678134D01*
X109058224Y-109720760D01*
X108989919Y-109775415D01*
X108908903Y-109840356D01*
X108817340Y-109913842D01*
X108717392Y-109994132D01*
X108611224Y-110079485D01*
X108500997Y-110168160D01*
X108388876Y-110258414D01*
X108327244Y-110308056D01*
X108327244Y-111540627D01*
X108419919Y-111591854D01*
X108512595Y-111643081D01*
X111203622Y-111643081D01*
X111296298Y-111591854D01*
X111388973Y-111540627D01*
X111388973Y-112146604D01*
X111388931Y-112291266D01*
X111388741Y-112410756D01*
X111388308Y-112507358D01*
X111387536Y-112583358D01*
X111386330Y-112641043D01*
X111384594Y-112682699D01*
X111382232Y-112710611D01*
X111379150Y-112727065D01*
X111375251Y-112734348D01*
X111370440Y-112734745D01*
X111364622Y-112730542D01*
X111364574Y-112730499D01*
X111339532Y-112713187D01*
X111298815Y-112690264D01*
X111258168Y-112670019D01*
X111176162Y-112631621D01*
X108327244Y-112623789D01*
X108327244Y-111540627D01*
X108327244Y-110308056D01*
X108277024Y-110348507D01*
X108167604Y-110436698D01*
X108062778Y-110521246D01*
X107964711Y-110600408D01*
X107875566Y-110672444D01*
X107797505Y-110735613D01*
X107732692Y-110788173D01*
X107683290Y-110828383D01*
X107654487Y-110852000D01*
X107546778Y-110943710D01*
X107449580Y-111031940D01*
X107366076Y-111113597D01*
X107299448Y-111185590D01*
X107258599Y-111236681D01*
X107215135Y-111297093D01*
X107215135Y-109907702D01*
X107296666Y-109908092D01*
X107356606Y-109904209D01*
X107412177Y-109889610D01*
X107464855Y-109867012D01*
X107494615Y-109852322D01*
X107524103Y-109836528D01*
X107555276Y-109818186D01*
X107590093Y-109795855D01*
X107630510Y-109768091D01*
X107678486Y-109733451D01*
X107735978Y-109690493D01*
X107804943Y-109637773D01*
X107887339Y-109573849D01*
X107985124Y-109497279D01*
X108100255Y-109406619D01*
X108234690Y-109300426D01*
X108249859Y-109288432D01*
X108779412Y-108869675D01*
X108192922Y-108865622D01*
X108017251Y-108864805D01*
X107868532Y-108864979D01*
X107746275Y-108866151D01*
X107649989Y-108868331D01*
X107579183Y-108871526D01*
X107533369Y-108875744D01*
X107524679Y-108877162D01*
X107433135Y-108899409D01*
X107350608Y-108928557D01*
X107284253Y-108961818D01*
X107256110Y-108981800D01*
X107215135Y-109016278D01*
X107215135Y-108362086D01*
X107215269Y-108206031D01*
X107215703Y-108075533D01*
X107216489Y-107968690D01*
X107217676Y-107883602D01*
X107219317Y-107818365D01*
X107221461Y-107771079D01*
X107224159Y-107739843D01*
X107227462Y-107722754D01*
X107231421Y-107717912D01*
X107232298Y-107718247D01*
X107253231Y-107732115D01*
X107286412Y-107755268D01*
X107303193Y-107767246D01*
X107319940Y-107779631D01*
X107334915Y-107790763D01*
X107349594Y-107800712D01*
X107365449Y-107809549D01*
X107383955Y-107817343D01*
X107406585Y-107824165D01*
X107434813Y-107830084D01*
X107470113Y-107835171D01*
X107513958Y-107839496D01*
X107567822Y-107843129D01*
X107633180Y-107846140D01*
X107711504Y-107848599D01*
X107804268Y-107850577D01*
X107912947Y-107852142D01*
X108039013Y-107853366D01*
X108183942Y-107854319D01*
X108349206Y-107855070D01*
X108536279Y-107855689D01*
X108746635Y-107856248D01*
X108981748Y-107856815D01*
X109197741Y-107857345D01*
X109438535Y-107857845D01*
X109668274Y-107858105D01*
X109885493Y-107858132D01*
X110088722Y-107857933D01*
X110276496Y-107857514D01*
X110447345Y-107856882D01*
X110599803Y-107856044D01*
X110732403Y-107855008D01*
X110843676Y-107853780D01*
X110932156Y-107852367D01*
X110996375Y-107850775D01*
X111034865Y-107849013D01*
X111038933Y-107848679D01*
X111132248Y-107836534D01*
X111207190Y-107817573D01*
X111272594Y-107788698D01*
X111337293Y-107746810D01*
X111344352Y-107741571D01*
X111388973Y-107708116D01*
X111388973Y-107341685D01*
X111307479Y-107340946D01*
X111168090Y-107340107D01*
X111010539Y-107339502D01*
X110833691Y-107339095D01*
X110636410Y-107338850D01*
X110417560Y-107338733D01*
X110176007Y-107338705D01*
X109910615Y-107338733D01*
X109620249Y-107338780D01*
X109303773Y-107338810D01*
X109240946Y-107338811D01*
X108921137Y-107338828D01*
X108627661Y-107338888D01*
X108359390Y-107338998D01*
X108115198Y-107339167D01*
X107893957Y-107339403D01*
X107694540Y-107339716D01*
X107515820Y-107340115D01*
X107356671Y-107340607D01*
X107215966Y-107341203D01*
X107092576Y-107341910D01*
X106985376Y-107342737D01*
X106893238Y-107343693D01*
X106815035Y-107344787D01*
X106749641Y-107346027D01*
X106695928Y-107347422D01*
X106652769Y-107348982D01*
X106619037Y-107350714D01*
X106593605Y-107352628D01*
X106575347Y-107354732D01*
X106563134Y-107357034D01*
X106555841Y-107359545D01*
X106555659Y-107359637D01*
X106544518Y-107364808D01*
X106534431Y-107369115D01*
X106525346Y-107373879D01*
X106517212Y-107380422D01*
X106509976Y-107390065D01*
X106503586Y-107404129D01*
X106497989Y-107423937D01*
X106493133Y-107450809D01*
X106488966Y-107486067D01*
X106485436Y-107531032D01*
X106482491Y-107587026D01*
X106480077Y-107655371D01*
X106478144Y-107737386D01*
X106476638Y-107834395D01*
X106475508Y-107947718D01*
X106474702Y-108078677D01*
X106474166Y-108228593D01*
X106473849Y-108398787D01*
X106473699Y-108590582D01*
X106473663Y-108805298D01*
X106473689Y-109044257D01*
G36*
X107160499Y-115439962D02*
G01*
X107176707Y-115588014D01*
X107205718Y-115731452D01*
X107249045Y-115876110D01*
X107308201Y-116027824D01*
X107384700Y-116192428D01*
X107399517Y-116222071D01*
X107433031Y-116290098D01*
X107463208Y-116354256D01*
X107487166Y-116408215D01*
X107502024Y-116445640D01*
X107503895Y-116451389D01*
X107520402Y-116506486D01*
X107879201Y-116259851D01*
X107966893Y-116199552D01*
X108047012Y-116144422D01*
X108116836Y-116096336D01*
X108173647Y-116057168D01*
X108214723Y-116028794D01*
X108237346Y-116013087D01*
X108240928Y-116010536D01*
X108233438Y-116000171D01*
X108210918Y-115974660D01*
X108177461Y-115938563D01*
X108158550Y-115918642D01*
X108068778Y-115805773D01*
X108000561Y-115679014D01*
X107963195Y-115569783D01*
X107951460Y-115504214D01*
X107944308Y-115422116D01*
X107941874Y-115333144D01*
X107944288Y-115246956D01*
X107951683Y-115173205D01*
X107957347Y-115143776D01*
X108002982Y-115011133D01*
X108072663Y-114891606D01*
X108166260Y-114785283D01*
X108283649Y-114692253D01*
X108424700Y-114612605D01*
X108589286Y-114546426D01*
X108777280Y-114493806D01*
X108938217Y-114462533D01*
X109009263Y-114454374D01*
X109101046Y-114448815D01*
X109206968Y-114445802D01*
X109320434Y-114445281D01*
X109434849Y-114447200D01*
X109543617Y-114451503D01*
X109640143Y-114458137D01*
X109717831Y-114467049D01*
X109729817Y-114468979D01*
X109922892Y-114511499D01*
X110093773Y-114569433D01*
X110243224Y-114643133D01*
X110372011Y-114732951D01*
X110441639Y-114796707D01*
X110536173Y-114911286D01*
X110606246Y-115036942D01*
X110651477Y-115171557D01*
X110671484Y-115313011D01*
X110665885Y-115459183D01*
X110634300Y-115607955D01*
X110603394Y-115695911D01*
X110541506Y-115817629D01*
X110452729Y-115943080D01*
X110392694Y-116013353D01*
X110357947Y-116052811D01*
X110332454Y-116083812D01*
X110320170Y-116101458D01*
X110319795Y-116103648D01*
X110332347Y-116111524D01*
X110365516Y-116131932D01*
X110416458Y-116163132D01*
X110482331Y-116203386D01*
X110560289Y-116250957D01*
X110647490Y-116304104D01*
X110696067Y-116333687D01*
X111067215Y-116559648D01*
X111206639Y-116277527D01*
X111256719Y-116175522D01*
X111296210Y-116092889D01*
X111327073Y-116024578D01*
X111351268Y-115965537D01*
X111370758Y-115910714D01*
X111387503Y-115855060D01*
X111403465Y-115793523D01*
X111417482Y-115734540D01*
X111428329Y-115682115D01*
X111436526Y-115627288D01*
X111442528Y-115564572D01*
X111446790Y-115488477D01*
X111449767Y-115393516D01*
X111451052Y-115329513D01*
X111451930Y-115238192D01*
X111451487Y-115150627D01*
X111449852Y-115072612D01*
X111447149Y-115009942D01*
X111443505Y-114968413D01*
X111443142Y-114965952D01*
X111396487Y-114750303D01*
X111325729Y-114547793D01*
X111230914Y-114358495D01*
X111112089Y-114182479D01*
X110969300Y-114019816D01*
X110802594Y-113870578D01*
X110654433Y-113762496D01*
X110460502Y-113647434D01*
X110255699Y-113554423D01*
X110038383Y-113483013D01*
X109806912Y-113432756D01*
X109559643Y-113403201D01*
X109308559Y-113393889D01*
X109065670Y-113401548D01*
X108841570Y-113425613D01*
X108632477Y-113466852D01*
X108434613Y-113526027D01*
X108244196Y-113603904D01*
X108224468Y-113613203D01*
X108040059Y-113715648D01*
X107864576Y-113841472D01*
X107701650Y-113987112D01*
X107554914Y-114149001D01*
X107428001Y-114323576D01*
X107334905Y-114486244D01*
X107261991Y-114650573D01*
X107209174Y-114815251D01*
X107175015Y-114986652D01*
X107158078Y-115171153D01*
X107155580Y-115281459D01*
X107160499Y-115439962D01*
G37*
X107160499Y-115439962D02*
X107176707Y-115588014D01*
X107205718Y-115731452D01*
X107249045Y-115876110D01*
X107308201Y-116027824D01*
X107384700Y-116192428D01*
X107399517Y-116222071D01*
X107433031Y-116290098D01*
X107463208Y-116354256D01*
X107487166Y-116408215D01*
X107502024Y-116445640D01*
X107503895Y-116451389D01*
X107520402Y-116506486D01*
X107879201Y-116259851D01*
X107966893Y-116199552D01*
X108047012Y-116144422D01*
X108116836Y-116096336D01*
X108173647Y-116057168D01*
X108214723Y-116028794D01*
X108237346Y-116013087D01*
X108240928Y-116010536D01*
X108233438Y-116000171D01*
X108210918Y-115974660D01*
X108177461Y-115938563D01*
X108158550Y-115918642D01*
X108068778Y-115805773D01*
X108000561Y-115679014D01*
X107963195Y-115569783D01*
X107951460Y-115504214D01*
X107944308Y-115422116D01*
X107941874Y-115333144D01*
X107944288Y-115246956D01*
X107951683Y-115173205D01*
X107957347Y-115143776D01*
X108002982Y-115011133D01*
X108072663Y-114891606D01*
X108166260Y-114785283D01*
X108283649Y-114692253D01*
X108424700Y-114612605D01*
X108589286Y-114546426D01*
X108777280Y-114493806D01*
X108938217Y-114462533D01*
X109009263Y-114454374D01*
X109101046Y-114448815D01*
X109206968Y-114445802D01*
X109320434Y-114445281D01*
X109434849Y-114447200D01*
X109543617Y-114451503D01*
X109640143Y-114458137D01*
X109717831Y-114467049D01*
X109729817Y-114468979D01*
X109922892Y-114511499D01*
X110093773Y-114569433D01*
X110243224Y-114643133D01*
X110372011Y-114732951D01*
X110441639Y-114796707D01*
X110536173Y-114911286D01*
X110606246Y-115036942D01*
X110651477Y-115171557D01*
X110671484Y-115313011D01*
X110665885Y-115459183D01*
X110634300Y-115607955D01*
X110603394Y-115695911D01*
X110541506Y-115817629D01*
X110452729Y-115943080D01*
X110392694Y-116013353D01*
X110357947Y-116052811D01*
X110332454Y-116083812D01*
X110320170Y-116101458D01*
X110319795Y-116103648D01*
X110332347Y-116111524D01*
X110365516Y-116131932D01*
X110416458Y-116163132D01*
X110482331Y-116203386D01*
X110560289Y-116250957D01*
X110647490Y-116304104D01*
X110696067Y-116333687D01*
X111067215Y-116559648D01*
X111206639Y-116277527D01*
X111256719Y-116175522D01*
X111296210Y-116092889D01*
X111327073Y-116024578D01*
X111351268Y-115965537D01*
X111370758Y-115910714D01*
X111387503Y-115855060D01*
X111403465Y-115793523D01*
X111417482Y-115734540D01*
X111428329Y-115682115D01*
X111436526Y-115627288D01*
X111442528Y-115564572D01*
X111446790Y-115488477D01*
X111449767Y-115393516D01*
X111451052Y-115329513D01*
X111451930Y-115238192D01*
X111451487Y-115150627D01*
X111449852Y-115072612D01*
X111447149Y-115009942D01*
X111443505Y-114968413D01*
X111443142Y-114965952D01*
X111396487Y-114750303D01*
X111325729Y-114547793D01*
X111230914Y-114358495D01*
X111112089Y-114182479D01*
X110969300Y-114019816D01*
X110802594Y-113870578D01*
X110654433Y-113762496D01*
X110460502Y-113647434D01*
X110255699Y-113554423D01*
X110038383Y-113483013D01*
X109806912Y-113432756D01*
X109559643Y-113403201D01*
X109308559Y-113393889D01*
X109065670Y-113401548D01*
X108841570Y-113425613D01*
X108632477Y-113466852D01*
X108434613Y-113526027D01*
X108244196Y-113603904D01*
X108224468Y-113613203D01*
X108040059Y-113715648D01*
X107864576Y-113841472D01*
X107701650Y-113987112D01*
X107554914Y-114149001D01*
X107428001Y-114323576D01*
X107334905Y-114486244D01*
X107261991Y-114650573D01*
X107209174Y-114815251D01*
X107175015Y-114986652D01*
X107158078Y-115171153D01*
X107155580Y-115281459D01*
X107160499Y-115439962D01*
G36*
X108264229Y-118167505D02*
G01*
X108269378Y-118235531D01*
X108295273Y-118430163D01*
X108336575Y-118602529D01*
X108393853Y-118753470D01*
X108467674Y-118883825D01*
X108558608Y-118994434D01*
X108667222Y-119086135D01*
X108794085Y-119159770D01*
X108931352Y-119213539D01*
X108975137Y-119227187D01*
X109016141Y-119239073D01*
X109056569Y-119249334D01*
X109098630Y-119258113D01*
X109144531Y-119265548D01*
X109196480Y-119271780D01*
X109256685Y-119276950D01*
X109327352Y-119281196D01*
X109410689Y-119284660D01*
X109508905Y-119287481D01*
X109624205Y-119289800D01*
X109758799Y-119291757D01*
X109914893Y-119293491D01*
X110094695Y-119295143D01*
X110235676Y-119296324D01*
X111203622Y-119304270D01*
X111296770Y-119355756D01*
X111341645Y-119380137D01*
X111376501Y-119398280D01*
X111395054Y-119406935D01*
X111396311Y-119407243D01*
X111397749Y-119394014D01*
X111399074Y-119356326D01*
X111400249Y-119297183D01*
X111401237Y-119219586D01*
X111401999Y-119126536D01*
X111402500Y-119021035D01*
X111402701Y-118906084D01*
X111402703Y-118892378D01*
X111402703Y-118377513D01*
X111286000Y-118377513D01*
X111233260Y-118376635D01*
X111192926Y-118374292D01*
X111171300Y-118370921D01*
X111169298Y-118369431D01*
X111177683Y-118355804D01*
X111199692Y-118327757D01*
X111230601Y-118291303D01*
X111231316Y-118290485D01*
X111280843Y-118223962D01*
X111330575Y-118139948D01*
X111375626Y-118047937D01*
X111411110Y-117957421D01*
X111423236Y-117917567D01*
X111438637Y-117838255D01*
X111448465Y-117740935D01*
X111452580Y-117634516D01*
X111450841Y-117527907D01*
X111443108Y-117430017D01*
X111431981Y-117361513D01*
X111382648Y-117193520D01*
X111312342Y-117042281D01*
X111221933Y-116908782D01*
X111112295Y-116794006D01*
X110984299Y-116698937D01*
X110838818Y-116624560D01*
X110750541Y-116592474D01*
X110664739Y-116572365D01*
X110561736Y-116559038D01*
X110451034Y-116552872D01*
X110434925Y-116553074D01*
X110434925Y-117481648D01*
X110517184Y-117489348D01*
X110585546Y-117514989D01*
X110648970Y-117562378D01*
X110667567Y-117580579D01*
X110717846Y-117645282D01*
X110750056Y-117720066D01*
X110765648Y-117809662D01*
X110766796Y-117904012D01*
X110759216Y-117993501D01*
X110744389Y-118062018D01*
X110733253Y-118091775D01*
X110702904Y-118145408D01*
X110660221Y-118202235D01*
X110612317Y-118254082D01*
X110566301Y-118292778D01*
X110549421Y-118303054D01*
X110525782Y-118311042D01*
X110488168Y-118316721D01*
X110432985Y-118320356D01*
X110356640Y-118322211D01*
X110283981Y-118322594D01*
X110199270Y-118322335D01*
X110138018Y-118321287D01*
X110096227Y-118319045D01*
X110069899Y-118315206D01*
X110055035Y-118309365D01*
X110047639Y-118301118D01*
X110046461Y-118298567D01*
X110042833Y-118276400D01*
X110039866Y-118232680D01*
X110037827Y-118173311D01*
X110036983Y-118104196D01*
X110036982Y-118089189D01*
X110038457Y-117996805D01*
X110042842Y-117925432D01*
X110050738Y-117868719D01*
X110062270Y-117821872D01*
X110106215Y-117705669D01*
X110160243Y-117614543D01*
X110225219Y-117547705D01*
X110302005Y-117504365D01*
X110391467Y-117483734D01*
X110434925Y-117481648D01*
X110434925Y-116553074D01*
X110342133Y-116554244D01*
X110244536Y-116563532D01*
X110205105Y-116570777D01*
X110058701Y-116617039D01*
X109923995Y-116687384D01*
X109802280Y-116780484D01*
X109694847Y-116895012D01*
X109602988Y-117029640D01*
X109527996Y-117183040D01*
X109482458Y-117313459D01*
X109458533Y-117400623D01*
X109439943Y-117483996D01*
X109426084Y-117568976D01*
X109416351Y-117660965D01*
X109410141Y-117765362D01*
X109406851Y-117887568D01*
X109405924Y-117998055D01*
X109405027Y-118325677D01*
X109306547Y-118319401D01*
X109199695Y-118301579D01*
X109107852Y-118263667D01*
X109033310Y-118207280D01*
X108978364Y-118134031D01*
X108951552Y-118069535D01*
X108934654Y-117977123D01*
X108932227Y-117867111D01*
X108943378Y-117744656D01*
X108967210Y-117614914D01*
X109002830Y-117483042D01*
X109049343Y-117354198D01*
X109091883Y-117260566D01*
X109113728Y-117215517D01*
X109128984Y-117181156D01*
X109134937Y-117163681D01*
X109134746Y-117162733D01*
X109121412Y-117156703D01*
X109086068Y-117141645D01*
X109032101Y-117118977D01*
X108962896Y-117090115D01*
X108881840Y-117056477D01*
X108799118Y-117022284D01*
X108467803Y-116885586D01*
X108451833Y-116982820D01*
X108443820Y-117024964D01*
X108430361Y-117088319D01*
X108412679Y-117167457D01*
X108391996Y-117256951D01*
X108369532Y-117351373D01*
X108360403Y-117388973D01*
X108322674Y-117551637D01*
X108294388Y-117694050D01*
X108274972Y-117821527D01*
X108263854Y-117939384D01*
X108260464Y-118052938D01*
X108264229Y-118167505D01*
G37*
X108264229Y-118167505D02*
X108269378Y-118235531D01*
X108295273Y-118430163D01*
X108336575Y-118602529D01*
X108393853Y-118753470D01*
X108467674Y-118883825D01*
X108558608Y-118994434D01*
X108667222Y-119086135D01*
X108794085Y-119159770D01*
X108931352Y-119213539D01*
X108975137Y-119227187D01*
X109016141Y-119239073D01*
X109056569Y-119249334D01*
X109098630Y-119258113D01*
X109144531Y-119265548D01*
X109196480Y-119271780D01*
X109256685Y-119276950D01*
X109327352Y-119281196D01*
X109410689Y-119284660D01*
X109508905Y-119287481D01*
X109624205Y-119289800D01*
X109758799Y-119291757D01*
X109914893Y-119293491D01*
X110094695Y-119295143D01*
X110235676Y-119296324D01*
X111203622Y-119304270D01*
X111296770Y-119355756D01*
X111341645Y-119380137D01*
X111376501Y-119398280D01*
X111395054Y-119406935D01*
X111396311Y-119407243D01*
X111397749Y-119394014D01*
X111399074Y-119356326D01*
X111400249Y-119297183D01*
X111401237Y-119219586D01*
X111401999Y-119126536D01*
X111402500Y-119021035D01*
X111402701Y-118906084D01*
X111402703Y-118892378D01*
X111402703Y-118377513D01*
X111286000Y-118377513D01*
X111233260Y-118376635D01*
X111192926Y-118374292D01*
X111171300Y-118370921D01*
X111169298Y-118369431D01*
X111177683Y-118355804D01*
X111199692Y-118327757D01*
X111230601Y-118291303D01*
X111231316Y-118290485D01*
X111280843Y-118223962D01*
X111330575Y-118139948D01*
X111375626Y-118047937D01*
X111411110Y-117957421D01*
X111423236Y-117917567D01*
X111438637Y-117838255D01*
X111448465Y-117740935D01*
X111452580Y-117634516D01*
X111450841Y-117527907D01*
X111443108Y-117430017D01*
X111431981Y-117361513D01*
X111382648Y-117193520D01*
X111312342Y-117042281D01*
X111221933Y-116908782D01*
X111112295Y-116794006D01*
X110984299Y-116698937D01*
X110838818Y-116624560D01*
X110750541Y-116592474D01*
X110664739Y-116572365D01*
X110561736Y-116559038D01*
X110451034Y-116552872D01*
X110434925Y-116553074D01*
X110434925Y-117481648D01*
X110517184Y-117489348D01*
X110585546Y-117514989D01*
X110648970Y-117562378D01*
X110667567Y-117580579D01*
X110717846Y-117645282D01*
X110750056Y-117720066D01*
X110765648Y-117809662D01*
X110766796Y-117904012D01*
X110759216Y-117993501D01*
X110744389Y-118062018D01*
X110733253Y-118091775D01*
X110702904Y-118145408D01*
X110660221Y-118202235D01*
X110612317Y-118254082D01*
X110566301Y-118292778D01*
X110549421Y-118303054D01*
X110525782Y-118311042D01*
X110488168Y-118316721D01*
X110432985Y-118320356D01*
X110356640Y-118322211D01*
X110283981Y-118322594D01*
X110199270Y-118322335D01*
X110138018Y-118321287D01*
X110096227Y-118319045D01*
X110069899Y-118315206D01*
X110055035Y-118309365D01*
X110047639Y-118301118D01*
X110046461Y-118298567D01*
X110042833Y-118276400D01*
X110039866Y-118232680D01*
X110037827Y-118173311D01*
X110036983Y-118104196D01*
X110036982Y-118089189D01*
X110038457Y-117996805D01*
X110042842Y-117925432D01*
X110050738Y-117868719D01*
X110062270Y-117821872D01*
X110106215Y-117705669D01*
X110160243Y-117614543D01*
X110225219Y-117547705D01*
X110302005Y-117504365D01*
X110391467Y-117483734D01*
X110434925Y-117481648D01*
X110434925Y-116553074D01*
X110342133Y-116554244D01*
X110244536Y-116563532D01*
X110205105Y-116570777D01*
X110058701Y-116617039D01*
X109923995Y-116687384D01*
X109802280Y-116780484D01*
X109694847Y-116895012D01*
X109602988Y-117029640D01*
X109527996Y-117183040D01*
X109482458Y-117313459D01*
X109458533Y-117400623D01*
X109439943Y-117483996D01*
X109426084Y-117568976D01*
X109416351Y-117660965D01*
X109410141Y-117765362D01*
X109406851Y-117887568D01*
X109405924Y-117998055D01*
X109405027Y-118325677D01*
X109306547Y-118319401D01*
X109199695Y-118301579D01*
X109107852Y-118263667D01*
X109033310Y-118207280D01*
X108978364Y-118134031D01*
X108951552Y-118069535D01*
X108934654Y-117977123D01*
X108932227Y-117867111D01*
X108943378Y-117744656D01*
X108967210Y-117614914D01*
X109002830Y-117483042D01*
X109049343Y-117354198D01*
X109091883Y-117260566D01*
X109113728Y-117215517D01*
X109128984Y-117181156D01*
X109134937Y-117163681D01*
X109134746Y-117162733D01*
X109121412Y-117156703D01*
X109086068Y-117141645D01*
X109032101Y-117118977D01*
X108962896Y-117090115D01*
X108881840Y-117056477D01*
X108799118Y-117022284D01*
X108467803Y-116885586D01*
X108451833Y-116982820D01*
X108443820Y-117024964D01*
X108430361Y-117088319D01*
X108412679Y-117167457D01*
X108391996Y-117256951D01*
X108369532Y-117351373D01*
X108360403Y-117388973D01*
X108322674Y-117551637D01*
X108294388Y-117694050D01*
X108274972Y-117821527D01*
X108263854Y-117939384D01*
X108260464Y-118052938D01*
X108264229Y-118167505D01*
G36*
X106956825Y-121842270D02*
G01*
X106957304Y-121959041D01*
X106957545Y-121998729D01*
X106961135Y-122544486D01*
X109054919Y-122551351D01*
X109338842Y-122552258D01*
X109596640Y-122553062D01*
X109829646Y-122553815D01*
X110039194Y-122554569D01*
X110226618Y-122555375D01*
X110393250Y-122556285D01*
X110540425Y-122557351D01*
X110669477Y-122558624D01*
X110781739Y-122560156D01*
X110878544Y-122561998D01*
X110961226Y-122564203D01*
X111031119Y-122566822D01*
X111089557Y-122569906D01*
X111137872Y-122573508D01*
X111177400Y-122577678D01*
X111209473Y-122582469D01*
X111235424Y-122587931D01*
X111256589Y-122594118D01*
X111274299Y-122601080D01*
X111289889Y-122608869D01*
X111304693Y-122617537D01*
X111320044Y-122627135D01*
X111337276Y-122637715D01*
X111340946Y-122639884D01*
X111403031Y-122676268D01*
X111399434Y-122150431D01*
X111395838Y-121624594D01*
X111280331Y-121617729D01*
X111224899Y-121613992D01*
X111192851Y-121610097D01*
X111180135Y-121604811D01*
X111182696Y-121596903D01*
X111190024Y-121590270D01*
X111216714Y-121561374D01*
X111251021Y-121514279D01*
X111288846Y-121455620D01*
X111326090Y-121392031D01*
X111358653Y-121330149D01*
X111380077Y-121282634D01*
X111415283Y-121171316D01*
X111440222Y-121043596D01*
X111453941Y-120908901D01*
X111455486Y-120776663D01*
X111443906Y-120656308D01*
X111443574Y-120654326D01*
X111402250Y-120489641D01*
X111336412Y-120335479D01*
X111247474Y-120193328D01*
X111136852Y-120064675D01*
X111005961Y-119951007D01*
X110856216Y-119853810D01*
X110689033Y-119774572D01*
X110565190Y-119731430D01*
X110461581Y-119702979D01*
X110361252Y-119681880D01*
X110258109Y-119667488D01*
X110146057Y-119659158D01*
X110019001Y-119656245D01*
X109915252Y-119657535D01*
X109915252Y-120670650D01*
X110089222Y-120675444D01*
X110238895Y-120690568D01*
X110365597Y-120716485D01*
X110470658Y-120753663D01*
X110555406Y-120802565D01*
X110621169Y-120863658D01*
X110667659Y-120934177D01*
X110685014Y-120970871D01*
X110695419Y-121002696D01*
X110700179Y-121038177D01*
X110700601Y-121085841D01*
X110698748Y-121137189D01*
X110689841Y-121238169D01*
X110672398Y-121318035D01*
X110663661Y-121343135D01*
X110637857Y-121400448D01*
X110605453Y-121460897D01*
X110589233Y-121487297D01*
X110544205Y-121555946D01*
X109116982Y-121555946D01*
X109071718Y-121480432D01*
X109020572Y-121375121D01*
X108990324Y-121267525D01*
X108980795Y-121161581D01*
X108991807Y-121061224D01*
X109023181Y-120970387D01*
X109074740Y-120893007D01*
X109099488Y-120868039D01*
X109180577Y-120807856D01*
X109278734Y-120759145D01*
X109395643Y-120721499D01*
X109532985Y-120694512D01*
X109692444Y-120677775D01*
X109875700Y-120670883D01*
X109915252Y-120670650D01*
X109915252Y-119657535D01*
X109872067Y-119658073D01*
X109646053Y-119669647D01*
X109442192Y-119692920D01*
X109257513Y-119728504D01*
X109089048Y-119777013D01*
X108933826Y-119839060D01*
X108887808Y-119861201D01*
X108737739Y-119950385D01*
X108604377Y-120058159D01*
X108489877Y-120181990D01*
X108396389Y-120319342D01*
X108326068Y-120467683D01*
X108297060Y-120556604D01*
X108279840Y-120643933D01*
X108269594Y-120749011D01*
X108266318Y-120863029D01*
X108270009Y-120977177D01*
X108280660Y-121082648D01*
X108297370Y-121167334D01*
X108330140Y-121268128D01*
X108372279Y-121365822D01*
X108419519Y-121451296D01*
X108451581Y-121496789D01*
X108475422Y-121528169D01*
X108489939Y-121550142D01*
X108492000Y-121555141D01*
X108478718Y-121556690D01*
X108440663Y-121558135D01*
X108380519Y-121559443D01*
X108300973Y-121560583D01*
X108204711Y-121561521D01*
X108094419Y-121562226D01*
X107972781Y-121562667D01*
X107848885Y-121562811D01*
X107690196Y-121562730D01*
X107556408Y-121562335D01*
X107444960Y-121561395D01*
X107353295Y-121559680D01*
X107278853Y-121556957D01*
X107219075Y-121552997D01*
X107171402Y-121547569D01*
X107133274Y-121540441D01*
X107102134Y-121531384D01*
X107075421Y-121520167D01*
X107050577Y-121506558D01*
X107025043Y-121490328D01*
X107021881Y-121488240D01*
X106988810Y-121467306D01*
X106966069Y-121454667D01*
X106961272Y-121452973D01*
X106959759Y-121466216D01*
X106958528Y-121504002D01*
X106957599Y-121563416D01*
X106956992Y-121641542D01*
X106956727Y-121735465D01*
X106956825Y-121842270D01*
G37*
X106956825Y-121842270D02*
X106957304Y-121959041D01*
X106957545Y-121998729D01*
X106961135Y-122544486D01*
X109054919Y-122551351D01*
X109338842Y-122552258D01*
X109596640Y-122553062D01*
X109829646Y-122553815D01*
X110039194Y-122554569D01*
X110226618Y-122555375D01*
X110393250Y-122556285D01*
X110540425Y-122557351D01*
X110669477Y-122558624D01*
X110781739Y-122560156D01*
X110878544Y-122561998D01*
X110961226Y-122564203D01*
X111031119Y-122566822D01*
X111089557Y-122569906D01*
X111137872Y-122573508D01*
X111177400Y-122577678D01*
X111209473Y-122582469D01*
X111235424Y-122587931D01*
X111256589Y-122594118D01*
X111274299Y-122601080D01*
X111289889Y-122608869D01*
X111304693Y-122617537D01*
X111320044Y-122627135D01*
X111337276Y-122637715D01*
X111340946Y-122639884D01*
X111403031Y-122676268D01*
X111399434Y-122150431D01*
X111395838Y-121624594D01*
X111280331Y-121617729D01*
X111224899Y-121613992D01*
X111192851Y-121610097D01*
X111180135Y-121604811D01*
X111182696Y-121596903D01*
X111190024Y-121590270D01*
X111216714Y-121561374D01*
X111251021Y-121514279D01*
X111288846Y-121455620D01*
X111326090Y-121392031D01*
X111358653Y-121330149D01*
X111380077Y-121282634D01*
X111415283Y-121171316D01*
X111440222Y-121043596D01*
X111453941Y-120908901D01*
X111455486Y-120776663D01*
X111443906Y-120656308D01*
X111443574Y-120654326D01*
X111402250Y-120489641D01*
X111336412Y-120335479D01*
X111247474Y-120193328D01*
X111136852Y-120064675D01*
X111005961Y-119951007D01*
X110856216Y-119853810D01*
X110689033Y-119774572D01*
X110565190Y-119731430D01*
X110461581Y-119702979D01*
X110361252Y-119681880D01*
X110258109Y-119667488D01*
X110146057Y-119659158D01*
X110019001Y-119656245D01*
X109915252Y-119657535D01*
X109915252Y-120670650D01*
X110089222Y-120675444D01*
X110238895Y-120690568D01*
X110365597Y-120716485D01*
X110470658Y-120753663D01*
X110555406Y-120802565D01*
X110621169Y-120863658D01*
X110667659Y-120934177D01*
X110685014Y-120970871D01*
X110695419Y-121002696D01*
X110700179Y-121038177D01*
X110700601Y-121085841D01*
X110698748Y-121137189D01*
X110689841Y-121238169D01*
X110672398Y-121318035D01*
X110663661Y-121343135D01*
X110637857Y-121400448D01*
X110605453Y-121460897D01*
X110589233Y-121487297D01*
X110544205Y-121555946D01*
X109116982Y-121555946D01*
X109071718Y-121480432D01*
X109020572Y-121375121D01*
X108990324Y-121267525D01*
X108980795Y-121161581D01*
X108991807Y-121061224D01*
X109023181Y-120970387D01*
X109074740Y-120893007D01*
X109099488Y-120868039D01*
X109180577Y-120807856D01*
X109278734Y-120759145D01*
X109395643Y-120721499D01*
X109532985Y-120694512D01*
X109692444Y-120677775D01*
X109875700Y-120670883D01*
X109915252Y-120670650D01*
X109915252Y-119657535D01*
X109872067Y-119658073D01*
X109646053Y-119669647D01*
X109442192Y-119692920D01*
X109257513Y-119728504D01*
X109089048Y-119777013D01*
X108933826Y-119839060D01*
X108887808Y-119861201D01*
X108737739Y-119950385D01*
X108604377Y-120058159D01*
X108489877Y-120181990D01*
X108396389Y-120319342D01*
X108326068Y-120467683D01*
X108297060Y-120556604D01*
X108279840Y-120643933D01*
X108269594Y-120749011D01*
X108266318Y-120863029D01*
X108270009Y-120977177D01*
X108280660Y-121082648D01*
X108297370Y-121167334D01*
X108330140Y-121268128D01*
X108372279Y-121365822D01*
X108419519Y-121451296D01*
X108451581Y-121496789D01*
X108475422Y-121528169D01*
X108489939Y-121550142D01*
X108492000Y-121555141D01*
X108478718Y-121556690D01*
X108440663Y-121558135D01*
X108380519Y-121559443D01*
X108300973Y-121560583D01*
X108204711Y-121561521D01*
X108094419Y-121562226D01*
X107972781Y-121562667D01*
X107848885Y-121562811D01*
X107690196Y-121562730D01*
X107556408Y-121562335D01*
X107444960Y-121561395D01*
X107353295Y-121559680D01*
X107278853Y-121556957D01*
X107219075Y-121552997D01*
X107171402Y-121547569D01*
X107133274Y-121540441D01*
X107102134Y-121531384D01*
X107075421Y-121520167D01*
X107050577Y-121506558D01*
X107025043Y-121490328D01*
X107021881Y-121488240D01*
X106988810Y-121467306D01*
X106966069Y-121454667D01*
X106961272Y-121452973D01*
X106959759Y-121466216D01*
X106958528Y-121504002D01*
X106957599Y-121563416D01*
X106956992Y-121641542D01*
X106956727Y-121735465D01*
X106956825Y-121842270D01*
G36*
X106036490Y-112273921D02*
G01*
X106072238Y-112377027D01*
X106128507Y-112473022D01*
X106205288Y-112558753D01*
X106302573Y-112631070D01*
X106363892Y-112663555D01*
X106449660Y-112691668D01*
X106548677Y-112705295D01*
X106650471Y-112703786D01*
X106742714Y-112687031D01*
X106855432Y-112641237D01*
X106953207Y-112574832D01*
X107034115Y-112491191D01*
X107096232Y-112393688D01*
X107137634Y-112285700D01*
X107156397Y-112170601D01*
X107150598Y-112051766D01*
X107138206Y-111993189D01*
X107093797Y-111879028D01*
X107026033Y-111777635D01*
X106937001Y-111691455D01*
X106828791Y-111622934D01*
X106816973Y-111617136D01*
X106772628Y-111597096D01*
X106735280Y-111584513D01*
X106695880Y-111577681D01*
X106645381Y-111574895D01*
X106590433Y-111574432D01*
X106524415Y-111575197D01*
X106476689Y-111578648D01*
X106438103Y-111586523D01*
X106399506Y-111600557D01*
X106361426Y-111617880D01*
X106253328Y-111682495D01*
X106165803Y-111762066D01*
X106098841Y-111853440D01*
X106052436Y-111953464D01*
X106026581Y-112058988D01*
X106021268Y-112166858D01*
X106036490Y-112273921D01*
G37*
X106036490Y-112273921D02*
X106072238Y-112377027D01*
X106128507Y-112473022D01*
X106205288Y-112558753D01*
X106302573Y-112631070D01*
X106363892Y-112663555D01*
X106449660Y-112691668D01*
X106548677Y-112705295D01*
X106650471Y-112703786D01*
X106742714Y-112687031D01*
X106855432Y-112641237D01*
X106953207Y-112574832D01*
X107034115Y-112491191D01*
X107096232Y-112393688D01*
X107137634Y-112285700D01*
X107156397Y-112170601D01*
X107150598Y-112051766D01*
X107138206Y-111993189D01*
X107093797Y-111879028D01*
X107026033Y-111777635D01*
X106937001Y-111691455D01*
X106828791Y-111622934D01*
X106816973Y-111617136D01*
X106772628Y-111597096D01*
X106735280Y-111584513D01*
X106695880Y-111577681D01*
X106645381Y-111574895D01*
X106590433Y-111574432D01*
X106524415Y-111575197D01*
X106476689Y-111578648D01*
X106438103Y-111586523D01*
X106399506Y-111600557D01*
X106361426Y-111617880D01*
X106253328Y-111682495D01*
X106165803Y-111762066D01*
X106098841Y-111853440D01*
X106052436Y-111953464D01*
X106026581Y-112058988D01*
X106021268Y-112166858D01*
X106036490Y-112273921D01*
G36*
X112640725Y-121240531D02*
G01*
X112662968Y-121271910D01*
X112690677Y-121299619D01*
X113000112Y-121299619D01*
X113091991Y-121299546D01*
X113164032Y-121299203D01*
X113218972Y-121298400D01*
X113259552Y-121296949D01*
X113288509Y-121294660D01*
X113308583Y-121291344D01*
X113322513Y-121286813D01*
X113333037Y-121280877D01*
X113339292Y-121276222D01*
X113363865Y-121245491D01*
X113366533Y-121210204D01*
X113351463Y-121177953D01*
X113342566Y-121167296D01*
X113330749Y-121160172D01*
X113311718Y-121155875D01*
X113281184Y-121153699D01*
X113234854Y-121152936D01*
X113199063Y-121152863D01*
X113064237Y-121152863D01*
X113064237Y-120656152D01*
X113186892Y-120656152D01*
X113242979Y-120655639D01*
X113281525Y-120653584D01*
X113307553Y-120649216D01*
X113326089Y-120641764D01*
X113339292Y-120632755D01*
X113363796Y-120601852D01*
X113366698Y-120566904D01*
X113349281Y-120533446D01*
X113340151Y-120524312D01*
X113328047Y-120517860D01*
X113309193Y-120513605D01*
X113279812Y-120511060D01*
X113236129Y-120509737D01*
X113174367Y-120509151D01*
X113160192Y-120509083D01*
X113043823Y-120508599D01*
X112947919Y-120508349D01*
X112870369Y-120508431D01*
X112809061Y-120508939D01*
X112761882Y-120509970D01*
X112726722Y-120511621D01*
X112701468Y-120513987D01*
X112684009Y-120517165D01*
X112672233Y-120521252D01*
X112664027Y-120526342D01*
X112657837Y-120531974D01*
X112638036Y-120563836D01*
X112640725Y-120597065D01*
X112662968Y-120628443D01*
X112677318Y-120641141D01*
X112693170Y-120649234D01*
X112715746Y-120653750D01*
X112750270Y-120655714D01*
X112801968Y-120656152D01*
X112917481Y-120656152D01*
X112917481Y-121152863D01*
X112798948Y-121152863D01*
X112744340Y-121153370D01*
X112707467Y-121155406D01*
X112683499Y-121159743D01*
X112667607Y-121167155D01*
X112657837Y-121175441D01*
X112638036Y-121207302D01*
X112640725Y-121240531D01*
G37*
X112640725Y-121240531D02*
X112662968Y-121271910D01*
X112690677Y-121299619D01*
X113000112Y-121299619D01*
X113091991Y-121299546D01*
X113164032Y-121299203D01*
X113218972Y-121298400D01*
X113259552Y-121296949D01*
X113288509Y-121294660D01*
X113308583Y-121291344D01*
X113322513Y-121286813D01*
X113333037Y-121280877D01*
X113339292Y-121276222D01*
X113363865Y-121245491D01*
X113366533Y-121210204D01*
X113351463Y-121177953D01*
X113342566Y-121167296D01*
X113330749Y-121160172D01*
X113311718Y-121155875D01*
X113281184Y-121153699D01*
X113234854Y-121152936D01*
X113199063Y-121152863D01*
X113064237Y-121152863D01*
X113064237Y-120656152D01*
X113186892Y-120656152D01*
X113242979Y-120655639D01*
X113281525Y-120653584D01*
X113307553Y-120649216D01*
X113326089Y-120641764D01*
X113339292Y-120632755D01*
X113363796Y-120601852D01*
X113366698Y-120566904D01*
X113349281Y-120533446D01*
X113340151Y-120524312D01*
X113328047Y-120517860D01*
X113309193Y-120513605D01*
X113279812Y-120511060D01*
X113236129Y-120509737D01*
X113174367Y-120509151D01*
X113160192Y-120509083D01*
X113043823Y-120508599D01*
X112947919Y-120508349D01*
X112870369Y-120508431D01*
X112809061Y-120508939D01*
X112761882Y-120509970D01*
X112726722Y-120511621D01*
X112701468Y-120513987D01*
X112684009Y-120517165D01*
X112672233Y-120521252D01*
X112664027Y-120526342D01*
X112657837Y-120531974D01*
X112638036Y-120563836D01*
X112640725Y-120597065D01*
X112662968Y-120628443D01*
X112677318Y-120641141D01*
X112693170Y-120649234D01*
X112715746Y-120653750D01*
X112750270Y-120655714D01*
X112801968Y-120656152D01*
X112917481Y-120656152D01*
X112917481Y-121152863D01*
X112798948Y-121152863D01*
X112744340Y-121153370D01*
X112707467Y-121155406D01*
X112683499Y-121159743D01*
X112667607Y-121167155D01*
X112657837Y-121175441D01*
X112638036Y-121207302D01*
X112640725Y-121240531D01*
G36*
X112635355Y-119974773D02*
G01*
X112635734Y-120053480D01*
X112636525Y-120114571D01*
X112637862Y-120160525D01*
X112639875Y-120193822D01*
X112642698Y-120216944D01*
X112646461Y-120232370D01*
X112651297Y-120242579D01*
X112655014Y-120247521D01*
X112687550Y-120273165D01*
X112721330Y-120276267D01*
X112752018Y-120260419D01*
X112764281Y-120250056D01*
X112772642Y-120238904D01*
X112777849Y-120222743D01*
X112780649Y-120197350D01*
X112781788Y-120158506D01*
X112782013Y-120101988D01*
X112782014Y-120090888D01*
X112782014Y-119944952D01*
X113052948Y-119944952D01*
X113138346Y-119944856D01*
X113204056Y-119944419D01*
X113252966Y-119943420D01*
X113287965Y-119941636D01*
X113311941Y-119938845D01*
X113327785Y-119934825D01*
X113338383Y-119929353D01*
X113346459Y-119922374D01*
X113366304Y-119889442D01*
X113364740Y-119855062D01*
X113342098Y-119823884D01*
X113339292Y-119821594D01*
X113328684Y-119814137D01*
X113316273Y-119808455D01*
X113299042Y-119804309D01*
X113273976Y-119801458D01*
X113238059Y-119799662D01*
X113188275Y-119798680D01*
X113121609Y-119798272D01*
X113045781Y-119798197D01*
X112782014Y-119798197D01*
X112782014Y-119658835D01*
X112781610Y-119599030D01*
X112780032Y-119557626D01*
X112776739Y-119530456D01*
X112771184Y-119513354D01*
X112762823Y-119502151D01*
X112761370Y-119500791D01*
X112728131Y-119484433D01*
X112690554Y-119485880D01*
X112657837Y-119504686D01*
X112651490Y-119511958D01*
X112646458Y-119521335D01*
X112642588Y-119535317D01*
X112639729Y-119556404D01*
X112637727Y-119587097D01*
X112636431Y-119629897D01*
X112635690Y-119687303D01*
X112635350Y-119761818D01*
X112635260Y-119855941D01*
X112635259Y-119875968D01*
X112635355Y-119974773D01*
G37*
X112635355Y-119974773D02*
X112635734Y-120053480D01*
X112636525Y-120114571D01*
X112637862Y-120160525D01*
X112639875Y-120193822D01*
X112642698Y-120216944D01*
X112646461Y-120232370D01*
X112651297Y-120242579D01*
X112655014Y-120247521D01*
X112687550Y-120273165D01*
X112721330Y-120276267D01*
X112752018Y-120260419D01*
X112764281Y-120250056D01*
X112772642Y-120238904D01*
X112777849Y-120222743D01*
X112780649Y-120197350D01*
X112781788Y-120158506D01*
X112782013Y-120101988D01*
X112782014Y-120090888D01*
X112782014Y-119944952D01*
X113052948Y-119944952D01*
X113138346Y-119944856D01*
X113204056Y-119944419D01*
X113252966Y-119943420D01*
X113287965Y-119941636D01*
X113311941Y-119938845D01*
X113327785Y-119934825D01*
X113338383Y-119929353D01*
X113346459Y-119922374D01*
X113366304Y-119889442D01*
X113364740Y-119855062D01*
X113342098Y-119823884D01*
X113339292Y-119821594D01*
X113328684Y-119814137D01*
X113316273Y-119808455D01*
X113299042Y-119804309D01*
X113273976Y-119801458D01*
X113238059Y-119799662D01*
X113188275Y-119798680D01*
X113121609Y-119798272D01*
X113045781Y-119798197D01*
X112782014Y-119798197D01*
X112782014Y-119658835D01*
X112781610Y-119599030D01*
X112780032Y-119557626D01*
X112776739Y-119530456D01*
X112771184Y-119513354D01*
X112762823Y-119502151D01*
X112761370Y-119500791D01*
X112728131Y-119484433D01*
X112690554Y-119485880D01*
X112657837Y-119504686D01*
X112651490Y-119511958D01*
X112646458Y-119521335D01*
X112642588Y-119535317D01*
X112639729Y-119556404D01*
X112637727Y-119587097D01*
X112636431Y-119629897D01*
X112635690Y-119687303D01*
X112635350Y-119761818D01*
X112635260Y-119855941D01*
X112635259Y-119875968D01*
X112635355Y-119974773D01*
G36*
X112642069Y-119200322D02*
G01*
X112656839Y-119224035D01*
X112678419Y-119250686D01*
X112999965Y-119250686D01*
X113094022Y-119250601D01*
X113168124Y-119250237D01*
X113224896Y-119249432D01*
X113266960Y-119248021D01*
X113296940Y-119245841D01*
X113317459Y-119242729D01*
X113331141Y-119238522D01*
X113340608Y-119233056D01*
X113345274Y-119229180D01*
X113365767Y-119197742D01*
X113364931Y-119161941D01*
X113347456Y-119130581D01*
X113325876Y-119103930D01*
X112678419Y-119103930D01*
X112656839Y-119130581D01*
X112641141Y-119156302D01*
X112635259Y-119177308D01*
X112642069Y-119200322D01*
G37*
X112642069Y-119200322D02*
X112656839Y-119224035D01*
X112678419Y-119250686D01*
X112999965Y-119250686D01*
X113094022Y-119250601D01*
X113168124Y-119250237D01*
X113224896Y-119249432D01*
X113266960Y-119248021D01*
X113296940Y-119245841D01*
X113317459Y-119242729D01*
X113331141Y-119238522D01*
X113340608Y-119233056D01*
X113345274Y-119229180D01*
X113365767Y-119197742D01*
X113364931Y-119161941D01*
X113347456Y-119130581D01*
X113325876Y-119103930D01*
X112678419Y-119103930D01*
X112656839Y-119130581D01*
X112641141Y-119156302D01*
X112635259Y-119177308D01*
X112642069Y-119200322D01*
G36*
X112637226Y-118756373D02*
G01*
X112644227Y-118775963D01*
X112644569Y-118776718D01*
X112664870Y-118803321D01*
X112685753Y-118817978D01*
X112695544Y-118820846D01*
X112708553Y-118820704D01*
X112727087Y-118816669D01*
X112753449Y-118807854D01*
X112789944Y-118793377D01*
X112838879Y-118772353D01*
X112902557Y-118743896D01*
X112983285Y-118707123D01*
X113027408Y-118686883D01*
X113106177Y-118650333D01*
X113178615Y-118616023D01*
X113242072Y-118585260D01*
X113293900Y-118559356D01*
X113331451Y-118539618D01*
X113352076Y-118527358D01*
X113354925Y-118524932D01*
X113367494Y-118493891D01*
X113365811Y-118458829D01*
X113350524Y-118430708D01*
X113349281Y-118429562D01*
X113332346Y-118418376D01*
X113299362Y-118399612D01*
X113254572Y-118375583D01*
X113202224Y-118348605D01*
X113182934Y-118338909D01*
X113036342Y-118265722D01*
X113195585Y-118185948D01*
X113250607Y-118157475D01*
X113298324Y-118131058D01*
X113335085Y-118108856D01*
X113357236Y-118093027D01*
X113361933Y-118087662D01*
X113368294Y-118045965D01*
X113354925Y-118011557D01*
X113340638Y-118001436D01*
X113308884Y-117983922D01*
X113262789Y-117960443D01*
X113205477Y-117932428D01*
X113140072Y-117901307D01*
X113069699Y-117868507D01*
X112997483Y-117835458D01*
X112926547Y-117803589D01*
X112860017Y-117774327D01*
X112801018Y-117749103D01*
X112752673Y-117729344D01*
X112718107Y-117716480D01*
X112700445Y-117711939D01*
X112699805Y-117711985D01*
X112677580Y-117723034D01*
X112654945Y-117745118D01*
X112653960Y-117746418D01*
X112638617Y-117773561D01*
X112638766Y-117798666D01*
X112641658Y-117808076D01*
X112647910Y-117819542D01*
X112660206Y-117831718D01*
X112681100Y-117846065D01*
X112713141Y-117864044D01*
X112758880Y-117887115D01*
X112820869Y-117916738D01*
X112878090Y-117943453D01*
X112944418Y-117974188D01*
X113004066Y-118001729D01*
X113053917Y-118024646D01*
X113090856Y-118041506D01*
X113111765Y-118050881D01*
X113115037Y-118052248D01*
X113109689Y-118058397D01*
X113087301Y-118072530D01*
X113051138Y-118092765D01*
X113004469Y-118117223D01*
X112985214Y-118126956D01*
X112920196Y-118159925D01*
X112872846Y-118185351D01*
X112840411Y-118205320D01*
X112820138Y-118221918D01*
X112809274Y-118237232D01*
X112805067Y-118253348D01*
X112804592Y-118263851D01*
X112806234Y-118282378D01*
X112813023Y-118298612D01*
X112827758Y-118314743D01*
X112853236Y-118332959D01*
X112892253Y-118355447D01*
X112947606Y-118384397D01*
X112979095Y-118400370D01*
X113029279Y-118426278D01*
X113070896Y-118448875D01*
X113100434Y-118466166D01*
X113114381Y-118476158D01*
X113114962Y-118477517D01*
X113103985Y-118483969D01*
X113075482Y-118498416D01*
X113032436Y-118519411D01*
X112977830Y-118545505D01*
X112914646Y-118575254D01*
X112883263Y-118589888D01*
X112802270Y-118627958D01*
X112739948Y-118658613D01*
X112694263Y-118683445D01*
X112663181Y-118704045D01*
X112644670Y-118722006D01*
X112636696Y-118738918D01*
X112637226Y-118756373D01*
G37*
X112637226Y-118756373D02*
X112644227Y-118775963D01*
X112644569Y-118776718D01*
X112664870Y-118803321D01*
X112685753Y-118817978D01*
X112695544Y-118820846D01*
X112708553Y-118820704D01*
X112727087Y-118816669D01*
X112753449Y-118807854D01*
X112789944Y-118793377D01*
X112838879Y-118772353D01*
X112902557Y-118743896D01*
X112983285Y-118707123D01*
X113027408Y-118686883D01*
X113106177Y-118650333D01*
X113178615Y-118616023D01*
X113242072Y-118585260D01*
X113293900Y-118559356D01*
X113331451Y-118539618D01*
X113352076Y-118527358D01*
X113354925Y-118524932D01*
X113367494Y-118493891D01*
X113365811Y-118458829D01*
X113350524Y-118430708D01*
X113349281Y-118429562D01*
X113332346Y-118418376D01*
X113299362Y-118399612D01*
X113254572Y-118375583D01*
X113202224Y-118348605D01*
X113182934Y-118338909D01*
X113036342Y-118265722D01*
X113195585Y-118185948D01*
X113250607Y-118157475D01*
X113298324Y-118131058D01*
X113335085Y-118108856D01*
X113357236Y-118093027D01*
X113361933Y-118087662D01*
X113368294Y-118045965D01*
X113354925Y-118011557D01*
X113340638Y-118001436D01*
X113308884Y-117983922D01*
X113262789Y-117960443D01*
X113205477Y-117932428D01*
X113140072Y-117901307D01*
X113069699Y-117868507D01*
X112997483Y-117835458D01*
X112926547Y-117803589D01*
X112860017Y-117774327D01*
X112801018Y-117749103D01*
X112752673Y-117729344D01*
X112718107Y-117716480D01*
X112700445Y-117711939D01*
X112699805Y-117711985D01*
X112677580Y-117723034D01*
X112654945Y-117745118D01*
X112653960Y-117746418D01*
X112638617Y-117773561D01*
X112638766Y-117798666D01*
X112641658Y-117808076D01*
X112647910Y-117819542D01*
X112660206Y-117831718D01*
X112681100Y-117846065D01*
X112713141Y-117864044D01*
X112758880Y-117887115D01*
X112820869Y-117916738D01*
X112878090Y-117943453D01*
X112944418Y-117974188D01*
X113004066Y-118001729D01*
X113053917Y-118024646D01*
X113090856Y-118041506D01*
X113111765Y-118050881D01*
X113115037Y-118052248D01*
X113109689Y-118058397D01*
X113087301Y-118072530D01*
X113051138Y-118092765D01*
X113004469Y-118117223D01*
X112985214Y-118126956D01*
X112920196Y-118159925D01*
X112872846Y-118185351D01*
X112840411Y-118205320D01*
X112820138Y-118221918D01*
X112809274Y-118237232D01*
X112805067Y-118253348D01*
X112804592Y-118263851D01*
X112806234Y-118282378D01*
X112813023Y-118298612D01*
X112827758Y-118314743D01*
X112853236Y-118332959D01*
X112892253Y-118355447D01*
X112947606Y-118384397D01*
X112979095Y-118400370D01*
X113029279Y-118426278D01*
X113070896Y-118448875D01*
X113100434Y-118466166D01*
X113114381Y-118476158D01*
X113114962Y-118477517D01*
X113103985Y-118483969D01*
X113075482Y-118498416D01*
X113032436Y-118519411D01*
X112977830Y-118545505D01*
X112914646Y-118575254D01*
X112883263Y-118589888D01*
X112802270Y-118627958D01*
X112739948Y-118658613D01*
X112694263Y-118683445D01*
X112663181Y-118704045D01*
X112644670Y-118722006D01*
X112636696Y-118738918D01*
X112637226Y-118756373D01*
G36*
X112635467Y-116030017D02*
G01*
X112639828Y-116158996D01*
X112653053Y-116268699D01*
X112675933Y-116360934D01*
X112709262Y-116437510D01*
X112753830Y-116500235D01*
X112810428Y-116550920D01*
X112879850Y-116591371D01*
X112881543Y-116592167D01*
X112943675Y-116616309D01*
X112998701Y-116624911D01*
X113054079Y-116617939D01*
X113117265Y-116595362D01*
X113126881Y-116591080D01*
X113183158Y-116561880D01*
X113226643Y-116529064D01*
X113263609Y-116486710D01*
X113300327Y-116428898D01*
X113302244Y-116425539D01*
X113326419Y-116375212D01*
X113344474Y-116318329D01*
X113357031Y-116251235D01*
X113364714Y-116170273D01*
X113368145Y-116071790D01*
X113368443Y-116036994D01*
X113369037Y-115871302D01*
X113339292Y-115847905D01*
X113329511Y-115840965D01*
X113318089Y-115835550D01*
X113302287Y-115831473D01*
X113279367Y-115828545D01*
X113246588Y-115826575D01*
X113222281Y-115825933D01*
X113222281Y-115982552D01*
X113222281Y-116076434D01*
X113220675Y-116131372D01*
X113216447Y-116187768D01*
X113210484Y-116234053D01*
X113209982Y-116236847D01*
X113187928Y-116319056D01*
X113154792Y-116382822D01*
X113109039Y-116430160D01*
X113049131Y-116463090D01*
X113033253Y-116468816D01*
X113008525Y-116474429D01*
X112984094Y-116471999D01*
X112951592Y-116460175D01*
X112935626Y-116453048D01*
X112893198Y-116429708D01*
X112863432Y-116401588D01*
X112842703Y-116370648D01*
X112815729Y-116308674D01*
X112796190Y-116229359D01*
X112784938Y-116136961D01*
X112782462Y-116070041D01*
X112782014Y-115982552D01*
X113222281Y-115982552D01*
X113222281Y-115825933D01*
X113201213Y-115825376D01*
X113140503Y-115824758D01*
X113061718Y-115824533D01*
X113000112Y-115824508D01*
X112690677Y-115824508D01*
X112662968Y-115852217D01*
X112651736Y-115864514D01*
X112644045Y-115877811D01*
X112639232Y-115896380D01*
X112636638Y-115924494D01*
X112635602Y-115966425D01*
X112635462Y-116026445D01*
X112635467Y-116030017D01*
G37*
X112635467Y-116030017D02*
X112639828Y-116158996D01*
X112653053Y-116268699D01*
X112675933Y-116360934D01*
X112709262Y-116437510D01*
X112753830Y-116500235D01*
X112810428Y-116550920D01*
X112879850Y-116591371D01*
X112881543Y-116592167D01*
X112943675Y-116616309D01*
X112998701Y-116624911D01*
X113054079Y-116617939D01*
X113117265Y-116595362D01*
X113126881Y-116591080D01*
X113183158Y-116561880D01*
X113226643Y-116529064D01*
X113263609Y-116486710D01*
X113300327Y-116428898D01*
X113302244Y-116425539D01*
X113326419Y-116375212D01*
X113344474Y-116318329D01*
X113357031Y-116251235D01*
X113364714Y-116170273D01*
X113368145Y-116071790D01*
X113368443Y-116036994D01*
X113369037Y-115871302D01*
X113339292Y-115847905D01*
X113329511Y-115840965D01*
X113318089Y-115835550D01*
X113302287Y-115831473D01*
X113279367Y-115828545D01*
X113246588Y-115826575D01*
X113222281Y-115825933D01*
X113222281Y-115982552D01*
X113222281Y-116076434D01*
X113220675Y-116131372D01*
X113216447Y-116187768D01*
X113210484Y-116234053D01*
X113209982Y-116236847D01*
X113187928Y-116319056D01*
X113154792Y-116382822D01*
X113109039Y-116430160D01*
X113049131Y-116463090D01*
X113033253Y-116468816D01*
X113008525Y-116474429D01*
X112984094Y-116471999D01*
X112951592Y-116460175D01*
X112935626Y-116453048D01*
X112893198Y-116429708D01*
X112863432Y-116401588D01*
X112842703Y-116370648D01*
X112815729Y-116308674D01*
X112796190Y-116229359D01*
X112784938Y-116136961D01*
X112782462Y-116070041D01*
X112782014Y-115982552D01*
X113222281Y-115982552D01*
X113222281Y-115825933D01*
X113201213Y-115825376D01*
X113140503Y-115824758D01*
X113061718Y-115824533D01*
X113000112Y-115824508D01*
X112690677Y-115824508D01*
X112662968Y-115852217D01*
X112651736Y-115864514D01*
X112644045Y-115877811D01*
X112639232Y-115896380D01*
X112636638Y-115924494D01*
X112635602Y-115966425D01*
X112635462Y-116026445D01*
X112635467Y-116030017D01*
G36*
X112635452Y-115242051D02*
G01*
X112636366Y-115318409D01*
X112638503Y-115376925D01*
X112642367Y-115419963D01*
X112648459Y-115449891D01*
X112657282Y-115469076D01*
X112669338Y-115479884D01*
X112685131Y-115484681D01*
X112705162Y-115485835D01*
X112707527Y-115485841D01*
X112730184Y-115484839D01*
X112747695Y-115480104D01*
X112760766Y-115469041D01*
X112770105Y-115449056D01*
X112776419Y-115417554D01*
X112780414Y-115371940D01*
X112782798Y-115309621D01*
X112784278Y-115228001D01*
X112784606Y-115202985D01*
X112787659Y-114960908D01*
X112852570Y-114957522D01*
X112917481Y-114954137D01*
X112917481Y-115122284D01*
X112917723Y-115187974D01*
X112918748Y-115234880D01*
X112921003Y-115266791D01*
X112924934Y-115287499D01*
X112930990Y-115300792D01*
X112939616Y-115310463D01*
X112939685Y-115310525D01*
X112973304Y-115328064D01*
X113009640Y-115327430D01*
X113040615Y-115309022D01*
X113043799Y-115305379D01*
X113052004Y-115292449D01*
X113057713Y-115274732D01*
X113061354Y-115248278D01*
X113063359Y-115209140D01*
X113064156Y-115153370D01*
X113064237Y-115117702D01*
X113064237Y-114955263D01*
X113222281Y-114955263D01*
X113222281Y-115201869D01*
X113222423Y-115283288D01*
X113223006Y-115345118D01*
X113224260Y-115390345D01*
X113226419Y-115421956D01*
X113229715Y-115442939D01*
X113234381Y-115456281D01*
X113240649Y-115464969D01*
X113242925Y-115467158D01*
X113274472Y-115483322D01*
X113310360Y-115484505D01*
X113341477Y-115471244D01*
X113351463Y-115460751D01*
X113356961Y-115449837D01*
X113361214Y-115432925D01*
X113364372Y-115407341D01*
X113366584Y-115370409D01*
X113367998Y-115319454D01*
X113368764Y-115251802D01*
X113369030Y-115164777D01*
X113369037Y-115145102D01*
X113368979Y-115056619D01*
X113368659Y-114987935D01*
X113367859Y-114936272D01*
X113366359Y-114898853D01*
X113363941Y-114872898D01*
X113360386Y-114855630D01*
X113355474Y-114844270D01*
X113348987Y-114836040D01*
X113344330Y-114831525D01*
X113336081Y-114824729D01*
X113325861Y-114819420D01*
X113310992Y-114815414D01*
X113288794Y-114812529D01*
X113256585Y-114810582D01*
X113211688Y-114809389D01*
X113151420Y-114808769D01*
X113073103Y-114808537D01*
X113007186Y-114808508D01*
X112914820Y-114808579D01*
X112842309Y-114808916D01*
X112786929Y-114809706D01*
X112745957Y-114811134D01*
X112716670Y-114813387D01*
X112696345Y-114816651D01*
X112682258Y-114821112D01*
X112671687Y-114826956D01*
X112665003Y-114831905D01*
X112635259Y-114855302D01*
X112635259Y-115145482D01*
X112635452Y-115242051D01*
G37*
X112635452Y-115242051D02*
X112636366Y-115318409D01*
X112638503Y-115376925D01*
X112642367Y-115419963D01*
X112648459Y-115449891D01*
X112657282Y-115469076D01*
X112669338Y-115479884D01*
X112685131Y-115484681D01*
X112705162Y-115485835D01*
X112707527Y-115485841D01*
X112730184Y-115484839D01*
X112747695Y-115480104D01*
X112760766Y-115469041D01*
X112770105Y-115449056D01*
X112776419Y-115417554D01*
X112780414Y-115371940D01*
X112782798Y-115309621D01*
X112784278Y-115228001D01*
X112784606Y-115202985D01*
X112787659Y-114960908D01*
X112852570Y-114957522D01*
X112917481Y-114954137D01*
X112917481Y-115122284D01*
X112917723Y-115187974D01*
X112918748Y-115234880D01*
X112921003Y-115266791D01*
X112924934Y-115287499D01*
X112930990Y-115300792D01*
X112939616Y-115310463D01*
X112939685Y-115310525D01*
X112973304Y-115328064D01*
X113009640Y-115327430D01*
X113040615Y-115309022D01*
X113043799Y-115305379D01*
X113052004Y-115292449D01*
X113057713Y-115274732D01*
X113061354Y-115248278D01*
X113063359Y-115209140D01*
X113064156Y-115153370D01*
X113064237Y-115117702D01*
X113064237Y-114955263D01*
X113222281Y-114955263D01*
X113222281Y-115201869D01*
X113222423Y-115283288D01*
X113223006Y-115345118D01*
X113224260Y-115390345D01*
X113226419Y-115421956D01*
X113229715Y-115442939D01*
X113234381Y-115456281D01*
X113240649Y-115464969D01*
X113242925Y-115467158D01*
X113274472Y-115483322D01*
X113310360Y-115484505D01*
X113341477Y-115471244D01*
X113351463Y-115460751D01*
X113356961Y-115449837D01*
X113361214Y-115432925D01*
X113364372Y-115407341D01*
X113366584Y-115370409D01*
X113367998Y-115319454D01*
X113368764Y-115251802D01*
X113369030Y-115164777D01*
X113369037Y-115145102D01*
X113368979Y-115056619D01*
X113368659Y-114987935D01*
X113367859Y-114936272D01*
X113366359Y-114898853D01*
X113363941Y-114872898D01*
X113360386Y-114855630D01*
X113355474Y-114844270D01*
X113348987Y-114836040D01*
X113344330Y-114831525D01*
X113336081Y-114824729D01*
X113325861Y-114819420D01*
X113310992Y-114815414D01*
X113288794Y-114812529D01*
X113256585Y-114810582D01*
X113211688Y-114809389D01*
X113151420Y-114808769D01*
X113073103Y-114808537D01*
X113007186Y-114808508D01*
X112914820Y-114808579D01*
X112842309Y-114808916D01*
X112786929Y-114809706D01*
X112745957Y-114811134D01*
X112716670Y-114813387D01*
X112696345Y-114816651D01*
X112682258Y-114821112D01*
X112671687Y-114826956D01*
X112665003Y-114831905D01*
X112635259Y-114855302D01*
X112635259Y-115145482D01*
X112635452Y-115242051D01*
G36*
X112639640Y-113711594D02*
G01*
X112653465Y-113735160D01*
X112676073Y-113765973D01*
X112708530Y-113805630D01*
X112751900Y-113855728D01*
X112807250Y-113917865D01*
X112875643Y-113993636D01*
X112954276Y-114080374D01*
X113118070Y-114260997D01*
X112898221Y-114266641D01*
X112822543Y-114268679D01*
X112766186Y-114270645D01*
X112725898Y-114272974D01*
X112698427Y-114276102D01*
X112680521Y-114280463D01*
X112668929Y-114286492D01*
X112660400Y-114294624D01*
X112656815Y-114298936D01*
X112637862Y-114333467D01*
X112640633Y-114366325D01*
X112656825Y-114392390D01*
X112678391Y-114419041D01*
X112993343Y-114422356D01*
X113085971Y-114423273D01*
X113158736Y-114423740D01*
X113214353Y-114423595D01*
X113255534Y-114422676D01*
X113284995Y-114420821D01*
X113305447Y-114417869D01*
X113319605Y-114413658D01*
X113330183Y-114408026D01*
X113338666Y-114401781D01*
X113354399Y-114388269D01*
X113364828Y-114374825D01*
X113368831Y-114359584D01*
X113365286Y-114340682D01*
X113353071Y-114316253D01*
X113331063Y-114284435D01*
X113298141Y-114243360D01*
X113253183Y-114191166D01*
X113195067Y-114125986D01*
X113128291Y-114052152D01*
X112887650Y-113786863D01*
X113106781Y-113781219D01*
X113182320Y-113779177D01*
X113238546Y-113777206D01*
X113278716Y-113774869D01*
X113306088Y-113771727D01*
X113323920Y-113767344D01*
X113335471Y-113761284D01*
X113343999Y-113753108D01*
X113347474Y-113748924D01*
X113366564Y-113711943D01*
X113363685Y-113677000D01*
X113339292Y-113646572D01*
X113329478Y-113639611D01*
X113318018Y-113634185D01*
X113302160Y-113630105D01*
X113279155Y-113627179D01*
X113246254Y-113625216D01*
X113200708Y-113624025D01*
X113139765Y-113623416D01*
X113060678Y-113623197D01*
X113002148Y-113623174D01*
X112910599Y-113623248D01*
X112838879Y-113623595D01*
X112784237Y-113624407D01*
X112743924Y-113625875D01*
X112715190Y-113628189D01*
X112695285Y-113631541D01*
X112681460Y-113636120D01*
X112670964Y-113642119D01*
X112665003Y-113646572D01*
X112650883Y-113657858D01*
X112640221Y-113668407D01*
X112634084Y-113679815D01*
X112633535Y-113693678D01*
X112639640Y-113711594D01*
G37*
X112639640Y-113711594D02*
X112653465Y-113735160D01*
X112676073Y-113765973D01*
X112708530Y-113805630D01*
X112751900Y-113855728D01*
X112807250Y-113917865D01*
X112875643Y-113993636D01*
X112954276Y-114080374D01*
X113118070Y-114260997D01*
X112898221Y-114266641D01*
X112822543Y-114268679D01*
X112766186Y-114270645D01*
X112725898Y-114272974D01*
X112698427Y-114276102D01*
X112680521Y-114280463D01*
X112668929Y-114286492D01*
X112660400Y-114294624D01*
X112656815Y-114298936D01*
X112637862Y-114333467D01*
X112640633Y-114366325D01*
X112656825Y-114392390D01*
X112678391Y-114419041D01*
X112993343Y-114422356D01*
X113085971Y-114423273D01*
X113158736Y-114423740D01*
X113214353Y-114423595D01*
X113255534Y-114422676D01*
X113284995Y-114420821D01*
X113305447Y-114417869D01*
X113319605Y-114413658D01*
X113330183Y-114408026D01*
X113338666Y-114401781D01*
X113354399Y-114388269D01*
X113364828Y-114374825D01*
X113368831Y-114359584D01*
X113365286Y-114340682D01*
X113353071Y-114316253D01*
X113331063Y-114284435D01*
X113298141Y-114243360D01*
X113253183Y-114191166D01*
X113195067Y-114125986D01*
X113128291Y-114052152D01*
X112887650Y-113786863D01*
X113106781Y-113781219D01*
X113182320Y-113779177D01*
X113238546Y-113777206D01*
X113278716Y-113774869D01*
X113306088Y-113771727D01*
X113323920Y-113767344D01*
X113335471Y-113761284D01*
X113343999Y-113753108D01*
X113347474Y-113748924D01*
X113366564Y-113711943D01*
X113363685Y-113677000D01*
X113339292Y-113646572D01*
X113329478Y-113639611D01*
X113318018Y-113634185D01*
X113302160Y-113630105D01*
X113279155Y-113627179D01*
X113246254Y-113625216D01*
X113200708Y-113624025D01*
X113139765Y-113623416D01*
X113060678Y-113623197D01*
X113002148Y-113623174D01*
X112910599Y-113623248D01*
X112838879Y-113623595D01*
X112784237Y-113624407D01*
X112743924Y-113625875D01*
X112715190Y-113628189D01*
X112695285Y-113631541D01*
X112681460Y-113636120D01*
X112670964Y-113642119D01*
X112665003Y-113646572D01*
X112650883Y-113657858D01*
X112640221Y-113668407D01*
X112634084Y-113679815D01*
X112633535Y-113693678D01*
X112639640Y-113711594D01*
G36*
X112640791Y-113061627D02*
G01*
X112652287Y-113130143D01*
X112670159Y-113182765D01*
X112693691Y-113217000D01*
X112707116Y-113226329D01*
X112738340Y-113235815D01*
X112766587Y-113229431D01*
X112793374Y-113209278D01*
X112805905Y-113177963D01*
X112804888Y-113132525D01*
X112798098Y-113097382D01*
X112785163Y-113019289D01*
X112783934Y-112939482D01*
X112794433Y-112850153D01*
X112798882Y-112825479D01*
X112822300Y-112742417D01*
X112857137Y-112677435D01*
X112902796Y-112631247D01*
X112958686Y-112604563D01*
X112987580Y-112599045D01*
X113046204Y-112602657D01*
X113098071Y-112625979D01*
X113142170Y-112666884D01*
X113177491Y-112723249D01*
X113203021Y-112792948D01*
X113217751Y-112873856D01*
X113220670Y-112963848D01*
X113210767Y-113060798D01*
X113209833Y-113066272D01*
X113202651Y-113104833D01*
X113195713Y-113126214D01*
X113185419Y-113135481D01*
X113168168Y-113137702D01*
X113159033Y-113137752D01*
X113120681Y-113137752D01*
X113120681Y-113069277D01*
X113116539Y-113008808D01*
X113103339Y-112967543D01*
X113079922Y-112943533D01*
X113045128Y-112934831D01*
X113040586Y-112934725D01*
X113010846Y-112939816D01*
X112989611Y-112957275D01*
X112975558Y-112989769D01*
X112967365Y-113039965D01*
X112964353Y-113088585D01*
X112962625Y-113159252D01*
X112965262Y-113210510D01*
X112974992Y-113245469D01*
X112994545Y-113267238D01*
X113026648Y-113278928D01*
X113074030Y-113283648D01*
X113136263Y-113284508D01*
X113205727Y-113283099D01*
X113252978Y-113278860D01*
X113278204Y-113271772D01*
X113280180Y-113270397D01*
X113311700Y-113231480D01*
X113336662Y-113174422D01*
X113354532Y-113102839D01*
X113364778Y-113020350D01*
X113366865Y-112930569D01*
X113360260Y-112837116D01*
X113352148Y-112782152D01*
X113327746Y-112695942D01*
X113287854Y-112615816D01*
X113236079Y-112548731D01*
X113225731Y-112538535D01*
X113182227Y-112505406D01*
X113128310Y-112475514D01*
X113071784Y-112452351D01*
X113020451Y-112439410D01*
X113000736Y-112437850D01*
X112959611Y-112444490D01*
X112908444Y-112462140D01*
X112854586Y-112487411D01*
X112805387Y-112516919D01*
X112772526Y-112542989D01*
X112723644Y-112603943D01*
X112684737Y-112682739D01*
X112656686Y-112776551D01*
X112640371Y-112882558D01*
X112636384Y-112979708D01*
X112640791Y-113061627D01*
G37*
X112640791Y-113061627D02*
X112652287Y-113130143D01*
X112670159Y-113182765D01*
X112693691Y-113217000D01*
X112707116Y-113226329D01*
X112738340Y-113235815D01*
X112766587Y-113229431D01*
X112793374Y-113209278D01*
X112805905Y-113177963D01*
X112804888Y-113132525D01*
X112798098Y-113097382D01*
X112785163Y-113019289D01*
X112783934Y-112939482D01*
X112794433Y-112850153D01*
X112798882Y-112825479D01*
X112822300Y-112742417D01*
X112857137Y-112677435D01*
X112902796Y-112631247D01*
X112958686Y-112604563D01*
X112987580Y-112599045D01*
X113046204Y-112602657D01*
X113098071Y-112625979D01*
X113142170Y-112666884D01*
X113177491Y-112723249D01*
X113203021Y-112792948D01*
X113217751Y-112873856D01*
X113220670Y-112963848D01*
X113210767Y-113060798D01*
X113209833Y-113066272D01*
X113202651Y-113104833D01*
X113195713Y-113126214D01*
X113185419Y-113135481D01*
X113168168Y-113137702D01*
X113159033Y-113137752D01*
X113120681Y-113137752D01*
X113120681Y-113069277D01*
X113116539Y-113008808D01*
X113103339Y-112967543D01*
X113079922Y-112943533D01*
X113045128Y-112934831D01*
X113040586Y-112934725D01*
X113010846Y-112939816D01*
X112989611Y-112957275D01*
X112975558Y-112989769D01*
X112967365Y-113039965D01*
X112964353Y-113088585D01*
X112962625Y-113159252D01*
X112965262Y-113210510D01*
X112974992Y-113245469D01*
X112994545Y-113267238D01*
X113026648Y-113278928D01*
X113074030Y-113283648D01*
X113136263Y-113284508D01*
X113205727Y-113283099D01*
X113252978Y-113278860D01*
X113278204Y-113271772D01*
X113280180Y-113270397D01*
X113311700Y-113231480D01*
X113336662Y-113174422D01*
X113354532Y-113102839D01*
X113364778Y-113020350D01*
X113366865Y-112930569D01*
X113360260Y-112837116D01*
X113352148Y-112782152D01*
X113327746Y-112695942D01*
X113287854Y-112615816D01*
X113236079Y-112548731D01*
X113225731Y-112538535D01*
X113182227Y-112505406D01*
X113128310Y-112475514D01*
X113071784Y-112452351D01*
X113020451Y-112439410D01*
X113000736Y-112437850D01*
X112959611Y-112444490D01*
X112908444Y-112462140D01*
X112854586Y-112487411D01*
X112805387Y-112516919D01*
X112772526Y-112542989D01*
X112723644Y-112603943D01*
X112684737Y-112682739D01*
X112656686Y-112776551D01*
X112640371Y-112882558D01*
X112636384Y-112979708D01*
X112640791Y-113061627D01*
G36*
X112657837Y-112087886D02*
G01*
X112665410Y-112094466D01*
X112675179Y-112099629D01*
X112689763Y-112103544D01*
X112711777Y-112106384D01*
X112743840Y-112108321D01*
X112788567Y-112109525D01*
X112848577Y-112110169D01*
X112926486Y-112110424D01*
X113002148Y-112110463D01*
X113095994Y-112110394D01*
X113169881Y-112110070D01*
X113226424Y-112109322D01*
X113268241Y-112107976D01*
X113297949Y-112105862D01*
X113318165Y-112102808D01*
X113331506Y-112098642D01*
X113340590Y-112093192D01*
X113346459Y-112087886D01*
X113366139Y-112054882D01*
X113364373Y-112019717D01*
X113342909Y-111988253D01*
X113334529Y-111981024D01*
X113324806Y-111975374D01*
X113311053Y-111971109D01*
X113290581Y-111968035D01*
X113260704Y-111965956D01*
X113218733Y-111964678D01*
X113161981Y-111964007D01*
X113087759Y-111963749D01*
X113003729Y-111963708D01*
X112690677Y-111963708D01*
X112662968Y-111991417D01*
X112639655Y-112025571D01*
X112638815Y-112058702D01*
X112657837Y-112087886D01*
G37*
X112657837Y-112087886D02*
X112665410Y-112094466D01*
X112675179Y-112099629D01*
X112689763Y-112103544D01*
X112711777Y-112106384D01*
X112743840Y-112108321D01*
X112788567Y-112109525D01*
X112848577Y-112110169D01*
X112926486Y-112110424D01*
X113002148Y-112110463D01*
X113095994Y-112110394D01*
X113169881Y-112110070D01*
X113226424Y-112109322D01*
X113268241Y-112107976D01*
X113297949Y-112105862D01*
X113318165Y-112102808D01*
X113331506Y-112098642D01*
X113340590Y-112093192D01*
X113346459Y-112087886D01*
X113366139Y-112054882D01*
X113364373Y-112019717D01*
X113342909Y-111988253D01*
X113334529Y-111981024D01*
X113324806Y-111975374D01*
X113311053Y-111971109D01*
X113290581Y-111968035D01*
X113260704Y-111965956D01*
X113218733Y-111964678D01*
X113161981Y-111964007D01*
X113087759Y-111963749D01*
X113003729Y-111963708D01*
X112690677Y-111963708D01*
X112662968Y-111991417D01*
X112639655Y-112025571D01*
X112638815Y-112058702D01*
X112657837Y-112087886D01*
G36*
X112636543Y-111320005D02*
G01*
X112641773Y-111394820D01*
X112649942Y-111464402D01*
X112660742Y-111524706D01*
X112673865Y-111571688D01*
X112689005Y-111601302D01*
X112693461Y-111605848D01*
X112728042Y-111621654D01*
X112763543Y-111616861D01*
X112793917Y-111592344D01*
X112794788Y-111591174D01*
X112804146Y-111576754D01*
X112809068Y-111561700D01*
X112809665Y-111540703D01*
X112806053Y-111508451D01*
X112798346Y-111459635D01*
X112797697Y-111455708D01*
X112788761Y-111382969D01*
X112784353Y-111304491D01*
X112784311Y-111225781D01*
X112788471Y-111152347D01*
X112796671Y-111089697D01*
X112808749Y-111043338D01*
X112809963Y-111040292D01*
X112828807Y-111006660D01*
X112847877Y-110994844D01*
X112866631Y-111004094D01*
X112884529Y-111033661D01*
X112901029Y-111082797D01*
X112915588Y-111150751D01*
X112922598Y-111196063D01*
X112936081Y-111290252D01*
X112948406Y-111365164D01*
X112960641Y-111423991D01*
X112973853Y-111469923D01*
X112989109Y-111506153D01*
X113007477Y-111535870D01*
X113030023Y-111562266D01*
X113052163Y-111583478D01*
X113083011Y-111608643D01*
X113109537Y-111621027D01*
X113142218Y-111624900D01*
X113154187Y-111625041D01*
X113193904Y-111622132D01*
X113223451Y-111610506D01*
X113249678Y-111590385D01*
X113289768Y-111549492D01*
X113320341Y-111503891D01*
X113342395Y-111450195D01*
X113356927Y-111385016D01*
X113364933Y-111304964D01*
X113367410Y-111206651D01*
X113367369Y-111190419D01*
X113366010Y-111124859D01*
X113362922Y-111059842D01*
X113358548Y-111002456D01*
X113353332Y-110959786D01*
X113352733Y-110956336D01*
X113342683Y-110913912D01*
X113329988Y-110877928D01*
X113318382Y-110857558D01*
X113287764Y-110838601D01*
X113252110Y-110837281D01*
X113220336Y-110853623D01*
X113216743Y-110857279D01*
X113206068Y-110872393D01*
X113201468Y-110891293D01*
X113202251Y-110920546D01*
X113206319Y-110956057D01*
X113209954Y-110995738D01*
X113213020Y-111051363D01*
X113215245Y-111116302D01*
X113216356Y-111183923D01*
X113216429Y-111201708D01*
X113216156Y-111269580D01*
X113214838Y-111319254D01*
X113212019Y-111355098D01*
X113207242Y-111381484D01*
X113200049Y-111402782D01*
X113194059Y-111415582D01*
X113177425Y-111443708D01*
X113162360Y-111461640D01*
X113158089Y-111464261D01*
X113140455Y-111458732D01*
X113123384Y-111432448D01*
X113107650Y-111387230D01*
X113094030Y-111324900D01*
X113090996Y-111306537D01*
X113075930Y-111210618D01*
X113063338Y-111134067D01*
X113052303Y-111073928D01*
X113041912Y-111027248D01*
X113031248Y-110991071D01*
X113019397Y-110962443D01*
X113005443Y-110938410D01*
X112988473Y-110916016D01*
X112967570Y-110892306D01*
X112960241Y-110884328D01*
X112932891Y-110856355D01*
X112911221Y-110841548D01*
X112886424Y-110835756D01*
X112855175Y-110834819D01*
X112793897Y-110845133D01*
X112741832Y-110875956D01*
X112699150Y-110927113D01*
X112666017Y-110998425D01*
X112651156Y-111049308D01*
X112641558Y-111104608D01*
X112636128Y-111170855D01*
X112634559Y-111244002D01*
X112636543Y-111320005D01*
G37*
X112636543Y-111320005D02*
X112641773Y-111394820D01*
X112649942Y-111464402D01*
X112660742Y-111524706D01*
X112673865Y-111571688D01*
X112689005Y-111601302D01*
X112693461Y-111605848D01*
X112728042Y-111621654D01*
X112763543Y-111616861D01*
X112793917Y-111592344D01*
X112794788Y-111591174D01*
X112804146Y-111576754D01*
X112809068Y-111561700D01*
X112809665Y-111540703D01*
X112806053Y-111508451D01*
X112798346Y-111459635D01*
X112797697Y-111455708D01*
X112788761Y-111382969D01*
X112784353Y-111304491D01*
X112784311Y-111225781D01*
X112788471Y-111152347D01*
X112796671Y-111089697D01*
X112808749Y-111043338D01*
X112809963Y-111040292D01*
X112828807Y-111006660D01*
X112847877Y-110994844D01*
X112866631Y-111004094D01*
X112884529Y-111033661D01*
X112901029Y-111082797D01*
X112915588Y-111150751D01*
X112922598Y-111196063D01*
X112936081Y-111290252D01*
X112948406Y-111365164D01*
X112960641Y-111423991D01*
X112973853Y-111469923D01*
X112989109Y-111506153D01*
X113007477Y-111535870D01*
X113030023Y-111562266D01*
X113052163Y-111583478D01*
X113083011Y-111608643D01*
X113109537Y-111621027D01*
X113142218Y-111624900D01*
X113154187Y-111625041D01*
X113193904Y-111622132D01*
X113223451Y-111610506D01*
X113249678Y-111590385D01*
X113289768Y-111549492D01*
X113320341Y-111503891D01*
X113342395Y-111450195D01*
X113356927Y-111385016D01*
X113364933Y-111304964D01*
X113367410Y-111206651D01*
X113367369Y-111190419D01*
X113366010Y-111124859D01*
X113362922Y-111059842D01*
X113358548Y-111002456D01*
X113353332Y-110959786D01*
X113352733Y-110956336D01*
X113342683Y-110913912D01*
X113329988Y-110877928D01*
X113318382Y-110857558D01*
X113287764Y-110838601D01*
X113252110Y-110837281D01*
X113220336Y-110853623D01*
X113216743Y-110857279D01*
X113206068Y-110872393D01*
X113201468Y-110891293D01*
X113202251Y-110920546D01*
X113206319Y-110956057D01*
X113209954Y-110995738D01*
X113213020Y-111051363D01*
X113215245Y-111116302D01*
X113216356Y-111183923D01*
X113216429Y-111201708D01*
X113216156Y-111269580D01*
X113214838Y-111319254D01*
X113212019Y-111355098D01*
X113207242Y-111381484D01*
X113200049Y-111402782D01*
X113194059Y-111415582D01*
X113177425Y-111443708D01*
X113162360Y-111461640D01*
X113158089Y-111464261D01*
X113140455Y-111458732D01*
X113123384Y-111432448D01*
X113107650Y-111387230D01*
X113094030Y-111324900D01*
X113090996Y-111306537D01*
X113075930Y-111210618D01*
X113063338Y-111134067D01*
X113052303Y-111073928D01*
X113041912Y-111027248D01*
X113031248Y-110991071D01*
X113019397Y-110962443D01*
X113005443Y-110938410D01*
X112988473Y-110916016D01*
X112967570Y-110892306D01*
X112960241Y-110884328D01*
X112932891Y-110856355D01*
X112911221Y-110841548D01*
X112886424Y-110835756D01*
X112855175Y-110834819D01*
X112793897Y-110845133D01*
X112741832Y-110875956D01*
X112699150Y-110927113D01*
X112666017Y-110998425D01*
X112651156Y-111049308D01*
X112641558Y-111104608D01*
X112636128Y-111170855D01*
X112634559Y-111244002D01*
X112636543Y-111320005D01*
G36*
X112635338Y-110298914D02*
G01*
X112635710Y-110368322D01*
X112636577Y-110420711D01*
X112638138Y-110458861D01*
X112640595Y-110485549D01*
X112644149Y-110503555D01*
X112649002Y-110515659D01*
X112655353Y-110524639D01*
X112658276Y-110527890D01*
X112689334Y-110547665D01*
X112725020Y-110551226D01*
X112756702Y-110538217D01*
X112763105Y-110532202D01*
X112769313Y-110522473D01*
X112774102Y-110506807D01*
X112777706Y-110482300D01*
X112780356Y-110446047D01*
X112782287Y-110395143D01*
X112783731Y-110326682D01*
X112784610Y-110264091D01*
X112787659Y-110016374D01*
X112852570Y-110012989D01*
X112917481Y-110009603D01*
X112917481Y-110177750D01*
X112918111Y-110250749D01*
X112920745Y-110304191D01*
X112926501Y-110341080D01*
X112936496Y-110364420D01*
X112951848Y-110377214D01*
X112973674Y-110382466D01*
X112993930Y-110383263D01*
X113018784Y-110380785D01*
X113037098Y-110371431D01*
X113049829Y-110352325D01*
X113057933Y-110320590D01*
X113062368Y-110273349D01*
X113064091Y-110207725D01*
X113064237Y-110171907D01*
X113064237Y-110010730D01*
X113222281Y-110010730D01*
X113222281Y-110259086D01*
X113222394Y-110340495D01*
X113222904Y-110402366D01*
X113224062Y-110447740D01*
X113226122Y-110479654D01*
X113229338Y-110501149D01*
X113233964Y-110515265D01*
X113240251Y-110525040D01*
X113244859Y-110530019D01*
X113271752Y-110547098D01*
X113295659Y-110552597D01*
X113324859Y-110544745D01*
X113346459Y-110530019D01*
X113353258Y-110522162D01*
X113358538Y-110512020D01*
X113362490Y-110496864D01*
X113365305Y-110473967D01*
X113367174Y-110440599D01*
X113368290Y-110394033D01*
X113368843Y-110331541D01*
X113369025Y-110250394D01*
X113369037Y-110208286D01*
X113368957Y-110118110D01*
X113368590Y-110047784D01*
X113367744Y-109994579D01*
X113366228Y-109955768D01*
X113363851Y-109928621D01*
X113360421Y-109910410D01*
X113355746Y-109898408D01*
X113349636Y-109889886D01*
X113346459Y-109886552D01*
X113338862Y-109879953D01*
X113329062Y-109874781D01*
X113314431Y-109870862D01*
X113292344Y-109868024D01*
X113260174Y-109866093D01*
X113215295Y-109864896D01*
X113155081Y-109864260D01*
X113076905Y-109864011D01*
X113004115Y-109863974D01*
X112910899Y-109864008D01*
X112837623Y-109864243D01*
X112781650Y-109864878D01*
X112740343Y-109866114D01*
X112711064Y-109868152D01*
X112691176Y-109871191D01*
X112678042Y-109875431D01*
X112669024Y-109881073D01*
X112661485Y-109888317D01*
X112659804Y-109890102D01*
X112652364Y-109898763D01*
X112646601Y-109908826D01*
X112642304Y-109923083D01*
X112639256Y-109944325D01*
X112637243Y-109975344D01*
X112636052Y-110018931D01*
X112635467Y-110077877D01*
X112635275Y-110154974D01*
X112635259Y-110209707D01*
X112635338Y-110298914D01*
G37*
X112635338Y-110298914D02*
X112635710Y-110368322D01*
X112636577Y-110420711D01*
X112638138Y-110458861D01*
X112640595Y-110485549D01*
X112644149Y-110503555D01*
X112649002Y-110515659D01*
X112655353Y-110524639D01*
X112658276Y-110527890D01*
X112689334Y-110547665D01*
X112725020Y-110551226D01*
X112756702Y-110538217D01*
X112763105Y-110532202D01*
X112769313Y-110522473D01*
X112774102Y-110506807D01*
X112777706Y-110482300D01*
X112780356Y-110446047D01*
X112782287Y-110395143D01*
X112783731Y-110326682D01*
X112784610Y-110264091D01*
X112787659Y-110016374D01*
X112852570Y-110012989D01*
X112917481Y-110009603D01*
X112917481Y-110177750D01*
X112918111Y-110250749D01*
X112920745Y-110304191D01*
X112926501Y-110341080D01*
X112936496Y-110364420D01*
X112951848Y-110377214D01*
X112973674Y-110382466D01*
X112993930Y-110383263D01*
X113018784Y-110380785D01*
X113037098Y-110371431D01*
X113049829Y-110352325D01*
X113057933Y-110320590D01*
X113062368Y-110273349D01*
X113064091Y-110207725D01*
X113064237Y-110171907D01*
X113064237Y-110010730D01*
X113222281Y-110010730D01*
X113222281Y-110259086D01*
X113222394Y-110340495D01*
X113222904Y-110402366D01*
X113224062Y-110447740D01*
X113226122Y-110479654D01*
X113229338Y-110501149D01*
X113233964Y-110515265D01*
X113240251Y-110525040D01*
X113244859Y-110530019D01*
X113271752Y-110547098D01*
X113295659Y-110552597D01*
X113324859Y-110544745D01*
X113346459Y-110530019D01*
X113353258Y-110522162D01*
X113358538Y-110512020D01*
X113362490Y-110496864D01*
X113365305Y-110473967D01*
X113367174Y-110440599D01*
X113368290Y-110394033D01*
X113368843Y-110331541D01*
X113369025Y-110250394D01*
X113369037Y-110208286D01*
X113368957Y-110118110D01*
X113368590Y-110047784D01*
X113367744Y-109994579D01*
X113366228Y-109955768D01*
X113363851Y-109928621D01*
X113360421Y-109910410D01*
X113355746Y-109898408D01*
X113349636Y-109889886D01*
X113346459Y-109886552D01*
X113338862Y-109879953D01*
X113329062Y-109874781D01*
X113314431Y-109870862D01*
X113292344Y-109868024D01*
X113260174Y-109866093D01*
X113215295Y-109864896D01*
X113155081Y-109864260D01*
X113076905Y-109864011D01*
X113004115Y-109863974D01*
X112910899Y-109864008D01*
X112837623Y-109864243D01*
X112781650Y-109864878D01*
X112740343Y-109866114D01*
X112711064Y-109868152D01*
X112691176Y-109871191D01*
X112678042Y-109875431D01*
X112669024Y-109881073D01*
X112661485Y-109888317D01*
X112659804Y-109890102D01*
X112652364Y-109898763D01*
X112646601Y-109908826D01*
X112642304Y-109923083D01*
X112639256Y-109944325D01*
X112637243Y-109975344D01*
X112636052Y-110018931D01*
X112635467Y-110077877D01*
X112635275Y-110154974D01*
X112635259Y-110209707D01*
X112635338Y-110298914D01*
G36*
X112635258Y-108890337D02*
G01*
X112635659Y-108929819D01*
X112638451Y-109045508D01*
X112646742Y-109142397D01*
X112661424Y-109223789D01*
X112683385Y-109292985D01*
X112713514Y-109353288D01*
X112752702Y-109408000D01*
X112769724Y-109427541D01*
X112809555Y-109459958D01*
X112863605Y-109489188D01*
X112923515Y-109511717D01*
X112980931Y-109524029D01*
X113002148Y-109525308D01*
X113060961Y-109517291D01*
X113125205Y-109495809D01*
X113186013Y-109464709D01*
X113234522Y-109427842D01*
X113240374Y-109421854D01*
X113281513Y-109371129D01*
X113313627Y-109315583D01*
X113337557Y-109252012D01*
X113354145Y-109177214D01*
X113364233Y-109087986D01*
X113368661Y-108981126D01*
X113369037Y-108932180D01*
X113368737Y-108869946D01*
X113367484Y-108826180D01*
X113364746Y-108796777D01*
X113359993Y-108777629D01*
X113352693Y-108764631D01*
X113346459Y-108757663D01*
X113338886Y-108751082D01*
X113329116Y-108745920D01*
X113314532Y-108742005D01*
X113292518Y-108739165D01*
X113260456Y-108737228D01*
X113215728Y-108736024D01*
X113155718Y-108735380D01*
X113077809Y-108735125D01*
X113002148Y-108735086D01*
X112901233Y-108734838D01*
X112820619Y-108734891D01*
X112782014Y-108735851D01*
X112782014Y-108881841D01*
X113222281Y-108881841D01*
X113222196Y-108974974D01*
X113220588Y-109031015D01*
X113216448Y-109089709D01*
X113210656Y-109138680D01*
X113210418Y-109140170D01*
X113191282Y-109219316D01*
X113161479Y-109280706D01*
X113119070Y-109327403D01*
X113073153Y-109357073D01*
X113022218Y-109375355D01*
X112974392Y-109373937D01*
X112923125Y-109352720D01*
X112870091Y-109311219D01*
X112830792Y-109253710D01*
X112804523Y-109178958D01*
X112795227Y-109129000D01*
X112788699Y-109072292D01*
X112783974Y-109012189D01*
X112782009Y-108961069D01*
X112782000Y-108958041D01*
X112782014Y-108881841D01*
X112782014Y-108735851D01*
X112758043Y-108736448D01*
X112711247Y-108740710D01*
X112677970Y-108748878D01*
X112655951Y-108762152D01*
X112642931Y-108781734D01*
X112636649Y-108808825D01*
X112634845Y-108844626D01*
X112635258Y-108890337D01*
G37*
X112635258Y-108890337D02*
X112635659Y-108929819D01*
X112638451Y-109045508D01*
X112646742Y-109142397D01*
X112661424Y-109223789D01*
X112683385Y-109292985D01*
X112713514Y-109353288D01*
X112752702Y-109408000D01*
X112769724Y-109427541D01*
X112809555Y-109459958D01*
X112863605Y-109489188D01*
X112923515Y-109511717D01*
X112980931Y-109524029D01*
X113002148Y-109525308D01*
X113060961Y-109517291D01*
X113125205Y-109495809D01*
X113186013Y-109464709D01*
X113234522Y-109427842D01*
X113240374Y-109421854D01*
X113281513Y-109371129D01*
X113313627Y-109315583D01*
X113337557Y-109252012D01*
X113354145Y-109177214D01*
X113364233Y-109087986D01*
X113368661Y-108981126D01*
X113369037Y-108932180D01*
X113368737Y-108869946D01*
X113367484Y-108826180D01*
X113364746Y-108796777D01*
X113359993Y-108777629D01*
X113352693Y-108764631D01*
X113346459Y-108757663D01*
X113338886Y-108751082D01*
X113329116Y-108745920D01*
X113314532Y-108742005D01*
X113292518Y-108739165D01*
X113260456Y-108737228D01*
X113215728Y-108736024D01*
X113155718Y-108735380D01*
X113077809Y-108735125D01*
X113002148Y-108735086D01*
X112901233Y-108734838D01*
X112820619Y-108734891D01*
X112782014Y-108735851D01*
X112782014Y-108881841D01*
X113222281Y-108881841D01*
X113222196Y-108974974D01*
X113220588Y-109031015D01*
X113216448Y-109089709D01*
X113210656Y-109138680D01*
X113210418Y-109140170D01*
X113191282Y-109219316D01*
X113161479Y-109280706D01*
X113119070Y-109327403D01*
X113073153Y-109357073D01*
X113022218Y-109375355D01*
X112974392Y-109373937D01*
X112923125Y-109352720D01*
X112870091Y-109311219D01*
X112830792Y-109253710D01*
X112804523Y-109178958D01*
X112795227Y-109129000D01*
X112788699Y-109072292D01*
X112783974Y-109012189D01*
X112782009Y-108961069D01*
X112782000Y-108958041D01*
X112782014Y-108881841D01*
X112782014Y-108735851D01*
X112758043Y-108736448D01*
X112711247Y-108740710D01*
X112677970Y-108748878D01*
X112655951Y-108762152D01*
X112642931Y-108781734D01*
X112636649Y-108808825D01*
X112634845Y-108844626D01*
X112635258Y-108890337D01*
D14*
%TO.C,SB1*%
X55650000Y-99000000D02*
X55650000Y-101000000D01*
X58450000Y-99000000D02*
X55650000Y-99000000D01*
X58450000Y-101000000D02*
X58450000Y-99000000D01*
X55650000Y-101000000D02*
X58450000Y-101000000D01*
%TO.C,C28*%
X59290000Y-111141422D02*
X59290000Y-111658578D01*
X60710000Y-111141422D02*
X60710000Y-111658578D01*
%TO.C,R28*%
X62810000Y-111658578D02*
X62810000Y-111141422D01*
X61390000Y-111658578D02*
X61390000Y-111141422D01*
%TO.C,TP8*%
X80150000Y-100200000D02*
G75*
G03*
X80150000Y-100200000I-950000J0D01*
G01*
%TO.C,TP9*%
X74150000Y-106200000D02*
G75*
G03*
X74150000Y-106200000I-950000J0D01*
G01*
%TO.C,TP3*%
X64150000Y-107900000D02*
G75*
G03*
X64150000Y-107900000I-950000J0D01*
G01*
%TO.C,TP5*%
X82350000Y-66300000D02*
G75*
G03*
X82350000Y-66300000I-950000J0D01*
G01*
%TO.C,TP10*%
X74150000Y-103200000D02*
G75*
G03*
X74150000Y-103200000I-950000J0D01*
G01*
%TO.C,TP16*%
X80150000Y-104700000D02*
G75*
G03*
X80150000Y-104700000I-950000J0D01*
G01*
%TO.C,TP4*%
D10*
X87942857Y-63285714D02*
X87942857Y-63971428D01*
X89142857Y-63628571D02*
X87942857Y-63628571D01*
X89142857Y-64371428D02*
X87942857Y-64371428D01*
X87942857Y-64828571D01*
X88000000Y-64942857D01*
X88057142Y-65000000D01*
X88171428Y-65057142D01*
X88342857Y-65057142D01*
X88457142Y-65000000D01*
X88514285Y-64942857D01*
X88571428Y-64828571D01*
X88571428Y-64371428D01*
X88342857Y-66085714D02*
X89142857Y-66085714D01*
X87885714Y-65800000D02*
X88742857Y-65514285D01*
X88742857Y-66257142D01*
X89742857Y-63028571D02*
X90942857Y-63428571D01*
X89742857Y-63828571D01*
X90314285Y-64628571D02*
X90371428Y-64800000D01*
X90428571Y-64857142D01*
X90542857Y-64914285D01*
X90714285Y-64914285D01*
X90828571Y-64857142D01*
X90885714Y-64800000D01*
X90942857Y-64685714D01*
X90942857Y-64228571D01*
X89742857Y-64228571D01*
X89742857Y-64628571D01*
X89800000Y-64742857D01*
X89857142Y-64800000D01*
X89971428Y-64857142D01*
X90085714Y-64857142D01*
X90200000Y-64800000D01*
X90257142Y-64742857D01*
X90314285Y-64628571D01*
X90314285Y-64228571D01*
X90600000Y-65371428D02*
X90600000Y-65942857D01*
X90942857Y-65257142D02*
X89742857Y-65657142D01*
X90942857Y-66057142D01*
X89742857Y-66285714D02*
X89742857Y-66971428D01*
X90942857Y-66628571D02*
X89742857Y-66628571D01*
%TO.C,SB1*%
X55085714Y-98485714D02*
X55142857Y-98657142D01*
X55142857Y-98942857D01*
X55085714Y-99057142D01*
X55028571Y-99114285D01*
X54914285Y-99171428D01*
X54800000Y-99171428D01*
X54685714Y-99114285D01*
X54628571Y-99057142D01*
X54571428Y-98942857D01*
X54514285Y-98714285D01*
X54457142Y-98600000D01*
X54400000Y-98542857D01*
X54285714Y-98485714D01*
X54171428Y-98485714D01*
X54057142Y-98542857D01*
X54000000Y-98600000D01*
X53942857Y-98714285D01*
X53942857Y-99000000D01*
X54000000Y-99171428D01*
X54514285Y-100085714D02*
X54571428Y-100257142D01*
X54628571Y-100314285D01*
X54742857Y-100371428D01*
X54914285Y-100371428D01*
X55028571Y-100314285D01*
X55085714Y-100257142D01*
X55142857Y-100142857D01*
X55142857Y-99685714D01*
X53942857Y-99685714D01*
X53942857Y-100085714D01*
X54000000Y-100200000D01*
X54057142Y-100257142D01*
X54171428Y-100314285D01*
X54285714Y-100314285D01*
X54400000Y-100257142D01*
X54457142Y-100200000D01*
X54514285Y-100085714D01*
X54514285Y-99685714D01*
X55142857Y-101514285D02*
X55142857Y-100828571D01*
X55142857Y-101171428D02*
X53942857Y-101171428D01*
X54114285Y-101057142D01*
X54228571Y-100942857D01*
X54285714Y-100828571D01*
%TO.C,C28*%
D11*
X60457142Y-114157142D02*
X60504761Y-114109523D01*
X60552380Y-113966666D01*
X60552380Y-113871428D01*
X60504761Y-113728571D01*
X60409523Y-113633333D01*
X60314285Y-113585714D01*
X60123809Y-113538095D01*
X59980952Y-113538095D01*
X59790476Y-113585714D01*
X59695238Y-113633333D01*
X59600000Y-113728571D01*
X59552380Y-113871428D01*
X59552380Y-113966666D01*
X59600000Y-114109523D01*
X59647619Y-114157142D01*
X59647619Y-114538095D02*
X59600000Y-114585714D01*
X59552380Y-114680952D01*
X59552380Y-114919047D01*
X59600000Y-115014285D01*
X59647619Y-115061904D01*
X59742857Y-115109523D01*
X59838095Y-115109523D01*
X59980952Y-115061904D01*
X60552380Y-114490476D01*
X60552380Y-115109523D01*
X59980952Y-115680952D02*
X59933333Y-115585714D01*
X59885714Y-115538095D01*
X59790476Y-115490476D01*
X59742857Y-115490476D01*
X59647619Y-115538095D01*
X59600000Y-115585714D01*
X59552380Y-115680952D01*
X59552380Y-115871428D01*
X59600000Y-115966666D01*
X59647619Y-116014285D01*
X59742857Y-116061904D01*
X59790476Y-116061904D01*
X59885714Y-116014285D01*
X59933333Y-115966666D01*
X59980952Y-115871428D01*
X59980952Y-115680952D01*
X60028571Y-115585714D01*
X60076190Y-115538095D01*
X60171428Y-115490476D01*
X60361904Y-115490476D01*
X60457142Y-115538095D01*
X60504761Y-115585714D01*
X60552380Y-115680952D01*
X60552380Y-115871428D01*
X60504761Y-115966666D01*
X60457142Y-116014285D01*
X60361904Y-116061904D01*
X60171428Y-116061904D01*
X60076190Y-116014285D01*
X60028571Y-115966666D01*
X59980952Y-115871428D01*
%TO.C,R28*%
X62452380Y-114157142D02*
X61976190Y-113823809D01*
X62452380Y-113585714D02*
X61452380Y-113585714D01*
X61452380Y-113966666D01*
X61500000Y-114061904D01*
X61547619Y-114109523D01*
X61642857Y-114157142D01*
X61785714Y-114157142D01*
X61880952Y-114109523D01*
X61928571Y-114061904D01*
X61976190Y-113966666D01*
X61976190Y-113585714D01*
X61547619Y-114538095D02*
X61500000Y-114585714D01*
X61452380Y-114680952D01*
X61452380Y-114919047D01*
X61500000Y-115014285D01*
X61547619Y-115061904D01*
X61642857Y-115109523D01*
X61738095Y-115109523D01*
X61880952Y-115061904D01*
X62452380Y-114490476D01*
X62452380Y-115109523D01*
X61880952Y-115680952D02*
X61833333Y-115585714D01*
X61785714Y-115538095D01*
X61690476Y-115490476D01*
X61642857Y-115490476D01*
X61547619Y-115538095D01*
X61500000Y-115585714D01*
X61452380Y-115680952D01*
X61452380Y-115871428D01*
X61500000Y-115966666D01*
X61547619Y-116014285D01*
X61642857Y-116061904D01*
X61690476Y-116061904D01*
X61785714Y-116014285D01*
X61833333Y-115966666D01*
X61880952Y-115871428D01*
X61880952Y-115680952D01*
X61928571Y-115585714D01*
X61976190Y-115538095D01*
X62071428Y-115490476D01*
X62261904Y-115490476D01*
X62357142Y-115538095D01*
X62404761Y-115585714D01*
X62452380Y-115680952D01*
X62452380Y-115871428D01*
X62404761Y-115966666D01*
X62357142Y-116014285D01*
X62261904Y-116061904D01*
X62071428Y-116061904D01*
X61976190Y-116014285D01*
X61928571Y-115966666D01*
X61880952Y-115871428D01*
%TO.C,TP8*%
D10*
X77742857Y-95685714D02*
X77742857Y-96371428D01*
X78942857Y-96028571D02*
X77742857Y-96028571D01*
X78942857Y-96771428D02*
X77742857Y-96771428D01*
X77742857Y-97228571D01*
X77800000Y-97342857D01*
X77857142Y-97400000D01*
X77971428Y-97457142D01*
X78142857Y-97457142D01*
X78257142Y-97400000D01*
X78314285Y-97342857D01*
X78371428Y-97228571D01*
X78371428Y-96771428D01*
X78257142Y-98142857D02*
X78200000Y-98028571D01*
X78142857Y-97971428D01*
X78028571Y-97914285D01*
X77971428Y-97914285D01*
X77857142Y-97971428D01*
X77800000Y-98028571D01*
X77742857Y-98142857D01*
X77742857Y-98371428D01*
X77800000Y-98485714D01*
X77857142Y-98542857D01*
X77971428Y-98600000D01*
X78028571Y-98600000D01*
X78142857Y-98542857D01*
X78200000Y-98485714D01*
X78257142Y-98371428D01*
X78257142Y-98142857D01*
X78314285Y-98028571D01*
X78371428Y-97971428D01*
X78485714Y-97914285D01*
X78714285Y-97914285D01*
X78828571Y-97971428D01*
X78885714Y-98028571D01*
X78942857Y-98142857D01*
X78942857Y-98371428D01*
X78885714Y-98485714D01*
X78828571Y-98542857D01*
X78714285Y-98600000D01*
X78485714Y-98600000D01*
X78371428Y-98542857D01*
X78314285Y-98485714D01*
X78257142Y-98371428D01*
X80585714Y-95828571D02*
X80642857Y-96000000D01*
X80642857Y-96285714D01*
X80585714Y-96400000D01*
X80528571Y-96457142D01*
X80414285Y-96514285D01*
X80300000Y-96514285D01*
X80185714Y-96457142D01*
X80128571Y-96400000D01*
X80071428Y-96285714D01*
X80014285Y-96057142D01*
X79957142Y-95942857D01*
X79900000Y-95885714D01*
X79785714Y-95828571D01*
X79671428Y-95828571D01*
X79557142Y-95885714D01*
X79500000Y-95942857D01*
X79442857Y-96057142D01*
X79442857Y-96342857D01*
X79500000Y-96514285D01*
X80014285Y-97028571D02*
X80014285Y-97428571D01*
X80642857Y-97600000D02*
X80642857Y-97028571D01*
X79442857Y-97028571D01*
X79442857Y-97600000D01*
X80642857Y-98685714D02*
X80642857Y-98114285D01*
X79442857Y-98114285D01*
%TO.C,TP9*%
X71442857Y-107885714D02*
X71442857Y-108571428D01*
X72642857Y-108228571D02*
X71442857Y-108228571D01*
X72642857Y-108971428D02*
X71442857Y-108971428D01*
X71442857Y-109428571D01*
X71500000Y-109542857D01*
X71557142Y-109600000D01*
X71671428Y-109657142D01*
X71842857Y-109657142D01*
X71957142Y-109600000D01*
X72014285Y-109542857D01*
X72071428Y-109428571D01*
X72071428Y-108971428D01*
X72642857Y-110228571D02*
X72642857Y-110457142D01*
X72585714Y-110571428D01*
X72528571Y-110628571D01*
X72357142Y-110742857D01*
X72128571Y-110800000D01*
X71671428Y-110800000D01*
X71557142Y-110742857D01*
X71500000Y-110685714D01*
X71442857Y-110571428D01*
X71442857Y-110342857D01*
X71500000Y-110228571D01*
X71557142Y-110171428D01*
X71671428Y-110114285D01*
X71957142Y-110114285D01*
X72071428Y-110171428D01*
X72128571Y-110228571D01*
X72185714Y-110342857D01*
X72185714Y-110571428D01*
X72128571Y-110685714D01*
X72071428Y-110742857D01*
X71957142Y-110800000D01*
X74342857Y-107885714D02*
X73142857Y-107885714D01*
X73142857Y-108171428D01*
X73200000Y-108342857D01*
X73314285Y-108457142D01*
X73428571Y-108514285D01*
X73657142Y-108571428D01*
X73828571Y-108571428D01*
X74057142Y-108514285D01*
X74171428Y-108457142D01*
X74285714Y-108342857D01*
X74342857Y-108171428D01*
X74342857Y-107885714D01*
X73142857Y-109314285D02*
X73142857Y-109542857D01*
X73200000Y-109657142D01*
X73314285Y-109771428D01*
X73542857Y-109828571D01*
X73942857Y-109828571D01*
X74171428Y-109771428D01*
X74285714Y-109657142D01*
X74342857Y-109542857D01*
X74342857Y-109314285D01*
X74285714Y-109200000D01*
X74171428Y-109085714D01*
X73942857Y-109028571D01*
X73542857Y-109028571D01*
X73314285Y-109085714D01*
X73200000Y-109200000D01*
X73142857Y-109314285D01*
X74342857Y-110342857D02*
X73142857Y-110342857D01*
X74342857Y-111028571D01*
X73142857Y-111028571D01*
X73714285Y-111600000D02*
X73714285Y-112000000D01*
X74342857Y-112171428D02*
X74342857Y-111600000D01*
X73142857Y-111600000D01*
X73142857Y-112171428D01*
%TO.C,TP3*%
X61942857Y-103285714D02*
X61942857Y-103971428D01*
X63142857Y-103628571D02*
X61942857Y-103628571D01*
X63142857Y-104371428D02*
X61942857Y-104371428D01*
X61942857Y-104828571D01*
X62000000Y-104942857D01*
X62057142Y-105000000D01*
X62171428Y-105057142D01*
X62342857Y-105057142D01*
X62457142Y-105000000D01*
X62514285Y-104942857D01*
X62571428Y-104828571D01*
X62571428Y-104371428D01*
X61942857Y-105457142D02*
X61942857Y-106200000D01*
X62400000Y-105800000D01*
X62400000Y-105971428D01*
X62457142Y-106085714D01*
X62514285Y-106142857D01*
X62628571Y-106200000D01*
X62914285Y-106200000D01*
X63028571Y-106142857D01*
X63085714Y-106085714D01*
X63142857Y-105971428D01*
X63142857Y-105628571D01*
X63085714Y-105514285D01*
X63028571Y-105457142D01*
X63742857Y-103300000D02*
X64942857Y-103700000D01*
X63742857Y-104100000D01*
X64828571Y-105185714D02*
X64885714Y-105128571D01*
X64942857Y-104957142D01*
X64942857Y-104842857D01*
X64885714Y-104671428D01*
X64771428Y-104557142D01*
X64657142Y-104500000D01*
X64428571Y-104442857D01*
X64257142Y-104442857D01*
X64028571Y-104500000D01*
X63914285Y-104557142D01*
X63800000Y-104671428D01*
X63742857Y-104842857D01*
X63742857Y-104957142D01*
X63800000Y-105128571D01*
X63857142Y-105185714D01*
X64942857Y-105700000D02*
X63742857Y-105700000D01*
X63742857Y-106157142D01*
X63800000Y-106271428D01*
X63857142Y-106328571D01*
X63971428Y-106385714D01*
X64142857Y-106385714D01*
X64257142Y-106328571D01*
X64314285Y-106271428D01*
X64371428Y-106157142D01*
X64371428Y-105700000D01*
%TO.C,TP5*%
X81542857Y-61785714D02*
X81542857Y-62471428D01*
X82742857Y-62128571D02*
X81542857Y-62128571D01*
X82742857Y-62871428D02*
X81542857Y-62871428D01*
X81542857Y-63328571D01*
X81600000Y-63442857D01*
X81657142Y-63500000D01*
X81771428Y-63557142D01*
X81942857Y-63557142D01*
X82057142Y-63500000D01*
X82114285Y-63442857D01*
X82171428Y-63328571D01*
X82171428Y-62871428D01*
X81542857Y-64642857D02*
X81542857Y-64071428D01*
X82114285Y-64014285D01*
X82057142Y-64071428D01*
X82000000Y-64185714D01*
X82000000Y-64471428D01*
X82057142Y-64585714D01*
X82114285Y-64642857D01*
X82228571Y-64700000D01*
X82514285Y-64700000D01*
X82628571Y-64642857D01*
X82685714Y-64585714D01*
X82742857Y-64471428D01*
X82742857Y-64185714D01*
X82685714Y-64071428D01*
X82628571Y-64014285D01*
X79742857Y-61528571D02*
X79742857Y-62271428D01*
X80200000Y-61871428D01*
X80200000Y-62042857D01*
X80257142Y-62157142D01*
X80314285Y-62214285D01*
X80428571Y-62271428D01*
X80714285Y-62271428D01*
X80828571Y-62214285D01*
X80885714Y-62157142D01*
X80942857Y-62042857D01*
X80942857Y-61700000D01*
X80885714Y-61585714D01*
X80828571Y-61528571D01*
X79857142Y-62728571D02*
X79800000Y-62785714D01*
X79742857Y-62900000D01*
X79742857Y-63185714D01*
X79800000Y-63300000D01*
X79857142Y-63357142D01*
X79971428Y-63414285D01*
X80085714Y-63414285D01*
X80257142Y-63357142D01*
X80942857Y-62671428D01*
X80942857Y-63414285D01*
X80942857Y-63928571D02*
X79742857Y-63928571D01*
X80942857Y-64614285D02*
X80257142Y-64100000D01*
X79742857Y-64614285D02*
X80428571Y-63928571D01*
%TO.C,TP10*%
X71342857Y-97414285D02*
X71342857Y-98100000D01*
X72542857Y-97757142D02*
X71342857Y-97757142D01*
X72542857Y-98500000D02*
X71342857Y-98500000D01*
X71342857Y-98957142D01*
X71400000Y-99071428D01*
X71457142Y-99128571D01*
X71571428Y-99185714D01*
X71742857Y-99185714D01*
X71857142Y-99128571D01*
X71914285Y-99071428D01*
X71971428Y-98957142D01*
X71971428Y-98500000D01*
X72542857Y-100328571D02*
X72542857Y-99642857D01*
X72542857Y-99985714D02*
X71342857Y-99985714D01*
X71514285Y-99871428D01*
X71628571Y-99757142D01*
X71685714Y-99642857D01*
X71342857Y-101071428D02*
X71342857Y-101185714D01*
X71400000Y-101300000D01*
X71457142Y-101357142D01*
X71571428Y-101414285D01*
X71800000Y-101471428D01*
X72085714Y-101471428D01*
X72314285Y-101414285D01*
X72428571Y-101357142D01*
X72485714Y-101300000D01*
X72542857Y-101185714D01*
X72542857Y-101071428D01*
X72485714Y-100957142D01*
X72428571Y-100900000D01*
X72314285Y-100842857D01*
X72085714Y-100785714D01*
X71800000Y-100785714D01*
X71571428Y-100842857D01*
X71457142Y-100900000D01*
X71400000Y-100957142D01*
X71342857Y-101071428D01*
X74285714Y-95728571D02*
X74342857Y-95900000D01*
X74342857Y-96185714D01*
X74285714Y-96300000D01*
X74228571Y-96357142D01*
X74114285Y-96414285D01*
X74000000Y-96414285D01*
X73885714Y-96357142D01*
X73828571Y-96300000D01*
X73771428Y-96185714D01*
X73714285Y-95957142D01*
X73657142Y-95842857D01*
X73600000Y-95785714D01*
X73485714Y-95728571D01*
X73371428Y-95728571D01*
X73257142Y-95785714D01*
X73200000Y-95842857D01*
X73142857Y-95957142D01*
X73142857Y-96242857D01*
X73200000Y-96414285D01*
X73142857Y-96757142D02*
X73142857Y-97442857D01*
X74342857Y-97100000D02*
X73142857Y-97100000D01*
X74000000Y-97785714D02*
X74000000Y-98357142D01*
X74342857Y-97671428D02*
X73142857Y-98071428D01*
X74342857Y-98471428D01*
X73142857Y-98700000D02*
X73142857Y-99385714D01*
X74342857Y-99042857D02*
X73142857Y-99042857D01*
X73142857Y-99785714D02*
X74114285Y-99785714D01*
X74228571Y-99842857D01*
X74285714Y-99900000D01*
X74342857Y-100014285D01*
X74342857Y-100242857D01*
X74285714Y-100357142D01*
X74228571Y-100414285D01*
X74114285Y-100471428D01*
X73142857Y-100471428D01*
X74285714Y-100985714D02*
X74342857Y-101157142D01*
X74342857Y-101442857D01*
X74285714Y-101557142D01*
X74228571Y-101614285D01*
X74114285Y-101671428D01*
X74000000Y-101671428D01*
X73885714Y-101614285D01*
X73828571Y-101557142D01*
X73771428Y-101442857D01*
X73714285Y-101214285D01*
X73657142Y-101100000D01*
X73600000Y-101042857D01*
X73485714Y-100985714D01*
X73371428Y-100985714D01*
X73257142Y-101042857D01*
X73200000Y-101100000D01*
X73142857Y-101214285D01*
X73142857Y-101500000D01*
X73200000Y-101671428D01*
%TO.C,TP16*%
X77642857Y-105814285D02*
X77642857Y-106500000D01*
X78842857Y-106157142D02*
X77642857Y-106157142D01*
X78842857Y-106900000D02*
X77642857Y-106900000D01*
X77642857Y-107357142D01*
X77700000Y-107471428D01*
X77757142Y-107528571D01*
X77871428Y-107585714D01*
X78042857Y-107585714D01*
X78157142Y-107528571D01*
X78214285Y-107471428D01*
X78271428Y-107357142D01*
X78271428Y-106900000D01*
X78842857Y-108728571D02*
X78842857Y-108042857D01*
X78842857Y-108385714D02*
X77642857Y-108385714D01*
X77814285Y-108271428D01*
X77928571Y-108157142D01*
X77985714Y-108042857D01*
X77642857Y-109757142D02*
X77642857Y-109528571D01*
X77700000Y-109414285D01*
X77757142Y-109357142D01*
X77928571Y-109242857D01*
X78157142Y-109185714D01*
X78614285Y-109185714D01*
X78728571Y-109242857D01*
X78785714Y-109300000D01*
X78842857Y-109414285D01*
X78842857Y-109642857D01*
X78785714Y-109757142D01*
X78728571Y-109814285D01*
X78614285Y-109871428D01*
X78328571Y-109871428D01*
X78214285Y-109814285D01*
X78157142Y-109757142D01*
X78100000Y-109642857D01*
X78100000Y-109414285D01*
X78157142Y-109300000D01*
X78214285Y-109242857D01*
X78328571Y-109185714D01*
X79842857Y-106128571D02*
X80642857Y-106128571D01*
X79957142Y-106128571D02*
X79900000Y-106185714D01*
X79842857Y-106300000D01*
X79842857Y-106471428D01*
X79900000Y-106585714D01*
X80014285Y-106642857D01*
X80642857Y-106642857D01*
X80528571Y-107900000D02*
X80585714Y-107842857D01*
X80642857Y-107671428D01*
X80642857Y-107557142D01*
X80585714Y-107385714D01*
X80471428Y-107271428D01*
X80357142Y-107214285D01*
X80128571Y-107157142D01*
X79957142Y-107157142D01*
X79728571Y-107214285D01*
X79614285Y-107271428D01*
X79500000Y-107385714D01*
X79442857Y-107557142D01*
X79442857Y-107671428D01*
X79500000Y-107842857D01*
X79557142Y-107900000D01*
X80014285Y-108814285D02*
X80014285Y-108414285D01*
X80642857Y-108414285D02*
X79442857Y-108414285D01*
X79442857Y-108985714D01*
X79500000Y-110071428D02*
X79442857Y-109957142D01*
X79442857Y-109785714D01*
X79500000Y-109614285D01*
X79614285Y-109500000D01*
X79728571Y-109442857D01*
X79957142Y-109385714D01*
X80128571Y-109385714D01*
X80357142Y-109442857D01*
X80471428Y-109500000D01*
X80585714Y-109614285D01*
X80642857Y-109785714D01*
X80642857Y-109900000D01*
X80585714Y-110071428D01*
X80528571Y-110128571D01*
X80128571Y-110128571D01*
X80128571Y-109900000D01*
%TD*%
M02*
