G04 CAM350 V9.0.1 (Build 158) Date:  Tue Mar 30 10:51:43 2021 *
G04 Database: F:\Œ‚ø∆\JDB\¥˝»∑»œ\”‡—Ó¿Ê\G682215-S-J7W145256A-W145256ASJ6\G682215-S-J7W145256A-W145256ASJ6\G682215-S-J7W145256A-W145256ASJ6.cam *
G04 Layer 7: g682215-s-j7w14 *
%FSTAX23Y23*%
%MOIN*%
%SFA1.000B1.000*%

%MIA0B0*%
%IPPOS*%
%ADD227R,0.10236X0.14173*%
%ADD228R,0.05905X0.03937*%
%ADD230R,0.10630X0.08661*%
%ADD233R,0.03543X0.03150*%
%ADD235R,0.06102X0.03937*%
%ADD236R,0.05905X0.05905*%
%ADD238R,0.05512X0.03150*%
%ADD239R,0.03937X0.05709*%
%ADD240R,0.05905X0.03150*%
%ADD241R,0.05905X0.05118*%
%ADD242R,0.07874X0.14961*%
%ADD243R,0.07874X0.05905*%
%ADD244R,0.03150X0.03543*%
%ADD247C,0.12394*%
%ADD248R,0.05500X0.03900*%
%ADD249R,0.03900X0.05500*%
%ADD250R,0.02559X0.06900*%
%ADD252R,0.05800X0.03900*%
%ADD253R,0.03900X0.05800*%
%ADD254R,0.04000X0.05500*%
%ADD255R,0.05500X0.04000*%
%ADD256R,0.10600X0.05200*%
%ADD258R,0.04173X0.02008*%
%ADD260R,0.05118X0.01260*%
%ADD262R,0.02394X0.02394*%
%ADD265O,0.03300X0.00906*%
%ADD266O,0.00906X0.03300*%
%ADD271R,0.05800X0.01339*%
%ADD273R,0.07579X0.02559*%
%ADD274R,0.02559X0.07579*%
%ADD277R,0.01693X0.06000*%
%ADD279R,0.04500X0.05500*%
%ADD280R,0.05500X0.04500*%
%ADD281R,0.06890X0.02559*%
%ADD283R,0.04100X0.05500*%
%ADD285C,0.00000*%
%LNg682215-s-j7w14*%
%LPD*%
G54D227*
X04041Y03378D03*
X02888D03*
G54D228*
X02423Y02937D03*
Y02811D03*
X02616Y02937D03*
Y02811D03*
G54D230*
X01069Y03102D03*
X00868D03*
G54D233*
X04272Y00972D03*
X0435Y0101D03*
Y00935D03*
G54D235*
X00474Y00489D03*
G54D238*
X00379Y00473D03*
G54D239*
X00412Y00931D03*
G54D240*
X00353Y00944D03*
G54D241*
X00054Y00934D03*
G54D242*
X01585Y02866D03*
G54D243*
X01337D03*
Y02776D03*
Y02957D03*
G54D244*
X02518Y0352D03*
X02443D03*
X0248Y03441D03*
G54D228*
X02614Y03126D03*
Y03252D03*
X02421Y03126D03*
Y03252D03*
G54D236*
X00054Y00487D03*
G54D247*
X03962Y-00632D03*
X00562D03*
X04362Y04568D03*
X00562D03*
G54D249*
X02571Y00146D03*
X02642D03*
G54D248*
X0091Y00426D03*
G54D249*
X00651Y00559D03*
X00577D03*
X03329Y00622D03*
X03403D03*
X02087D03*
X0065Y00642D03*
X00578D03*
G54D248*
X0091Y00976D03*
G54D249*
X0065Y00973D03*
X04347Y01087D03*
X04273D03*
X03281Y01044D03*
X03207D03*
X00494Y01099D03*
Y01193D03*
X0042D03*
X00493Y013D03*
X0295Y01457D03*
X02877D03*
X00425Y01638D03*
X00352D03*
X01798Y01713D03*
X0187D03*
X0173D03*
X01656D03*
X00349Y01741D03*
G54D248*
X03937Y01853D03*
G54D249*
X0295Y01811D03*
X02877D03*
X00423Y01819D03*
X00349D03*
G54D248*
X03937Y01927D03*
X00756Y0194D03*
G54D249*
X01836Y02048D03*
X01763D03*
G54D248*
X00756Y02013D03*
G54D249*
X00423Y02087D03*
Y02008D03*
X00349Y02087D03*
Y02008D03*
X03265Y02146D03*
X03192D03*
X00691Y02457D03*
X00617D03*
X02556Y02591D03*
X01076Y02741D03*
X01003D03*
X00928D03*
X00855D03*
X00928Y02819D03*
X00855D03*
X01075Y02898D03*
X01001D03*
X00927D03*
X00853D03*
X01413Y03107D03*
X01339D03*
G54D248*
X01193Y0341D03*
X02087Y03499D03*
X0176Y03496D03*
Y03422D03*
X01508Y03499D03*
Y03425D03*
X01193Y03483D03*
X02087Y03573D03*
X01595Y03577D03*
X01508Y03579D03*
X01595Y03651D03*
X01508Y03653D03*
G54D249*
X01943Y03772D03*
X01869D03*
G54D250*
X01992Y03427D03*
X01842D03*
X01892D03*
X01942D03*
X01433D03*
X01383D03*
X01333D03*
X01283D03*
X01992Y03629D03*
X01942D03*
X01892D03*
X01842D03*
X01433D03*
X01283D03*
X01333D03*
X01383D03*
G54D253*
X02081Y01245D03*
X02006D03*
G54D252*
X02311Y02813D03*
Y02888D03*
G54D253*
X02483Y03367D03*
X02557D03*
G54D255*
X0091Y00354D03*
G54D254*
X02013Y00622D03*
X00576Y00973D03*
X0042Y01099D03*
X00421Y013D03*
Y01386D03*
X00423Y01741D03*
X02484Y02591D03*
G54D256*
X00551Y02773D03*
Y02896D03*
G54D258*
X00772Y02797D03*
X00685D03*
X00772Y02872D03*
Y02835D03*
X00685Y02872D03*
Y02835D03*
G54D260*
X00224Y01839D03*
Y01941D03*
Y01915D03*
Y0189D03*
Y01864D03*
G54D262*
X00566Y01914D03*
X00618Y01913D03*
X00566Y01866D03*
X00618D03*
G54D265*
X00667Y01841D03*
G54D266*
X0064Y01814D03*
X0062D03*
X006D03*
X00581D03*
X00561D03*
X00541D03*
G54D265*
X00515Y01841D03*
X00667Y01939D03*
Y01919D03*
Y019D03*
Y0188D03*
Y0186D03*
G54D266*
X00561Y01966D03*
X00581D03*
X006D03*
X0062D03*
X0064D03*
X00541D03*
G54D265*
X00515Y0186D03*
Y0188D03*
Y019D03*
Y01919D03*
Y01939D03*
G54D271*
X0342Y00777D03*
Y00751D03*
X03194D03*
Y00777D03*
X0342Y00879D03*
Y00853D03*
Y00828D03*
Y00802D03*
X03194D03*
Y00828D03*
Y00853D03*
Y00879D03*
X0342Y00981D03*
Y00956D03*
Y0093D03*
Y00905D03*
X03194D03*
Y0093D03*
Y00956D03*
Y00981D03*
X03026Y01241D03*
Y01216D03*
Y0119D03*
Y01164D03*
X02801D03*
Y0119D03*
Y01216D03*
Y01241D03*
X03026Y01344D03*
Y01318D03*
Y01292D03*
Y01267D03*
X02801D03*
Y01292D03*
Y01318D03*
Y01344D03*
X03026Y01395D03*
Y01369D03*
X02801D03*
Y01395D03*
X03026Y0157D03*
Y01544D03*
Y01519D03*
X02801D03*
Y01544D03*
Y0157D03*
X03026Y01698D03*
Y01672D03*
Y01647D03*
Y01621D03*
Y01596D03*
X02801D03*
Y01621D03*
Y01647D03*
Y01672D03*
Y01698D03*
X03026Y01749D03*
Y01724D03*
X02801D03*
Y01749D03*
X03341Y0193D03*
Y01905D03*
Y01879D03*
Y01853D03*
X03116D03*
Y01879D03*
Y01905D03*
Y0193D03*
X03341Y02033D03*
Y02007D03*
Y01981D03*
Y01956D03*
X03116D03*
Y01981D03*
Y02007D03*
Y02033D03*
X03341Y02084D03*
Y02058D03*
X03116D03*
Y02084D03*
G54D274*
X0399Y01108D03*
X0384D03*
X0389D03*
X0394D03*
X0369D03*
X0374D03*
X0379D03*
X0354D03*
X0359D03*
X0364D03*
X0349D03*
G54D273*
X0405Y01267D03*
Y01217D03*
Y01167D03*
X03431Y01267D03*
Y01217D03*
Y01167D03*
X0405Y01417D03*
Y01367D03*
Y01317D03*
X03431Y01417D03*
Y01367D03*
Y01317D03*
X0405Y01467D03*
Y01517D03*
Y01567D03*
X03431D03*
Y01517D03*
Y01467D03*
X0405Y01617D03*
Y01667D03*
G54D274*
X0399Y01727D03*
X0394D03*
X0389D03*
X0384D03*
X0379D03*
X0374D03*
X0369D03*
X0364D03*
X0359D03*
X0354D03*
X0349D03*
G54D273*
X03431Y01667D03*
Y01617D03*
X01869Y01865D03*
Y01815D03*
X01675Y01865D03*
Y01815D03*
X01869Y01965D03*
Y01915D03*
X01675D03*
Y01965D03*
G54D277*
X02378Y00705D03*
X02347D03*
X02284D03*
X02252D03*
X02221D03*
X02315D03*
X02189D03*
X02158D03*
X02126D03*
X02095D03*
X02063D03*
X02032D03*
X02D03*
X01969D03*
X01937D03*
X01906D03*
X01874D03*
X01843D03*
X01811D03*
X0178D03*
X01748D03*
X01717D03*
X02347Y01145D03*
X02378D03*
X02221D03*
X02252D03*
X02284D03*
X02315D03*
X02095D03*
X02126D03*
X02158D03*
X02189D03*
X01969D03*
X02D03*
X02032D03*
X02063D03*
X01843D03*
X01874D03*
X01906D03*
X01937D03*
X01717D03*
X01748D03*
X0178D03*
X01811D03*
G54D279*
X02482Y00146D03*
X02401D03*
G54D280*
X00823Y0035D03*
Y0043D03*
Y00972D03*
Y01053D03*
G54D255*
X0091Y01047D03*
G54D281*
X00049Y00584D03*
Y00714D03*
Y0067D03*
Y00627D03*
Y00887D03*
Y00843D03*
Y008D03*
Y00757D03*
G54D283*
X00493Y01386D03*
G54D285*
X-01181Y-01871D02*
G75*
G03X-00984Y-02067I00197D01*
X05708D02*
G03X05905Y-01871J00197D01*
Y05807D02*
G03X05708Y06003I-00197D01*
X-00984D02*
G03X-01181Y05807J-00197D01*
X05905Y-01871D02*
G01Y01602D01*
Y01621D02*
G01Y05807D01*
X05708Y06003D02*
G01X01963D01*
X01944D02*
G01X-00984D01*
X-01181Y05807D02*
G01Y01621D01*
Y01602D02*
G01Y-01871D01*
X-00984Y-02067D02*
G01X01944D01*
X01963D02*
G01X05708D01*
G01X01099Y-0111D02*
Y-01188D01*
Y-0111D02*
X01128Y-01188D01*
X01158Y-0111D02*
X01128Y-01188D01*
X01158Y-0111D02*
Y-01188D01*
X01206Y-0111D02*
X01198Y-01114D01*
X01191Y-01121D01*
X01187Y-01129D01*
X01184Y-0114D01*
Y-01158D01*
X01187Y-01169D01*
X01191Y-01177D01*
X01198Y-01184D01*
X01206Y-01188D01*
X01221D01*
X01228Y-01184D01*
X01235Y-01177D01*
X01239Y-01169D01*
X01243Y-01158D01*
Y-0114D01*
X01239Y-01129D01*
X01235Y-01121D01*
X01228Y-01114D01*
X01221Y-0111D01*
X01206D01*
X01269D02*
Y-01188D01*
Y-0111D02*
X01294D01*
X01305Y-01114D01*
X01313Y-01121D01*
X01317Y-01129D01*
X0132Y-0114D01*
Y-01158D01*
X01317Y-01169D01*
X01313Y-01177D01*
X01305Y-01184D01*
X01294Y-01188D01*
X01269D01*
X01346Y-0111D02*
Y-01188D01*
Y-0111D02*
X01394D01*
X01346Y-01147D02*
X01376D01*
X01346Y-01188D02*
X01394D01*
X01416Y-0111D02*
Y-01188D01*
Y-01188D02*
X01461D01*
X01483Y-01136D02*
X01479Y-0114D01*
X01483Y-01143D01*
X01486Y-0114D01*
X01483Y-01136D01*
Y-0118D02*
X01479Y-01184D01*
X01483Y-01188D01*
X01486Y-01184D01*
X01483Y-0118D01*
X01568Y-01129D02*
X01564Y-01121D01*
X01556Y-01114D01*
X01549Y-0111D01*
X01534D01*
X01527Y-01114D01*
X0152Y-01121D01*
X01516Y-01129D01*
X01512Y-0114D01*
Y-01158D01*
X01516Y-01169D01*
X0152Y-01177D01*
X01527Y-01184D01*
X01534Y-01188D01*
X01549D01*
X01556Y-01184D01*
X01564Y-01177D01*
X01568Y-01169D01*
Y-01158D01*
X01549D02*
X01568D01*
X01638Y-01121D02*
X01634Y-01114D01*
X01623Y-0111D01*
X01616D01*
X01604Y-01114D01*
X01597Y-01125D01*
X01593Y-01143D01*
Y-01162D01*
X01597Y-01177D01*
X01604Y-01184D01*
X01616Y-01188D01*
X01619D01*
X0163Y-01184D01*
X01638Y-01177D01*
X01641Y-01166D01*
Y-01162D01*
X01638Y-01151D01*
X0163Y-01143D01*
X01619Y-0114D01*
X01616D01*
X01604Y-01143D01*
X01597Y-01151D01*
X01593Y-01162D01*
X01682Y-0111D02*
X01671Y-01114D01*
X01667Y-01121D01*
Y-01129D01*
X01671Y-01136D01*
X01678Y-0114D01*
X01693Y-01143D01*
X01704Y-01147D01*
X01711Y-01154D01*
X01715Y-01162D01*
Y-01173D01*
X01711Y-0118D01*
X01708Y-01184D01*
X01697Y-01188D01*
X01682D01*
X01671Y-01184D01*
X01667Y-0118D01*
X01664Y-01173D01*
Y-01162D01*
X01667Y-01154D01*
X01675Y-01147D01*
X01686Y-01143D01*
X017Y-0114D01*
X01708Y-01136D01*
X01711Y-01129D01*
Y-01121D01*
X01708Y-01114D01*
X01697Y-0111D01*
X01682D01*
X01741Y-01129D02*
Y-01125D01*
X01745Y-01118D01*
X01748Y-01114D01*
X01756Y-0111D01*
X01771D01*
X01778Y-01114D01*
X01782Y-01118D01*
X01785Y-01125D01*
Y-01132D01*
X01782Y-0114D01*
X01774Y-01151D01*
X01737Y-01188D01*
X01789D01*
X01815Y-01129D02*
Y-01125D01*
X01819Y-01118D01*
X01822Y-01114D01*
X0183Y-0111D01*
X01844D01*
X01852Y-01114D01*
X01855Y-01118D01*
X01859Y-01125D01*
Y-01132D01*
X01855Y-0114D01*
X01848Y-01151D01*
X01811Y-01188D01*
X01863D01*
X01896Y-01125D02*
X01903Y-01121D01*
X01914Y-0111D01*
Y-01188D01*
X02003Y-0111D02*
X01966D01*
X01962Y-01143D01*
X01966Y-0114D01*
X01977Y-01136D01*
X01988D01*
X01999Y-0114D01*
X02007Y-01147D01*
X0201Y-01158D01*
Y-01166D01*
X02007Y-01177D01*
X01999Y-01184D01*
X01988Y-01188D01*
X01977D01*
X01966Y-01184D01*
X01962Y-0118D01*
X01959Y-01173D01*
X02036Y-01154D02*
X02103D01*
X0218Y-01121D02*
X02173Y-01114D01*
X02162Y-0111D01*
X02147D01*
X02136Y-01114D01*
X02129Y-01121D01*
Y-01129D01*
X02132Y-01136D01*
X02136Y-0114D01*
X02143Y-01143D01*
X02165Y-01151D01*
X02173Y-01154D01*
X02177Y-01158D01*
X0218Y-01166D01*
Y-01177D01*
X02173Y-01184D01*
X02162Y-01188D01*
X02147D01*
X02136Y-01184D01*
X02129Y-01177D01*
X02206Y-01154D02*
X02273D01*
X02332Y-0111D02*
Y-01169D01*
X02328Y-0118D01*
X02324Y-01184D01*
X02317Y-01188D01*
X02309D01*
X02302Y-01184D01*
X02298Y-0118D01*
X02295Y-01169D01*
Y-01162D01*
X02409Y-0111D02*
X02372Y-01188D01*
X02357Y-0111D02*
X02409D01*
X02428D02*
X02446Y-01188D01*
X02464Y-0111D02*
X02446Y-01188D01*
X02464Y-0111D02*
X02483Y-01188D01*
X02501Y-0111D02*
X02483Y-01188D01*
X02531Y-01125D02*
X02538Y-01121D01*
X02549Y-0111D01*
Y-01188D01*
X02631Y-0111D02*
X02594Y-01162D01*
X02649D01*
X02631Y-0111D02*
Y-01188D01*
X02712Y-0111D02*
X02675D01*
X02671Y-01143D01*
X02675Y-0114D01*
X02686Y-01136D01*
X02697D01*
X02708Y-0114D01*
X02715Y-01147D01*
X02719Y-01158D01*
Y-01166D01*
X02715Y-01177D01*
X02708Y-01184D01*
X02697Y-01188D01*
X02686D01*
X02675Y-01184D01*
X02671Y-0118D01*
X02667Y-01173D01*
X02745Y-01129D02*
Y-01125D01*
X02749Y-01118D01*
X02752Y-01114D01*
X0276Y-0111D01*
X02774D01*
X02782Y-01114D01*
X02786Y-01118D01*
X02789Y-01125D01*
Y-01132D01*
X02786Y-0114D01*
X02778Y-01151D01*
X02741Y-01188D01*
X02793D01*
X02859Y-0111D02*
X02822D01*
X02819Y-01143D01*
X02822Y-0114D01*
X02834Y-01136D01*
X02845D01*
X02856Y-0114D01*
X02863Y-01147D01*
X02867Y-01158D01*
Y-01166D01*
X02863Y-01177D01*
X02856Y-01184D01*
X02845Y-01188D01*
X02834D01*
X02822Y-01184D01*
X02819Y-0118D01*
X02815Y-01173D01*
X02937Y-01121D02*
X02933Y-01114D01*
X02922Y-0111D01*
X02915D01*
X02904Y-01114D01*
X02896Y-01125D01*
X02893Y-01143D01*
Y-01162D01*
X02896Y-01177D01*
X02904Y-01184D01*
X02915Y-01188D01*
X02918D01*
X0293Y-01184D01*
X02937Y-01177D01*
X02941Y-01166D01*
Y-01162D01*
X02937Y-01151D01*
X0293Y-01143D01*
X02918Y-0114D01*
X02915D01*
X02904Y-01143D01*
X02896Y-01151D01*
X02893Y-01162D01*
X02985Y-0111D02*
X02955Y-01188D01*
X02985Y-0111D02*
X03014Y-01188D01*
X02966Y-01162D02*
X03003D01*
X03033Y-01154D02*
X03099D01*
X03121Y-0111D02*
X0314Y-01188D01*
X03158Y-0111D02*
X0314Y-01188D01*
X03158Y-0111D02*
X03177Y-01188D01*
X03195Y-0111D02*
X03177Y-01188D01*
X03225Y-01125D02*
X03232Y-01121D01*
X03243Y-0111D01*
Y-01188D01*
X03324Y-0111D02*
X03288Y-01162D01*
X03343D01*
X03324Y-0111D02*
Y-01188D01*
X03406Y-0111D02*
X03369D01*
X03365Y-01143D01*
X03369Y-0114D01*
X0338Y-01136D01*
X03391D01*
X03402Y-0114D01*
X03409Y-01147D01*
X03413Y-01158D01*
Y-01166D01*
X03409Y-01177D01*
X03402Y-01184D01*
X03391Y-01188D01*
X0338D01*
X03369Y-01184D01*
X03365Y-0118D01*
X03361Y-01173D01*
X03439Y-01129D02*
Y-01125D01*
X03443Y-01118D01*
X03446Y-01114D01*
X03454Y-0111D01*
X03468D01*
X03476Y-01114D01*
X03479Y-01118D01*
X03483Y-01125D01*
Y-01132D01*
X03479Y-0114D01*
X03472Y-01151D01*
X03435Y-01188D01*
X03487D01*
X03553Y-0111D02*
X03516D01*
X03513Y-01143D01*
X03516Y-0114D01*
X03527Y-01136D01*
X03539D01*
X0355Y-0114D01*
X03557Y-01147D01*
X03561Y-01158D01*
Y-01166D01*
X03557Y-01177D01*
X0355Y-01184D01*
X03539Y-01188D01*
X03527D01*
X03516Y-01184D01*
X03513Y-0118D01*
X03509Y-01173D01*
X03631Y-01121D02*
X03627Y-01114D01*
X03616Y-0111D01*
X03609D01*
X03598Y-01114D01*
X0359Y-01125D01*
X03586Y-01143D01*
Y-01162D01*
X0359Y-01177D01*
X03598Y-01184D01*
X03609Y-01188D01*
X03612D01*
X03623Y-01184D01*
X03631Y-01177D01*
X03634Y-01166D01*
Y-01162D01*
X03631Y-01151D01*
X03623Y-01143D01*
X03612Y-0114D01*
X03609D01*
X03598Y-01143D01*
X0359Y-01151D01*
X03586Y-01162D01*
X03679Y-0111D02*
X03649Y-01188D01*
X03679Y-0111D02*
X03708Y-01188D01*
X0366Y-01162D02*
X03697D01*
X03775Y-01121D02*
X03767Y-01114D01*
X03756Y-0111D01*
X03742D01*
X0373Y-01114D01*
X03723Y-01121D01*
Y-01129D01*
X03727Y-01136D01*
X0373Y-0114D01*
X03738Y-01143D01*
X0376Y-01151D01*
X03767Y-01154D01*
X03771Y-01158D01*
X03775Y-01166D01*
Y-01177D01*
X03767Y-01184D01*
X03756Y-01188D01*
X03742D01*
X0373Y-01184D01*
X03723Y-01177D01*
X0383Y-0111D02*
Y-01169D01*
X03826Y-0118D01*
X03823Y-01184D01*
X03815Y-01188D01*
X03808D01*
X03801Y-01184D01*
X03797Y-0118D01*
X03793Y-01169D01*
Y-01162D01*
X03904Y-01121D02*
X039Y-01114D01*
X03889Y-0111D01*
X03882D01*
X03871Y-01114D01*
X03863Y-01125D01*
X0386Y-01143D01*
Y-01162D01*
X03863Y-01177D01*
X03871Y-01184D01*
X03882Y-01188D01*
X03885D01*
X03897Y-01184D01*
X03904Y-01177D01*
X03908Y-01166D01*
Y-01162D01*
X03904Y-01151D01*
X03897Y-01143D01*
X03885Y-0114D01*
X03882D01*
X03871Y-01143D01*
X03863Y-01151D01*
X0386Y-01162D01*
X01147Y-01289D02*
X01139Y-01282D01*
X01128Y-01278D01*
X01114D01*
X01102Y-01282D01*
X01095Y-01289D01*
Y-01297D01*
X01099Y-01304D01*
X01102Y-01308D01*
X0111Y-01312D01*
X01132Y-01319D01*
X01139Y-01323D01*
X01143Y-01326D01*
X01147Y-01334D01*
Y-01345D01*
X01139Y-01352D01*
X01128Y-01356D01*
X01114D01*
X01102Y-01352D01*
X01095Y-01345D01*
X01173Y-01278D02*
Y-01356D01*
X0125Y-01278D02*
X01198Y-01356D01*
Y-01278D02*
X0125D01*
X01198Y-01356D02*
X0125D01*
X01276Y-01278D02*
Y-01356D01*
Y-01278D02*
X01324D01*
X01276Y-01315D02*
X01305D01*
X01276Y-01356D02*
X01324D01*
X0135Y-01304D02*
X01346Y-01308D01*
X0135Y-01312D01*
X01353Y-01308D01*
X0135Y-01304D01*
Y-01348D02*
X01346Y-01352D01*
X0135Y-01356D01*
X01353Y-01352D01*
X0135Y-01348D01*
X0139Y-01293D02*
X01398Y-01289D01*
X01409Y-01278D01*
Y-01356D01*
X01472Y-01278D02*
X01461Y-01282D01*
X01457Y-01289D01*
Y-01297D01*
X01461Y-01304D01*
X01468Y-01308D01*
X01483Y-01312D01*
X01494Y-01315D01*
X01501Y-01323D01*
X01505Y-0133D01*
Y-01341D01*
X01501Y-01348D01*
X01497Y-01352D01*
X01486Y-01356D01*
X01472D01*
X01461Y-01352D01*
X01457Y-01348D01*
X01453Y-01341D01*
Y-0133D01*
X01457Y-01323D01*
X01464Y-01315D01*
X01475Y-01312D01*
X0149Y-01308D01*
X01497Y-01304D01*
X01501Y-01297D01*
Y-01289D01*
X01497Y-01282D01*
X01486Y-01278D01*
X01472D01*
X01549D02*
X01538Y-01282D01*
X01531Y-01293D01*
X01527Y-01312D01*
Y-01323D01*
X01531Y-01341D01*
X01538Y-01352D01*
X01549Y-01356D01*
X01556D01*
X01568Y-01352D01*
X01575Y-01341D01*
X01579Y-01323D01*
Y-01312D01*
X01575Y-01293D01*
X01568Y-01282D01*
X01556Y-01278D01*
X01549D01*
X01619Y-013D02*
Y-01345D01*
X01601Y-01312D02*
X01638Y-01334D01*
Y-01312D02*
X01601Y-01334D01*
X01664Y-01297D02*
Y-01293D01*
X01667Y-01286D01*
X01671Y-01282D01*
X01678Y-01278D01*
X01693D01*
X017Y-01282D01*
X01704Y-01286D01*
X01708Y-01293D01*
Y-013D01*
X01704Y-01308D01*
X01697Y-01319D01*
X0166Y-01356D01*
X01711D01*
X01756Y-01278D02*
X01745Y-01282D01*
X01737Y-01293D01*
X01734Y-01312D01*
Y-01323D01*
X01737Y-01341D01*
X01745Y-01352D01*
X01756Y-01356D01*
X01763D01*
X01774Y-01352D01*
X01782Y-01341D01*
X01785Y-01323D01*
Y-01312D01*
X01782Y-01293D01*
X01774Y-01282D01*
X01763Y-01278D01*
X01756D01*
X01852D02*
X01815D01*
X01811Y-01312D01*
X01815Y-01308D01*
X01826Y-01304D01*
X01837D01*
X01848Y-01308D01*
X01855Y-01315D01*
X01859Y-01326D01*
Y-01334D01*
X01855Y-01345D01*
X01848Y-01352D01*
X01837Y-01356D01*
X01826D01*
X01815Y-01352D01*
X01811Y-01348D01*
X01807Y-01341D01*
X01885Y-01278D02*
Y-01356D01*
Y-01278D02*
X01914Y-01356D01*
X01944Y-01278D02*
X01914Y-01356D01*
X01944Y-01278D02*
Y-01356D01*
X01974Y-01278D02*
Y-01356D01*
Y-01278D02*
X02003Y-01356D01*
X02033Y-01278D02*
X02003Y-01356D01*
X02033Y-01278D02*
Y-01356D01*
X02136Y-01278D02*
Y-01356D01*
X0211Y-01278D02*
X02162D01*
X02184Y-01304D02*
X0218Y-01308D01*
X02184Y-01312D01*
X02188Y-01308D01*
X02184Y-01304D01*
Y-01348D02*
X0218Y-01352D01*
X02184Y-01356D01*
X02188Y-01352D01*
X02184Y-01348D01*
X02236Y-01278D02*
X02225Y-01282D01*
X02217Y-01293D01*
X02213Y-01312D01*
Y-01323D01*
X02217Y-01341D01*
X02225Y-01352D01*
X02236Y-01356D01*
X02243D01*
X02254Y-01352D01*
X02261Y-01341D01*
X02265Y-01323D01*
Y-01312D01*
X02261Y-01293D01*
X02254Y-01282D01*
X02243Y-01278D01*
X02236D01*
X02295Y-01348D02*
X02291Y-01352D01*
X02295Y-01356D01*
X02298Y-01352D01*
X02295Y-01348D01*
X02335Y-01293D02*
X02343Y-01289D01*
X02354Y-01278D01*
Y-01356D01*
X02402Y-01297D02*
Y-01293D01*
X02405Y-01286D01*
X02409Y-01282D01*
X02416Y-01278D01*
X02431D01*
X02439Y-01282D01*
X02442Y-01286D01*
X02446Y-01293D01*
Y-013D01*
X02442Y-01308D01*
X02435Y-01319D01*
X02398Y-01356D01*
X0245D01*
X02476Y-01278D02*
Y-01356D01*
Y-01278D02*
X02505Y-01356D01*
X02535Y-01278D02*
X02505Y-01356D01*
X02535Y-01278D02*
Y-01356D01*
X02564Y-01278D02*
Y-01356D01*
Y-01278D02*
X02594Y-01356D01*
X02623Y-01278D02*
X02594Y-01356D01*
X02623Y-01278D02*
Y-01356D01*
X01099Y-01446D02*
Y-01524D01*
Y-01446D02*
X01125D01*
X01136Y-0145D01*
X01143Y-01457D01*
X01147Y-01465D01*
X0115Y-01476D01*
Y-01494D01*
X01147Y-01505D01*
X01143Y-01513D01*
X01136Y-0152D01*
X01125Y-01524D01*
X01099D01*
X01195Y-01446D02*
X01165Y-01524D01*
X01195Y-01446D02*
X01224Y-01524D01*
X01176Y-01498D02*
X01213D01*
X01258Y-01446D02*
Y-01524D01*
X01232Y-01446D02*
X01283D01*
X01302D02*
Y-01524D01*
Y-01446D02*
X0135D01*
X01302Y-01483D02*
X01331D01*
X01302Y-01524D02*
X0135D01*
X01376Y-01472D02*
X01372Y-01476D01*
X01376Y-0148D01*
X01379Y-01476D01*
X01376Y-01472D01*
Y-01517D02*
X01372Y-0152D01*
X01376Y-01524D01*
X01379Y-0152D01*
X01376Y-01517D01*
X01409Y-01465D02*
Y-01461D01*
X01413Y-01454D01*
X01416Y-0145D01*
X01424Y-01446D01*
X01438D01*
X01446Y-0145D01*
X01449Y-01454D01*
X01453Y-01461D01*
Y-01469D01*
X01449Y-01476D01*
X01442Y-01487D01*
X01405Y-01524D01*
X01457D01*
X01501Y-01446D02*
X0149Y-0145D01*
X01483Y-01461D01*
X01479Y-0148D01*
Y-01491D01*
X01483Y-01509D01*
X0149Y-0152D01*
X01501Y-01524D01*
X01508D01*
X0152Y-0152D01*
X01527Y-01509D01*
X01531Y-01491D01*
Y-0148D01*
X01527Y-01461D01*
X0152Y-0145D01*
X01508Y-01446D01*
X01501D01*
X01556Y-01465D02*
Y-01461D01*
X0156Y-01454D01*
X01564Y-0145D01*
X01571Y-01446D01*
X01586D01*
X01593Y-0145D01*
X01597Y-01454D01*
X01601Y-01461D01*
Y-01469D01*
X01597Y-01476D01*
X0159Y-01487D01*
X01553Y-01524D01*
X01604D01*
X01638Y-01461D02*
X01645Y-01457D01*
X01656Y-01446D01*
Y-01524D01*
X01704Y-01491D02*
X01771D01*
X01819Y-01446D02*
X01807Y-0145D01*
X018Y-01461D01*
X01796Y-0148D01*
Y-01491D01*
X018Y-01509D01*
X01807Y-0152D01*
X01819Y-01524D01*
X01826D01*
X01837Y-0152D01*
X01844Y-01509D01*
X01848Y-01491D01*
Y-0148D01*
X01844Y-01461D01*
X01837Y-0145D01*
X01826Y-01446D01*
X01819D01*
X01878D02*
X01918D01*
X01896Y-01476D01*
X01907D01*
X01914Y-0148D01*
X01918Y-01483D01*
X01922Y-01494D01*
Y-01502D01*
X01918Y-01513D01*
X01911Y-0152D01*
X019Y-01524D01*
X01889D01*
X01878Y-0152D01*
X01874Y-01517D01*
X0187Y-01509D01*
X01948Y-01491D02*
X02014D01*
X02047Y-01446D02*
X02088D01*
X02066Y-01476D01*
X02077D01*
X02084Y-0148D01*
X02088Y-01483D01*
X02092Y-01494D01*
Y-01502D01*
X02088Y-01513D01*
X02081Y-0152D01*
X0207Y-01524D01*
X02058D01*
X02047Y-0152D01*
X02044Y-01517D01*
X0204Y-01509D01*
X02136Y-01446D02*
X02125Y-0145D01*
X02118Y-01461D01*
X02114Y-0148D01*
Y-01491D01*
X02118Y-01509D01*
X02125Y-0152D01*
X02136Y-01524D01*
X02143D01*
X02154Y-0152D01*
X02162Y-01509D01*
X02165Y-01491D01*
Y-0148D01*
X02162Y-01461D01*
X02154Y-0145D01*
X02143Y-01446D01*
X02136D01*
X0225D02*
Y-01524D01*
Y-01446D02*
X02284D01*
X02295Y-0145D01*
X02298Y-01454D01*
X02302Y-01461D01*
Y-01472D01*
X02298Y-0148D01*
X02295Y-01483D01*
X02284Y-01487D01*
X0225D01*
X02365Y-0145D02*
X02324Y-01528D01*
X02461Y-01465D02*
X02457Y-01457D01*
X0245Y-0145D01*
X02442Y-01446D01*
X02428D01*
X0242Y-0145D01*
X02413Y-01457D01*
X02409Y-01465D01*
X02405Y-01476D01*
Y-01494D01*
X02409Y-01505D01*
X02413Y-01513D01*
X0242Y-0152D01*
X02428Y-01524D01*
X02442D01*
X0245Y-0152D01*
X02457Y-01513D01*
X02461Y-01505D01*
X0249Y-01472D02*
X02487Y-01476D01*
X0249Y-0148D01*
X02494Y-01476D01*
X0249Y-01472D01*
Y-01517D02*
X02487Y-0152D01*
X0249Y-01524D01*
X02494Y-0152D01*
X0249Y-01517D01*
X02524Y-01465D02*
Y-01461D01*
X02527Y-01454D01*
X02531Y-0145D01*
X02538Y-01446D01*
X02553D01*
X0256Y-0145D01*
X02564Y-01454D01*
X02568Y-01461D01*
Y-01469D01*
X02564Y-01476D01*
X02557Y-01487D01*
X0252Y-01524D01*
X02571D01*
X02605Y-01461D02*
X02612Y-01457D01*
X02623Y-01446D01*
Y-01524D01*
X0269Y-01446D02*
X02679Y-0145D01*
X02671Y-01461D01*
X02667Y-0148D01*
Y-01491D01*
X02671Y-01509D01*
X02679Y-0152D01*
X0269Y-01524D01*
X02697D01*
X02708Y-0152D01*
X02715Y-01509D01*
X02719Y-01491D01*
Y-0148D01*
X02715Y-01461D01*
X02708Y-0145D01*
X02697Y-01446D01*
X0269D01*
X02749D02*
X02789D01*
X02767Y-01476D01*
X02778D01*
X02786Y-0148D01*
X02789Y-01483D01*
X02793Y-01494D01*
Y-01502D01*
X02789Y-01513D01*
X02782Y-0152D01*
X02771Y-01524D01*
X0276D01*
X02749Y-0152D01*
X02745Y-01517D01*
X02741Y-01509D01*
X02822Y-01446D02*
X02863D01*
X02841Y-01476D01*
X02852D01*
X02859Y-0148D01*
X02863Y-01483D01*
X02867Y-01494D01*
Y-01502D01*
X02863Y-01513D01*
X02856Y-0152D01*
X02845Y-01524D01*
X02834D01*
X02822Y-0152D01*
X02819Y-01517D01*
X02815Y-01509D01*
X02911Y-01446D02*
X029Y-0145D01*
X02893Y-01461D01*
X02889Y-0148D01*
Y-01491D01*
X02893Y-01509D01*
X029Y-0152D01*
X02911Y-01524D01*
X02918D01*
X0293Y-0152D01*
X02937Y-01509D01*
X02941Y-01491D01*
Y-0148D01*
X02937Y-01461D01*
X0293Y-0145D01*
X02918Y-01446D01*
X02911D01*
M02*
